*
*
G04 PADS VX.1.2 Build Number: 698008 generated Gerber (RS-274-X) file*
G04 PC Version=2.1*
*
%IN "opqbox2.pcb"*%
*
%MOIN*%
*
%FSLAX35Y35*%
*
*
*
*
G04 PC Standard Apertures*
*
*
G04 Thermal Relief Aperture macro.*
%AMTER*
1,1,$1,0,0*
1,0,$1-$2,0,0*
21,0,$3,$4,0,0,45*
21,0,$3,$4,0,0,135*
%
*
*
G04 Annular Aperture macro.*
%AMANN*
1,1,$1,0,0*
1,0,$2,0,0*
%
*
*
G04 Odd Aperture macro.*
%AMODD*
1,1,$1,0,0*
1,0,$1-0.005,0,0*
%
*
*
G04 PC Custom Aperture Macros*
*
*
*
*
*
*
G04 PC Aperture Table*
*
%ADD010C,0.001*%
%ADD013C,0.01*%
%ADD028C,0.06*%
%ADD050C,0.04331*%
%ADD103C,0.015*%
%ADD105C,0.07874*%
%ADD151C,0.03543*%
*
*
*
*
G04 PC Circuitry*
G04 Layer Name opqbox2.pcb - circuitry*
%LPD*%
*
*
G04 PC Custom Flashes*
G04 Layer Name opqbox2.pcb - flashes*
%LPD*%
*
*
G04 PC Circuitry*
G04 Layer Name opqbox2.pcb - circuitry*
%LPD*%
*
G54D10*
G54D13*
G01X475116Y129528D02*
G75*
G03X475116I-10943J0D01*
G01X456620Y190551D02*
G03X456620I-4100J0D01*
G01Y200551D02*
G03X456620I-4100J0D01*
G01Y210551D02*
G03X456620I-4100J0D01*
G01Y220551D02*
G03X456620I-4100J0D01*
G01Y230551D02*
G03X456620I-4100J0D01*
G01Y240551D02*
G03X456620I-4100J0D01*
G01Y250551D02*
G03X456620I-4100J0D01*
G01Y260551D02*
G03X456620I-4100J0D01*
G01Y270551D02*
G03X456620I-4100J0D01*
G01Y280551D02*
G03X456620I-4100J0D01*
G01Y290551D02*
G03X456620I-4100J0D01*
G01Y300551D02*
G03X456620I-4100J0D01*
G01Y310551D02*
G03X456620I-4100J0D01*
G01Y320551D02*
G03X456620I-4100J0D01*
G01Y330551D02*
G03X456620I-4100J0D01*
G01Y340551D02*
G03X456620I-4100J0D01*
G01Y350551D02*
G03X456620I-4100J0D01*
G01Y360551D02*
G03X456620I-4100J0D01*
G01Y370551D02*
G03X456620I-4100J0D01*
G01Y380551D02*
G03X456620I-4100J0D01*
G01X475116Y464173D02*
G03X475116I-10943J0D01*
G01X446620Y190551D02*
G03X446620I-4100J0D01*
G01Y200551D02*
G03X446620I-4100J0D01*
G01Y210551D02*
G03X446620I-4100J0D01*
G01Y220551D02*
G03X446620I-4100J0D01*
G01Y230551D02*
G03X446620I-4100J0D01*
G01Y240551D02*
G03X446620I-4100J0D01*
G01Y250551D02*
G03X446620I-4100J0D01*
G01Y260551D02*
G03X446620I-4100J0D01*
G01Y270551D02*
G03X446620I-4100J0D01*
G01Y280551D02*
G03X446620I-4100J0D01*
G01Y290551D02*
G03X446620I-4100J0D01*
G01Y300551D02*
G03X446620I-4100J0D01*
G01Y310551D02*
G03X446620I-4100J0D01*
G01Y320551D02*
G03X446620I-4100J0D01*
G01Y330551D02*
G03X446620I-4100J0D01*
G01Y340551D02*
G03X446620I-4100J0D01*
G01Y350551D02*
G03X446620I-4100J0D01*
G01Y360551D02*
G03X446620I-4100J0D01*
G01Y370551D02*
G03X446620I-4100J0D01*
G01Y380551D02*
G03X446620I-4100J0D01*
G01X356021Y193701D02*
G03X356021I-2871J0D01*
G01X359958Y218898D02*
G03X359958I-2871J0D01*
G01X359565Y237008D02*
G03X359565I-2872J0D01*
G01X348541Y180315D02*
G03X348541I-3265J0D01*
G01Y200394D02*
G03X348541I-2872J0D01*
G01X353265Y208268D02*
G03X353265I-2871J0D01*
G01X351691Y240945D02*
G03X351691I-2872J0D01*
G01X344210Y219291D02*
G03X344210I-2871J0D01*
G01Y227165D02*
G03X344210I-2871J0D01*
G01X333580Y200787D02*
G03X333580I-2871J0D01*
G01X337911Y208661D02*
G03X337911I-2872J0D01*
G01X343423Y238583D02*
G03X343423I-2872J0D01*
G01X333187Y217717D02*
G03X333187I-2872J0D01*
G01X327281Y179921D02*
G03X327281I-2872J0D01*
G01X325313Y204331D02*
G03X325313I-2872J0D01*
G01X318620Y108268D02*
G03X318620I-2872J0D01*
G01X319013Y139764D02*
G03X319013I-2871J0D01*
G01X321376Y215748D02*
G03X321376I-2872J0D01*
G01X326494Y225591D02*
G03X326494I-2872J0D01*
G01X308777Y108268D02*
G03X308777I-2871J0D01*
G01X309171Y142520D02*
G03X309171I-2872J0D01*
G01X329250Y261811D02*
G03X329250I-2872J0D01*
G01X324919Y271260D02*
G03X324919I-3265J0D01*
G01X306021Y212205D02*
G03X306021I-2871J0D01*
G01X307990Y248031D02*
G03X307990I-2872J0D01*
G01X298935Y108268D02*
G03X298935I-2872J0D01*
G01Y142520D02*
G03X298935I-2872J0D01*
G01X300116Y212992D02*
G03X300116I-2872J0D01*
G01X302872Y251575D02*
G03X302872I-2872J0D01*
G01X306809Y272047D02*
G03X306809I-3266J0D01*
G01X292242Y250000D02*
G03X292242I-2872J0D01*
G01X283974Y237008D02*
G03X283974I-2872J0D01*
G01X279727Y247336D02*
G03X279727I-2871J0D01*
G01X284761Y278740D02*
G03X284761I-2871J0D01*
G01X273344Y255906D02*
G03X273344I-2872J0D01*
G01Y271654D02*
G03X273344I-2872J0D01*
G01X264809Y116535D02*
G03X264809I-4100J0D01*
G01X265675Y193425D02*
G03X265675I-4100J0D01*
G01Y203425D02*
G03X265675I-4100J0D01*
G01Y213425D02*
G03X265675I-4100J0D01*
G01Y223425D02*
G03X265675I-4100J0D01*
G01X254809Y116535D02*
G03X254809I-4100J0D01*
G01X255675Y193425D02*
G03X255675I-4100J0D01*
G01Y203425D02*
G03X255675I-4100J0D01*
G01Y213425D02*
G03X255675I-4100J0D01*
G01Y223425D02*
G03X255675I-4100J0D01*
G01X259958Y256299D02*
G03X259958I-2871J0D01*
G01Y271260D02*
G03X259958I-2871J0D01*
G01X256021Y276772D02*
G03X256021I-2871J0D01*
G01X244809Y116535D02*
G03X244809I-4100J0D01*
G01X248872Y229000D02*
G03X248872I-2872J0D01*
G01X246966Y279528D02*
G03X246966I-2872J0D01*
G01X234809Y116535D02*
G03X234809I-4100J0D01*
G01X204053Y155906D02*
G03X204053I-3266J0D01*
G01X195480Y141289D02*
G03X195480I-3266J0D01*
G01X194998Y164567D02*
G03X194998I-2872J0D01*
G01X163895Y196850D02*
G03X163895I-5037J0D01*
G01X140470Y129528D02*
G03X140470I-10942J0D01*
G01X143423Y156693D02*
G03X143423I-3266J0D01*
G01X132399Y196850D02*
G03X132399I-5037J0D01*
G01X492601Y101100D02*
Y492601D01*
X422547*
Y306880*
X401388Y285720*
X237609*
X213098Y261210*
Y207374*
X101100*
Y101100*
X492601*
X475116Y129528D02*
G03X475116I-10943J0D01*
G01X456620Y190551D02*
G03X456620I-4100J0D01*
G01Y200551D02*
G03X456620I-4100J0D01*
G01Y210551D02*
G03X456620I-4100J0D01*
G01Y220551D02*
G03X456620I-4100J0D01*
G01Y230551D02*
G03X456620I-4100J0D01*
G01Y240551D02*
G03X456620I-4100J0D01*
G01Y250551D02*
G03X456620I-4100J0D01*
G01Y260551D02*
G03X456620I-4100J0D01*
G01Y270551D02*
G03X456620I-4100J0D01*
G01Y280551D02*
G03X456620I-4100J0D01*
G01Y290551D02*
G03X456620I-4100J0D01*
G01Y300551D02*
G03X456620I-4100J0D01*
G01Y310551D02*
G03X456620I-4100J0D01*
G01Y320551D02*
G03X456620I-4100J0D01*
G01Y330551D02*
G03X456620I-4100J0D01*
G01Y340551D02*
G03X456620I-4100J0D01*
G01Y350551D02*
G03X456620I-4100J0D01*
G01Y360551D02*
G03X456620I-4100J0D01*
G01Y370551D02*
G03X456620I-4100J0D01*
G01Y380551D02*
G03X456620I-4100J0D01*
G01X475116Y464173D02*
G03X475116I-10943J0D01*
G01X446620Y190551D02*
G03X446620I-4100J0D01*
G01Y200551D02*
G03X446620I-4100J0D01*
G01Y210551D02*
G03X446620I-4100J0D01*
G01Y220551D02*
G03X446620I-4100J0D01*
G01Y230551D02*
G03X446620I-4100J0D01*
G01Y240551D02*
G03X446620I-4100J0D01*
G01Y250551D02*
G03X446620I-4100J0D01*
G01Y260551D02*
G03X446620I-4100J0D01*
G01Y270551D02*
G03X446620I-4100J0D01*
G01Y280551D02*
G03X446620I-4100J0D01*
G01Y290551D02*
G03X446620I-4100J0D01*
G01Y300551D02*
G03X446620I-4100J0D01*
G01Y310551D02*
G03X446620I-4100J0D01*
G01Y320551D02*
G03X446620I-4100J0D01*
G01Y330551D02*
G03X446620I-4100J0D01*
G01Y340551D02*
G03X446620I-4100J0D01*
G01Y350551D02*
G03X446620I-4100J0D01*
G01Y360551D02*
G03X446620I-4100J0D01*
G01Y370551D02*
G03X446620I-4100J0D01*
G01Y380551D02*
G03X446620I-4100J0D01*
G01X356021Y193701D02*
G03X356021I-2871J0D01*
G01X359958Y218898D02*
G03X359958I-2871J0D01*
G01X359565Y237008D02*
G03X359565I-2872J0D01*
G01X348541Y180315D02*
G03X348541I-3265J0D01*
G01Y200394D02*
G03X348541I-2872J0D01*
G01X353265Y208268D02*
G03X353265I-2871J0D01*
G01X351691Y240945D02*
G03X351691I-2872J0D01*
G01X344210Y219291D02*
G03X344210I-2871J0D01*
G01Y227165D02*
G03X344210I-2871J0D01*
G01X333580Y200787D02*
G03X333580I-2871J0D01*
G01X337911Y208661D02*
G03X337911I-2872J0D01*
G01X343423Y238583D02*
G03X343423I-2872J0D01*
G01X333187Y217717D02*
G03X333187I-2872J0D01*
G01X327281Y179921D02*
G03X327281I-2872J0D01*
G01X331593Y229161D02*
G03X327856Y229501I-1672J2335D01*
X331593Y229161I1672J-2336*
G01X325313Y204331D02*
G03X325313I-2872J0D01*
G01X318620Y108268D02*
G03X318620I-2872J0D01*
G01X319013Y139764D02*
G03X319013I-2871J0D01*
G01X321376Y215748D02*
G03X321376I-2872J0D01*
G01X326494Y225591D02*
G03X326494I-2872J0D01*
G01X308777Y108268D02*
G03X308777I-2871J0D01*
G01X309171Y142520D02*
G03X309171I-2872J0D01*
G01X311751Y221032D02*
G03X312297Y226408I1241J2590D01*
G01X311295Y221305D02*
G03X311751Y221032I-1241J-2589D01*
G01X310144Y223985D02*
G03X311295Y221305I2848J-363D01*
G01X312297Y226408D02*
G03X310144Y223985I-2848J364D01*
G01X320724Y235368D02*
G03X321592Y237519I2870J92D01*
X320724Y235368I-2870J-93*
G01X322166Y245713D02*
G03X323109Y249169I2637J1137D01*
X322166Y245713I-2637J-1138*
G01X329250Y261811D02*
G03X329250I-2872J0D01*
G01X324919Y271260D02*
G03X324919I-3265J0D01*
G01X306021Y212205D02*
G03X306021I-2871J0D01*
G01X309389Y235367D02*
G03X310465Y238994I2609J1199D01*
X309389Y235367I-2610J-1199*
G01X307990Y248031D02*
G03X307990I-2872J0D01*
G01X298935Y108268D02*
G03X298935I-2872J0D01*
G01Y142520D02*
G03X298935I-2872J0D01*
G01X300116Y212992D02*
G03X300116I-2872J0D01*
G01X302872Y251575D02*
G03X302872I-2872J0D01*
G01X306809Y272047D02*
G03X306809I-3266J0D01*
G01X292242Y250000D02*
G03X292242I-2872J0D01*
G01X283974Y237008D02*
G03X283974I-2872J0D01*
G01X279727Y247336D02*
G03X279727I-2871J0D01*
G01X284761Y278740D02*
G03X284761I-2871J0D01*
G01X273344Y255906D02*
G03X273344I-2872J0D01*
G01Y271654D02*
G03X273344I-2872J0D01*
G01X264809Y116535D02*
G03X264809I-4100J0D01*
G01X265675Y193425D02*
G03X265675I-4100J0D01*
G01Y203425D02*
G03X265675I-4100J0D01*
G01Y213425D02*
G03X265675I-4100J0D01*
G01Y223425D02*
G03X265675I-4100J0D01*
G01X269693Y279913D02*
G03X267709Y281898I779J2764D01*
X269693Y279913I-780J-2764*
G01X254809Y116535D02*
G03X254809I-4100J0D01*
G01X255675Y193425D02*
G03X255675I-4100J0D01*
G01Y203425D02*
G03X255675I-4100J0D01*
G01Y213425D02*
G03X255675I-4100J0D01*
G01Y223425D02*
G03X255675I-4100J0D01*
G01X259958Y256299D02*
G03X259958I-2871J0D01*
G01Y271260D02*
G03X259958I-2871J0D01*
G01X256021Y276772D02*
G03X256021I-2871J0D01*
G01X244809Y116535D02*
G03X244809I-4100J0D01*
G01X248872Y229000D02*
G03X248872I-2872J0D01*
G01X246966Y279528D02*
G03X246966I-2872J0D01*
G01X234809Y116535D02*
G03X234809I-4100J0D01*
G01X204053Y155906D02*
G03X204053I-3266J0D01*
G01X195480Y141289D02*
G03X195480I-3266J0D01*
G01X194998Y164567D02*
G03X194998I-2872J0D01*
G01X163895Y196850D02*
G03X163895I-5037J0D01*
G01X140470Y129528D02*
G03X140470I-10942J0D01*
G01X143423Y156693D02*
G03X143423I-3266J0D01*
G01X132399Y196850D02*
G03X132399I-5037J0D01*
G01X422547Y492599D02*
X492601D01*
X422547Y491699D02*
X492601D01*
X422547Y490799D02*
X492601D01*
X422547Y489899D02*
X492601D01*
X422547Y488999D02*
X492601D01*
X422547Y488099D02*
X492601D01*
X422547Y487199D02*
X492601D01*
X422547Y486299D02*
X492601D01*
X422547Y485399D02*
X492601D01*
X422547Y484499D02*
X492601D01*
X422547Y483599D02*
X492601D01*
X422547Y482699D02*
X492601D01*
X422547Y481799D02*
X492601D01*
X422547Y480899D02*
X492601D01*
X422547Y479999D02*
X492601D01*
X422547Y479099D02*
X492601D01*
X422547Y478199D02*
X492601D01*
X422547Y477299D02*
X492601D01*
X422547Y476399D02*
X492601D01*
X422547Y475499D02*
X492601D01*
X467497Y474599D02*
X492601D01*
X469559Y473699D02*
X492601D01*
X470907Y472799D02*
X492601D01*
X471923Y471899D02*
X492601D01*
X472726Y470999D02*
X492601D01*
X473373Y470099D02*
X492601D01*
X473894Y469199D02*
X492601D01*
X474308Y468299D02*
X492601D01*
X474630Y467399D02*
X492601D01*
X474866Y466499D02*
X492601D01*
X475023Y465599D02*
X492601D01*
X475103Y464699D02*
X492601D01*
X475109Y463799D02*
X492601D01*
X475041Y462899D02*
X492601D01*
X474898Y461999D02*
X492601D01*
X474675Y461099D02*
X492601D01*
X474368Y460199D02*
X492601D01*
X473970Y459299D02*
X492601D01*
X473468Y458399D02*
X492601D01*
X472844Y457499D02*
X492601D01*
X472070Y456599D02*
X492601D01*
X471096Y455699D02*
X492601D01*
X469817Y454799D02*
X492601D01*
X467938Y453899D02*
X492601D01*
X422547Y452999D02*
X492601D01*
X422547Y452099D02*
X492601D01*
X422547Y451199D02*
X492601D01*
X422547Y450299D02*
X492601D01*
X422547Y449399D02*
X492601D01*
X422547Y448499D02*
X492601D01*
X422547Y447599D02*
X492601D01*
X422547Y446699D02*
X492601D01*
X422547Y445799D02*
X492601D01*
X422547Y444899D02*
X492601D01*
X422547Y443999D02*
X492601D01*
X422547Y443099D02*
X492601D01*
X422547Y442199D02*
X492601D01*
X422547Y441299D02*
X492601D01*
X422547Y440399D02*
X492601D01*
X422547Y439499D02*
X492601D01*
X422547Y438599D02*
X492601D01*
X422547Y437699D02*
X492601D01*
X422547Y436799D02*
X492601D01*
X422547Y435899D02*
X492601D01*
X422547Y434999D02*
X492601D01*
X422547Y434099D02*
X492601D01*
X422547Y433199D02*
X492601D01*
X422547Y432299D02*
X492601D01*
X422547Y431399D02*
X492601D01*
X422547Y430499D02*
X492601D01*
X422547Y429599D02*
X492601D01*
X422547Y428699D02*
X492601D01*
X422547Y427799D02*
X492601D01*
X422547Y426899D02*
X492601D01*
X422547Y425999D02*
X492601D01*
X422547Y425099D02*
X492601D01*
X422547Y424199D02*
X492601D01*
X422547Y423299D02*
X492601D01*
X422547Y422399D02*
X492601D01*
X422547Y421499D02*
X492601D01*
X422547Y420599D02*
X492601D01*
X422547Y419699D02*
X492601D01*
X422547Y418799D02*
X492601D01*
X422547Y417899D02*
X492601D01*
X422547Y416999D02*
X492601D01*
X422547Y416099D02*
X492601D01*
X422547Y415199D02*
X492601D01*
X422547Y414299D02*
X492601D01*
X422547Y413399D02*
X492601D01*
X422547Y412499D02*
X492601D01*
X422547Y411599D02*
X492601D01*
X422547Y410699D02*
X492601D01*
X422547Y409799D02*
X492601D01*
X422547Y408899D02*
X492601D01*
X422547Y407999D02*
X492601D01*
X422547Y407099D02*
X492601D01*
X422547Y406199D02*
X492601D01*
X422547Y405299D02*
X492601D01*
X422547Y404399D02*
X492601D01*
X422547Y403499D02*
X492601D01*
X422547Y402599D02*
X492601D01*
X422547Y401699D02*
X492601D01*
X422547Y400799D02*
X492601D01*
X422547Y399899D02*
X492601D01*
X422547Y398999D02*
X492601D01*
X422547Y398099D02*
X492601D01*
X422547Y397199D02*
X492601D01*
X422547Y396299D02*
X492601D01*
X422547Y395399D02*
X492601D01*
X422547Y394499D02*
X492601D01*
X422547Y393599D02*
X492601D01*
X422547Y392699D02*
X492601D01*
X422547Y391799D02*
X492601D01*
X422547Y390899D02*
X492601D01*
X422547Y389999D02*
X492601D01*
X422547Y389099D02*
X492601D01*
X422547Y388199D02*
X492601D01*
X422547Y387299D02*
X492601D01*
X422547Y386399D02*
X492601D01*
X422547Y385499D02*
X492601D01*
X453174Y384599D02*
X492601D01*
X455147Y383699D02*
X492601D01*
X455949Y382799D02*
X492601D01*
X456392Y381899D02*
X492601D01*
X456595Y380999D02*
X492601D01*
X456595Y380099D02*
X492601D01*
X456390Y379199D02*
X492601D01*
X455946Y378299D02*
X492601D01*
X455141Y377399D02*
X492601D01*
X453142Y376499D02*
X492601D01*
X422547Y375599D02*
X492601D01*
X422547Y374699D02*
X492601D01*
X455022Y373799D02*
X492601D01*
X455881Y372899D02*
X492601D01*
X456356Y371999D02*
X492601D01*
X456583Y371099D02*
X492601D01*
X456605Y370199D02*
X492601D01*
X456424Y369299D02*
X492601D01*
X456009Y368399D02*
X492601D01*
X455257Y367499D02*
X492601D01*
X453610Y366599D02*
X492601D01*
X422547Y365699D02*
X492601D01*
X422547Y364799D02*
X492601D01*
X454887Y363899D02*
X492601D01*
X455809Y362999D02*
X492601D01*
X456316Y362099D02*
X492601D01*
X456568Y361199D02*
X492601D01*
X456612Y360299D02*
X492601D01*
X456454Y359399D02*
X492601D01*
X456069Y358499D02*
X492601D01*
X455365Y357599D02*
X492601D01*
X453923Y356699D02*
X492601D01*
X422547Y355799D02*
X492601D01*
X422547Y354899D02*
X492601D01*
X454739Y353999D02*
X492601D01*
X455732Y353099D02*
X492601D01*
X456274Y352199D02*
X492601D01*
X456551Y351299D02*
X492601D01*
X456617Y350399D02*
X492601D01*
X456482Y349499D02*
X492601D01*
X456125Y348599D02*
X492601D01*
X455465Y347699D02*
X492601D01*
X454172Y346799D02*
X492601D01*
X422547Y345899D02*
X492601D01*
X422547Y344999D02*
X492601D01*
X454575Y344099D02*
X492601D01*
X455650Y343199D02*
X492601D01*
X456229Y342299D02*
X492601D01*
X456531Y341399D02*
X492601D01*
X456619Y340499D02*
X492601D01*
X456508Y339599D02*
X492601D01*
X456177Y338699D02*
X492601D01*
X455558Y337799D02*
X492601D01*
X454382Y336899D02*
X492601D01*
X422547Y335999D02*
X492601D01*
X422547Y335099D02*
X492601D01*
X454392Y334199D02*
X492601D01*
X455563Y333299D02*
X492601D01*
X456180Y332399D02*
X492601D01*
X456509Y331499D02*
X492601D01*
X456619Y330599D02*
X492601D01*
X456530Y329699D02*
X492601D01*
X456226Y328799D02*
X492601D01*
X455646Y327899D02*
X492601D01*
X454567Y326999D02*
X492601D01*
X422547Y326099D02*
X492601D01*
X422547Y325199D02*
X492601D01*
X454183Y324299D02*
X492601D01*
X455470Y323399D02*
X492601D01*
X456128Y322499D02*
X492601D01*
X456484Y321599D02*
X492601D01*
X456617Y320699D02*
X492601D01*
X456550Y319799D02*
X492601D01*
X456272Y318899D02*
X492601D01*
X455728Y317999D02*
X492601D01*
X454731Y317099D02*
X492601D01*
X422547Y316199D02*
X492601D01*
X422547Y315299D02*
X492601D01*
X453936Y314399D02*
X492601D01*
X455370Y313499D02*
X492601D01*
X456072Y312599D02*
X492601D01*
X456456Y311699D02*
X492601D01*
X456612Y310799D02*
X492601D01*
X456567Y309899D02*
X492601D01*
X456314Y308999D02*
X492601D01*
X455805Y308099D02*
X492601D01*
X454880Y307199D02*
X492601D01*
X421966Y306299D02*
X492601D01*
X421066Y305399D02*
X492601D01*
X453627Y304499D02*
X492601D01*
X455262Y303599D02*
X492601D01*
X456012Y302699D02*
X492601D01*
X456425Y301799D02*
X492601D01*
X456605Y300899D02*
X492601D01*
X456582Y299999D02*
X492601D01*
X456354Y299099D02*
X492601D01*
X455878Y298199D02*
X492601D01*
X455016Y297299D02*
X492601D01*
X412066Y296399D02*
X492601D01*
X411166Y295499D02*
X492601D01*
X453174Y294599D02*
X492601D01*
X455147Y293699D02*
X492601D01*
X455949Y292799D02*
X492601D01*
X456392Y291899D02*
X492601D01*
X456595Y290999D02*
X492601D01*
X456595Y290099D02*
X492601D01*
X456390Y289199D02*
X492601D01*
X455946Y288299D02*
X492601D01*
X455141Y287399D02*
X492601D01*
X453142Y286499D02*
X492601D01*
X237487Y285599D02*
X492601D01*
X272512Y284699D02*
X492601D01*
X455022Y283799D02*
X492601D01*
X455881Y282899D02*
X492601D01*
X456356Y281999D02*
X492601D01*
X456583Y281099D02*
X492601D01*
X456605Y280199D02*
X492601D01*
X456424Y279299D02*
X492601D01*
X456009Y278399D02*
X492601D01*
X455257Y277499D02*
X492601D01*
X453610Y276599D02*
X492601D01*
X255813Y275699D02*
X492601D01*
X305302Y274799D02*
X492601D01*
X454887Y273899D02*
X492601D01*
X455809Y272999D02*
X492601D01*
X456316Y272099D02*
X492601D01*
X456568Y271199D02*
X492601D01*
X456612Y270299D02*
X492601D01*
X456454Y269399D02*
X492601D01*
X456069Y268499D02*
X492601D01*
X455365Y267599D02*
X492601D01*
X453923Y266699D02*
X492601D01*
X217687Y265799D02*
X492601D01*
X216787Y264899D02*
X492601D01*
X454739Y263999D02*
X492601D01*
X455732Y263099D02*
X492601D01*
X456274Y262199D02*
X492601D01*
X456551Y261299D02*
X492601D01*
X456617Y260399D02*
X492601D01*
X456482Y259499D02*
X492601D01*
X456125Y258599D02*
X492601D01*
X455465Y257699D02*
X492601D01*
X454172Y256799D02*
X492601D01*
X273344Y255899D02*
X492601D01*
X273197Y254999D02*
X492601D01*
X454575Y254099D02*
X492601D01*
X455650Y253199D02*
X492601D01*
X456229Y252299D02*
X492601D01*
X456531Y251399D02*
X492601D01*
X456619Y250499D02*
X492601D01*
X456508Y249599D02*
X492601D01*
X456177Y248699D02*
X492601D01*
X455558Y247799D02*
X492601D01*
X454382Y246899D02*
X492601D01*
X327546Y245999D02*
X492601D01*
X327079Y245099D02*
X492601D01*
X454392Y244199D02*
X492601D01*
X455563Y243299D02*
X492601D01*
X456180Y242399D02*
X492601D01*
X456509Y241499D02*
X492601D01*
X456619Y240599D02*
X492601D01*
X456530Y239699D02*
X492601D01*
X456226Y238799D02*
X492601D01*
X455646Y237899D02*
X492601D01*
X454567Y236999D02*
X492601D01*
X359417Y236099D02*
X492601D01*
X358923Y235199D02*
X492601D01*
X454183Y234299D02*
X492601D01*
X455470Y233399D02*
X492601D01*
X456128Y232499D02*
X492601D01*
X456484Y231599D02*
X492601D01*
X456617Y230699D02*
X492601D01*
X456550Y229799D02*
X492601D01*
X456272Y228899D02*
X492601D01*
X455728Y227999D02*
X492601D01*
X454731Y227099D02*
X492601D01*
X344043Y226199D02*
X492601D01*
X343521Y225299D02*
X492601D01*
X453936Y224399D02*
X492601D01*
X455370Y223499D02*
X492601D01*
X456072Y222599D02*
X492601D01*
X456456Y221699D02*
X492601D01*
X456612Y220799D02*
X492601D01*
X456567Y219899D02*
X492601D01*
X456314Y218999D02*
X492601D01*
X455805Y218099D02*
X492601D01*
X454880Y217199D02*
X492601D01*
X358308Y216299D02*
X492601D01*
X332010Y215399D02*
X492601D01*
X453627Y214499D02*
X492601D01*
X455262Y213599D02*
X492601D01*
X456012Y212699D02*
X492601D01*
X456425Y211799D02*
X492601D01*
X456605Y210899D02*
X492601D01*
X456582Y209999D02*
X492601D01*
X456354Y209099D02*
X492601D01*
X455878Y208199D02*
X492601D01*
X455016Y207299D02*
X492601D01*
X352574Y206399D02*
X492601D01*
X351155Y205499D02*
X492601D01*
X453174Y204599D02*
X492601D01*
X455147Y203699D02*
X492601D01*
X455949Y202799D02*
X492601D01*
X456392Y201899D02*
X492601D01*
X456595Y200999D02*
X492601D01*
X456595Y200099D02*
X492601D01*
X456390Y199199D02*
X492601D01*
X455946Y198299D02*
X492601D01*
X455141Y197399D02*
X492601D01*
X453142Y196499D02*
X492601D01*
X355305Y195599D02*
X492601D01*
X355842Y194699D02*
X492601D01*
X455022Y193799D02*
X492601D01*
X455881Y192899D02*
X492601D01*
X456356Y191999D02*
X492601D01*
X456583Y191099D02*
X492601D01*
X456605Y190199D02*
X492601D01*
X456424Y189299D02*
X492601D01*
X456009Y188399D02*
X492601D01*
X455257Y187499D02*
X492601D01*
X453610Y186599D02*
X492601D01*
X101100Y185699D02*
X492601D01*
X101100Y184799D02*
X492601D01*
X101100Y183899D02*
X492601D01*
X347136Y182999D02*
X492601D01*
X348011Y182099D02*
X492601D01*
X348419Y181199D02*
X492601D01*
X348541Y180299D02*
X492601D01*
X348410Y179399D02*
X492601D01*
X347989Y178499D02*
X492601D01*
X347088Y177599D02*
X492601D01*
X101100Y176699D02*
X492601D01*
X101100Y175799D02*
X492601D01*
X101100Y174899D02*
X492601D01*
X101100Y173999D02*
X492601D01*
X101100Y173099D02*
X492601D01*
X101100Y172199D02*
X492601D01*
X101100Y171299D02*
X492601D01*
X101100Y170399D02*
X492601D01*
X101100Y169499D02*
X492601D01*
X101100Y168599D02*
X492601D01*
X101100Y167699D02*
X492601D01*
X193933Y166799D02*
X492601D01*
X194670Y165899D02*
X492601D01*
X194965Y164999D02*
X492601D01*
X194959Y164099D02*
X492601D01*
X194651Y163199D02*
X492601D01*
X193887Y162299D02*
X492601D01*
X101100Y161399D02*
X492601D01*
X101100Y160499D02*
X492601D01*
X141647Y159599D02*
X492601D01*
X202479Y158699D02*
X492601D01*
X203448Y157799D02*
X492601D01*
X203898Y156899D02*
X492601D01*
X204051Y155999D02*
X492601D01*
X203952Y155099D02*
X492601D01*
X203571Y154199D02*
X492601D01*
X202754Y153299D02*
X492601D01*
X101100Y152399D02*
X492601D01*
X101100Y151499D02*
X492601D01*
X101100Y150599D02*
X492601D01*
X101100Y149699D02*
X492601D01*
X101100Y148799D02*
X492601D01*
X101100Y147899D02*
X492601D01*
X101100Y146999D02*
X492601D01*
X101100Y146099D02*
X492601D01*
X307333Y145199D02*
X492601D01*
X308553Y144299D02*
X492601D01*
X309033Y143399D02*
X492601D01*
X317017Y142499D02*
X492601D01*
X318351Y141599D02*
X492601D01*
X318857Y140699D02*
X492601D01*
X467947Y139799D02*
X492601D01*
X469823Y138899D02*
X492601D01*
X471100Y137999D02*
X492601D01*
X472074Y137099D02*
X492601D01*
X472847Y136199D02*
X492601D01*
X473470Y135299D02*
X492601D01*
X473972Y134399D02*
X492601D01*
X474370Y133499D02*
X492601D01*
X474676Y132599D02*
X492601D01*
X474898Y131699D02*
X492601D01*
X475042Y130799D02*
X492601D01*
X475109Y129899D02*
X492601D01*
X475103Y128999D02*
X492601D01*
X475022Y128099D02*
X492601D01*
X474865Y127199D02*
X492601D01*
X474629Y126299D02*
X492601D01*
X474307Y125399D02*
X492601D01*
X473892Y124499D02*
X492601D01*
X473370Y123599D02*
X492601D01*
X472723Y122699D02*
X492601D01*
X471919Y121799D02*
X492601D01*
X470902Y120899D02*
X492601D01*
X469553Y119999D02*
X492601D01*
X467487Y119099D02*
X492601D01*
X264456Y118199D02*
X492601D01*
X264737Y117299D02*
X492601D01*
X264806Y116399D02*
X492601D01*
X264675Y115499D02*
X492601D01*
X264322Y114599D02*
X492601D01*
X263669Y113699D02*
X492601D01*
X262396Y112799D02*
X492601D01*
X101100Y111899D02*
X492601D01*
X316636Y110999D02*
X492601D01*
X317960Y110099D02*
X492601D01*
X318465Y109199D02*
X492601D01*
X318620Y108299D02*
X492601D01*
X318485Y107399D02*
X492601D01*
X318010Y106499D02*
X492601D01*
X316808Y105599D02*
X492601D01*
X101100Y104699D02*
X492601D01*
X101100Y103799D02*
X492601D01*
X101100Y102899D02*
X492601D01*
X101100Y101999D02*
X492601D01*
X263909Y119099D02*
X460860D01*
X422547Y474599D02*
X460849D01*
X422547Y453899D02*
X460408D01*
X319013Y139799D02*
X460399D01*
X262903Y119999D02*
X458794D01*
X422547Y473699D02*
X458788D01*
X422547Y454799D02*
X458529D01*
X318880Y138899D02*
X458523D01*
X136257Y120899D02*
X457444D01*
X422547Y472799D02*
X457440D01*
X422547Y455699D02*
X457251D01*
X318407Y137999D02*
X457247D01*
X137274Y121799D02*
X456427D01*
X422547Y471899D02*
X456424D01*
X422547Y456599D02*
X456276D01*
X317211Y137099D02*
X456273D01*
X138078Y122699D02*
X455623D01*
X422547Y470999D02*
X455620D01*
X422547Y457499D02*
X455502D01*
X138201Y136199D02*
X455499D01*
X138725Y123599D02*
X454976D01*
X422547Y470099D02*
X454974D01*
X422547Y458399D02*
X454878D01*
X138824Y135299D02*
X454876D01*
X139246Y124499D02*
X454455D01*
X422547Y469199D02*
X454453D01*
X422547Y459299D02*
X454376D01*
X139326Y134399D02*
X454375D01*
X139661Y125399D02*
X454040D01*
X422547Y468299D02*
X454038D01*
X422547Y460199D02*
X453978D01*
X139724Y133499D02*
X453977D01*
X139983Y126299D02*
X453718D01*
X422547Y467399D02*
X453717D01*
X422547Y461099D02*
X453671D01*
X140030Y132599D02*
X453671D01*
X140219Y127199D02*
X453481D01*
X422547Y466499D02*
X453481D01*
X422547Y461999D02*
X453449D01*
X140253Y131699D02*
X453448D01*
X140376Y128099D02*
X453324D01*
X422547Y465599D02*
X453324D01*
X422547Y462899D02*
X453305D01*
X140396Y130799D02*
X453305D01*
X140457Y128999D02*
X453243D01*
X422547Y464699D02*
X453243D01*
X422547Y463799D02*
X453237D01*
X140464Y129899D02*
X453237D01*
X443142Y376499D02*
X451897D01*
X443142Y286499D02*
X451897D01*
X443142Y196499D02*
X451897D01*
X443174Y384599D02*
X451866D01*
X443174Y294599D02*
X451866D01*
X443174Y204599D02*
X451866D01*
X443610Y366599D02*
X451430D01*
X443610Y276599D02*
X451430D01*
X443610Y186599D02*
X451430D01*
X443627Y304499D02*
X451412D01*
X443627Y214499D02*
X451412D01*
X443923Y356699D02*
X451117D01*
X443923Y266699D02*
X451117D01*
X443936Y314399D02*
X451103D01*
X443936Y224399D02*
X451103D01*
X444172Y346799D02*
X450868D01*
X444172Y256799D02*
X450868D01*
X444183Y324299D02*
X450856D01*
X444183Y234299D02*
X450856D01*
X444382Y336899D02*
X450657D01*
X444382Y246899D02*
X450657D01*
X444392Y334199D02*
X450647D01*
X444392Y244199D02*
X450647D01*
X444567Y326999D02*
X450473D01*
X444567Y236999D02*
X450473D01*
X444575Y344099D02*
X450464D01*
X444575Y254099D02*
X450464D01*
X444731Y317099D02*
X450308D01*
X444731Y227099D02*
X450308D01*
X444739Y353999D02*
X450301D01*
X444739Y263999D02*
X450301D01*
X444880Y307199D02*
X450159D01*
X444880Y217199D02*
X450159D01*
X444887Y363899D02*
X450152D01*
X444887Y273899D02*
X450152D01*
X445016Y297299D02*
X450023D01*
X445016Y207299D02*
X450023D01*
X445022Y373799D02*
X450017D01*
X445022Y283799D02*
X450017D01*
X445022Y193799D02*
X450017D01*
X445141Y377399D02*
X449898D01*
X445141Y287399D02*
X449898D01*
X445141Y197399D02*
X449898D01*
X445147Y383699D02*
X449892D01*
X445147Y293699D02*
X449892D01*
X445147Y203699D02*
X449892D01*
X445257Y367499D02*
X449782D01*
X445257Y277499D02*
X449782D01*
X445257Y187499D02*
X449782D01*
X445262Y303599D02*
X449777D01*
X445262Y213599D02*
X449777D01*
X445365Y357599D02*
X449675D01*
X445365Y267599D02*
X449675D01*
X445370Y313499D02*
X449670D01*
X445370Y223499D02*
X449670D01*
X445465Y347699D02*
X449575D01*
X445465Y257699D02*
X449575D01*
X445470Y323399D02*
X449570D01*
X445470Y233399D02*
X449570D01*
X445558Y337799D02*
X449481D01*
X445558Y247799D02*
X449481D01*
X445563Y333299D02*
X449476D01*
X445563Y243299D02*
X449476D01*
X445646Y327899D02*
X449393D01*
X445646Y237899D02*
X449393D01*
X445650Y343199D02*
X449389D01*
X445650Y253199D02*
X449389D01*
X445728Y317999D02*
X449311D01*
X445728Y227999D02*
X449311D01*
X445732Y353099D02*
X449307D01*
X445732Y263099D02*
X449307D01*
X445805Y308099D02*
X449234D01*
X445805Y218099D02*
X449234D01*
X445809Y362999D02*
X449230D01*
X445809Y272999D02*
X449230D01*
X445878Y298199D02*
X449162D01*
X445878Y208199D02*
X449162D01*
X445881Y372899D02*
X449158D01*
X445881Y282899D02*
X449158D01*
X445881Y192899D02*
X449158D01*
X445946Y378299D02*
X449094D01*
X445946Y288299D02*
X449094D01*
X445946Y198299D02*
X449094D01*
X445949Y382799D02*
X449091D01*
X445949Y292799D02*
X449091D01*
X445949Y202799D02*
X449091D01*
X446009Y368399D02*
X449030D01*
X446009Y278399D02*
X449030D01*
X446009Y188399D02*
X449030D01*
X446012Y302699D02*
X449027D01*
X446012Y212699D02*
X449027D01*
X446069Y358499D02*
X448970D01*
X446069Y268499D02*
X448970D01*
X446072Y312599D02*
X448968D01*
X446072Y222599D02*
X448968D01*
X446125Y348599D02*
X448914D01*
X446125Y258599D02*
X448914D01*
X446128Y322499D02*
X448912D01*
X446128Y232499D02*
X448912D01*
X446177Y338699D02*
X448862D01*
X446177Y248699D02*
X448862D01*
X446180Y332399D02*
X448860D01*
X446180Y242399D02*
X448860D01*
X446226Y328799D02*
X448813D01*
X446226Y238799D02*
X448813D01*
X446229Y342299D02*
X448811D01*
X446229Y252299D02*
X448811D01*
X446272Y318899D02*
X448767D01*
X446272Y228899D02*
X448767D01*
X446274Y352199D02*
X448765D01*
X446274Y262199D02*
X448765D01*
X446314Y308999D02*
X448725D01*
X446314Y218999D02*
X448725D01*
X446316Y362099D02*
X448723D01*
X446316Y272099D02*
X448723D01*
X446354Y299099D02*
X448686D01*
X446354Y209099D02*
X448686D01*
X446356Y371999D02*
X448684D01*
X446356Y281999D02*
X448684D01*
X446356Y191999D02*
X448684D01*
X446390Y379199D02*
X448649D01*
X446390Y289199D02*
X448649D01*
X446390Y199199D02*
X448649D01*
X446392Y381899D02*
X448647D01*
X446392Y291899D02*
X448647D01*
X446392Y201899D02*
X448647D01*
X446424Y369299D02*
X448616D01*
X446424Y279299D02*
X448616D01*
X446424Y189299D02*
X448616D01*
X446425Y301799D02*
X448614D01*
X446425Y211799D02*
X448614D01*
X446454Y359399D02*
X448585D01*
X446454Y269399D02*
X448585D01*
X446456Y311699D02*
X448584D01*
X446456Y221699D02*
X448584D01*
X446482Y349499D02*
X448557D01*
X446482Y259499D02*
X448557D01*
X446484Y321599D02*
X448556D01*
X446484Y231599D02*
X448556D01*
X446508Y339599D02*
X448532D01*
X446508Y249599D02*
X448532D01*
X446509Y331499D02*
X448531D01*
X446509Y241499D02*
X448531D01*
X446530Y329699D02*
X448509D01*
X446530Y239699D02*
X448509D01*
X446531Y341399D02*
X448508D01*
X446531Y251399D02*
X448508D01*
X446550Y319799D02*
X448489D01*
X446550Y229799D02*
X448489D01*
X446551Y351299D02*
X448488D01*
X446551Y261299D02*
X448488D01*
X446567Y309899D02*
X448472D01*
X446567Y219899D02*
X448472D01*
X446568Y361199D02*
X448471D01*
X446568Y271199D02*
X448471D01*
X446582Y299999D02*
X448457D01*
X446582Y209999D02*
X448457D01*
X446583Y371099D02*
X448456D01*
X446583Y281099D02*
X448456D01*
X446583Y191099D02*
X448456D01*
X446595Y380099D02*
X448445D01*
X446595Y290099D02*
X448445D01*
X446595Y200099D02*
X448445D01*
X446595Y380999D02*
X448444D01*
X446595Y290999D02*
X448444D01*
X446595Y200999D02*
X448444D01*
X446605Y370199D02*
X448435D01*
X446605Y280199D02*
X448435D01*
X446605Y190199D02*
X448435D01*
X446605Y300899D02*
X448434D01*
X446605Y210899D02*
X448434D01*
X446612Y360299D02*
X448427D01*
X446612Y270299D02*
X448427D01*
X446612Y310799D02*
X448427D01*
X446612Y220799D02*
X448427D01*
X446617Y350399D02*
X448423D01*
X446617Y260399D02*
X448423D01*
X446617Y320699D02*
X448422D01*
X446617Y230699D02*
X448422D01*
X446619Y340499D02*
X448420D01*
X446619Y250499D02*
X448420D01*
X446619Y330599D02*
X448420D01*
X446619Y240599D02*
X448420D01*
X422547Y376499D02*
X441897D01*
X402166Y286499D02*
X441897D01*
X353796Y196499D02*
X441897D01*
X422547Y384599D02*
X441866D01*
X410266Y294599D02*
X441866D01*
X325300Y204599D02*
X441866D01*
X422547Y366599D02*
X441430D01*
X283803Y276599D02*
X441430D01*
X101100Y186599D02*
X441430D01*
X420166Y304499D02*
X441412D01*
X321090Y214499D02*
X441412D01*
X422547Y356699D02*
X441117D01*
X218587Y266699D02*
X441117D01*
X422547Y314399D02*
X441103D01*
X342108Y224399D02*
X441103D01*
X422547Y346799D02*
X440868D01*
X273202Y256799D02*
X440868D01*
X422547Y324299D02*
X440856D01*
X357645Y234299D02*
X440856D01*
X422547Y336899D02*
X440657D01*
X327674Y246899D02*
X440657D01*
X422547Y334199D02*
X440647D01*
X325905Y244199D02*
X440647D01*
X422547Y326999D02*
X440473D01*
X359565Y236999D02*
X440473D01*
X422547Y344099D02*
X440464D01*
X301370Y254099D02*
X440464D01*
X422547Y317099D02*
X440308D01*
X344209Y227099D02*
X440308D01*
X422547Y353999D02*
X440301D01*
X328238Y263999D02*
X440301D01*
X422547Y307199D02*
X440159D01*
X359402Y217199D02*
X440159D01*
X422547Y363899D02*
X440152D01*
X323577Y273899D02*
X440152D01*
X412966Y297299D02*
X440023D01*
X353097Y207299D02*
X440023D01*
X422547Y373799D02*
X440017D01*
X273116Y283799D02*
X440017D01*
X356020Y193799D02*
X440017D01*
X422547Y377399D02*
X439898D01*
X403066Y287399D02*
X439898D01*
X262585Y197399D02*
X439898D01*
X422547Y383699D02*
X439892D01*
X409366Y293699D02*
X439892D01*
X325242Y203699D02*
X439892D01*
X422547Y367499D02*
X439782D01*
X284479Y277499D02*
X439782D01*
X101100Y187499D02*
X439782D01*
X419266Y303599D02*
X439777D01*
X320408Y213599D02*
X439777D01*
X422547Y357599D02*
X439675D01*
X219487Y267599D02*
X439675D01*
X422547Y313499D02*
X439670D01*
X325589Y223499D02*
X439670D01*
X422547Y347699D02*
X439575D01*
X272715Y257699D02*
X439575D01*
X422547Y323399D02*
X439570D01*
X332072Y233399D02*
X439570D01*
X422547Y337799D02*
X439481D01*
X327514Y247799D02*
X439481D01*
X422547Y333299D02*
X439476D01*
X350464Y243299D02*
X439476D01*
X422547Y327899D02*
X439393D01*
X359423Y237899D02*
X439393D01*
X422547Y343199D02*
X439389D01*
X302368Y253199D02*
X439389D01*
X422547Y317999D02*
X439311D01*
X344087Y227999D02*
X439311D01*
X422547Y353099D02*
X439307D01*
X328945Y263099D02*
X439307D01*
X422547Y308099D02*
X439234D01*
X359845Y218099D02*
X439234D01*
X422547Y362999D02*
X439230D01*
X324417Y272999D02*
X439230D01*
X413866Y298199D02*
X439162D01*
X353265Y208199D02*
X439162D01*
X422547Y372899D02*
X439158D01*
X273336Y282899D02*
X439158D01*
X355907Y192899D02*
X439158D01*
X422547Y378299D02*
X439094D01*
X403966Y288299D02*
X439094D01*
X347633Y198299D02*
X439094D01*
X422547Y382799D02*
X439091D01*
X408466Y292799D02*
X439091D01*
X347239Y202799D02*
X439091D01*
X422547Y368399D02*
X439030D01*
X284741Y278399D02*
X439030D01*
X101100Y188399D02*
X439030D01*
X418366Y302699D02*
X439027D01*
X305978Y212699D02*
X439027D01*
X422547Y358499D02*
X438970D01*
X323397Y268499D02*
X438970D01*
X422547Y312599D02*
X438968D01*
X315675Y222599D02*
X438968D01*
X422547Y348599D02*
X438914D01*
X271469Y258599D02*
X438914D01*
X422547Y322499D02*
X438912D01*
X332612Y232499D02*
X438912D01*
X422547Y338699D02*
X438862D01*
X327001Y248699D02*
X438862D01*
X422547Y332399D02*
X438860D01*
X351295Y242399D02*
X438860D01*
X422547Y328799D02*
X438813D01*
X358938Y238799D02*
X438813D01*
X422547Y342299D02*
X438811D01*
X302779Y252299D02*
X438811D01*
X422547Y318899D02*
X438767D01*
X343628Y228899D02*
X438767D01*
X422547Y352199D02*
X438765D01*
X329223Y262199D02*
X438765D01*
X422547Y308999D02*
X438725D01*
X359957Y218999D02*
X438725D01*
X422547Y362099D02*
X438723D01*
X324809Y272099D02*
X438723D01*
X414766Y299099D02*
X438686D01*
X353143Y209099D02*
X438686D01*
X422547Y371999D02*
X438684D01*
X273263Y281999D02*
X438684D01*
X355462Y191999D02*
X438684D01*
X422547Y379199D02*
X438649D01*
X404866Y289199D02*
X438649D01*
X348281Y199199D02*
X438649D01*
X422547Y381899D02*
X438647D01*
X407566Y291899D02*
X438647D01*
X348115Y201899D02*
X438647D01*
X422547Y369299D02*
X438616D01*
X284707Y279299D02*
X438616D01*
X101100Y189299D02*
X438616D01*
X417466Y301799D02*
X438614D01*
X305992Y211799D02*
X438614D01*
X422547Y359399D02*
X438585D01*
X324337Y269399D02*
X438585D01*
X422547Y311699D02*
X438584D01*
X357719Y221699D02*
X438584D01*
X422547Y349499D02*
X438557D01*
X328081Y259499D02*
X438557D01*
X422547Y321599D02*
X438556D01*
X332791Y231599D02*
X438556D01*
X422547Y339599D02*
X438532D01*
X325636Y249599D02*
X438532D01*
X422547Y331499D02*
X438531D01*
X351637Y241499D02*
X438531D01*
X422547Y329699D02*
X438509D01*
X357696Y239699D02*
X438509D01*
X422547Y341399D02*
X438508D01*
X302866Y251399D02*
X438508D01*
X422547Y319799D02*
X438489D01*
X342484Y229799D02*
X438489D01*
X422547Y351299D02*
X438488D01*
X329204Y261299D02*
X438488D01*
X422547Y309899D02*
X438472D01*
X359778Y219899D02*
X438472D01*
X422547Y361199D02*
X438471D01*
X324918Y271199D02*
X438471D01*
X415666Y299999D02*
X438457D01*
X352685Y209999D02*
X438457D01*
X422547Y371099D02*
X438456D01*
X283528Y281099D02*
X438456D01*
X354364Y191099D02*
X438456D01*
X422547Y380099D02*
X438445D01*
X405766Y290099D02*
X438445D01*
X348526Y200099D02*
X438445D01*
X422547Y380999D02*
X438444D01*
X406666Y290999D02*
X438444D01*
X348477Y200999D02*
X438444D01*
X422547Y370199D02*
X438435D01*
X284363Y280199D02*
X438435D01*
X264105Y190199D02*
X438435D01*
X416566Y300899D02*
X438434D01*
X351545Y210899D02*
X438434D01*
X422547Y360299D02*
X438427D01*
X324774Y270299D02*
X438427D01*
X422547Y310799D02*
X438427D01*
X359239Y220799D02*
X438427D01*
X422547Y350399D02*
X438423D01*
X328878Y260399D02*
X438423D01*
X422547Y320699D02*
X438422D01*
X332680Y230699D02*
X438422D01*
X422547Y340499D02*
X438420D01*
X321942Y250499D02*
X438420D01*
X422547Y330599D02*
X438420D01*
X351670Y240599D02*
X438420D01*
X342904Y221699D02*
X356454D01*
X332812Y216299D02*
X355865D01*
X330547Y234299D02*
X355741D01*
X351406Y239699D02*
X355690D01*
X343783Y220799D02*
X354934D01*
X343305Y217199D02*
X354771D01*
X326454Y235199D02*
X354463D01*
X350727Y238799D02*
X354448D01*
X344145Y219899D02*
X354395D01*
X343951Y218099D02*
X354328D01*
X344195Y218999D02*
X354217D01*
X341992Y236099D02*
X353969D01*
X343340Y237899D02*
X353963D01*
X342947Y236999D02*
X353821D01*
X264288Y196499D02*
X352503D01*
X264951Y191099D02*
X351935D01*
X265051Y195599D02*
X350995D01*
X265419Y191999D02*
X350837D01*
X265472Y194699D02*
X350457D01*
X265641Y192899D02*
X350392D01*
X265658Y193799D02*
X350280D01*
X325064Y205499D02*
X349633D01*
X336840Y210899D02*
X349243D01*
X336808Y206399D02*
X348213D01*
X337581Y209999D02*
X348102D01*
X337567Y207299D02*
X347690D01*
X337878Y209099D02*
X347645D01*
X337874Y208199D02*
X347523D01*
X213098Y243299D02*
X347174D01*
X343415Y238799D02*
X346911D01*
X213098Y242399D02*
X346342D01*
X343197Y239699D02*
X346232D01*
X213098Y241499D02*
X346001D01*
X342596Y240599D02*
X345968D01*
X332758Y202799D02*
X344100D01*
X332141Y198299D02*
X343705D01*
X326098Y177599D02*
X343463D01*
X101100Y182999D02*
X343415D01*
X333357Y201899D02*
X343224D01*
X333101Y199199D02*
X343058D01*
X333573Y200999D02*
X342862D01*
X333497Y200099D02*
X342813D01*
X326904Y178499D02*
X342562D01*
X326282Y182099D02*
X342540D01*
X327233Y179399D02*
X342141D01*
X326981Y181199D02*
X342132D01*
X327256Y180299D02*
X342010D01*
X330297Y224399D02*
X340569D01*
X332238Y229799D02*
X340193D01*
X315125Y221699D02*
X339773D01*
X333140Y217199D02*
X339372D01*
X331710Y225299D02*
X339156D01*
X326394Y236099D02*
X339110D01*
X331817Y228899D02*
X339049D01*
X313517Y220799D02*
X338894D01*
X333161Y218099D02*
X338726D01*
X332232Y226199D02*
X338634D01*
X332276Y227999D02*
X338590D01*
X332182Y219899D02*
X338532D01*
X308477Y240599D02*
X338506D01*
X332885Y218999D02*
X338482D01*
X332398Y227099D02*
X338468D01*
X326019Y236999D02*
X338156D01*
X320478Y239699D02*
X337905D01*
X325111Y237899D02*
X337762D01*
X321245Y238799D02*
X337688D01*
X324433Y206399D02*
X333271D01*
X305707Y210899D02*
X333239D01*
X262919Y207299D02*
X332512D01*
X304988Y209999D02*
X332498D01*
X213098Y208199D02*
X332205D01*
X213098Y209099D02*
X332201D01*
X326220Y234299D02*
X329295D01*
X163683Y198299D02*
X329276D01*
X326235Y224399D02*
X328758D01*
X324870Y202799D02*
X328659D01*
X321354Y215399D02*
X328620D01*
X312671Y219899D02*
X328448D01*
X163314Y199199D02*
X328316D01*
X323968Y201899D02*
X328061D01*
X263972Y200099D02*
X327921D01*
X264880Y200999D02*
X327845D01*
X321322Y216299D02*
X327818D01*
X325593Y233399D02*
X327770D01*
X312912Y218999D02*
X327745D01*
X248758Y229799D02*
X327605D01*
X320982Y217199D02*
X327490D01*
X320153Y218099D02*
X327469D01*
X326479Y225299D02*
X327345D01*
X311378Y228899D02*
X327238D01*
X213098Y232499D02*
X327230D01*
X248315Y230699D02*
X327163D01*
X247222Y231599D02*
X327051D01*
X326429Y226199D02*
X326823D01*
X325186Y227999D02*
X326779D01*
X326066Y227099D02*
X326657D01*
X213098Y259499D02*
X324675D01*
X215887Y263999D02*
X324518D01*
X322879Y249599D02*
X323971D01*
X213098Y260399D02*
X323878D01*
X214987Y263099D02*
X323811D01*
X213098Y244199D02*
X323701D01*
X213187Y261299D02*
X323552D01*
X214087Y262199D02*
X323533D01*
X101100Y177599D02*
X322721D01*
X101100Y182099D02*
X322537D01*
X278656Y245099D02*
X322528D01*
X321555Y237899D02*
X322077D01*
X312045Y227999D02*
X322058D01*
X101100Y178499D02*
X321915D01*
X101100Y181199D02*
X321838D01*
X315861Y223499D02*
X321655D01*
X213098Y233399D02*
X321595D01*
X101100Y179399D02*
X321586D01*
X101100Y180299D02*
X321563D01*
X312302Y227099D02*
X321178D01*
X315757Y224399D02*
X321009D01*
X313761Y234299D02*
X320968D01*
X265380Y201899D02*
X320914D01*
X314260Y226199D02*
X320816D01*
X315324Y225299D02*
X320765D01*
X320534Y235199D02*
X320734D01*
X264398Y206399D02*
X320448D01*
X265627Y202799D02*
X320012D01*
X257876Y268499D02*
X319910D01*
X265112Y205499D02*
X319818D01*
X306233Y273899D02*
X319730D01*
X265666Y203699D02*
X319640D01*
X265503Y204599D02*
X319582D01*
X306588Y250499D02*
X319003D01*
X305453Y269399D02*
X318970D01*
X306667Y272999D02*
X318890D01*
X306301Y270299D02*
X318533D01*
X306808Y272099D02*
X318498D01*
X307146Y245999D02*
X318444D01*
X306697Y271199D02*
X318389D01*
X307524Y249599D02*
X318066D01*
X307757Y246899D02*
X317834D01*
X307911Y248699D02*
X317679D01*
X307980Y247799D02*
X317610D01*
X310005Y239699D02*
X316966D01*
X314524Y235199D02*
X316910D01*
X312859Y218099D02*
X316854D01*
X305660Y213599D02*
X316599D01*
X313804Y238799D02*
X316199D01*
X314832Y236099D02*
X316176D01*
X312493Y217199D02*
X316026D01*
X304877Y214499D02*
X315918D01*
X314542Y237899D02*
X315889D01*
X314837Y236999D02*
X315882D01*
X311605Y216299D02*
X315686D01*
X298811Y215399D02*
X315654D01*
X309171Y142499D02*
X315266D01*
X137428Y137099D02*
X315072D01*
X306793Y110999D02*
X314860D01*
X306965Y105599D02*
X314688D01*
X309019Y141599D02*
X313933D01*
X136454Y137999D02*
X313877D01*
X308118Y110099D02*
X313536D01*
X308168Y106499D02*
X313486D01*
X308520Y140699D02*
X313427D01*
X194439Y138899D02*
X313403D01*
X307217Y139799D02*
X313270D01*
X308622Y109199D02*
X313031D01*
X308643Y107399D02*
X313011D01*
X308777Y108299D02*
X312877D01*
X312031Y220799D02*
X312467D01*
X265294Y221699D02*
X310860D01*
X265591Y222599D02*
X310309D01*
X282055Y234299D02*
X310236D01*
X265674Y223499D02*
X310123D01*
X309082Y235199D02*
X309473D01*
X264499Y216299D02*
X308503D01*
X264723Y220799D02*
X308077D01*
X265558Y224399D02*
X307832D01*
X263178Y217199D02*
X307616D01*
X248870Y228899D02*
X307520D01*
X263666Y219899D02*
X307438D01*
X213098Y218099D02*
X307250D01*
X213098Y240599D02*
X307233D01*
X213098Y218999D02*
X307197D01*
X265222Y225299D02*
X306984D01*
X248691Y227999D02*
X306853D01*
X264594Y226199D02*
X306635D01*
X283332Y235199D02*
X306629D01*
X263396Y227099D02*
X306596D01*
X282105Y239699D02*
X305705D01*
X283826Y236099D02*
X305538D01*
X296981Y139799D02*
X305381D01*
X297097Y145199D02*
X305265D01*
X283347Y238799D02*
X305164D01*
X283974Y236999D02*
X305096D01*
X296951Y110999D02*
X305018D01*
X283832Y237899D02*
X304985D01*
X297123Y105599D02*
X304846D01*
X298283Y140699D02*
X304079D01*
X298317Y144299D02*
X304045D01*
X298275Y110099D02*
X303693D01*
X302662Y250499D02*
X303649D01*
X298325Y106499D02*
X303643D01*
X298783Y141599D02*
X303579D01*
X298797Y143399D02*
X303565D01*
X298935Y142499D02*
X303428D01*
X298780Y109199D02*
X303189D01*
X298800Y107399D02*
X303168D01*
X279397Y245999D02*
X303090D01*
X298934Y108299D02*
X303034D01*
X302084Y249599D02*
X302712D01*
X279694Y246899D02*
X302479D01*
X291930Y248699D02*
X302325D01*
X291214Y247799D02*
X302256D01*
X255236Y274799D02*
X301785D01*
X272251Y269399D02*
X301633D01*
X299689Y214499D02*
X301422D01*
X263826Y209999D02*
X301311D01*
X272263Y273899D02*
X300854D01*
X273004Y270299D02*
X300786D01*
X300051Y213599D02*
X300639D01*
X299210Y210899D02*
X300592D01*
X273010Y272999D02*
X300420D01*
X273308Y271199D02*
X300390D01*
X300101Y212699D02*
X300321D01*
X299856Y211799D02*
X300307D01*
X273309Y272099D02*
X300278D01*
X272704Y254099D02*
X298630D01*
X292214Y249599D02*
X297916D01*
X271431Y253199D02*
X297632D01*
X292198Y250499D02*
X297338D01*
X291091Y252299D02*
X297221D01*
X291878Y251399D02*
X297134D01*
X265169Y215399D02*
X295677D01*
X264804Y210899D02*
X295278D01*
X101100Y110999D02*
X295175D01*
X195120Y139799D02*
X295145D01*
X101100Y145199D02*
X295029D01*
X101100Y105599D02*
X295003D01*
X265532Y214499D02*
X294799D01*
X265338Y211799D02*
X294632D01*
X265671Y213599D02*
X294437D01*
X265610Y212699D02*
X294387D01*
X101100Y110099D02*
X293851D01*
X195426Y140699D02*
X293843D01*
X193482Y144299D02*
X293809D01*
X101100Y106499D02*
X293801D01*
X101100Y109199D02*
X293346D01*
X195465Y141599D02*
X293343D01*
X194707Y143399D02*
X293329D01*
X101100Y107399D02*
X293326D01*
X101100Y108299D02*
X293191D01*
X195248Y142499D02*
X293191D01*
X213098Y252299D02*
X287649D01*
X279690Y247799D02*
X287526D01*
X213098Y251399D02*
X286862D01*
X279384Y248699D02*
X286810D01*
X213098Y250499D02*
X286542D01*
X278624Y249599D02*
X286527D01*
X272871Y281099D02*
X280252D01*
X213098Y234299D02*
X280150D01*
X213098Y239699D02*
X280099D01*
X268278Y276599D02*
X279976D01*
X271923Y280199D02*
X279416D01*
X269290Y277499D02*
X279300D01*
X269796Y279299D02*
X279073D01*
X269705Y278399D02*
X279038D01*
X213098Y235199D02*
X278872D01*
X213098Y238799D02*
X278857D01*
X213098Y236099D02*
X278378D01*
X213098Y237899D02*
X278372D01*
X213098Y236999D02*
X278231D01*
X213098Y249599D02*
X275087D01*
X213098Y245099D02*
X275056D01*
X213098Y248699D02*
X274328D01*
X213098Y245999D02*
X274314D01*
X213098Y247799D02*
X274022D01*
X213098Y246899D02*
X274018D01*
X213098Y253199D02*
X269513D01*
X258807Y258599D02*
X269476D01*
X259274Y269399D02*
X268694D01*
X258219Y273899D02*
X268682D01*
X236587Y284699D02*
X268433D01*
X258932Y254099D02*
X268240D01*
X259594Y257699D02*
X268229D01*
X259793Y270299D02*
X267940D01*
X259372Y272999D02*
X267935D01*
X235687Y283799D02*
X267829D01*
X259647Y254999D02*
X267748D01*
X259915Y256799D02*
X267743D01*
X267127Y281999D02*
X267682D01*
X259958Y271199D02*
X267637D01*
X259833Y272099D02*
X267635D01*
X234787Y282899D02*
X267609D01*
X259930Y255899D02*
X267601D01*
X245557Y281999D02*
X266731D01*
X256016Y276599D02*
X265580D01*
X246498Y281099D02*
X264835D01*
X255928Y277499D02*
X264568D01*
X246887Y280199D02*
X264262D01*
X255516Y278399D02*
X264153D01*
X254514Y279299D02*
X264062D01*
X252585Y197399D02*
X260564D01*
X252919Y207299D02*
X260231D01*
X253178Y217199D02*
X259971D01*
X253396Y227099D02*
X259754D01*
X253666Y219899D02*
X259483D01*
X253826Y209999D02*
X259323D01*
X253972Y200099D02*
X259178D01*
X254105Y190199D02*
X259045D01*
X252396Y112799D02*
X259021D01*
X254288Y196499D02*
X258861D01*
X254398Y206399D02*
X258752D01*
X254499Y216299D02*
X258650D01*
X254594Y226199D02*
X258555D01*
X252903Y119999D02*
X258514D01*
X254723Y220799D02*
X258427D01*
X254804Y210899D02*
X258346D01*
X254880Y200999D02*
X258270D01*
X254951Y191099D02*
X258199D01*
X255051Y195599D02*
X258098D01*
X255112Y205499D02*
X258038D01*
X255169Y215399D02*
X257981D01*
X255222Y225299D02*
X257928D01*
X255294Y221699D02*
X257856D01*
X255338Y211799D02*
X257811D01*
X255380Y201899D02*
X257770D01*
X253669Y113699D02*
X257748D01*
X255419Y191999D02*
X257731D01*
X255472Y194699D02*
X257678D01*
X255503Y204599D02*
X257646D01*
X255532Y214499D02*
X257618D01*
X255558Y224399D02*
X257592D01*
X255591Y222599D02*
X257559D01*
X255610Y212699D02*
X257540D01*
X255627Y202799D02*
X257523D01*
X255641Y192899D02*
X257509D01*
X253909Y119099D02*
X257509D01*
X255658Y193799D02*
X257492D01*
X255666Y203699D02*
X257484D01*
X255671Y213599D02*
X257478D01*
X255674Y223499D02*
X257475D01*
X254322Y114599D02*
X257095D01*
X254456Y118199D02*
X256961D01*
X254675Y115499D02*
X256742D01*
X254737Y117299D02*
X256680D01*
X254806Y116399D02*
X256611D01*
X220387Y268499D02*
X256298D01*
X225787Y273899D02*
X255954D01*
X213098Y258599D02*
X255366D01*
X213098Y254099D02*
X255242D01*
X221287Y269399D02*
X254900D01*
X224887Y272999D02*
X254801D01*
X213098Y257699D02*
X254579D01*
X213098Y254999D02*
X254526D01*
X222187Y270299D02*
X254381D01*
X223987Y272099D02*
X254340D01*
X213098Y256799D02*
X254259D01*
X213098Y255899D02*
X254243D01*
X223087Y271199D02*
X254216D01*
X246957Y279299D02*
X251786D01*
X226687Y274799D02*
X251063D01*
X246735Y278399D02*
X250783D01*
X163865Y197399D02*
X250564D01*
X227587Y275699D02*
X250486D01*
X246127Y277499D02*
X250371D01*
X228487Y276599D02*
X250283D01*
X101100Y207299D02*
X250231D01*
X213098Y217199D02*
X249971D01*
X248152Y227099D02*
X249754D01*
X213098Y219899D02*
X249483D01*
X213098Y209999D02*
X249323D01*
X162708Y200099D02*
X249178D01*
X101100Y190199D02*
X249045D01*
X242396Y112799D02*
X249021D01*
X163883Y196499D02*
X248861D01*
X101100Y206399D02*
X248752D01*
X213098Y216299D02*
X248650D01*
X246632Y226199D02*
X248555D01*
X242903Y119999D02*
X248514D01*
X213098Y220799D02*
X248427D01*
X213098Y210899D02*
X248346D01*
X161715Y200999D02*
X248270D01*
X101100Y191099D02*
X248199D01*
X163737Y195599D02*
X248098D01*
X101100Y205499D02*
X248038D01*
X213098Y215399D02*
X247981D01*
X213098Y225299D02*
X247928D01*
X213098Y221699D02*
X247856D01*
X213098Y211799D02*
X247811D01*
X101100Y201899D02*
X247770D01*
X243669Y113699D02*
X247748D01*
X160212Y191999D02*
X247731D01*
X163413Y194699D02*
X247678D01*
X101100Y204599D02*
X247646D01*
X213098Y214499D02*
X247618D01*
X213098Y224399D02*
X247592D01*
X213098Y222599D02*
X247559D01*
X213098Y212699D02*
X247540D01*
X101100Y202799D02*
X247523D01*
X161982Y192899D02*
X247509D01*
X243909Y119099D02*
X247509D01*
X162866Y193799D02*
X247492D01*
X101100Y203699D02*
X247484D01*
X213098Y213599D02*
X247478D01*
X213098Y223499D02*
X247475D01*
X244322Y114599D02*
X247095D01*
X244456Y118199D02*
X246961D01*
X244675Y115499D02*
X246742D01*
X244737Y117299D02*
X246680D01*
X244806Y116399D02*
X246611D01*
X213098Y226199D02*
X245368D01*
X213098Y231599D02*
X244778D01*
X213098Y227099D02*
X243848D01*
X213098Y230699D02*
X243685D01*
X213098Y227999D02*
X243309D01*
X213098Y229799D02*
X243242D01*
X213098Y228899D02*
X243130D01*
X233887Y281999D02*
X242632D01*
X229387Y277499D02*
X242062D01*
X232987Y281099D02*
X241691D01*
X230287Y278399D02*
X241454D01*
X232087Y280199D02*
X241302D01*
X231187Y279299D02*
X241232D01*
X232396Y112799D02*
X239021D01*
X232903Y119999D02*
X238514D01*
X233669Y113699D02*
X237748D01*
X233909Y119099D02*
X237509D01*
X234322Y114599D02*
X237095D01*
X234456Y118199D02*
X236961D01*
X234675Y115499D02*
X236742D01*
X234737Y117299D02*
X236680D01*
X234806Y116399D02*
X236611D01*
X101100Y112799D02*
X229021D01*
X134907Y119999D02*
X228514D01*
X101100Y113699D02*
X227748D01*
X132841Y119099D02*
X227509D01*
X101100Y114599D02*
X227095D01*
X101100Y118199D02*
X226961D01*
X101100Y115499D02*
X226742D01*
X101100Y117299D02*
X226680D01*
X101100Y116399D02*
X226611D01*
X142734Y158699D02*
X199096D01*
X101100Y153299D02*
X198821D01*
X143230Y157799D02*
X198127D01*
X142265Y154199D02*
X198004D01*
X143416Y156899D02*
X197677D01*
X143007Y155099D02*
X197623D01*
X143348Y155999D02*
X197523D01*
X101100Y144299D02*
X190947D01*
X101100Y162299D02*
X190365D01*
X101100Y166799D02*
X190319D01*
X135177Y138899D02*
X189990D01*
X101100Y143399D02*
X189722D01*
X101100Y163199D02*
X189601D01*
X101100Y165899D02*
X189582D01*
X133302Y139799D02*
X189309D01*
X101100Y164099D02*
X189293D01*
X101100Y164999D02*
X189287D01*
X101100Y142499D02*
X189181D01*
X101100Y140699D02*
X189003D01*
X101100Y141599D02*
X188964D01*
X128716Y191999D02*
X157504D01*
X130219Y200999D02*
X156001D01*
X130486Y192899D02*
X155735D01*
X131212Y200099D02*
X155009D01*
X131370Y193799D02*
X154851D01*
X131818Y199199D02*
X154402D01*
X131917Y194699D02*
X154304D01*
X132187Y198299D02*
X154034D01*
X132241Y195599D02*
X153979D01*
X132369Y197399D02*
X153851D01*
X132387Y196499D02*
X153834D01*
X101100Y159599D02*
X138668D01*
X101100Y154199D02*
X138050D01*
X101100Y158699D02*
X137581D01*
X101100Y155099D02*
X137308D01*
X101100Y157799D02*
X137085D01*
X101100Y155999D02*
X136967D01*
X101100Y156899D02*
X136899D01*
X101100Y119099D02*
X126214D01*
X101100Y191999D02*
X126008D01*
X101100Y139799D02*
X125754D01*
X101100Y200999D02*
X124505D01*
X101100Y192899D02*
X124239D01*
X101100Y119999D02*
X124148D01*
X101100Y138899D02*
X123878D01*
X101100Y200099D02*
X123513D01*
X101100Y193799D02*
X123355D01*
X101100Y199199D02*
X122906D01*
X101100Y194699D02*
X122808D01*
X101100Y120899D02*
X122798D01*
X101100Y137999D02*
X122601D01*
X101100Y198299D02*
X122538D01*
X101100Y195599D02*
X122483D01*
X101100Y197399D02*
X122355D01*
X101100Y196499D02*
X122337D01*
X101100Y121799D02*
X121781D01*
X101100Y137099D02*
X121627D01*
X101100Y122699D02*
X120977D01*
X101100Y136199D02*
X120854D01*
X101100Y123599D02*
X120330D01*
X101100Y135299D02*
X120231D01*
X101100Y124499D02*
X119809D01*
X101100Y134399D02*
X119729D01*
X101100Y125399D02*
X119394D01*
X101100Y133499D02*
X119331D01*
X101100Y126299D02*
X119072D01*
X101100Y132599D02*
X119025D01*
X101100Y127199D02*
X118836D01*
X101100Y131699D02*
X118803D01*
X101100Y128099D02*
X118679D01*
X101100Y130799D02*
X118659D01*
X101100Y128999D02*
X118598D01*
X101100Y129899D02*
X118591D01*
G54D28*
X442520Y210551D03*
X452520Y230551D03*
Y310551D03*
X250709Y116535D03*
X260709D03*
X261575Y223425D03*
G54D50*
X192214Y141289D03*
X140157Y156693D03*
X303543Y272047D03*
G54D103*
X123801Y193289D02*
X124578Y194067D01*
X123801Y200412D02*
X124578Y199634D01*
X130924Y200412D02*
X130146Y199634D01*
X130924Y193289D02*
X130146Y194067D01*
X455419Y313450D02*
X454641Y312673D01*
X455419Y307652D02*
X454641Y308430D01*
X449621Y307652D02*
X450398Y308430D01*
X449621Y313450D02*
X450398Y312673D01*
X264474Y220526D02*
X263696Y221304D01*
X264474Y226324D02*
X263696Y225547D01*
X258676Y226324D02*
X259453Y225547D01*
X258676Y220526D02*
X259453Y221304D01*
X263608Y119435D02*
X262830Y118657D01*
X257810Y119435D02*
X258587Y118657D01*
X257810Y113636D02*
X258587Y114414D01*
X263608Y113636D02*
X262830Y114414D01*
X253608Y119435D02*
X252830Y118657D01*
X247810Y119435D02*
X248587Y118657D01*
X247810Y113636D02*
X248587Y114414D01*
X253608Y113636D02*
X252830Y114414D01*
X455419Y233450D02*
X454641Y232673D01*
X455419Y227652D02*
X454641Y228430D01*
X449621Y227652D02*
X450398Y228430D01*
X449621Y233450D02*
X450398Y232673D01*
X445419Y213450D02*
X444641Y212673D01*
X445419Y207652D02*
X444641Y208430D01*
X439621Y207652D02*
X440398Y208430D01*
X439621Y213450D02*
X440398Y212673D01*
X142466Y159002D02*
X141689Y158224D01*
X137849Y159002D02*
X138626Y158224D01*
X137849Y154384D02*
X138626Y155162D01*
X142466Y154384D02*
X141689Y155162D01*
X194523Y143598D02*
X193746Y142820D01*
X189905Y143598D02*
X190683Y142820D01*
X189905Y138980D02*
X190683Y139758D01*
X194523Y138980D02*
X193746Y139758D01*
X259117Y273290D02*
X258339Y272513D01*
X255056Y273290D02*
X255834Y272513D01*
X255056Y269229D02*
X255834Y270007D01*
X259117Y269229D02*
X258339Y270007D01*
X259117Y258330D02*
X258339Y257552D01*
X255056Y258330D02*
X255834Y257552D01*
X255056Y254269D02*
X255834Y255046D01*
X259117Y254269D02*
X258339Y255046D01*
X278886Y249367D02*
X278108Y248589D01*
X274825Y249367D02*
X275603Y248589D01*
X274825Y245306D02*
X275603Y246083D01*
X278886Y245306D02*
X278108Y246083D01*
X305852Y274356D02*
X305074Y273578D01*
X301234Y274356D02*
X302012Y273578D01*
X301234Y269738D02*
X302012Y270516D01*
X305852Y269738D02*
X305074Y270516D01*
X255180Y278802D02*
X254402Y278024D01*
X251119Y278802D02*
X251897Y278024D01*
X251119Y274741D02*
X251897Y275519D01*
X255180Y274741D02*
X254402Y275519D01*
X332739Y202818D02*
X331961Y202040D01*
X328678Y202818D02*
X329456Y202040D01*
X328678Y198757D02*
X329456Y199535D01*
X332739Y198757D02*
X331961Y199535D01*
X358723Y239038D02*
X357946Y238261D01*
X354662Y239038D02*
X355440Y238261D01*
X354662Y234977D02*
X355440Y235755D01*
X358723Y234977D02*
X357946Y235755D01*
X325625Y237491D02*
X324847Y236713D01*
X321564Y233430D02*
X322341Y234208D01*
X325625Y233430D02*
X324847Y234208D01*
X302031Y253605D02*
X301253Y252828D01*
X297969Y253605D02*
X298747Y252828D01*
X297969Y249544D02*
X298747Y250322D01*
X302031Y249544D02*
X301253Y250322D01*
X291401Y252031D02*
X290623Y251253D01*
X287340Y252031D02*
X288117Y251253D01*
X287340Y247969D02*
X288117Y248747D01*
X291401Y247969D02*
X290623Y248747D01*
X355180Y195731D02*
X354402Y194954D01*
X351119Y195731D02*
X351897Y194954D01*
X351119Y191670D02*
X351897Y192448D01*
X355180Y191670D02*
X354402Y192448D01*
X326440Y181952D02*
X325662Y181174D01*
X322379Y181952D02*
X323157Y181174D01*
X322379Y177891D02*
X323157Y178669D01*
X326440Y177891D02*
X325662Y178669D01*
X283920Y280771D02*
X283143Y279993D01*
X279859Y280771D02*
X280637Y279993D01*
X279859Y276710D02*
X280637Y277487D01*
X283920Y276710D02*
X283143Y277487D01*
X328409Y263842D02*
X327631Y263064D01*
X324347Y263842D02*
X325125Y263064D01*
X324347Y259780D02*
X325125Y260558D01*
X328409Y259780D02*
X327631Y260558D01*
X352424Y210298D02*
X351646Y209520D01*
X348363Y210298D02*
X349141Y209520D01*
X348363Y206237D02*
X349141Y207015D01*
X352424Y206237D02*
X351646Y207015D01*
X325653Y227621D02*
X324875Y226843D01*
X321591Y227621D02*
X322369Y226843D01*
X321591Y223560D02*
X322369Y224338D01*
X325653Y223560D02*
X324875Y224338D01*
X320535Y217779D02*
X319757Y217001D01*
X316473Y217779D02*
X317251Y217001D01*
X316473Y213717D02*
X317251Y214495D01*
X320535Y213717D02*
X319757Y214495D01*
X314029Y238596D02*
X313251Y237819D01*
X309968Y234535D02*
X310746Y235313D01*
X314029Y234535D02*
X313251Y235313D01*
X320753Y239457D02*
X319975Y238679D01*
X316691Y239457D02*
X317469Y238679D01*
X316691Y235396D02*
X317469Y236174D01*
X327497Y229196D02*
X328275Y228418D01*
X327497Y225135D02*
X328275Y225913D01*
X331558Y225135D02*
X330780Y225913D01*
X322503Y250062D02*
X321725Y249284D01*
X318442Y250062D02*
X319220Y249284D01*
X318442Y246001D02*
X319220Y246779D01*
X307149Y250062D02*
X306371Y249284D01*
X303088Y250062D02*
X303865Y249284D01*
X303088Y246001D02*
X303865Y246779D01*
X307149Y246001D02*
X306371Y246779D01*
X298094Y110298D02*
X297316Y109520D01*
X294032Y110298D02*
X294810Y109520D01*
X294032Y106237D02*
X294810Y107015D01*
X298094Y106237D02*
X297316Y107015D01*
X307936Y110298D02*
X307158Y109520D01*
X303875Y110298D02*
X304653Y109520D01*
X303875Y106237D02*
X304653Y107015D01*
X307936Y106237D02*
X307158Y107015D01*
X317779Y110298D02*
X317001Y109520D01*
X313717Y110298D02*
X314495Y109520D01*
X313717Y106237D02*
X314495Y107015D01*
X317779Y106237D02*
X317001Y107015D01*
X272503Y284708D02*
X271725Y283930D01*
X268442Y284708D02*
X269220Y283930D01*
X272503Y280647D02*
X271725Y281424D01*
X246125Y281558D02*
X245347Y280780D01*
X242064Y281558D02*
X242842Y280780D01*
X242064Y277497D02*
X242842Y278275D01*
X246125Y277497D02*
X245347Y278275D01*
G54D105*
X127362Y196850D03*
G54D151*
X296063Y108268D03*
X305906D03*
X315748D03*
X324409Y179921D03*
X353150Y193701D03*
X330709Y200787D03*
X350394Y208268D03*
X323622Y225591D03*
X329528Y227165D03*
X318504Y215748D03*
X276856Y247336D03*
X289370Y250000D03*
X305118Y248031D03*
X300000Y251575D03*
X311998Y236566D03*
X323594Y235460D03*
X320472Y248031D03*
X318722Y237426D03*
X356693Y237008D03*
X257087Y271260D03*
Y256299D03*
X326378Y261811D03*
X253150Y276772D03*
X244094Y279528D03*
X270472Y282677D03*
X281890Y278740D03*
G74*
X0Y0D02*
M02*
