*
*
G04 PADS VX.1.2 Build Number: 698008 generated Gerber (RS-274-X) file*
G04 PC Version=2.1*
*
%IN "opqbox2.pcb"*%
*
%MOIN*%
*
%FSLAX35Y35*%
*
*
*
*
G04 PC Standard Apertures*
*
*
G04 Thermal Relief Aperture macro.*
%AMTER*
1,1,$1,0,0*
1,0,$1-$2,0,0*
21,0,$3,$4,0,0,45*
21,0,$3,$4,0,0,135*
%
*
*
G04 Annular Aperture macro.*
%AMANN*
1,1,$1,0,0*
1,0,$2,0,0*
%
*
*
G04 Odd Aperture macro.*
%AMODD*
1,1,$1,0,0*
1,0,$1-0.005,0,0*
%
*
*
G04 PC Custom Aperture Macros*
*
*
*
*
*
*
G04 PC Aperture Table*
*
%ADD010C,0.001*%
%ADD013C,0.01*%
%ADD133R,0.062X0.062*%
%ADD134C,0.062*%
%ADD154R,0.04X0.032*%
%ADD159C,0.08074*%
%ADD194R,0.022X0.027*%
%ADD195R,0.027X0.022*%
*
*
*
*
G04 PC Circuitry*
G04 Layer Name opqbox2.pcb - circuitry*
%LPD*%
*
*
G04 PC Custom Flashes*
G04 Layer Name opqbox2.pcb - flashes*
%LPD*%
*
*
G04 PC Circuitry*
G04 Layer Name opqbox2.pcb - circuitry*
%LPD*%
*
G54D10*
G54D13*
G01X100000Y100000D02*
Y493701D01*
X493701*
Y100000*
X100000*
X139370Y129528D02*
G75*
G03X139370I-9842J0D01*
G01X474016D02*
G03X474016I-9843J0D01*
G01Y464173D02*
G03X474016I-9843J0D01*
G01X139370D02*
G03X139370I-9842J0D01*
G54D133*
G01X442520Y190551D03*
X225140Y414961D03*
X238640D03*
G54D134*
X452520Y190551D03*
Y200551D03*
X442520D03*
X452520Y210551D03*
X442520D03*
X452520Y220551D03*
X442520D03*
X452520Y230551D03*
X442520D03*
X452520Y240551D03*
X442520D03*
X452520Y250551D03*
X442520D03*
X452520Y260551D03*
X442520D03*
X452520Y270551D03*
X442520D03*
X452520Y280551D03*
X442520D03*
X452520Y290551D03*
X442520D03*
X452520Y300551D03*
X442520D03*
X452520Y310551D03*
X442520D03*
X452520Y320551D03*
X442520D03*
X452520Y330551D03*
X442520D03*
X452520Y340551D03*
X442520D03*
X452520Y350551D03*
X442520D03*
X452520Y360551D03*
X442520D03*
X452520Y370551D03*
X442520D03*
X452520Y380551D03*
X442520D03*
X316535Y414961D03*
X256535D03*
X257480Y385433D03*
X317480D03*
X230709Y116535D03*
X240709D03*
X250709D03*
X260709D03*
X251575Y223425D03*
X261575D03*
X251575Y213425D03*
X261575D03*
X251575Y203425D03*
X261575D03*
X251575Y193425D03*
X261575D03*
G54D154*
X310680Y272047D03*
X316880D03*
G54D159*
X127362Y348425D03*
X169685D03*
X158858Y196850D03*
X127362D03*
X157087Y385433D03*
X127559Y375591D03*
X214173Y454331D03*
Y474331D03*
X166929Y454331D03*
Y474331D03*
X127559Y426772D03*
Y407087D03*
G54D194*
X322441Y214902D03*
Y209902D03*
X308858Y242972D03*
Y247972D03*
X315945Y242972D03*
Y247972D03*
X356693Y225650D03*
Y230650D03*
G54D195*
X332618Y222835D03*
X327618D03*
X339429Y208465D03*
X344429D03*
X332224Y235433D03*
X327224D03*
G74*
X0Y0D02*
M02*
