%
T1C.01575F095S3
X019213Y016457
X0246Y0229
X024409Y027953
X024134Y031732
X024567Y032047
X024567Y032638
X026024Y034055
X027598Y034016
X026457Y03189
X027047Y031772
X027047Y028268
X026693Y027913
X028189Y027874
X025315Y027677
X027047Y027165
X025709Y027126
X025709Y02563
X027047Y025591
X03Y025157
X028937Y025
X027686Y024734
X02811Y023701
X029724Y021299
X029606Y014252
X029606Y010827
X031575Y010827
X030591Y010827
X031614Y013976
X03063Y014252
X032441Y017992
X032244Y020433
X030315Y02122
X03185Y021575
X031005Y021872
X031299Y022362
X032362Y022559
X030945Y022677
X032359Y023546
X0312Y023657
X031872Y023743
X030786Y02378
X03248Y024685
X030512Y024803
X032047Y024803
X032638Y026181
X030294Y031992
X032559Y032165
X032559Y032795
X030709Y034016
X034882Y024094
X034055Y023858
X035669Y023701
X032992Y02315
X034134Y022717
X032953Y022717
X034134Y021929
X035709Y02189
X033031Y021772
X033504Y020866
X035039Y020827
X033071Y020079
X034567Y020039
X035315Y01937
T2C.02362F197S55
X019221Y014129
X020079Y015591
X014016Y015669
X025039Y034921
X030354Y027205
X032165Y027126
X034528Y018031
T3C.035F197S55
X023071Y011654
X024071Y011654
X025071Y011654
X025157Y019343
X025157Y020343
X025157Y021343
X025157Y022343
X026157Y022343
X026157Y021343
X026157Y020343
X026157Y019343
X026071Y011654
X044252Y019055
X044252Y020055
X044252Y021055
X044252Y022055
X044252Y023055
X044252Y024055
X044252Y025055
X044252Y026055
X044252Y027055
X044252Y028055
X044252Y029055
X044252Y030055
X044252Y031055
X044252Y032055
X044252Y033055
X044252Y034055
X044252Y035055
X044252Y036055
X044252Y037055
X044252Y038055
X045252Y038055
X045252Y037055
X045252Y036055
X045252Y035055
X045252Y034055
X045252Y033055
X045252Y032055
X045252Y031055
X045252Y030055
X045252Y029055
X045252Y028055
X045252Y027055
X045252Y026055
X045252Y025055
X045252Y024055
X045252Y023055
X045252Y022055
X045252Y021055
X045252Y020055
X045252Y019055
T4C.037F197S55
X025748Y038543
X031748Y038543
X031654Y041496
X025654Y041496
T5C.03937F197S55
X012756Y037559
X015709Y038543
X012756Y040709
X012756Y042677
T6C.04724F139S55
X012736Y019685
X015886Y019685
X012736Y034843
X016969Y034843
T7C.05512F107S55
X016693Y045433
X021417Y045433
X016693Y047433
X021417Y047433
M30
