*
*
G04 PADS VX.1.2 Build Number: 698008 generated Gerber (RS-274-X) file*
G04 PC Version=2.1*
*
%IN "opqbox2.pcb"*%
*
%MOIN*%
*
%FSLAX35Y35*%
*
*
*
*
G04 PC Standard Apertures*
*
*
G04 Thermal Relief Aperture macro.*
%AMTER*
1,1,$1,0,0*
1,0,$1-$2,0,0*
21,0,$3,$4,0,0,45*
21,0,$3,$4,0,0,135*
%
*
*
G04 Annular Aperture macro.*
%AMANN*
1,1,$1,0,0*
1,0,$2,0,0*
%
*
*
G04 Odd Aperture macro.*
%AMODD*
1,1,$1,0,0*
1,0,$1-0.005,0,0*
%
*
*
G04 PC Custom Aperture Macros*
*
*
*
*
*
*
G04 PC Aperture Table*
*
%ADD010C,0.001*%
%ADD013C,0.01*%
%ADD028C,0.06*%
%ADD050C,0.04331*%
%ADD103C,0.015*%
%ADD151C,0.03543*%
*
*
*
*
G04 PC Circuitry*
G04 Layer Name opqbox2.pcb - circuitry*
%LPD*%
*
*
G04 PC Custom Flashes*
G04 Layer Name opqbox2.pcb - flashes*
%LPD*%
*
*
G04 PC Circuitry*
G04 Layer Name opqbox2.pcb - circuitry*
%LPD*%
*
G54D10*
G54D13*
G01X475116Y129528D02*
G75*
G03X475116I-10943J0D01*
G01X456620Y190551D02*
G03X456620I-4100J0D01*
G01Y200551D02*
G03X456620I-4100J0D01*
G01Y210551D02*
G03X456620I-4100J0D01*
G01Y220551D02*
G03X456620I-4100J0D01*
G01Y230551D02*
G03X456620I-4100J0D01*
G01Y240551D02*
G03X456620I-4100J0D01*
G01Y250551D02*
G03X456620I-4100J0D01*
G01Y260551D02*
G03X456620I-4100J0D01*
G01Y270551D02*
G03X456620I-4100J0D01*
G01Y280551D02*
G03X456620I-4100J0D01*
G01Y290551D02*
G03X456620I-4100J0D01*
G01Y300551D02*
G03X456620I-4100J0D01*
G01Y310551D02*
G03X456620I-4100J0D01*
G01Y320551D02*
G03X456620I-4100J0D01*
G01Y330551D02*
G03X456620I-4100J0D01*
G01Y340551D02*
G03X456620I-4100J0D01*
G01Y350551D02*
G03X456620I-4100J0D01*
G01Y360551D02*
G03X456620I-4100J0D01*
G01Y370551D02*
G03X456620I-4100J0D01*
G01Y380551D02*
G03X456620I-4100J0D01*
G01X475116Y464173D02*
G03X475116I-10943J0D01*
G01X446620Y190551D02*
G03X446620I-4100J0D01*
G01Y200551D02*
G03X446620I-4100J0D01*
G01Y210551D02*
G03X446620I-4100J0D01*
G01Y220551D02*
G03X446620I-4100J0D01*
G01Y230551D02*
G03X446620I-4100J0D01*
G01Y240551D02*
G03X446620I-4100J0D01*
G01Y250551D02*
G03X446620I-4100J0D01*
G01Y260551D02*
G03X446620I-4100J0D01*
G01Y270551D02*
G03X446620I-4100J0D01*
G01Y280551D02*
G03X446620I-4100J0D01*
G01Y290551D02*
G03X446620I-4100J0D01*
G01Y300551D02*
G03X446620I-4100J0D01*
G01Y310551D02*
G03X446620I-4100J0D01*
G01Y320551D02*
G03X446620I-4100J0D01*
G01Y330551D02*
G03X446620I-4100J0D01*
G01Y340551D02*
G03X446620I-4100J0D01*
G01Y350551D02*
G03X446620I-4100J0D01*
G01Y360551D02*
G03X446620I-4100J0D01*
G01Y370551D02*
G03X446620I-4100J0D01*
G01Y380551D02*
G03X446620I-4100J0D01*
G01X348541Y180315D02*
G03X348541I-3265J0D01*
G01X327281Y179921D02*
G03X327281I-2872J0D01*
G01X318620Y108268D02*
G03X318620I-2872J0D01*
G01X319013Y139764D02*
G03X319013I-2871J0D01*
G01X308777Y108268D02*
G03X308777I-2871J0D01*
G01X309171Y142520D02*
G03X309171I-2872J0D01*
G01X298935Y108268D02*
G03X298935I-2872J0D01*
G01Y142520D02*
G03X298935I-2872J0D01*
G01X283974Y237008D02*
G03X283974I-2872J0D01*
G01X279727Y247336D02*
G03X279727I-2871J0D01*
G01X284761Y278740D02*
G03X284761I-2871J0D01*
G01X273344Y255906D02*
G03X273344I-2872J0D01*
G01Y271654D02*
G03X273344I-2872J0D01*
G01X264809Y116535D02*
G03X264809I-4100J0D01*
G01X265675Y193425D02*
G03X265675I-4100J0D01*
G01Y203425D02*
G03X265675I-4100J0D01*
G01Y213425D02*
G03X265675I-4100J0D01*
G01Y223425D02*
G03X265675I-4100J0D01*
G01X254809Y116535D02*
G03X254809I-4100J0D01*
G01X255675Y193425D02*
G03X255675I-4100J0D01*
G01Y203425D02*
G03X255675I-4100J0D01*
G01Y213425D02*
G03X255675I-4100J0D01*
G01Y223425D02*
G03X255675I-4100J0D01*
G01X259958Y256299D02*
G03X259958I-2871J0D01*
G01Y271260D02*
G03X259958I-2871J0D01*
G01X256021Y276772D02*
G03X256021I-2871J0D01*
G01X244809Y116535D02*
G03X244809I-4100J0D01*
G01X248872Y229000D02*
G03X248872I-2872J0D01*
G01X246966Y279528D02*
G03X246966I-2872J0D01*
G01X234809Y116535D02*
G03X234809I-4100J0D01*
G01X204053Y155906D02*
G03X204053I-3266J0D01*
G01X195480Y141289D02*
G03X195480I-3266J0D01*
G01X194998Y164567D02*
G03X194998I-2872J0D01*
G01X163895Y196850D02*
G03X163895I-5037J0D01*
G01X140470Y129528D02*
G03X140470I-10942J0D01*
G01X143423Y156693D02*
G03X143423I-3266J0D01*
G01X132399Y196850D02*
G03X132399I-5037J0D01*
G01X328462Y321654D02*
G03X328462I-2871J0D01*
G01Y327953D02*
G03X328462I-2871J0D01*
G01X305809Y319923D02*
G03X305809I-2872J0D01*
G01X273344Y317717D02*
G03X273344I-2872J0D01*
G01X267439Y318898D02*
G03X267439I-2872J0D01*
G01X248541Y326378D02*
G03X248541I-2872J0D01*
G01X356021Y193701D02*
G03X356021I-2871J0D01*
G01X359958Y218898D02*
G03X359958I-2871J0D01*
G01X359565Y237008D02*
G03X359565I-2872J0D01*
G01X348541Y200394D02*
G03X348541I-2872J0D01*
G01X353265Y208268D02*
G03X353265I-2871J0D01*
G01X351691Y240945D02*
G03X351691I-2872J0D01*
G01X344210Y219291D02*
G03X344210I-2871J0D01*
G01Y227165D02*
G03X344210I-2871J0D01*
G01X333580Y200787D02*
G03X333580I-2871J0D01*
G01X337911Y208661D02*
G03X337911I-2872J0D01*
G01X343423Y238583D02*
G03X343423I-2872J0D01*
G01X333187Y217717D02*
G03X333187I-2872J0D01*
G01X325313Y204331D02*
G03X325313I-2872J0D01*
G01X321376Y215748D02*
G03X321376I-2872J0D01*
G01X326494Y225591D02*
G03X326494I-2872J0D01*
G01X329250Y261811D02*
G03X329250I-2872J0D01*
G01X324919Y271260D02*
G03X324919I-3265J0D01*
G01X306021Y212205D02*
G03X306021I-2871J0D01*
G01X307990Y248031D02*
G03X307990I-2872J0D01*
G01X300116Y212992D02*
G03X300116I-2872J0D01*
G01X302872Y251575D02*
G03X302872I-2872J0D01*
G01X306809Y272047D02*
G03X306809I-3266J0D01*
G01X492601Y101100D02*
Y492601D01*
X422547*
Y306880*
X401388Y285720*
X370972*
Y187689*
X288476*
Y247271*
Y252729D02*
G03Y247271I894J-2729D01*
G01Y252729D02*
Y285720D01*
X238010*
X214673Y261217*
Y207768*
X101100*
Y101100*
X492601*
X337295Y312705D02*
Y332965D01*
X235146*
Y312705*
X337295*
X369185Y189476D02*
Y285720D01*
X290264*
Y252729*
Y247271D02*
G03Y252729I-894J2729D01*
G01Y247271D02*
Y189476D01*
X369185*
X475116Y129528D02*
G03X475116I-10943J0D01*
G01X456620Y190551D02*
G03X456620I-4100J0D01*
G01Y200551D02*
G03X456620I-4100J0D01*
G01Y210551D02*
G03X456620I-4100J0D01*
G01Y220551D02*
G03X456620I-4100J0D01*
G01Y230551D02*
G03X456620I-4100J0D01*
G01Y240551D02*
G03X456620I-4100J0D01*
G01Y250551D02*
G03X456620I-4100J0D01*
G01Y260551D02*
G03X456620I-4100J0D01*
G01Y270551D02*
G03X456620I-4100J0D01*
G01Y280551D02*
G03X456620I-4100J0D01*
G01Y290551D02*
G03X456620I-4100J0D01*
G01Y300551D02*
G03X456620I-4100J0D01*
G01Y310551D02*
G03X456620I-4100J0D01*
G01Y320551D02*
G03X456620I-4100J0D01*
G01Y330551D02*
G03X456620I-4100J0D01*
G01Y340551D02*
G03X456620I-4100J0D01*
G01Y350551D02*
G03X456620I-4100J0D01*
G01Y360551D02*
G03X456620I-4100J0D01*
G01Y370551D02*
G03X456620I-4100J0D01*
G01Y380551D02*
G03X456620I-4100J0D01*
G01X475116Y464173D02*
G03X475116I-10943J0D01*
G01X446620Y190551D02*
G03X446620I-4100J0D01*
G01Y200551D02*
G03X446620I-4100J0D01*
G01Y210551D02*
G03X446620I-4100J0D01*
G01Y220551D02*
G03X446620I-4100J0D01*
G01Y230551D02*
G03X446620I-4100J0D01*
G01Y240551D02*
G03X446620I-4100J0D01*
G01Y250551D02*
G03X446620I-4100J0D01*
G01Y260551D02*
G03X446620I-4100J0D01*
G01Y270551D02*
G03X446620I-4100J0D01*
G01Y280551D02*
G03X446620I-4100J0D01*
G01Y290551D02*
G03X446620I-4100J0D01*
G01Y300551D02*
G03X446620I-4100J0D01*
G01Y310551D02*
G03X446620I-4100J0D01*
G01Y320551D02*
G03X446620I-4100J0D01*
G01Y330551D02*
G03X446620I-4100J0D01*
G01Y340551D02*
G03X446620I-4100J0D01*
G01Y350551D02*
G03X446620I-4100J0D01*
G01Y360551D02*
G03X446620I-4100J0D01*
G01Y370551D02*
G03X446620I-4100J0D01*
G01Y380551D02*
G03X446620I-4100J0D01*
G01X348541Y180315D02*
G03X348541I-3265J0D01*
G01X327281Y179921D02*
G03X327281I-2872J0D01*
G01X318620Y108268D02*
G03X318620I-2872J0D01*
G01X319013Y139764D02*
G03X319013I-2871J0D01*
G01X308777Y108268D02*
G03X308777I-2871J0D01*
G01X309171Y142520D02*
G03X309171I-2872J0D01*
G01X298935Y108268D02*
G03X298935I-2872J0D01*
G01Y142520D02*
G03X298935I-2872J0D01*
G01X283974Y237008D02*
G03X283974I-2872J0D01*
G01X279727Y247336D02*
G03X279727I-2871J0D01*
G01X284761Y278740D02*
G03X284761I-2871J0D01*
G01X273344Y255906D02*
G03X273344I-2872J0D01*
G01Y271654D02*
G03X273344I-2872J0D01*
G01X264809Y116535D02*
G03X264809I-4100J0D01*
G01X265675Y193425D02*
G03X265675I-4100J0D01*
G01Y203425D02*
G03X265675I-4100J0D01*
G01Y213425D02*
G03X265675I-4100J0D01*
G01Y223425D02*
G03X265675I-4100J0D01*
G01X269693Y279913D02*
G03X267709Y281898I779J2764D01*
X269693Y279913I-780J-2764*
G01X254809Y116535D02*
G03X254809I-4100J0D01*
G01X255675Y193425D02*
G03X255675I-4100J0D01*
G01Y203425D02*
G03X255675I-4100J0D01*
G01Y213425D02*
G03X255675I-4100J0D01*
G01Y223425D02*
G03X255675I-4100J0D01*
G01X259958Y256299D02*
G03X259958I-2871J0D01*
G01Y271260D02*
G03X259958I-2871J0D01*
G01X256021Y276772D02*
G03X256021I-2871J0D01*
G01X244809Y116535D02*
G03X244809I-4100J0D01*
G01X248872Y229000D02*
G03X248872I-2872J0D01*
G01X246966Y279528D02*
G03X246966I-2872J0D01*
G01X234809Y116535D02*
G03X234809I-4100J0D01*
G01X204053Y155906D02*
G03X204053I-3266J0D01*
G01X195480Y141289D02*
G03X195480I-3266J0D01*
G01X194998Y164567D02*
G03X194998I-2872J0D01*
G01X163895Y196850D02*
G03X163895I-5037J0D01*
G01X140470Y129528D02*
G03X140470I-10942J0D01*
G01X143423Y156693D02*
G03X143423I-3266J0D01*
G01X132399Y196850D02*
G03X132399I-5037J0D01*
G01X328462Y321654D02*
G03X328462I-2871J0D01*
G01Y327953D02*
G03X328462I-2871J0D01*
G01X305809Y319923D02*
G03X305809I-2872J0D01*
G01X273344Y317717D02*
G03X273344I-2872J0D01*
G01X267439Y318898D02*
G03X267439I-2872J0D01*
G01X244115Y318058D02*
G03X242893Y319737I1554J2414D01*
X244115Y318058I-1554J-2414*
G01X248541Y326378D02*
G03X248541I-2872J0D01*
G01X356021Y193701D02*
G03X356021I-2871J0D01*
G01X359958Y218898D02*
G03X359958I-2871J0D01*
G01X359565Y237008D02*
G03X359565I-2872J0D01*
G01X348541Y200394D02*
G03X348541I-2872J0D01*
G01X353265Y208268D02*
G03X353265I-2871J0D01*
G01X351691Y240945D02*
G03X351691I-2872J0D01*
G01X344210Y219291D02*
G03X344210I-2871J0D01*
G01Y227165D02*
G03X344210I-2871J0D01*
G01X333580Y200787D02*
G03X333580I-2871J0D01*
G01X337911Y208661D02*
G03X337911I-2872J0D01*
G01X343423Y238583D02*
G03X343423I-2872J0D01*
G01X333187Y217717D02*
G03X333187I-2872J0D01*
G01X331593Y229161D02*
G03X327856Y229501I-1672J2335D01*
X331593Y229161I1672J-2336*
G01X325313Y204331D02*
G03X325313I-2872J0D01*
G01X321376Y215748D02*
G03X321376I-2872J0D01*
G01X326494Y225591D02*
G03X326494I-2872J0D01*
G01X311751Y221032D02*
G03X312297Y226408I1241J2590D01*
G01X311295Y221305D02*
G03X311751Y221032I-1241J-2589D01*
G01X310144Y223985D02*
G03X311295Y221305I2848J-363D01*
G01X312297Y226408D02*
G03X310144Y223985I-2848J364D01*
G01X320724Y235368D02*
G03X321592Y237519I2870J92D01*
X320724Y235368I-2870J-93*
G01X322166Y245713D02*
G03X323109Y249169I2637J1137D01*
X322166Y245713I-2637J-1138*
G01X329250Y261811D02*
G03X329250I-2872J0D01*
G01X324919Y271260D02*
G03X324919I-3265J0D01*
G01X306021Y212205D02*
G03X306021I-2871J0D01*
G01X309389Y235367D02*
G03X310465Y238994I2609J1199D01*
X309389Y235367I-2610J-1199*
G01X307990Y248031D02*
G03X307990I-2872J0D01*
G01X300116Y212992D02*
G03X300116I-2872J0D01*
G01X302872Y251575D02*
G03X302872I-2872J0D01*
G01X306809Y272047D02*
G03X306809I-3266J0D01*
G01X422547Y492599D02*
X492601D01*
X422547Y491699D02*
X492601D01*
X422547Y490799D02*
X492601D01*
X422547Y489899D02*
X492601D01*
X422547Y488999D02*
X492601D01*
X422547Y488099D02*
X492601D01*
X422547Y487199D02*
X492601D01*
X422547Y486299D02*
X492601D01*
X422547Y485399D02*
X492601D01*
X422547Y484499D02*
X492601D01*
X422547Y483599D02*
X492601D01*
X422547Y482699D02*
X492601D01*
X422547Y481799D02*
X492601D01*
X422547Y480899D02*
X492601D01*
X422547Y479999D02*
X492601D01*
X422547Y479099D02*
X492601D01*
X422547Y478199D02*
X492601D01*
X422547Y477299D02*
X492601D01*
X422547Y476399D02*
X492601D01*
X422547Y475499D02*
X492601D01*
X467497Y474599D02*
X492601D01*
X469559Y473699D02*
X492601D01*
X470907Y472799D02*
X492601D01*
X471923Y471899D02*
X492601D01*
X472726Y470999D02*
X492601D01*
X473373Y470099D02*
X492601D01*
X473894Y469199D02*
X492601D01*
X474308Y468299D02*
X492601D01*
X474630Y467399D02*
X492601D01*
X474866Y466499D02*
X492601D01*
X475023Y465599D02*
X492601D01*
X475103Y464699D02*
X492601D01*
X475109Y463799D02*
X492601D01*
X475041Y462899D02*
X492601D01*
X474898Y461999D02*
X492601D01*
X474675Y461099D02*
X492601D01*
X474368Y460199D02*
X492601D01*
X473970Y459299D02*
X492601D01*
X473468Y458399D02*
X492601D01*
X472844Y457499D02*
X492601D01*
X472070Y456599D02*
X492601D01*
X471096Y455699D02*
X492601D01*
X469817Y454799D02*
X492601D01*
X467938Y453899D02*
X492601D01*
X422547Y452999D02*
X492601D01*
X422547Y452099D02*
X492601D01*
X422547Y451199D02*
X492601D01*
X422547Y450299D02*
X492601D01*
X422547Y449399D02*
X492601D01*
X422547Y448499D02*
X492601D01*
X422547Y447599D02*
X492601D01*
X422547Y446699D02*
X492601D01*
X422547Y445799D02*
X492601D01*
X422547Y444899D02*
X492601D01*
X422547Y443999D02*
X492601D01*
X422547Y443099D02*
X492601D01*
X422547Y442199D02*
X492601D01*
X422547Y441299D02*
X492601D01*
X422547Y440399D02*
X492601D01*
X422547Y439499D02*
X492601D01*
X422547Y438599D02*
X492601D01*
X422547Y437699D02*
X492601D01*
X422547Y436799D02*
X492601D01*
X422547Y435899D02*
X492601D01*
X422547Y434999D02*
X492601D01*
X422547Y434099D02*
X492601D01*
X422547Y433199D02*
X492601D01*
X422547Y432299D02*
X492601D01*
X422547Y431399D02*
X492601D01*
X422547Y430499D02*
X492601D01*
X422547Y429599D02*
X492601D01*
X422547Y428699D02*
X492601D01*
X422547Y427799D02*
X492601D01*
X422547Y426899D02*
X492601D01*
X422547Y425999D02*
X492601D01*
X422547Y425099D02*
X492601D01*
X422547Y424199D02*
X492601D01*
X422547Y423299D02*
X492601D01*
X422547Y422399D02*
X492601D01*
X422547Y421499D02*
X492601D01*
X422547Y420599D02*
X492601D01*
X422547Y419699D02*
X492601D01*
X422547Y418799D02*
X492601D01*
X422547Y417899D02*
X492601D01*
X422547Y416999D02*
X492601D01*
X422547Y416099D02*
X492601D01*
X422547Y415199D02*
X492601D01*
X422547Y414299D02*
X492601D01*
X422547Y413399D02*
X492601D01*
X422547Y412499D02*
X492601D01*
X422547Y411599D02*
X492601D01*
X422547Y410699D02*
X492601D01*
X422547Y409799D02*
X492601D01*
X422547Y408899D02*
X492601D01*
X422547Y407999D02*
X492601D01*
X422547Y407099D02*
X492601D01*
X422547Y406199D02*
X492601D01*
X422547Y405299D02*
X492601D01*
X422547Y404399D02*
X492601D01*
X422547Y403499D02*
X492601D01*
X422547Y402599D02*
X492601D01*
X422547Y401699D02*
X492601D01*
X422547Y400799D02*
X492601D01*
X422547Y399899D02*
X492601D01*
X422547Y398999D02*
X492601D01*
X422547Y398099D02*
X492601D01*
X422547Y397199D02*
X492601D01*
X422547Y396299D02*
X492601D01*
X422547Y395399D02*
X492601D01*
X422547Y394499D02*
X492601D01*
X422547Y393599D02*
X492601D01*
X422547Y392699D02*
X492601D01*
X422547Y391799D02*
X492601D01*
X422547Y390899D02*
X492601D01*
X422547Y389999D02*
X492601D01*
X422547Y389099D02*
X492601D01*
X422547Y388199D02*
X492601D01*
X422547Y387299D02*
X492601D01*
X422547Y386399D02*
X492601D01*
X422547Y385499D02*
X492601D01*
X453174Y384599D02*
X492601D01*
X455147Y383699D02*
X492601D01*
X455949Y382799D02*
X492601D01*
X456392Y381899D02*
X492601D01*
X456595Y380999D02*
X492601D01*
X456595Y380099D02*
X492601D01*
X456390Y379199D02*
X492601D01*
X455946Y378299D02*
X492601D01*
X455141Y377399D02*
X492601D01*
X453142Y376499D02*
X492601D01*
X422547Y375599D02*
X492601D01*
X422547Y374699D02*
X492601D01*
X455022Y373799D02*
X492601D01*
X455881Y372899D02*
X492601D01*
X456356Y371999D02*
X492601D01*
X456583Y371099D02*
X492601D01*
X456605Y370199D02*
X492601D01*
X456424Y369299D02*
X492601D01*
X456009Y368399D02*
X492601D01*
X455257Y367499D02*
X492601D01*
X453610Y366599D02*
X492601D01*
X422547Y365699D02*
X492601D01*
X422547Y364799D02*
X492601D01*
X454887Y363899D02*
X492601D01*
X455809Y362999D02*
X492601D01*
X456316Y362099D02*
X492601D01*
X456568Y361199D02*
X492601D01*
X456612Y360299D02*
X492601D01*
X456454Y359399D02*
X492601D01*
X456069Y358499D02*
X492601D01*
X455365Y357599D02*
X492601D01*
X453923Y356699D02*
X492601D01*
X422547Y355799D02*
X492601D01*
X422547Y354899D02*
X492601D01*
X454739Y353999D02*
X492601D01*
X455732Y353099D02*
X492601D01*
X456274Y352199D02*
X492601D01*
X456551Y351299D02*
X492601D01*
X456617Y350399D02*
X492601D01*
X456482Y349499D02*
X492601D01*
X456125Y348599D02*
X492601D01*
X455465Y347699D02*
X492601D01*
X454172Y346799D02*
X492601D01*
X422547Y345899D02*
X492601D01*
X422547Y344999D02*
X492601D01*
X454575Y344099D02*
X492601D01*
X455650Y343199D02*
X492601D01*
X456229Y342299D02*
X492601D01*
X456531Y341399D02*
X492601D01*
X456619Y340499D02*
X492601D01*
X456508Y339599D02*
X492601D01*
X456177Y338699D02*
X492601D01*
X455558Y337799D02*
X492601D01*
X454382Y336899D02*
X492601D01*
X422547Y335999D02*
X492601D01*
X422547Y335099D02*
X492601D01*
X454392Y334199D02*
X492601D01*
X455563Y333299D02*
X492601D01*
X456180Y332399D02*
X492601D01*
X456509Y331499D02*
X492601D01*
X456619Y330599D02*
X492601D01*
X456530Y329699D02*
X492601D01*
X456226Y328799D02*
X492601D01*
X455646Y327899D02*
X492601D01*
X454567Y326999D02*
X492601D01*
X422547Y326099D02*
X492601D01*
X422547Y325199D02*
X492601D01*
X454183Y324299D02*
X492601D01*
X455470Y323399D02*
X492601D01*
X456128Y322499D02*
X492601D01*
X456484Y321599D02*
X492601D01*
X456617Y320699D02*
X492601D01*
X456550Y319799D02*
X492601D01*
X456272Y318899D02*
X492601D01*
X455728Y317999D02*
X492601D01*
X454731Y317099D02*
X492601D01*
X422547Y316199D02*
X492601D01*
X422547Y315299D02*
X492601D01*
X453936Y314399D02*
X492601D01*
X455370Y313499D02*
X492601D01*
X456072Y312599D02*
X492601D01*
X456456Y311699D02*
X492601D01*
X456612Y310799D02*
X492601D01*
X456567Y309899D02*
X492601D01*
X456314Y308999D02*
X492601D01*
X455805Y308099D02*
X492601D01*
X454880Y307199D02*
X492601D01*
X421966Y306299D02*
X492601D01*
X421066Y305399D02*
X492601D01*
X453627Y304499D02*
X492601D01*
X455262Y303599D02*
X492601D01*
X456012Y302699D02*
X492601D01*
X456425Y301799D02*
X492601D01*
X456605Y300899D02*
X492601D01*
X456582Y299999D02*
X492601D01*
X456354Y299099D02*
X492601D01*
X455878Y298199D02*
X492601D01*
X455016Y297299D02*
X492601D01*
X412066Y296399D02*
X492601D01*
X411166Y295499D02*
X492601D01*
X453174Y294599D02*
X492601D01*
X455147Y293699D02*
X492601D01*
X455949Y292799D02*
X492601D01*
X456392Y291899D02*
X492601D01*
X456595Y290999D02*
X492601D01*
X456595Y290099D02*
X492601D01*
X456390Y289199D02*
X492601D01*
X455946Y288299D02*
X492601D01*
X455141Y287399D02*
X492601D01*
X453142Y286499D02*
X492601D01*
X370972Y285599D02*
X492601D01*
X370972Y284699D02*
X492601D01*
X455022Y283799D02*
X492601D01*
X455881Y282899D02*
X492601D01*
X456356Y281999D02*
X492601D01*
X456583Y281099D02*
X492601D01*
X456605Y280199D02*
X492601D01*
X456424Y279299D02*
X492601D01*
X456009Y278399D02*
X492601D01*
X455257Y277499D02*
X492601D01*
X453610Y276599D02*
X492601D01*
X370972Y275699D02*
X492601D01*
X370972Y274799D02*
X492601D01*
X454887Y273899D02*
X492601D01*
X455809Y272999D02*
X492601D01*
X456316Y272099D02*
X492601D01*
X456568Y271199D02*
X492601D01*
X456612Y270299D02*
X492601D01*
X456454Y269399D02*
X492601D01*
X456069Y268499D02*
X492601D01*
X455365Y267599D02*
X492601D01*
X453923Y266699D02*
X492601D01*
X370972Y265799D02*
X492601D01*
X370972Y264899D02*
X492601D01*
X454739Y263999D02*
X492601D01*
X455732Y263099D02*
X492601D01*
X456274Y262199D02*
X492601D01*
X456551Y261299D02*
X492601D01*
X456617Y260399D02*
X492601D01*
X456482Y259499D02*
X492601D01*
X456125Y258599D02*
X492601D01*
X455465Y257699D02*
X492601D01*
X454172Y256799D02*
X492601D01*
X370972Y255899D02*
X492601D01*
X370972Y254999D02*
X492601D01*
X454575Y254099D02*
X492601D01*
X455650Y253199D02*
X492601D01*
X456229Y252299D02*
X492601D01*
X456531Y251399D02*
X492601D01*
X456619Y250499D02*
X492601D01*
X456508Y249599D02*
X492601D01*
X456177Y248699D02*
X492601D01*
X455558Y247799D02*
X492601D01*
X454382Y246899D02*
X492601D01*
X370972Y245999D02*
X492601D01*
X370972Y245099D02*
X492601D01*
X454392Y244199D02*
X492601D01*
X455563Y243299D02*
X492601D01*
X456180Y242399D02*
X492601D01*
X456509Y241499D02*
X492601D01*
X456619Y240599D02*
X492601D01*
X456530Y239699D02*
X492601D01*
X456226Y238799D02*
X492601D01*
X455646Y237899D02*
X492601D01*
X454567Y236999D02*
X492601D01*
X370972Y236099D02*
X492601D01*
X370972Y235199D02*
X492601D01*
X454183Y234299D02*
X492601D01*
X455470Y233399D02*
X492601D01*
X456128Y232499D02*
X492601D01*
X456484Y231599D02*
X492601D01*
X456617Y230699D02*
X492601D01*
X456550Y229799D02*
X492601D01*
X456272Y228899D02*
X492601D01*
X455728Y227999D02*
X492601D01*
X454731Y227099D02*
X492601D01*
X370972Y226199D02*
X492601D01*
X370972Y225299D02*
X492601D01*
X453936Y224399D02*
X492601D01*
X455370Y223499D02*
X492601D01*
X456072Y222599D02*
X492601D01*
X456456Y221699D02*
X492601D01*
X456612Y220799D02*
X492601D01*
X456567Y219899D02*
X492601D01*
X456314Y218999D02*
X492601D01*
X455805Y218099D02*
X492601D01*
X454880Y217199D02*
X492601D01*
X370972Y216299D02*
X492601D01*
X370972Y215399D02*
X492601D01*
X453627Y214499D02*
X492601D01*
X455262Y213599D02*
X492601D01*
X456012Y212699D02*
X492601D01*
X456425Y211799D02*
X492601D01*
X456605Y210899D02*
X492601D01*
X456582Y209999D02*
X492601D01*
X456354Y209099D02*
X492601D01*
X455878Y208199D02*
X492601D01*
X455016Y207299D02*
X492601D01*
X370972Y206399D02*
X492601D01*
X370972Y205499D02*
X492601D01*
X453174Y204599D02*
X492601D01*
X455147Y203699D02*
X492601D01*
X455949Y202799D02*
X492601D01*
X456392Y201899D02*
X492601D01*
X456595Y200999D02*
X492601D01*
X456595Y200099D02*
X492601D01*
X456390Y199199D02*
X492601D01*
X455946Y198299D02*
X492601D01*
X455141Y197399D02*
X492601D01*
X453142Y196499D02*
X492601D01*
X370972Y195599D02*
X492601D01*
X370972Y194699D02*
X492601D01*
X455022Y193799D02*
X492601D01*
X455881Y192899D02*
X492601D01*
X456356Y191999D02*
X492601D01*
X456583Y191099D02*
X492601D01*
X456605Y190199D02*
X492601D01*
X456424Y189299D02*
X492601D01*
X456009Y188399D02*
X492601D01*
X455257Y187499D02*
X492601D01*
X453610Y186599D02*
X492601D01*
X101100Y185699D02*
X492601D01*
X101100Y184799D02*
X492601D01*
X101100Y183899D02*
X492601D01*
X347136Y182999D02*
X492601D01*
X348011Y182099D02*
X492601D01*
X348419Y181199D02*
X492601D01*
X348541Y180299D02*
X492601D01*
X348410Y179399D02*
X492601D01*
X347989Y178499D02*
X492601D01*
X347088Y177599D02*
X492601D01*
X101100Y176699D02*
X492601D01*
X101100Y175799D02*
X492601D01*
X101100Y174899D02*
X492601D01*
X101100Y173999D02*
X492601D01*
X101100Y173099D02*
X492601D01*
X101100Y172199D02*
X492601D01*
X101100Y171299D02*
X492601D01*
X101100Y170399D02*
X492601D01*
X101100Y169499D02*
X492601D01*
X101100Y168599D02*
X492601D01*
X101100Y167699D02*
X492601D01*
X193933Y166799D02*
X492601D01*
X194670Y165899D02*
X492601D01*
X194965Y164999D02*
X492601D01*
X194959Y164099D02*
X492601D01*
X194651Y163199D02*
X492601D01*
X193887Y162299D02*
X492601D01*
X101100Y161399D02*
X492601D01*
X101100Y160499D02*
X492601D01*
X141647Y159599D02*
X492601D01*
X202479Y158699D02*
X492601D01*
X203448Y157799D02*
X492601D01*
X203898Y156899D02*
X492601D01*
X204051Y155999D02*
X492601D01*
X203952Y155099D02*
X492601D01*
X203571Y154199D02*
X492601D01*
X202754Y153299D02*
X492601D01*
X101100Y152399D02*
X492601D01*
X101100Y151499D02*
X492601D01*
X101100Y150599D02*
X492601D01*
X101100Y149699D02*
X492601D01*
X101100Y148799D02*
X492601D01*
X101100Y147899D02*
X492601D01*
X101100Y146999D02*
X492601D01*
X101100Y146099D02*
X492601D01*
X307333Y145199D02*
X492601D01*
X308553Y144299D02*
X492601D01*
X309033Y143399D02*
X492601D01*
X317017Y142499D02*
X492601D01*
X318351Y141599D02*
X492601D01*
X318857Y140699D02*
X492601D01*
X467947Y139799D02*
X492601D01*
X469823Y138899D02*
X492601D01*
X471100Y137999D02*
X492601D01*
X472074Y137099D02*
X492601D01*
X472847Y136199D02*
X492601D01*
X473470Y135299D02*
X492601D01*
X473972Y134399D02*
X492601D01*
X474370Y133499D02*
X492601D01*
X474676Y132599D02*
X492601D01*
X474898Y131699D02*
X492601D01*
X475042Y130799D02*
X492601D01*
X475109Y129899D02*
X492601D01*
X475103Y128999D02*
X492601D01*
X475022Y128099D02*
X492601D01*
X474865Y127199D02*
X492601D01*
X474629Y126299D02*
X492601D01*
X474307Y125399D02*
X492601D01*
X473892Y124499D02*
X492601D01*
X473370Y123599D02*
X492601D01*
X472723Y122699D02*
X492601D01*
X471919Y121799D02*
X492601D01*
X470902Y120899D02*
X492601D01*
X469553Y119999D02*
X492601D01*
X467487Y119099D02*
X492601D01*
X264456Y118199D02*
X492601D01*
X264737Y117299D02*
X492601D01*
X264806Y116399D02*
X492601D01*
X264675Y115499D02*
X492601D01*
X264322Y114599D02*
X492601D01*
X263669Y113699D02*
X492601D01*
X262396Y112799D02*
X492601D01*
X101100Y111899D02*
X492601D01*
X316636Y110999D02*
X492601D01*
X317960Y110099D02*
X492601D01*
X318465Y109199D02*
X492601D01*
X318620Y108299D02*
X492601D01*
X318485Y107399D02*
X492601D01*
X318010Y106499D02*
X492601D01*
X316808Y105599D02*
X492601D01*
X101100Y104699D02*
X492601D01*
X101100Y103799D02*
X492601D01*
X101100Y102899D02*
X492601D01*
X101100Y101999D02*
X492601D01*
X263909Y119099D02*
X460860D01*
X422547Y474599D02*
X460849D01*
X422547Y453899D02*
X460408D01*
X319013Y139799D02*
X460399D01*
X262903Y119999D02*
X458794D01*
X422547Y473699D02*
X458788D01*
X422547Y454799D02*
X458529D01*
X318880Y138899D02*
X458523D01*
X136257Y120899D02*
X457444D01*
X422547Y472799D02*
X457440D01*
X422547Y455699D02*
X457251D01*
X318407Y137999D02*
X457247D01*
X137274Y121799D02*
X456427D01*
X422547Y471899D02*
X456424D01*
X422547Y456599D02*
X456276D01*
X317211Y137099D02*
X456273D01*
X138078Y122699D02*
X455623D01*
X422547Y470999D02*
X455620D01*
X422547Y457499D02*
X455502D01*
X138201Y136199D02*
X455499D01*
X138725Y123599D02*
X454976D01*
X422547Y470099D02*
X454974D01*
X422547Y458399D02*
X454878D01*
X138824Y135299D02*
X454876D01*
X139246Y124499D02*
X454455D01*
X422547Y469199D02*
X454453D01*
X422547Y459299D02*
X454376D01*
X139326Y134399D02*
X454375D01*
X139661Y125399D02*
X454040D01*
X422547Y468299D02*
X454038D01*
X422547Y460199D02*
X453978D01*
X139724Y133499D02*
X453977D01*
X139983Y126299D02*
X453718D01*
X422547Y467399D02*
X453717D01*
X422547Y461099D02*
X453671D01*
X140030Y132599D02*
X453671D01*
X140219Y127199D02*
X453481D01*
X422547Y466499D02*
X453481D01*
X422547Y461999D02*
X453449D01*
X140253Y131699D02*
X453448D01*
X140376Y128099D02*
X453324D01*
X422547Y465599D02*
X453324D01*
X422547Y462899D02*
X453305D01*
X140396Y130799D02*
X453305D01*
X140457Y128999D02*
X453243D01*
X422547Y464699D02*
X453243D01*
X422547Y463799D02*
X453237D01*
X140464Y129899D02*
X453237D01*
X443142Y376499D02*
X451897D01*
X443142Y286499D02*
X451897D01*
X443142Y196499D02*
X451897D01*
X443174Y384599D02*
X451866D01*
X443174Y294599D02*
X451866D01*
X443174Y204599D02*
X451866D01*
X443610Y366599D02*
X451430D01*
X443610Y276599D02*
X451430D01*
X443610Y186599D02*
X451430D01*
X443627Y304499D02*
X451412D01*
X443627Y214499D02*
X451412D01*
X443923Y356699D02*
X451117D01*
X443923Y266699D02*
X451117D01*
X443936Y314399D02*
X451103D01*
X443936Y224399D02*
X451103D01*
X444172Y346799D02*
X450868D01*
X444172Y256799D02*
X450868D01*
X444183Y324299D02*
X450856D01*
X444183Y234299D02*
X450856D01*
X444382Y336899D02*
X450657D01*
X444382Y246899D02*
X450657D01*
X444392Y334199D02*
X450647D01*
X444392Y244199D02*
X450647D01*
X444567Y326999D02*
X450473D01*
X444567Y236999D02*
X450473D01*
X444575Y344099D02*
X450464D01*
X444575Y254099D02*
X450464D01*
X444731Y317099D02*
X450308D01*
X444731Y227099D02*
X450308D01*
X444739Y353999D02*
X450301D01*
X444739Y263999D02*
X450301D01*
X444880Y307199D02*
X450159D01*
X444880Y217199D02*
X450159D01*
X444887Y363899D02*
X450152D01*
X444887Y273899D02*
X450152D01*
X445016Y297299D02*
X450023D01*
X445016Y207299D02*
X450023D01*
X445022Y373799D02*
X450017D01*
X445022Y283799D02*
X450017D01*
X445022Y193799D02*
X450017D01*
X445141Y377399D02*
X449898D01*
X445141Y287399D02*
X449898D01*
X445141Y197399D02*
X449898D01*
X445147Y383699D02*
X449892D01*
X445147Y293699D02*
X449892D01*
X445147Y203699D02*
X449892D01*
X445257Y367499D02*
X449782D01*
X445257Y277499D02*
X449782D01*
X445257Y187499D02*
X449782D01*
X445262Y303599D02*
X449777D01*
X445262Y213599D02*
X449777D01*
X445365Y357599D02*
X449675D01*
X445365Y267599D02*
X449675D01*
X445370Y313499D02*
X449670D01*
X445370Y223499D02*
X449670D01*
X445465Y347699D02*
X449575D01*
X445465Y257699D02*
X449575D01*
X445470Y323399D02*
X449570D01*
X445470Y233399D02*
X449570D01*
X445558Y337799D02*
X449481D01*
X445558Y247799D02*
X449481D01*
X445563Y333299D02*
X449476D01*
X445563Y243299D02*
X449476D01*
X445646Y327899D02*
X449393D01*
X445646Y237899D02*
X449393D01*
X445650Y343199D02*
X449389D01*
X445650Y253199D02*
X449389D01*
X445728Y317999D02*
X449311D01*
X445728Y227999D02*
X449311D01*
X445732Y353099D02*
X449307D01*
X445732Y263099D02*
X449307D01*
X445805Y308099D02*
X449234D01*
X445805Y218099D02*
X449234D01*
X445809Y362999D02*
X449230D01*
X445809Y272999D02*
X449230D01*
X445878Y298199D02*
X449162D01*
X445878Y208199D02*
X449162D01*
X445881Y372899D02*
X449158D01*
X445881Y282899D02*
X449158D01*
X445881Y192899D02*
X449158D01*
X445946Y378299D02*
X449094D01*
X445946Y288299D02*
X449094D01*
X445946Y198299D02*
X449094D01*
X445949Y382799D02*
X449091D01*
X445949Y292799D02*
X449091D01*
X445949Y202799D02*
X449091D01*
X446009Y368399D02*
X449030D01*
X446009Y278399D02*
X449030D01*
X446009Y188399D02*
X449030D01*
X446012Y302699D02*
X449027D01*
X446012Y212699D02*
X449027D01*
X446069Y358499D02*
X448970D01*
X446069Y268499D02*
X448970D01*
X446072Y312599D02*
X448968D01*
X446072Y222599D02*
X448968D01*
X446125Y348599D02*
X448914D01*
X446125Y258599D02*
X448914D01*
X446128Y322499D02*
X448912D01*
X446128Y232499D02*
X448912D01*
X446177Y338699D02*
X448862D01*
X446177Y248699D02*
X448862D01*
X446180Y332399D02*
X448860D01*
X446180Y242399D02*
X448860D01*
X446226Y328799D02*
X448813D01*
X446226Y238799D02*
X448813D01*
X446229Y342299D02*
X448811D01*
X446229Y252299D02*
X448811D01*
X446272Y318899D02*
X448767D01*
X446272Y228899D02*
X448767D01*
X446274Y352199D02*
X448765D01*
X446274Y262199D02*
X448765D01*
X446314Y308999D02*
X448725D01*
X446314Y218999D02*
X448725D01*
X446316Y362099D02*
X448723D01*
X446316Y272099D02*
X448723D01*
X446354Y299099D02*
X448686D01*
X446354Y209099D02*
X448686D01*
X446356Y371999D02*
X448684D01*
X446356Y281999D02*
X448684D01*
X446356Y191999D02*
X448684D01*
X446390Y379199D02*
X448649D01*
X446390Y289199D02*
X448649D01*
X446390Y199199D02*
X448649D01*
X446392Y381899D02*
X448647D01*
X446392Y291899D02*
X448647D01*
X446392Y201899D02*
X448647D01*
X446424Y369299D02*
X448616D01*
X446424Y279299D02*
X448616D01*
X446424Y189299D02*
X448616D01*
X446425Y301799D02*
X448614D01*
X446425Y211799D02*
X448614D01*
X446454Y359399D02*
X448585D01*
X446454Y269399D02*
X448585D01*
X446456Y311699D02*
X448584D01*
X446456Y221699D02*
X448584D01*
X446482Y349499D02*
X448557D01*
X446482Y259499D02*
X448557D01*
X446484Y321599D02*
X448556D01*
X446484Y231599D02*
X448556D01*
X446508Y339599D02*
X448532D01*
X446508Y249599D02*
X448532D01*
X446509Y331499D02*
X448531D01*
X446509Y241499D02*
X448531D01*
X446530Y329699D02*
X448509D01*
X446530Y239699D02*
X448509D01*
X446531Y341399D02*
X448508D01*
X446531Y251399D02*
X448508D01*
X446550Y319799D02*
X448489D01*
X446550Y229799D02*
X448489D01*
X446551Y351299D02*
X448488D01*
X446551Y261299D02*
X448488D01*
X446567Y309899D02*
X448472D01*
X446567Y219899D02*
X448472D01*
X446568Y361199D02*
X448471D01*
X446568Y271199D02*
X448471D01*
X446582Y299999D02*
X448457D01*
X446582Y209999D02*
X448457D01*
X446583Y371099D02*
X448456D01*
X446583Y281099D02*
X448456D01*
X446583Y191099D02*
X448456D01*
X446595Y380099D02*
X448445D01*
X446595Y290099D02*
X448445D01*
X446595Y200099D02*
X448445D01*
X446595Y380999D02*
X448444D01*
X446595Y290999D02*
X448444D01*
X446595Y200999D02*
X448444D01*
X446605Y370199D02*
X448435D01*
X446605Y280199D02*
X448435D01*
X446605Y190199D02*
X448435D01*
X446605Y300899D02*
X448434D01*
X446605Y210899D02*
X448434D01*
X446612Y360299D02*
X448427D01*
X446612Y270299D02*
X448427D01*
X446612Y310799D02*
X448427D01*
X446612Y220799D02*
X448427D01*
X446617Y350399D02*
X448423D01*
X446617Y260399D02*
X448423D01*
X446617Y320699D02*
X448422D01*
X446617Y230699D02*
X448422D01*
X446619Y340499D02*
X448420D01*
X446619Y250499D02*
X448420D01*
X446619Y330599D02*
X448420D01*
X446619Y240599D02*
X448420D01*
X422547Y376499D02*
X441897D01*
X402166Y286499D02*
X441897D01*
X370972Y196499D02*
X441897D01*
X422547Y384599D02*
X441866D01*
X410266Y294599D02*
X441866D01*
X370972Y204599D02*
X441866D01*
X422547Y366599D02*
X441430D01*
X370972Y276599D02*
X441430D01*
X101100Y186599D02*
X441430D01*
X420166Y304499D02*
X441412D01*
X370972Y214499D02*
X441412D01*
X422547Y356699D02*
X441117D01*
X370972Y266699D02*
X441117D01*
X422547Y314399D02*
X441103D01*
X370972Y224399D02*
X441103D01*
X422547Y346799D02*
X440868D01*
X370972Y256799D02*
X440868D01*
X422547Y324299D02*
X440856D01*
X370972Y234299D02*
X440856D01*
X422547Y336899D02*
X440657D01*
X370972Y246899D02*
X440657D01*
X422547Y334199D02*
X440647D01*
X370972Y244199D02*
X440647D01*
X422547Y326999D02*
X440473D01*
X370972Y236999D02*
X440473D01*
X422547Y344099D02*
X440464D01*
X370972Y254099D02*
X440464D01*
X422547Y317099D02*
X440308D01*
X370972Y227099D02*
X440308D01*
X422547Y353999D02*
X440301D01*
X370972Y263999D02*
X440301D01*
X422547Y307199D02*
X440159D01*
X370972Y217199D02*
X440159D01*
X422547Y363899D02*
X440152D01*
X370972Y273899D02*
X440152D01*
X412966Y297299D02*
X440023D01*
X370972Y207299D02*
X440023D01*
X422547Y373799D02*
X440017D01*
X370972Y283799D02*
X440017D01*
X370972Y193799D02*
X440017D01*
X422547Y377399D02*
X439898D01*
X403066Y287399D02*
X439898D01*
X370972Y197399D02*
X439898D01*
X422547Y383699D02*
X439892D01*
X409366Y293699D02*
X439892D01*
X370972Y203699D02*
X439892D01*
X422547Y367499D02*
X439782D01*
X370972Y277499D02*
X439782D01*
X101100Y187499D02*
X439782D01*
X419266Y303599D02*
X439777D01*
X370972Y213599D02*
X439777D01*
X422547Y357599D02*
X439675D01*
X370972Y267599D02*
X439675D01*
X422547Y313499D02*
X439670D01*
X370972Y223499D02*
X439670D01*
X422547Y347699D02*
X439575D01*
X370972Y257699D02*
X439575D01*
X422547Y323399D02*
X439570D01*
X370972Y233399D02*
X439570D01*
X422547Y337799D02*
X439481D01*
X370972Y247799D02*
X439481D01*
X422547Y333299D02*
X439476D01*
X370972Y243299D02*
X439476D01*
X422547Y327899D02*
X439393D01*
X370972Y237899D02*
X439393D01*
X422547Y343199D02*
X439389D01*
X370972Y253199D02*
X439389D01*
X422547Y317999D02*
X439311D01*
X370972Y227999D02*
X439311D01*
X422547Y353099D02*
X439307D01*
X370972Y263099D02*
X439307D01*
X422547Y308099D02*
X439234D01*
X370972Y218099D02*
X439234D01*
X422547Y362999D02*
X439230D01*
X370972Y272999D02*
X439230D01*
X413866Y298199D02*
X439162D01*
X370972Y208199D02*
X439162D01*
X422547Y372899D02*
X439158D01*
X370972Y282899D02*
X439158D01*
X370972Y192899D02*
X439158D01*
X422547Y378299D02*
X439094D01*
X403966Y288299D02*
X439094D01*
X370972Y198299D02*
X439094D01*
X422547Y382799D02*
X439091D01*
X408466Y292799D02*
X439091D01*
X370972Y202799D02*
X439091D01*
X422547Y368399D02*
X439030D01*
X370972Y278399D02*
X439030D01*
X370972Y188399D02*
X439030D01*
X418366Y302699D02*
X439027D01*
X370972Y212699D02*
X439027D01*
X422547Y358499D02*
X438970D01*
X370972Y268499D02*
X438970D01*
X422547Y312599D02*
X438968D01*
X370972Y222599D02*
X438968D01*
X422547Y348599D02*
X438914D01*
X370972Y258599D02*
X438914D01*
X422547Y322499D02*
X438912D01*
X370972Y232499D02*
X438912D01*
X422547Y338699D02*
X438862D01*
X370972Y248699D02*
X438862D01*
X422547Y332399D02*
X438860D01*
X370972Y242399D02*
X438860D01*
X422547Y328799D02*
X438813D01*
X370972Y238799D02*
X438813D01*
X422547Y342299D02*
X438811D01*
X370972Y252299D02*
X438811D01*
X422547Y318899D02*
X438767D01*
X370972Y228899D02*
X438767D01*
X422547Y352199D02*
X438765D01*
X370972Y262199D02*
X438765D01*
X422547Y308999D02*
X438725D01*
X370972Y218999D02*
X438725D01*
X422547Y362099D02*
X438723D01*
X370972Y272099D02*
X438723D01*
X414766Y299099D02*
X438686D01*
X370972Y209099D02*
X438686D01*
X422547Y371999D02*
X438684D01*
X370972Y281999D02*
X438684D01*
X370972Y191999D02*
X438684D01*
X422547Y379199D02*
X438649D01*
X404866Y289199D02*
X438649D01*
X370972Y199199D02*
X438649D01*
X422547Y381899D02*
X438647D01*
X407566Y291899D02*
X438647D01*
X370972Y201899D02*
X438647D01*
X422547Y369299D02*
X438616D01*
X370972Y279299D02*
X438616D01*
X370972Y189299D02*
X438616D01*
X417466Y301799D02*
X438614D01*
X370972Y211799D02*
X438614D01*
X422547Y359399D02*
X438585D01*
X370972Y269399D02*
X438585D01*
X422547Y311699D02*
X438584D01*
X370972Y221699D02*
X438584D01*
X422547Y349499D02*
X438557D01*
X370972Y259499D02*
X438557D01*
X422547Y321599D02*
X438556D01*
X370972Y231599D02*
X438556D01*
X422547Y339599D02*
X438532D01*
X370972Y249599D02*
X438532D01*
X422547Y331499D02*
X438531D01*
X370972Y241499D02*
X438531D01*
X422547Y329699D02*
X438509D01*
X370972Y239699D02*
X438509D01*
X422547Y341399D02*
X438508D01*
X370972Y251399D02*
X438508D01*
X422547Y319799D02*
X438489D01*
X370972Y229799D02*
X438489D01*
X422547Y351299D02*
X438488D01*
X370972Y261299D02*
X438488D01*
X422547Y309899D02*
X438472D01*
X370972Y219899D02*
X438472D01*
X422547Y361199D02*
X438471D01*
X370972Y271199D02*
X438471D01*
X415666Y299999D02*
X438457D01*
X370972Y209999D02*
X438457D01*
X422547Y371099D02*
X438456D01*
X370972Y281099D02*
X438456D01*
X370972Y191099D02*
X438456D01*
X422547Y380099D02*
X438445D01*
X405766Y290099D02*
X438445D01*
X370972Y200099D02*
X438445D01*
X422547Y380999D02*
X438444D01*
X406666Y290999D02*
X438444D01*
X370972Y200999D02*
X438444D01*
X422547Y370199D02*
X438435D01*
X370972Y280199D02*
X438435D01*
X370972Y190199D02*
X438435D01*
X416566Y300899D02*
X438434D01*
X370972Y210899D02*
X438434D01*
X422547Y360299D02*
X438427D01*
X370972Y270299D02*
X438427D01*
X422547Y310799D02*
X438427D01*
X370972Y220799D02*
X438427D01*
X422547Y350399D02*
X438423D01*
X370972Y260399D02*
X438423D01*
X422547Y320699D02*
X438422D01*
X370972Y230699D02*
X438422D01*
X422547Y340499D02*
X438420D01*
X370972Y250499D02*
X438420D01*
X422547Y330599D02*
X438420D01*
X370972Y240599D02*
X438420D01*
X326098Y177599D02*
X343463D01*
X101100Y182999D02*
X343415D01*
X326904Y178499D02*
X342562D01*
X326282Y182099D02*
X342540D01*
X327233Y179399D02*
X342141D01*
X326981Y181199D02*
X342132D01*
X327256Y180299D02*
X342010D01*
X101100Y177599D02*
X322721D01*
X101100Y182099D02*
X322537D01*
X101100Y178499D02*
X321915D01*
X101100Y181199D02*
X321838D01*
X101100Y179399D02*
X321586D01*
X101100Y180299D02*
X321563D01*
X309171Y142499D02*
X315266D01*
X137428Y137099D02*
X315072D01*
X306793Y110999D02*
X314860D01*
X306965Y105599D02*
X314688D01*
X309019Y141599D02*
X313933D01*
X136454Y137999D02*
X313877D01*
X308118Y110099D02*
X313536D01*
X308168Y106499D02*
X313486D01*
X308520Y140699D02*
X313427D01*
X194439Y138899D02*
X313403D01*
X307217Y139799D02*
X313270D01*
X308622Y109199D02*
X313031D01*
X308643Y107399D02*
X313011D01*
X308777Y108299D02*
X312877D01*
X296981Y139799D02*
X305381D01*
X297097Y145199D02*
X305265D01*
X296951Y110999D02*
X305018D01*
X297123Y105599D02*
X304846D01*
X298283Y140699D02*
X304079D01*
X298317Y144299D02*
X304045D01*
X298275Y110099D02*
X303693D01*
X298325Y106499D02*
X303643D01*
X298783Y141599D02*
X303579D01*
X298797Y143399D02*
X303565D01*
X298935Y142499D02*
X303428D01*
X298780Y109199D02*
X303189D01*
X298800Y107399D02*
X303168D01*
X298934Y108299D02*
X303034D01*
X101100Y110999D02*
X295175D01*
X195120Y139799D02*
X295145D01*
X101100Y145199D02*
X295029D01*
X101100Y105599D02*
X295003D01*
X101100Y110099D02*
X293851D01*
X195426Y140699D02*
X293843D01*
X193482Y144299D02*
X293809D01*
X101100Y106499D02*
X293801D01*
X101100Y109199D02*
X293346D01*
X195465Y141599D02*
X293343D01*
X194707Y143399D02*
X293329D01*
X101100Y107399D02*
X293326D01*
X101100Y108299D02*
X293191D01*
X195248Y142499D02*
X293191D01*
X237894Y285599D02*
X288476D01*
X272512Y284699D02*
X288476D01*
X273116Y283799D02*
X288476D01*
X273336Y282899D02*
X288476D01*
X273263Y281999D02*
X288476D01*
X283528Y281099D02*
X288476D01*
X284363Y280199D02*
X288476D01*
X284707Y279299D02*
X288476D01*
X284741Y278399D02*
X288476D01*
X284479Y277499D02*
X288476D01*
X283803Y276599D02*
X288476D01*
X255813Y275699D02*
X288476D01*
X255236Y274799D02*
X288476D01*
X272263Y273899D02*
X288476D01*
X273010Y272999D02*
X288476D01*
X273309Y272099D02*
X288476D01*
X273308Y271199D02*
X288476D01*
X273004Y270299D02*
X288476D01*
X272251Y269399D02*
X288476D01*
X257876Y268499D02*
X288476D01*
X220751Y267599D02*
X288476D01*
X219894Y266699D02*
X288476D01*
X219036Y265799D02*
X288476D01*
X218179Y264899D02*
X288476D01*
X217322Y263999D02*
X288476D01*
X216465Y263099D02*
X288476D01*
X215608Y262199D02*
X288476D01*
X214751Y261299D02*
X288476D01*
X214673Y260399D02*
X288476D01*
X214673Y259499D02*
X288476D01*
X271469Y258599D02*
X288476D01*
X272715Y257699D02*
X288476D01*
X273202Y256799D02*
X288476D01*
X273344Y255899D02*
X288476D01*
X273197Y254999D02*
X288476D01*
X272704Y254099D02*
X288476D01*
X271431Y253199D02*
X288476D01*
X279694Y246899D02*
X288476D01*
X279397Y245999D02*
X288476D01*
X278656Y245099D02*
X288476D01*
X214673Y244199D02*
X288476D01*
X214673Y243299D02*
X288476D01*
X214673Y242399D02*
X288476D01*
X214673Y241499D02*
X288476D01*
X214673Y240599D02*
X288476D01*
X282105Y239699D02*
X288476D01*
X283347Y238799D02*
X288476D01*
X283832Y237899D02*
X288476D01*
X283974Y236999D02*
X288476D01*
X283826Y236099D02*
X288476D01*
X283332Y235199D02*
X288476D01*
X282055Y234299D02*
X288476D01*
X214673Y233399D02*
X288476D01*
X214673Y232499D02*
X288476D01*
X247222Y231599D02*
X288476D01*
X248315Y230699D02*
X288476D01*
X248758Y229799D02*
X288476D01*
X248870Y228899D02*
X288476D01*
X248691Y227999D02*
X288476D01*
X263396Y227099D02*
X288476D01*
X264594Y226199D02*
X288476D01*
X265222Y225299D02*
X288476D01*
X265558Y224399D02*
X288476D01*
X265674Y223499D02*
X288476D01*
X265591Y222599D02*
X288476D01*
X265294Y221699D02*
X288476D01*
X264723Y220799D02*
X288476D01*
X263666Y219899D02*
X288476D01*
X214673Y218999D02*
X288476D01*
X214673Y218099D02*
X288476D01*
X263178Y217199D02*
X288476D01*
X264499Y216299D02*
X288476D01*
X265169Y215399D02*
X288476D01*
X265532Y214499D02*
X288476D01*
X265671Y213599D02*
X288476D01*
X265610Y212699D02*
X288476D01*
X265338Y211799D02*
X288476D01*
X264804Y210899D02*
X288476D01*
X263826Y209999D02*
X288476D01*
X214673Y209099D02*
X288476D01*
X214673Y208199D02*
X288476D01*
X262919Y207299D02*
X288476D01*
X264398Y206399D02*
X288476D01*
X265112Y205499D02*
X288476D01*
X265503Y204599D02*
X288476D01*
X265666Y203699D02*
X288476D01*
X265627Y202799D02*
X288476D01*
X265380Y201899D02*
X288476D01*
X264880Y200999D02*
X288476D01*
X263972Y200099D02*
X288476D01*
X163314Y199199D02*
X288476D01*
X163683Y198299D02*
X288476D01*
X262585Y197399D02*
X288476D01*
X264288Y196499D02*
X288476D01*
X265051Y195599D02*
X288476D01*
X265472Y194699D02*
X288476D01*
X265658Y193799D02*
X288476D01*
X265641Y192899D02*
X288476D01*
X265419Y191999D02*
X288476D01*
X264951Y191099D02*
X288476D01*
X264105Y190199D02*
X288476D01*
X101100Y189299D02*
X288476D01*
X101100Y188399D02*
X288476D01*
X214673Y252299D02*
X287649D01*
X279690Y247799D02*
X287526D01*
X214673Y251399D02*
X286862D01*
X279384Y248699D02*
X286810D01*
X214673Y250499D02*
X286542D01*
X278624Y249599D02*
X286527D01*
X272871Y281099D02*
X280252D01*
X214673Y234299D02*
X280150D01*
X214673Y239699D02*
X280099D01*
X268278Y276599D02*
X279976D01*
X271923Y280199D02*
X279416D01*
X269290Y277499D02*
X279300D01*
X269796Y279299D02*
X279073D01*
X269705Y278399D02*
X279038D01*
X214673Y235199D02*
X278872D01*
X214673Y238799D02*
X278857D01*
X214673Y236099D02*
X278378D01*
X214673Y237899D02*
X278372D01*
X214673Y236999D02*
X278231D01*
X214673Y249599D02*
X275087D01*
X214673Y245099D02*
X275056D01*
X214673Y248699D02*
X274328D01*
X214673Y245999D02*
X274314D01*
X214673Y247799D02*
X274022D01*
X214673Y246899D02*
X274018D01*
X214673Y253199D02*
X269513D01*
X258807Y258599D02*
X269476D01*
X259274Y269399D02*
X268694D01*
X258219Y273899D02*
X268682D01*
X237036Y284699D02*
X268433D01*
X258932Y254099D02*
X268240D01*
X259594Y257699D02*
X268229D01*
X259793Y270299D02*
X267940D01*
X259372Y272999D02*
X267935D01*
X236179Y283799D02*
X267829D01*
X259647Y254999D02*
X267748D01*
X259915Y256799D02*
X267743D01*
X267127Y281999D02*
X267682D01*
X259958Y271199D02*
X267637D01*
X259833Y272099D02*
X267635D01*
X235322Y282899D02*
X267609D01*
X259930Y255899D02*
X267601D01*
X245557Y281999D02*
X266731D01*
X256016Y276599D02*
X265580D01*
X246498Y281099D02*
X264835D01*
X255928Y277499D02*
X264568D01*
X246887Y280199D02*
X264262D01*
X255516Y278399D02*
X264153D01*
X254514Y279299D02*
X264062D01*
X252585Y197399D02*
X260564D01*
X252919Y207299D02*
X260231D01*
X253178Y217199D02*
X259971D01*
X253396Y227099D02*
X259754D01*
X253666Y219899D02*
X259483D01*
X253826Y209999D02*
X259323D01*
X253972Y200099D02*
X259178D01*
X254105Y190199D02*
X259045D01*
X252396Y112799D02*
X259021D01*
X254288Y196499D02*
X258861D01*
X254398Y206399D02*
X258752D01*
X254499Y216299D02*
X258650D01*
X254594Y226199D02*
X258555D01*
X252903Y119999D02*
X258514D01*
X254723Y220799D02*
X258427D01*
X254804Y210899D02*
X258346D01*
X254880Y200999D02*
X258270D01*
X254951Y191099D02*
X258199D01*
X255051Y195599D02*
X258098D01*
X255112Y205499D02*
X258038D01*
X255169Y215399D02*
X257981D01*
X255222Y225299D02*
X257928D01*
X255294Y221699D02*
X257856D01*
X255338Y211799D02*
X257811D01*
X255380Y201899D02*
X257770D01*
X253669Y113699D02*
X257748D01*
X255419Y191999D02*
X257731D01*
X255472Y194699D02*
X257678D01*
X255503Y204599D02*
X257646D01*
X255532Y214499D02*
X257618D01*
X255558Y224399D02*
X257592D01*
X255591Y222599D02*
X257559D01*
X255610Y212699D02*
X257540D01*
X255627Y202799D02*
X257523D01*
X255641Y192899D02*
X257509D01*
X253909Y119099D02*
X257509D01*
X255658Y193799D02*
X257492D01*
X255666Y203699D02*
X257484D01*
X255671Y213599D02*
X257478D01*
X255674Y223499D02*
X257475D01*
X254322Y114599D02*
X257095D01*
X254456Y118199D02*
X256961D01*
X254675Y115499D02*
X256742D01*
X254737Y117299D02*
X256680D01*
X254806Y116399D02*
X256611D01*
X221608Y268499D02*
X256298D01*
X226751Y273899D02*
X255954D01*
X214673Y258599D02*
X255366D01*
X214673Y254099D02*
X255242D01*
X222465Y269399D02*
X254900D01*
X225894Y272999D02*
X254801D01*
X214673Y257699D02*
X254579D01*
X214673Y254999D02*
X254526D01*
X223322Y270299D02*
X254381D01*
X225036Y272099D02*
X254340D01*
X214673Y256799D02*
X254259D01*
X214673Y255899D02*
X254243D01*
X224179Y271199D02*
X254216D01*
X246957Y279299D02*
X251786D01*
X227608Y274799D02*
X251063D01*
X246735Y278399D02*
X250783D01*
X163865Y197399D02*
X250564D01*
X228465Y275699D02*
X250486D01*
X246127Y277499D02*
X250371D01*
X229322Y276599D02*
X250283D01*
X101100Y207299D02*
X250231D01*
X214673Y217199D02*
X249971D01*
X248152Y227099D02*
X249754D01*
X214673Y219899D02*
X249483D01*
X214673Y209999D02*
X249323D01*
X162708Y200099D02*
X249178D01*
X101100Y190199D02*
X249045D01*
X242396Y112799D02*
X249021D01*
X163883Y196499D02*
X248861D01*
X101100Y206399D02*
X248752D01*
X214673Y216299D02*
X248650D01*
X246632Y226199D02*
X248555D01*
X242903Y119999D02*
X248514D01*
X214673Y220799D02*
X248427D01*
X214673Y210899D02*
X248346D01*
X161715Y200999D02*
X248270D01*
X101100Y191099D02*
X248199D01*
X163737Y195599D02*
X248098D01*
X101100Y205499D02*
X248038D01*
X214673Y215399D02*
X247981D01*
X214673Y225299D02*
X247928D01*
X214673Y221699D02*
X247856D01*
X214673Y211799D02*
X247811D01*
X101100Y201899D02*
X247770D01*
X243669Y113699D02*
X247748D01*
X160212Y191999D02*
X247731D01*
X163413Y194699D02*
X247678D01*
X101100Y204599D02*
X247646D01*
X214673Y214499D02*
X247618D01*
X214673Y224399D02*
X247592D01*
X214673Y222599D02*
X247559D01*
X214673Y212699D02*
X247540D01*
X101100Y202799D02*
X247523D01*
X161982Y192899D02*
X247509D01*
X243909Y119099D02*
X247509D01*
X162866Y193799D02*
X247492D01*
X101100Y203699D02*
X247484D01*
X214673Y213599D02*
X247478D01*
X214673Y223499D02*
X247475D01*
X244322Y114599D02*
X247095D01*
X244456Y118199D02*
X246961D01*
X244675Y115499D02*
X246742D01*
X244737Y117299D02*
X246680D01*
X244806Y116399D02*
X246611D01*
X214673Y226199D02*
X245368D01*
X214673Y231599D02*
X244778D01*
X214673Y227099D02*
X243848D01*
X214673Y230699D02*
X243685D01*
X214673Y227999D02*
X243309D01*
X214673Y229799D02*
X243242D01*
X214673Y228899D02*
X243130D01*
X234465Y281999D02*
X242632D01*
X230179Y277499D02*
X242062D01*
X233608Y281099D02*
X241691D01*
X231036Y278399D02*
X241454D01*
X232751Y280199D02*
X241302D01*
X231894Y279299D02*
X241232D01*
X232396Y112799D02*
X239021D01*
X232903Y119999D02*
X238514D01*
X233669Y113699D02*
X237748D01*
X233909Y119099D02*
X237509D01*
X234322Y114599D02*
X237095D01*
X234456Y118199D02*
X236961D01*
X234675Y115499D02*
X236742D01*
X234737Y117299D02*
X236680D01*
X234806Y116399D02*
X236611D01*
X101100Y112799D02*
X229021D01*
X134907Y119999D02*
X228514D01*
X101100Y113699D02*
X227748D01*
X132841Y119099D02*
X227509D01*
X101100Y114599D02*
X227095D01*
X101100Y118199D02*
X226961D01*
X101100Y115499D02*
X226742D01*
X101100Y117299D02*
X226680D01*
X101100Y116399D02*
X226611D01*
X142734Y158699D02*
X199096D01*
X101100Y153299D02*
X198821D01*
X143230Y157799D02*
X198127D01*
X142265Y154199D02*
X198004D01*
X143416Y156899D02*
X197677D01*
X143007Y155099D02*
X197623D01*
X143348Y155999D02*
X197523D01*
X101100Y144299D02*
X190947D01*
X101100Y162299D02*
X190365D01*
X101100Y166799D02*
X190319D01*
X135177Y138899D02*
X189990D01*
X101100Y143399D02*
X189722D01*
X101100Y163199D02*
X189601D01*
X101100Y165899D02*
X189582D01*
X133302Y139799D02*
X189309D01*
X101100Y164099D02*
X189293D01*
X101100Y164999D02*
X189287D01*
X101100Y142499D02*
X189181D01*
X101100Y140699D02*
X189003D01*
X101100Y141599D02*
X188964D01*
X128716Y191999D02*
X157504D01*
X130219Y200999D02*
X156001D01*
X130486Y192899D02*
X155735D01*
X131212Y200099D02*
X155009D01*
X131370Y193799D02*
X154851D01*
X131818Y199199D02*
X154402D01*
X131917Y194699D02*
X154304D01*
X132187Y198299D02*
X154034D01*
X132241Y195599D02*
X153979D01*
X132369Y197399D02*
X153851D01*
X132387Y196499D02*
X153834D01*
X101100Y159599D02*
X138668D01*
X101100Y154199D02*
X138050D01*
X101100Y158699D02*
X137581D01*
X101100Y155099D02*
X137308D01*
X101100Y157799D02*
X137085D01*
X101100Y155999D02*
X136967D01*
X101100Y156899D02*
X136899D01*
X101100Y119099D02*
X126214D01*
X101100Y191999D02*
X126008D01*
X101100Y139799D02*
X125754D01*
X101100Y200999D02*
X124505D01*
X101100Y192899D02*
X124239D01*
X101100Y119999D02*
X124148D01*
X101100Y138899D02*
X123878D01*
X101100Y200099D02*
X123513D01*
X101100Y193799D02*
X123355D01*
X101100Y199199D02*
X122906D01*
X101100Y194699D02*
X122808D01*
X101100Y120899D02*
X122798D01*
X101100Y137999D02*
X122601D01*
X101100Y198299D02*
X122538D01*
X101100Y195599D02*
X122483D01*
X101100Y197399D02*
X122355D01*
X101100Y196499D02*
X122337D01*
X101100Y121799D02*
X121781D01*
X101100Y137099D02*
X121627D01*
X101100Y122699D02*
X120977D01*
X101100Y136199D02*
X120854D01*
X101100Y123599D02*
X120330D01*
X101100Y135299D02*
X120231D01*
X101100Y124499D02*
X119809D01*
X101100Y134399D02*
X119729D01*
X101100Y125399D02*
X119394D01*
X101100Y133499D02*
X119331D01*
X101100Y126299D02*
X119072D01*
X101100Y132599D02*
X119025D01*
X101100Y127199D02*
X118836D01*
X101100Y131699D02*
X118803D01*
X101100Y128099D02*
X118679D01*
X101100Y130799D02*
X118659D01*
X101100Y128999D02*
X118598D01*
X101100Y129899D02*
X118591D01*
X235146Y332503D02*
X337295D01*
X235146Y331603D02*
X337295D01*
X326415Y330703D02*
X337295D01*
X327786Y329803D02*
X337295D01*
X328300Y328903D02*
X337295D01*
X328462Y328003D02*
X337295D01*
X328334Y327103D02*
X337295D01*
X327868Y326203D02*
X337295D01*
X326698Y325303D02*
X337295D01*
X326418Y324403D02*
X337295D01*
X327787Y323503D02*
X337295D01*
X328301Y322603D02*
X337295D01*
X328462Y321703D02*
X337295D01*
X328334Y320803D02*
X337295D01*
X327867Y319903D02*
X337295D01*
X326697Y319003D02*
X337295D01*
X305159Y318103D02*
X337295D01*
X303860Y317203D02*
X337295D01*
X272972Y316303D02*
X337295D01*
X272174Y315403D02*
X337295D01*
X241884Y314503D02*
X337295D01*
X235146Y313603D02*
X337295D01*
X235146Y330703D02*
X324766D01*
X247754Y324403D02*
X324763D01*
X305658Y319003D02*
X324485D01*
X248332Y325303D02*
X324483D01*
X235146Y329803D02*
X323395D01*
X235146Y323503D02*
X323394D01*
X305809Y319903D02*
X323314D01*
X248536Y326203D02*
X323313D01*
X247036Y328903D02*
X322881D01*
X303966Y322603D02*
X322881D01*
X305670Y320803D02*
X322848D01*
X248448Y327103D02*
X322847D01*
X248037Y328003D02*
X322719D01*
X305190Y321703D02*
X322719D01*
X273298Y317203D02*
X302014D01*
X247594Y322603D02*
X301907D01*
X273318Y318103D02*
X300715D01*
X265179Y321703D02*
X300684D01*
X273040Y319003D02*
X300216D01*
X266715Y320803D02*
X300204D01*
X272334Y319903D02*
X300065D01*
X243475Y315403D02*
X268771D01*
X267257Y319903D02*
X268611D01*
X265798Y316303D02*
X267973D01*
X267437Y319003D02*
X267905D01*
X266886Y317203D02*
X267647D01*
X267327Y318103D02*
X267627D01*
X248264Y321703D02*
X263955D01*
X244023Y316303D02*
X263335D01*
X248522Y320803D02*
X262419D01*
X244208Y317203D02*
X262248D01*
X248484Y319903D02*
X261877D01*
X247292Y318103D02*
X261807D01*
X248137Y319003D02*
X261697D01*
X235146Y328903D02*
X244302D01*
X235146Y322603D02*
X243744D01*
X235146Y324403D02*
X243584D01*
X235146Y328003D02*
X243302D01*
X235146Y321703D02*
X243075D01*
X235146Y325303D02*
X243006D01*
X235146Y327103D02*
X242891D01*
X242598Y319903D02*
X242855D01*
X235146Y320803D02*
X242817D01*
X235146Y326203D02*
X242803D01*
X235146Y314503D02*
X240793D01*
X235146Y319903D02*
X240079D01*
X235146Y315403D02*
X239203D01*
X235146Y319003D02*
X239010D01*
X235146Y316303D02*
X238654D01*
X235146Y318103D02*
X238575D01*
X235146Y317203D02*
X238469D01*
X290264Y284875D02*
X369185D01*
X290264Y283975D02*
X369185D01*
X290264Y283075D02*
X369185D01*
X290264Y282175D02*
X369185D01*
X290264Y281275D02*
X369185D01*
X290264Y280375D02*
X369185D01*
X290264Y279475D02*
X369185D01*
X290264Y278575D02*
X369185D01*
X290264Y277675D02*
X369185D01*
X290264Y276775D02*
X369185D01*
X290264Y275875D02*
X369185D01*
X304989Y274975D02*
X369185D01*
X323308Y274075D02*
X369185D01*
X324298Y273175D02*
X369185D01*
X324757Y272275D02*
X369185D01*
X324917Y271375D02*
X369185D01*
X324823Y270475D02*
X369185D01*
X324451Y269575D02*
X369185D01*
X323649Y268675D02*
X369185D01*
X290264Y267775D02*
X369185D01*
X290264Y266875D02*
X369185D01*
X290264Y265975D02*
X369185D01*
X290264Y265075D02*
X369185D01*
X328008Y264175D02*
X369185D01*
X328848Y263275D02*
X369185D01*
X329194Y262375D02*
X369185D01*
X329230Y261475D02*
X369185D01*
X328970Y260575D02*
X369185D01*
X328297Y259675D02*
X369185D01*
X290264Y258775D02*
X369185D01*
X290264Y257875D02*
X369185D01*
X290264Y256975D02*
X369185D01*
X290264Y256075D02*
X369185D01*
X290264Y255175D02*
X369185D01*
X300977Y254275D02*
X369185D01*
X302237Y253375D02*
X369185D01*
X302727Y252475D02*
X369185D01*
X302872Y251575D02*
X369185D01*
X321594Y250675D02*
X369185D01*
X322754Y249775D02*
X369185D01*
X326840Y248875D02*
X369185D01*
X327445Y247975D02*
X369185D01*
X327666Y247075D02*
X369185D01*
X327594Y246175D02*
X369185D01*
X327204Y245275D02*
X369185D01*
X326259Y244375D02*
X369185D01*
X350177Y243475D02*
X369185D01*
X351183Y242575D02*
X369185D01*
X351596Y241675D02*
X369185D01*
X351686Y240775D02*
X369185D01*
X356853Y239875D02*
X369185D01*
X358785Y238975D02*
X369185D01*
X359359Y238075D02*
X369185D01*
X359560Y237175D02*
X369185D01*
X359470Y236275D02*
X369185D01*
X359055Y235375D02*
X369185D01*
X358046Y234475D02*
X369185D01*
X331902Y233575D02*
X369185D01*
X332540Y232675D02*
X369185D01*
X332779Y231775D02*
X369185D01*
X332725Y230875D02*
X369185D01*
X341932Y229975D02*
X369185D01*
X343483Y229075D02*
X369185D01*
X344027Y228175D02*
X369185D01*
X344208Y227275D02*
X369185D01*
X344099Y226375D02*
X369185D01*
X343660Y225475D02*
X369185D01*
X342578Y224575D02*
X369185D01*
X325762Y223675D02*
X369185D01*
X324187Y222775D02*
X369185D01*
X342592Y221875D02*
X369185D01*
X359069Y220975D02*
X369185D01*
X359706Y220075D02*
X369185D01*
X359945Y219175D02*
X369185D01*
X359890Y218275D02*
X369185D01*
X359521Y217375D02*
X369185D01*
X358629Y216475D02*
X369185D01*
X332228Y215575D02*
X369185D01*
X321168Y214675D02*
X369185D01*
X320591Y213775D02*
X369185D01*
X305942Y212875D02*
X369185D01*
X306012Y211975D02*
X369185D01*
X350998Y211075D02*
X369185D01*
X352540Y210175D02*
X369185D01*
X353083Y209275D02*
X369185D01*
X353263Y208375D02*
X369185D01*
X353154Y207475D02*
X369185D01*
X352713Y206575D02*
X369185D01*
X351628Y205675D02*
X369185D01*
X325278Y204775D02*
X369185D01*
X325276Y203875D02*
X369185D01*
X346927Y202975D02*
X369185D01*
X347997Y202075D02*
X369185D01*
X348433Y201175D02*
X369185D01*
X348539Y200275D02*
X369185D01*
X348354Y199375D02*
X369185D01*
X347806Y198475D02*
X369185D01*
X346219Y197575D02*
X369185D01*
X290264Y196675D02*
X369185D01*
X355136Y195775D02*
X369185D01*
X355770Y194875D02*
X369185D01*
X356008Y193975D02*
X369185D01*
X355952Y193075D02*
X369185D01*
X355582Y192175D02*
X369185D01*
X354687Y191275D02*
X369185D01*
X290264Y190375D02*
X369185D01*
X351484Y239875D02*
X356533D01*
X341900Y216475D02*
X355545D01*
X326291Y234475D02*
X355340D01*
X343665Y220975D02*
X355104D01*
X343477Y217375D02*
X354652D01*
X350908Y238975D02*
X354601D01*
X344101Y220075D02*
X354467D01*
X326464Y235375D02*
X354331D01*
X344024Y218275D02*
X354283D01*
X344208Y219175D02*
X354228D01*
X348922Y238075D02*
X354027D01*
X342260Y236275D02*
X353916D01*
X343054Y237175D02*
X353826D01*
X290264Y191275D02*
X351613D01*
X290264Y195775D02*
X351164D01*
X290264Y192175D02*
X350717D01*
X290264Y194875D02*
X350529D01*
X290264Y193075D02*
X350347D01*
X290264Y193975D02*
X350291D01*
X336595Y211075D02*
X349789D01*
X324979Y205675D02*
X349159D01*
X343378Y238075D02*
X348716D01*
X337480Y210175D02*
X348247D01*
X337013Y206575D02*
X348074D01*
X337845Y209275D02*
X347705D01*
X337655Y207475D02*
X347634D01*
X337897Y208375D02*
X347524D01*
X290264Y243475D02*
X347461D01*
X343396Y238975D02*
X346729D01*
X290264Y242575D02*
X346455D01*
X343116Y239875D02*
X346154D01*
X290264Y241675D02*
X346042D01*
X342406Y240775D02*
X345952D01*
X290264Y197575D02*
X345120D01*
X332569Y202975D02*
X344411D01*
X332411Y198475D02*
X343533D01*
X333275Y202075D02*
X343341D01*
X333209Y199375D02*
X342984D01*
X333554Y201175D02*
X342906D01*
X333534Y200275D02*
X342800D01*
X332904Y216475D02*
X340777D01*
X332357Y229975D02*
X340745D01*
X330767Y224575D02*
X340099D01*
X315271Y221875D02*
X340085D01*
X333166Y217375D02*
X339200D01*
X331672Y229075D02*
X339194D01*
X331849Y225475D02*
X339017D01*
X314106Y220975D02*
X339012D01*
X326348Y236275D02*
X338842D01*
X290264Y240775D02*
X338696D01*
X333132Y218275D02*
X338653D01*
X332216Y228175D02*
X338650D01*
X332288Y226375D02*
X338578D01*
X331953Y220075D02*
X338576D01*
X332789Y219175D02*
X338469D01*
X332397Y227275D02*
X338469D01*
X325898Y237175D02*
X338048D01*
X320222Y239875D02*
X337987D01*
X324782Y238075D02*
X337725D01*
X321140Y238975D02*
X337706D01*
X305790Y211075D02*
X333483D01*
X324232Y206575D02*
X333066D01*
X305181Y210175D02*
X332599D01*
X290264Y207475D02*
X332424D01*
X290264Y209275D02*
X332234D01*
X290264Y208375D02*
X332182D01*
X290264Y198475D02*
X329006D01*
X324972Y202975D02*
X328848D01*
X312584Y220075D02*
X328677D01*
X321370Y215575D02*
X328402D01*
X326308Y224575D02*
X328288D01*
X290264Y199375D02*
X328208D01*
X324218Y202075D02*
X328142D01*
X325760Y233575D02*
X327940D01*
X290264Y200275D02*
X327883D01*
X290264Y201175D02*
X327863D01*
X312889Y219175D02*
X327841D01*
X321282Y216475D02*
X327726D01*
X319868Y218275D02*
X327498D01*
X290264Y229975D02*
X327485D01*
X320870Y217375D02*
X327464D01*
X311164Y229075D02*
X327383D01*
X324293Y232675D02*
X327303D01*
X326491Y225475D02*
X327206D01*
X290264Y230875D02*
X327118D01*
X290264Y231775D02*
X327063D01*
X324874Y228175D02*
X326839D01*
X326384Y226375D02*
X326767D01*
X325948Y227275D02*
X326658D01*
X290264Y264175D02*
X324748D01*
X290264Y259675D02*
X324459D01*
X290264Y263275D02*
X323908D01*
X290264Y260575D02*
X323786D01*
X290264Y262375D02*
X323562D01*
X290264Y261475D02*
X323526D01*
X290264Y244375D02*
X323347D01*
X315736Y222775D02*
X323057D01*
X290264Y232675D02*
X322895D01*
X321519Y238075D02*
X322407D01*
X321278Y245275D02*
X322402D01*
X311954Y228175D02*
X322370D01*
X315863Y223675D02*
X321483D01*
X290264Y233575D02*
X321428D01*
X312276Y227275D02*
X321296D01*
X315701Y224575D02*
X320936D01*
X313967Y234475D02*
X320897D01*
X313809Y226375D02*
X320860D01*
X315186Y225475D02*
X320753D01*
X290264Y202075D02*
X320664D01*
X290264Y206575D02*
X320649D01*
X306103Y274075D02*
X319999D01*
X290264Y202975D02*
X319909D01*
X290264Y205675D02*
X319903D01*
X305923Y245275D02*
X319667D01*
X290264Y268675D02*
X319658D01*
X290264Y203875D02*
X319606D01*
X290264Y204775D02*
X319604D01*
X306240Y250675D02*
X319351D01*
X306608Y273175D02*
X319009D01*
X305677Y269575D02*
X318856D01*
X306801Y272275D02*
X318550D01*
X306405Y270475D02*
X318484D01*
X306739Y271375D02*
X318390D01*
X307309Y246175D02*
X318282D01*
X307400Y249775D02*
X318191D01*
X307826Y247075D02*
X317765D01*
X307863Y248875D02*
X317727D01*
X307989Y247975D02*
X317601D01*
X309835Y239875D02*
X317222D01*
X312892Y218275D02*
X317140D01*
X314612Y235375D02*
X316712D01*
X305554Y213775D02*
X316417D01*
X313561Y238975D02*
X316304D01*
X312594Y217375D02*
X316138D01*
X314855Y236275D02*
X316091D01*
X314442Y238075D02*
X315924D01*
X314805Y237175D02*
X315861D01*
X304614Y214675D02*
X315840D01*
X311850Y216475D02*
X315726D01*
X298499Y215575D02*
X315637D01*
X311827Y220975D02*
X311879D01*
X290264Y221875D02*
X310713D01*
X290264Y222775D02*
X310248D01*
X290264Y223675D02*
X310121D01*
X290264Y234475D02*
X310030D01*
X290264Y220975D02*
X308282D01*
X290264Y216475D02*
X308258D01*
X290264Y229075D02*
X307734D01*
X290264Y224575D02*
X307599D01*
X290264Y220075D02*
X307525D01*
X290264Y217375D02*
X307515D01*
X290264Y219175D02*
X307220D01*
X290264Y218275D02*
X307217D01*
X290264Y228175D02*
X306943D01*
X290264Y225475D02*
X306887D01*
X290264Y227275D02*
X306622D01*
X290264Y226375D02*
X306605D01*
X290264Y235375D02*
X306309D01*
X290264Y239875D02*
X305875D01*
X290264Y236275D02*
X305419D01*
X290264Y238975D02*
X305237D01*
X290264Y237175D02*
X305051D01*
X290264Y238075D02*
X304997D01*
X290264Y245275D02*
X304313D01*
X302727Y250675D02*
X303996D01*
X290264Y246175D02*
X302927D01*
X302238Y249775D02*
X302836D01*
X290264Y247075D02*
X302410D01*
X300979Y248875D02*
X302373D01*
X291406Y247975D02*
X302247D01*
X290264Y274975D02*
X302097D01*
X299571Y214675D02*
X301685D01*
X290264Y269575D02*
X301410D01*
X297801Y210175D02*
X301118D01*
X290264Y274075D02*
X300984D01*
X300007Y213775D02*
X300745D01*
X290264Y270475D02*
X300681D01*
X299382Y211075D02*
X300509D01*
X290264Y273175D02*
X300479D01*
X300113Y212875D02*
X300357D01*
X290264Y271375D02*
X300348D01*
X299930Y211975D02*
X300287D01*
X290264Y272275D02*
X300286D01*
X290264Y254275D02*
X299023D01*
X292012Y248875D02*
X299021D01*
X290264Y253375D02*
X297763D01*
X292233Y249775D02*
X297762D01*
X290826Y252475D02*
X297273D01*
X292161Y250675D02*
X297273D01*
X291771Y251575D02*
X297128D01*
X290264Y210175D02*
X296687D01*
X290264Y215575D02*
X295989D01*
X290264Y211075D02*
X295106D01*
X290264Y214675D02*
X294917D01*
X290264Y211975D02*
X294559D01*
X290264Y213775D02*
X294481D01*
X290264Y212875D02*
X294375D01*
G54D28*
X442520Y190551D03*
Y200551D03*
X230709Y116535D03*
G54D50*
X200787Y155906D03*
X345276Y180315D03*
X321654Y271260D03*
G54D103*
X233608Y119435D02*
X232830Y118657D01*
X227810Y119435D02*
X228587Y118657D01*
X227810Y113636D02*
X228587Y114414D01*
X233608Y113636D02*
X232830Y114414D01*
X445419Y193450D02*
X444641Y192673D01*
X445419Y187652D02*
X444641Y188430D01*
X439621Y187652D02*
X440398Y188430D01*
X439621Y193450D02*
X440398Y192673D01*
X445419Y203450D02*
X444641Y202673D01*
X445419Y197652D02*
X444641Y198430D01*
X439621Y197652D02*
X440398Y198430D01*
X439621Y203450D02*
X440398Y202673D01*
X309886Y239826D02*
X309108Y239048D01*
X305825Y239826D02*
X306602Y239048D01*
X305825Y235765D02*
X306602Y236543D01*
X359117Y220928D02*
X358339Y220150D01*
X355056Y220928D02*
X355834Y220150D01*
X355056Y216867D02*
X355834Y217645D01*
X359117Y216867D02*
X358339Y217645D01*
X323962Y273569D02*
X323185Y272791D01*
X319345Y273569D02*
X320122Y272791D01*
X319345Y268951D02*
X320122Y269729D01*
X323962Y268951D02*
X323185Y269729D01*
X347700Y202424D02*
X346922Y201646D01*
X343639Y202424D02*
X344417Y201646D01*
X343639Y198363D02*
X344417Y199141D01*
X347700Y198363D02*
X346922Y199141D01*
X331952Y233527D02*
X331174Y232749D01*
X327891Y233527D02*
X328669Y232749D01*
X331952Y229465D02*
X331174Y230243D01*
X326834Y248881D02*
X326056Y248103D01*
X322773Y244820D02*
X323550Y245598D01*
X326834Y244820D02*
X326056Y245598D01*
X337070Y210692D02*
X336292Y209914D01*
X333009Y210692D02*
X333787Y209914D01*
X333009Y206631D02*
X333787Y207409D01*
X337070Y206631D02*
X336292Y207409D01*
X332346Y219747D02*
X331568Y218969D01*
X328284Y219747D02*
X329062Y218969D01*
X328284Y215686D02*
X329062Y216464D01*
X332346Y215686D02*
X331568Y216464D01*
X194157Y166597D02*
X193379Y165820D01*
X190095Y166597D02*
X190873Y165820D01*
X190095Y162536D02*
X190873Y163314D01*
X194157Y162536D02*
X193379Y163314D01*
X203096Y158214D02*
X202319Y157437D01*
X198478Y158214D02*
X199256Y157437D01*
X198478Y153597D02*
X199256Y154374D01*
X203096Y153597D02*
X202319Y154374D01*
X318172Y141794D02*
X317394Y141017D01*
X314111Y141794D02*
X314889Y141017D01*
X314111Y137733D02*
X314889Y138511D01*
X318172Y137733D02*
X317394Y138511D01*
X272503Y257936D02*
X271725Y257158D01*
X268442Y257936D02*
X269220Y257158D01*
X268442Y253875D02*
X269220Y254653D01*
X272503Y253875D02*
X271725Y254653D01*
X272503Y273684D02*
X271725Y272906D01*
X268442Y273684D02*
X269220Y272906D01*
X268442Y269623D02*
X269220Y270401D01*
X272503Y269623D02*
X271725Y270401D01*
X283133Y239038D02*
X282355Y238261D01*
X279072Y239038D02*
X279850Y238261D01*
X279072Y234977D02*
X279850Y235755D01*
X283133Y234977D02*
X282355Y235755D01*
X347585Y182624D02*
X346807Y181846D01*
X342967Y182624D02*
X343744Y181846D01*
X342967Y178006D02*
X343744Y178784D01*
X347585Y178006D02*
X346807Y178784D01*
X264899Y281164D02*
X265676Y280387D01*
X264899Y277103D02*
X265676Y277881D01*
X268960Y277103D02*
X268182Y277881D01*
X327621Y323684D02*
X326843Y322906D01*
X323560Y323684D02*
X324338Y322906D01*
X323560Y319623D02*
X324338Y320401D01*
X327621Y319623D02*
X326843Y320401D01*
X247700Y328409D02*
X246922Y327631D01*
X243639Y328409D02*
X244417Y327631D01*
X243639Y324347D02*
X244417Y325125D01*
X247700Y324347D02*
X246922Y325125D01*
X266597Y320928D02*
X265820Y320150D01*
X262536Y320928D02*
X263314Y320150D01*
X262536Y316867D02*
X263314Y317645D01*
X266597Y316867D02*
X265820Y317645D01*
G54D151*
X316142Y139764D03*
X192126Y164567D03*
X345669Y200394D03*
X335039Y208661D03*
X330315Y217717D03*
X329921Y231496D03*
X357087Y218898D03*
X281102Y237008D03*
X307855Y237795D03*
X324803Y246850D03*
X270472Y271654D03*
Y255906D03*
X266929Y279134D03*
X245669Y326378D03*
X264567Y318898D03*
X325591Y321654D03*
G74*
X0Y0D02*
M02*
