G04 #@! TF.FileFunction,Legend,Top*
%FSLAX46Y46*%
G04 Gerber Fmt 4.6, Leading zero omitted, Abs format (unit mm)*
G04 Created by KiCad (PCBNEW 4.0.7) date Tue Aug  7 16:53:50 2018*
%MOMM*%
%LPD*%
G01*
G04 APERTURE LIST*
%ADD10C,0.100000*%
%ADD11C,0.300000*%
%ADD12C,0.200000*%
%ADD13C,0.400000*%
%ADD14C,0.150000*%
%ADD15C,0.120000*%
G04 APERTURE END LIST*
D10*
D11*
X129285714Y-139332143D02*
X129428571Y-139403571D01*
X129714286Y-139403571D01*
X129857143Y-139332143D01*
X129928571Y-139189286D01*
X129928571Y-139117857D01*
X129857143Y-138975000D01*
X129714286Y-138903571D01*
X129500000Y-138903571D01*
X129357143Y-138832143D01*
X129285714Y-138689286D01*
X129285714Y-138617857D01*
X129357143Y-138475000D01*
X129500000Y-138403571D01*
X129714286Y-138403571D01*
X129857143Y-138475000D01*
X131142857Y-139332143D02*
X131000000Y-139403571D01*
X130714286Y-139403571D01*
X130571429Y-139332143D01*
X130500000Y-139189286D01*
X130500000Y-138617857D01*
X130571429Y-138475000D01*
X130714286Y-138403571D01*
X131000000Y-138403571D01*
X131142857Y-138475000D01*
X131214286Y-138617857D01*
X131214286Y-138760714D01*
X130500000Y-138903571D01*
X132428571Y-139332143D02*
X132285714Y-139403571D01*
X132000000Y-139403571D01*
X131857143Y-139332143D01*
X131785714Y-139189286D01*
X131785714Y-138617857D01*
X131857143Y-138475000D01*
X132000000Y-138403571D01*
X132285714Y-138403571D01*
X132428571Y-138475000D01*
X132500000Y-138617857D01*
X132500000Y-138760714D01*
X131785714Y-138903571D01*
X133714285Y-139332143D02*
X133571428Y-139403571D01*
X133285714Y-139403571D01*
X133142857Y-139332143D01*
X133071428Y-139189286D01*
X133071428Y-138617857D01*
X133142857Y-138475000D01*
X133285714Y-138403571D01*
X133571428Y-138403571D01*
X133714285Y-138475000D01*
X133785714Y-138617857D01*
X133785714Y-138760714D01*
X133071428Y-138903571D01*
X135071428Y-139403571D02*
X135071428Y-137903571D01*
X135071428Y-139332143D02*
X134928571Y-139403571D01*
X134642857Y-139403571D01*
X134499999Y-139332143D01*
X134428571Y-139260714D01*
X134357142Y-139117857D01*
X134357142Y-138689286D01*
X134428571Y-138546429D01*
X134499999Y-138475000D01*
X134642857Y-138403571D01*
X134928571Y-138403571D01*
X135071428Y-138475000D01*
X135714285Y-139332143D02*
X135857142Y-139403571D01*
X136142857Y-139403571D01*
X136285714Y-139332143D01*
X136357142Y-139189286D01*
X136357142Y-139117857D01*
X136285714Y-138975000D01*
X136142857Y-138903571D01*
X135928571Y-138903571D01*
X135785714Y-138832143D01*
X135714285Y-138689286D01*
X135714285Y-138617857D01*
X135785714Y-138475000D01*
X135928571Y-138403571D01*
X136142857Y-138403571D01*
X136285714Y-138475000D01*
X136785714Y-138403571D02*
X137357143Y-138403571D01*
X137000000Y-137903571D02*
X137000000Y-139189286D01*
X137071428Y-139332143D01*
X137214286Y-139403571D01*
X137357143Y-139403571D01*
X138500000Y-138403571D02*
X138500000Y-139403571D01*
X137857143Y-138403571D02*
X137857143Y-139189286D01*
X137928571Y-139332143D01*
X138071429Y-139403571D01*
X138285714Y-139403571D01*
X138428571Y-139332143D01*
X138500000Y-139260714D01*
X139857143Y-139403571D02*
X139857143Y-137903571D01*
X139857143Y-139332143D02*
X139714286Y-139403571D01*
X139428572Y-139403571D01*
X139285714Y-139332143D01*
X139214286Y-139260714D01*
X139142857Y-139117857D01*
X139142857Y-138689286D01*
X139214286Y-138546429D01*
X139285714Y-138475000D01*
X139428572Y-138403571D01*
X139714286Y-138403571D01*
X139857143Y-138475000D01*
X140571429Y-139403571D02*
X140571429Y-138403571D01*
X140571429Y-137903571D02*
X140500000Y-137975000D01*
X140571429Y-138046429D01*
X140642857Y-137975000D01*
X140571429Y-137903571D01*
X140571429Y-138046429D01*
X141500001Y-139403571D02*
X141357143Y-139332143D01*
X141285715Y-139260714D01*
X141214286Y-139117857D01*
X141214286Y-138689286D01*
X141285715Y-138546429D01*
X141357143Y-138475000D01*
X141500001Y-138403571D01*
X141714286Y-138403571D01*
X141857143Y-138475000D01*
X141928572Y-138546429D01*
X142000001Y-138689286D01*
X142000001Y-139117857D01*
X141928572Y-139260714D01*
X141857143Y-139332143D01*
X141714286Y-139403571D01*
X141500001Y-139403571D01*
X129857143Y-141167857D02*
X130071429Y-141239286D01*
X130142857Y-141310714D01*
X130214286Y-141453571D01*
X130214286Y-141667857D01*
X130142857Y-141810714D01*
X130071429Y-141882143D01*
X129928571Y-141953571D01*
X129357143Y-141953571D01*
X129357143Y-140453571D01*
X129857143Y-140453571D01*
X130000000Y-140525000D01*
X130071429Y-140596429D01*
X130142857Y-140739286D01*
X130142857Y-140882143D01*
X130071429Y-141025000D01*
X130000000Y-141096429D01*
X129857143Y-141167857D01*
X129357143Y-141167857D01*
X131500000Y-141953571D02*
X131500000Y-141167857D01*
X131428571Y-141025000D01*
X131285714Y-140953571D01*
X131000000Y-140953571D01*
X130857143Y-141025000D01*
X131500000Y-141882143D02*
X131357143Y-141953571D01*
X131000000Y-141953571D01*
X130857143Y-141882143D01*
X130785714Y-141739286D01*
X130785714Y-141596429D01*
X130857143Y-141453571D01*
X131000000Y-141382143D01*
X131357143Y-141382143D01*
X131500000Y-141310714D01*
X132000000Y-140953571D02*
X132571429Y-140953571D01*
X132214286Y-140453571D02*
X132214286Y-141739286D01*
X132285714Y-141882143D01*
X132428572Y-141953571D01*
X132571429Y-141953571D01*
X133714286Y-141882143D02*
X133571429Y-141953571D01*
X133285715Y-141953571D01*
X133142857Y-141882143D01*
X133071429Y-141810714D01*
X133000000Y-141667857D01*
X133000000Y-141239286D01*
X133071429Y-141096429D01*
X133142857Y-141025000D01*
X133285715Y-140953571D01*
X133571429Y-140953571D01*
X133714286Y-141025000D01*
X134357143Y-141953571D02*
X134357143Y-140453571D01*
X135000000Y-141953571D02*
X135000000Y-141167857D01*
X134928571Y-141025000D01*
X134785714Y-140953571D01*
X134571429Y-140953571D01*
X134428571Y-141025000D01*
X134357143Y-141096429D01*
X137642857Y-141953571D02*
X136785714Y-141953571D01*
X137214286Y-141953571D02*
X137214286Y-140453571D01*
X137071429Y-140667857D01*
X136928571Y-140810714D01*
X136785714Y-140882143D01*
X139428571Y-141953571D02*
X139428571Y-140453571D01*
X140142857Y-141953571D02*
X140142857Y-140453571D01*
X140500000Y-140453571D01*
X140714285Y-140525000D01*
X140857143Y-140667857D01*
X140928571Y-140810714D01*
X141000000Y-141096429D01*
X141000000Y-141310714D01*
X140928571Y-141596429D01*
X140857143Y-141739286D01*
X140714285Y-141882143D01*
X140500000Y-141953571D01*
X140142857Y-141953571D01*
X141642857Y-141810714D02*
X141714285Y-141882143D01*
X141642857Y-141953571D01*
X141571428Y-141882143D01*
X141642857Y-141810714D01*
X141642857Y-141953571D01*
X141642857Y-141025000D02*
X141714285Y-141096429D01*
X141642857Y-141167857D01*
X141571428Y-141096429D01*
X141642857Y-141025000D01*
X141642857Y-141167857D01*
X143142857Y-142096429D02*
X144285714Y-142096429D01*
X145428571Y-142096429D02*
X146571428Y-142096429D01*
X147714285Y-142096429D02*
X148857142Y-142096429D01*
X149999999Y-142096429D02*
X151142856Y-142096429D01*
X152285713Y-142096429D02*
X153428570Y-142096429D01*
D12*
X139880953Y-157452381D02*
X139404762Y-157452381D01*
X139404762Y-156452381D01*
X140214286Y-156928571D02*
X140547620Y-156928571D01*
X140690477Y-157452381D02*
X140214286Y-157452381D01*
X140214286Y-156452381D01*
X140690477Y-156452381D01*
X141119048Y-157452381D02*
X141119048Y-156452381D01*
X141357143Y-156452381D01*
X141500001Y-156500000D01*
X141595239Y-156595238D01*
X141642858Y-156690476D01*
X141690477Y-156880952D01*
X141690477Y-157023810D01*
X141642858Y-157214286D01*
X141595239Y-157309524D01*
X141500001Y-157404762D01*
X141357143Y-157452381D01*
X141119048Y-157452381D01*
X142023810Y-156452381D02*
X142642858Y-156452381D01*
X142309524Y-156833333D01*
X142452382Y-156833333D01*
X142547620Y-156880952D01*
X142595239Y-156928571D01*
X142642858Y-157023810D01*
X142642858Y-157261905D01*
X142595239Y-157357143D01*
X142547620Y-157404762D01*
X142452382Y-157452381D01*
X142166667Y-157452381D01*
X142071429Y-157404762D01*
X142023810Y-157357143D01*
X145380953Y-157452381D02*
X144904762Y-157452381D01*
X144904762Y-156452381D01*
X145714286Y-156928571D02*
X146047620Y-156928571D01*
X146190477Y-157452381D02*
X145714286Y-157452381D01*
X145714286Y-156452381D01*
X146190477Y-156452381D01*
X146619048Y-157452381D02*
X146619048Y-156452381D01*
X146857143Y-156452381D01*
X147000001Y-156500000D01*
X147095239Y-156595238D01*
X147142858Y-156690476D01*
X147190477Y-156880952D01*
X147190477Y-157023810D01*
X147142858Y-157214286D01*
X147095239Y-157309524D01*
X147000001Y-157404762D01*
X146857143Y-157452381D01*
X146619048Y-157452381D01*
X147571429Y-156547619D02*
X147619048Y-156500000D01*
X147714286Y-156452381D01*
X147952382Y-156452381D01*
X148047620Y-156500000D01*
X148095239Y-156547619D01*
X148142858Y-156642857D01*
X148142858Y-156738095D01*
X148095239Y-156880952D01*
X147523810Y-157452381D01*
X148142858Y-157452381D01*
X150380953Y-157452381D02*
X149904762Y-157452381D01*
X149904762Y-156452381D01*
X150714286Y-156928571D02*
X151047620Y-156928571D01*
X151190477Y-157452381D02*
X150714286Y-157452381D01*
X150714286Y-156452381D01*
X151190477Y-156452381D01*
X151619048Y-157452381D02*
X151619048Y-156452381D01*
X151857143Y-156452381D01*
X152000001Y-156500000D01*
X152095239Y-156595238D01*
X152142858Y-156690476D01*
X152190477Y-156880952D01*
X152190477Y-157023810D01*
X152142858Y-157214286D01*
X152095239Y-157309524D01*
X152000001Y-157404762D01*
X151857143Y-157452381D01*
X151619048Y-157452381D01*
X153142858Y-157452381D02*
X152571429Y-157452381D01*
X152857143Y-157452381D02*
X152857143Y-156452381D01*
X152761905Y-156595238D01*
X152666667Y-156690476D01*
X152571429Y-156738095D01*
X161833334Y-156452381D02*
X161833334Y-157166667D01*
X161785714Y-157309524D01*
X161690476Y-157404762D01*
X161547619Y-157452381D01*
X161452381Y-157452381D01*
X162166667Y-156452381D02*
X162738096Y-156452381D01*
X162452381Y-157452381D02*
X162452381Y-156452381D01*
X163023810Y-157166667D02*
X163500001Y-157166667D01*
X162928572Y-157452381D02*
X163261905Y-156452381D01*
X163595239Y-157452381D01*
X164452382Y-156500000D02*
X164357144Y-156452381D01*
X164214287Y-156452381D01*
X164071429Y-156500000D01*
X163976191Y-156595238D01*
X163928572Y-156690476D01*
X163880953Y-156880952D01*
X163880953Y-157023810D01*
X163928572Y-157214286D01*
X163976191Y-157309524D01*
X164071429Y-157404762D01*
X164214287Y-157452381D01*
X164309525Y-157452381D01*
X164452382Y-157404762D01*
X164500001Y-157357143D01*
X164500001Y-157023810D01*
X164309525Y-157023810D01*
D13*
X112000000Y-72130952D02*
X112000000Y-69630952D01*
X112595238Y-69630952D01*
X112952381Y-69750000D01*
X113190476Y-69988095D01*
X113309524Y-70226190D01*
X113428572Y-70702381D01*
X113428572Y-71059524D01*
X113309524Y-71535714D01*
X113190476Y-71773810D01*
X112952381Y-72011905D01*
X112595238Y-72130952D01*
X112000000Y-72130952D01*
X114380952Y-71416667D02*
X115571429Y-71416667D01*
X114142857Y-72130952D02*
X114976191Y-69630952D01*
X115809524Y-72130952D01*
X116642857Y-72130952D02*
X116642857Y-69630952D01*
X118071429Y-72130952D01*
X118071429Y-69630952D01*
X120571429Y-69750000D02*
X120333334Y-69630952D01*
X119976191Y-69630952D01*
X119619048Y-69750000D01*
X119380953Y-69988095D01*
X119261905Y-70226190D01*
X119142857Y-70702381D01*
X119142857Y-71059524D01*
X119261905Y-71535714D01*
X119380953Y-71773810D01*
X119619048Y-72011905D01*
X119976191Y-72130952D01*
X120214286Y-72130952D01*
X120571429Y-72011905D01*
X120690477Y-71892857D01*
X120690477Y-71059524D01*
X120214286Y-71059524D01*
X121761905Y-70821429D02*
X122595238Y-70821429D01*
X122952381Y-72130952D02*
X121761905Y-72130952D01*
X121761905Y-69630952D01*
X122952381Y-69630952D01*
X125452382Y-72130952D02*
X124619048Y-70940476D01*
X124023810Y-72130952D02*
X124023810Y-69630952D01*
X124976191Y-69630952D01*
X125214286Y-69750000D01*
X125333334Y-69869048D01*
X125452382Y-70107143D01*
X125452382Y-70464286D01*
X125333334Y-70702381D01*
X125214286Y-70821429D01*
X124976191Y-70940476D01*
X124023810Y-70940476D01*
X128428572Y-72130952D02*
X128428572Y-69630952D01*
X128428572Y-70821429D02*
X129857144Y-70821429D01*
X129857144Y-72130952D02*
X129857144Y-69630952D01*
X130690477Y-69630952D02*
X131523811Y-72130952D01*
X132357144Y-69630952D01*
D11*
X116178571Y-83964286D02*
X114678571Y-83964286D01*
X116178571Y-83107143D01*
X114678571Y-83107143D01*
X115392857Y-82392857D02*
X115392857Y-81892857D01*
X116178571Y-81678571D02*
X116178571Y-82392857D01*
X114678571Y-82392857D01*
X114678571Y-81678571D01*
X114678571Y-81035714D02*
X115892857Y-81035714D01*
X116035714Y-80964286D01*
X116107143Y-80892857D01*
X116178571Y-80750000D01*
X116178571Y-80464286D01*
X116107143Y-80321428D01*
X116035714Y-80250000D01*
X115892857Y-80178571D01*
X114678571Y-80178571D01*
X114678571Y-79678571D02*
X114678571Y-78821428D01*
X116178571Y-79249999D02*
X114678571Y-79249999D01*
X116178571Y-77464285D02*
X115464286Y-77964285D01*
X116178571Y-78321428D02*
X114678571Y-78321428D01*
X114678571Y-77750000D01*
X114750000Y-77607142D01*
X114821429Y-77535714D01*
X114964286Y-77464285D01*
X115178571Y-77464285D01*
X115321429Y-77535714D01*
X115392857Y-77607142D01*
X115464286Y-77750000D01*
X115464286Y-78321428D01*
X115750000Y-76892857D02*
X115750000Y-76178571D01*
X116178571Y-77035714D02*
X114678571Y-76535714D01*
X116178571Y-76035714D01*
X116178571Y-74821428D02*
X116178571Y-75535714D01*
X114678571Y-75535714D01*
X128678571Y-81357143D02*
X128678571Y-82071429D01*
X127178571Y-82071429D01*
X128678571Y-80857143D02*
X127178571Y-80857143D01*
X128678571Y-80142857D02*
X127178571Y-80142857D01*
X128678571Y-79285714D01*
X127178571Y-79285714D01*
X127892857Y-78571428D02*
X127892857Y-78071428D01*
X128678571Y-77857142D02*
X128678571Y-78571428D01*
X127178571Y-78571428D01*
X127178571Y-77857142D01*
X146321428Y-71678571D02*
X146321428Y-70178571D01*
X146964285Y-71678571D02*
X146964285Y-70892857D01*
X146892856Y-70750000D01*
X146749999Y-70678571D01*
X146535714Y-70678571D01*
X146392856Y-70750000D01*
X146321428Y-70821429D01*
X147464285Y-70678571D02*
X148035714Y-70678571D01*
X147678571Y-70178571D02*
X147678571Y-71464286D01*
X147749999Y-71607143D01*
X147892857Y-71678571D01*
X148035714Y-71678571D01*
X148321428Y-70678571D02*
X148892857Y-70678571D01*
X148535714Y-70178571D02*
X148535714Y-71464286D01*
X148607142Y-71607143D01*
X148750000Y-71678571D01*
X148892857Y-71678571D01*
X149392857Y-70678571D02*
X149392857Y-72178571D01*
X149392857Y-70750000D02*
X149535714Y-70678571D01*
X149821428Y-70678571D01*
X149964285Y-70750000D01*
X150035714Y-70821429D01*
X150107143Y-70964286D01*
X150107143Y-71392857D01*
X150035714Y-71535714D01*
X149964285Y-71607143D01*
X149821428Y-71678571D01*
X149535714Y-71678571D01*
X149392857Y-71607143D01*
X150750000Y-71535714D02*
X150821428Y-71607143D01*
X150750000Y-71678571D01*
X150678571Y-71607143D01*
X150750000Y-71535714D01*
X150750000Y-71678571D01*
X150750000Y-70750000D02*
X150821428Y-70821429D01*
X150750000Y-70892857D01*
X150678571Y-70821429D01*
X150750000Y-70750000D01*
X150750000Y-70892857D01*
X152535714Y-70107143D02*
X151250000Y-72035714D01*
X154107143Y-70107143D02*
X152821429Y-72035714D01*
X154821430Y-71678571D02*
X154678572Y-71607143D01*
X154607144Y-71535714D01*
X154535715Y-71392857D01*
X154535715Y-70964286D01*
X154607144Y-70821429D01*
X154678572Y-70750000D01*
X154821430Y-70678571D01*
X155035715Y-70678571D01*
X155178572Y-70750000D01*
X155250001Y-70821429D01*
X155321430Y-70964286D01*
X155321430Y-71392857D01*
X155250001Y-71535714D01*
X155178572Y-71607143D01*
X155035715Y-71678571D01*
X154821430Y-71678571D01*
X155964287Y-70678571D02*
X155964287Y-72178571D01*
X155964287Y-70750000D02*
X156107144Y-70678571D01*
X156392858Y-70678571D01*
X156535715Y-70750000D01*
X156607144Y-70821429D01*
X156678573Y-70964286D01*
X156678573Y-71392857D01*
X156607144Y-71535714D01*
X156535715Y-71607143D01*
X156392858Y-71678571D01*
X156107144Y-71678571D01*
X155964287Y-71607143D01*
X157892858Y-71607143D02*
X157750001Y-71678571D01*
X157464287Y-71678571D01*
X157321430Y-71607143D01*
X157250001Y-71464286D01*
X157250001Y-70892857D01*
X157321430Y-70750000D01*
X157464287Y-70678571D01*
X157750001Y-70678571D01*
X157892858Y-70750000D01*
X157964287Y-70892857D01*
X157964287Y-71035714D01*
X157250001Y-71178571D01*
X158607144Y-70678571D02*
X158607144Y-71678571D01*
X158607144Y-70821429D02*
X158678572Y-70750000D01*
X158821430Y-70678571D01*
X159035715Y-70678571D01*
X159178572Y-70750000D01*
X159250001Y-70892857D01*
X159250001Y-71678571D01*
X159964287Y-70678571D02*
X159964287Y-72178571D01*
X159964287Y-70750000D02*
X160107144Y-70678571D01*
X160392858Y-70678571D01*
X160535715Y-70750000D01*
X160607144Y-70821429D01*
X160678573Y-70964286D01*
X160678573Y-71392857D01*
X160607144Y-71535714D01*
X160535715Y-71607143D01*
X160392858Y-71678571D01*
X160107144Y-71678571D01*
X159964287Y-71607143D01*
X161535716Y-71678571D02*
X161392858Y-71607143D01*
X161321430Y-71535714D01*
X161250001Y-71392857D01*
X161250001Y-70964286D01*
X161321430Y-70821429D01*
X161392858Y-70750000D01*
X161535716Y-70678571D01*
X161750001Y-70678571D01*
X161892858Y-70750000D01*
X161964287Y-70821429D01*
X162035716Y-70964286D01*
X162035716Y-71392857D01*
X161964287Y-71535714D01*
X161892858Y-71607143D01*
X161750001Y-71678571D01*
X161535716Y-71678571D01*
X162535716Y-70678571D02*
X162821430Y-71678571D01*
X163107144Y-70964286D01*
X163392859Y-71678571D01*
X163678573Y-70678571D01*
X164821430Y-71607143D02*
X164678573Y-71678571D01*
X164392859Y-71678571D01*
X164250002Y-71607143D01*
X164178573Y-71464286D01*
X164178573Y-70892857D01*
X164250002Y-70750000D01*
X164392859Y-70678571D01*
X164678573Y-70678571D01*
X164821430Y-70750000D01*
X164892859Y-70892857D01*
X164892859Y-71035714D01*
X164178573Y-71178571D01*
X165535716Y-71678571D02*
X165535716Y-70678571D01*
X165535716Y-70964286D02*
X165607144Y-70821429D01*
X165678573Y-70750000D01*
X165821430Y-70678571D01*
X165964287Y-70678571D01*
X167107144Y-70678571D02*
X167107144Y-72178571D01*
X167107144Y-71607143D02*
X166964287Y-71678571D01*
X166678573Y-71678571D01*
X166535715Y-71607143D01*
X166464287Y-71535714D01*
X166392858Y-71392857D01*
X166392858Y-70964286D01*
X166464287Y-70821429D01*
X166535715Y-70750000D01*
X166678573Y-70678571D01*
X166964287Y-70678571D01*
X167107144Y-70750000D01*
X168464287Y-70678571D02*
X168464287Y-71678571D01*
X167821430Y-70678571D02*
X167821430Y-71464286D01*
X167892858Y-71607143D01*
X168035716Y-71678571D01*
X168250001Y-71678571D01*
X168392858Y-71607143D01*
X168464287Y-71535714D01*
X169821430Y-71678571D02*
X169821430Y-70892857D01*
X169750001Y-70750000D01*
X169607144Y-70678571D01*
X169321430Y-70678571D01*
X169178573Y-70750000D01*
X169821430Y-71607143D02*
X169678573Y-71678571D01*
X169321430Y-71678571D01*
X169178573Y-71607143D01*
X169107144Y-71464286D01*
X169107144Y-71321429D01*
X169178573Y-71178571D01*
X169321430Y-71107143D01*
X169678573Y-71107143D01*
X169821430Y-71035714D01*
X170750002Y-71678571D02*
X170607144Y-71607143D01*
X170535716Y-71464286D01*
X170535716Y-70178571D01*
X171321430Y-71678571D02*
X171321430Y-70678571D01*
X171321430Y-70178571D02*
X171250001Y-70250000D01*
X171321430Y-70321429D01*
X171392858Y-70250000D01*
X171321430Y-70178571D01*
X171321430Y-70321429D01*
X171821430Y-70678571D02*
X172392859Y-70678571D01*
X172035716Y-70178571D02*
X172035716Y-71464286D01*
X172107144Y-71607143D01*
X172250002Y-71678571D01*
X172392859Y-71678571D01*
X172750002Y-70678571D02*
X173107145Y-71678571D01*
X173464287Y-70678571D02*
X173107145Y-71678571D01*
X172964287Y-72035714D01*
X172892859Y-72107143D01*
X172750002Y-72178571D01*
X174035716Y-71535714D02*
X174107144Y-71607143D01*
X174035716Y-71678571D01*
X173964287Y-71607143D01*
X174035716Y-71535714D01*
X174035716Y-71678571D01*
X174964288Y-71678571D02*
X174821430Y-71607143D01*
X174750002Y-71535714D01*
X174678573Y-71392857D01*
X174678573Y-70964286D01*
X174750002Y-70821429D01*
X174821430Y-70750000D01*
X174964288Y-70678571D01*
X175178573Y-70678571D01*
X175321430Y-70750000D01*
X175392859Y-70821429D01*
X175464288Y-70964286D01*
X175464288Y-71392857D01*
X175392859Y-71535714D01*
X175321430Y-71607143D01*
X175178573Y-71678571D01*
X174964288Y-71678571D01*
X176107145Y-71678571D02*
X176107145Y-70678571D01*
X176107145Y-70964286D02*
X176178573Y-70821429D01*
X176250002Y-70750000D01*
X176392859Y-70678571D01*
X176535716Y-70678571D01*
X177678573Y-70678571D02*
X177678573Y-71892857D01*
X177607144Y-72035714D01*
X177535716Y-72107143D01*
X177392859Y-72178571D01*
X177178573Y-72178571D01*
X177035716Y-72107143D01*
X177678573Y-71607143D02*
X177535716Y-71678571D01*
X177250002Y-71678571D01*
X177107144Y-71607143D01*
X177035716Y-71535714D01*
X176964287Y-71392857D01*
X176964287Y-70964286D01*
X177035716Y-70821429D01*
X177107144Y-70750000D01*
X177250002Y-70678571D01*
X177535716Y-70678571D01*
X177678573Y-70750000D01*
X128642857Y-94628571D02*
X128928571Y-94628571D01*
X129071429Y-94700000D01*
X129214286Y-94842857D01*
X129285714Y-95128571D01*
X129285714Y-95628571D01*
X129214286Y-95914286D01*
X129071429Y-96057143D01*
X128928571Y-96128571D01*
X128642857Y-96128571D01*
X128500000Y-96057143D01*
X128357143Y-95914286D01*
X128285714Y-95628571D01*
X128285714Y-95128571D01*
X128357143Y-94842857D01*
X128500000Y-94700000D01*
X128642857Y-94628571D01*
X129928572Y-96128571D02*
X129928572Y-94628571D01*
X130500000Y-94628571D01*
X130642858Y-94700000D01*
X130714286Y-94771429D01*
X130785715Y-94914286D01*
X130785715Y-95128571D01*
X130714286Y-95271429D01*
X130642858Y-95342857D01*
X130500000Y-95414286D01*
X129928572Y-95414286D01*
X132428572Y-96271429D02*
X132285715Y-96200000D01*
X132142858Y-96057143D01*
X131928572Y-95842857D01*
X131785715Y-95771429D01*
X131642858Y-95771429D01*
X131714286Y-96128571D02*
X131571429Y-96057143D01*
X131428572Y-95914286D01*
X131357143Y-95628571D01*
X131357143Y-95128571D01*
X131428572Y-94842857D01*
X131571429Y-94700000D01*
X131714286Y-94628571D01*
X132000000Y-94628571D01*
X132142858Y-94700000D01*
X132285715Y-94842857D01*
X132357143Y-95128571D01*
X132357143Y-95628571D01*
X132285715Y-95914286D01*
X132142858Y-96057143D01*
X132000000Y-96128571D01*
X131714286Y-96128571D01*
X133500001Y-95342857D02*
X133714287Y-95414286D01*
X133785715Y-95485714D01*
X133857144Y-95628571D01*
X133857144Y-95842857D01*
X133785715Y-95985714D01*
X133714287Y-96057143D01*
X133571429Y-96128571D01*
X133000001Y-96128571D01*
X133000001Y-94628571D01*
X133500001Y-94628571D01*
X133642858Y-94700000D01*
X133714287Y-94771429D01*
X133785715Y-94914286D01*
X133785715Y-95057143D01*
X133714287Y-95200000D01*
X133642858Y-95271429D01*
X133500001Y-95342857D01*
X133000001Y-95342857D01*
X134785715Y-94628571D02*
X135071429Y-94628571D01*
X135214287Y-94700000D01*
X135357144Y-94842857D01*
X135428572Y-95128571D01*
X135428572Y-95628571D01*
X135357144Y-95914286D01*
X135214287Y-96057143D01*
X135071429Y-96128571D01*
X134785715Y-96128571D01*
X134642858Y-96057143D01*
X134500001Y-95914286D01*
X134428572Y-95628571D01*
X134428572Y-95128571D01*
X134500001Y-94842857D01*
X134642858Y-94700000D01*
X134785715Y-94628571D01*
X135928573Y-94628571D02*
X136928573Y-96128571D01*
X136928573Y-94628571D02*
X135928573Y-96128571D01*
X137357144Y-94628571D02*
X138285715Y-94628571D01*
X137785715Y-95200000D01*
X138000001Y-95200000D01*
X138142858Y-95271429D01*
X138214287Y-95342857D01*
X138285715Y-95485714D01*
X138285715Y-95842857D01*
X138214287Y-95985714D01*
X138142858Y-96057143D01*
X138000001Y-96128571D01*
X137571429Y-96128571D01*
X137428572Y-96057143D01*
X137357144Y-95985714D01*
X128285714Y-98607143D02*
X128428571Y-98678571D01*
X128714286Y-98678571D01*
X128857143Y-98607143D01*
X128928571Y-98464286D01*
X128928571Y-98392857D01*
X128857143Y-98250000D01*
X128714286Y-98178571D01*
X128500000Y-98178571D01*
X128357143Y-98107143D01*
X128285714Y-97964286D01*
X128285714Y-97892857D01*
X128357143Y-97750000D01*
X128500000Y-97678571D01*
X128714286Y-97678571D01*
X128857143Y-97750000D01*
X129571429Y-98678571D02*
X129571429Y-97678571D01*
X129571429Y-97178571D02*
X129500000Y-97250000D01*
X129571429Y-97321429D01*
X129642857Y-97250000D01*
X129571429Y-97178571D01*
X129571429Y-97321429D01*
X130285715Y-97678571D02*
X130285715Y-98678571D01*
X130285715Y-97821429D02*
X130357143Y-97750000D01*
X130500001Y-97678571D01*
X130714286Y-97678571D01*
X130857143Y-97750000D01*
X130928572Y-97892857D01*
X130928572Y-98678571D01*
X131857144Y-97821429D02*
X131714286Y-97750000D01*
X131642858Y-97678571D01*
X131571429Y-97535714D01*
X131571429Y-97464286D01*
X131642858Y-97321429D01*
X131714286Y-97250000D01*
X131857144Y-97178571D01*
X132142858Y-97178571D01*
X132285715Y-97250000D01*
X132357144Y-97321429D01*
X132428572Y-97464286D01*
X132428572Y-97535714D01*
X132357144Y-97678571D01*
X132285715Y-97750000D01*
X132142858Y-97821429D01*
X131857144Y-97821429D01*
X131714286Y-97892857D01*
X131642858Y-97964286D01*
X131571429Y-98107143D01*
X131571429Y-98392857D01*
X131642858Y-98535714D01*
X131714286Y-98607143D01*
X131857144Y-98678571D01*
X132142858Y-98678571D01*
X132285715Y-98607143D01*
X132357144Y-98535714D01*
X132428572Y-98392857D01*
X132428572Y-98107143D01*
X132357144Y-97964286D01*
X132285715Y-97892857D01*
X132142858Y-97821429D01*
X133142857Y-98607143D02*
X133142857Y-98678571D01*
X133071429Y-98821429D01*
X133000000Y-98892857D01*
X134428572Y-98678571D02*
X134428572Y-97178571D01*
X134428572Y-98607143D02*
X134285715Y-98678571D01*
X134000001Y-98678571D01*
X133857143Y-98607143D01*
X133785715Y-98535714D01*
X133714286Y-98392857D01*
X133714286Y-97964286D01*
X133785715Y-97821429D01*
X133857143Y-97750000D01*
X134000001Y-97678571D01*
X134285715Y-97678571D01*
X134428572Y-97750000D01*
X135785715Y-98678571D02*
X135785715Y-97892857D01*
X135714286Y-97750000D01*
X135571429Y-97678571D01*
X135285715Y-97678571D01*
X135142858Y-97750000D01*
X135785715Y-98607143D02*
X135642858Y-98678571D01*
X135285715Y-98678571D01*
X135142858Y-98607143D01*
X135071429Y-98464286D01*
X135071429Y-98321429D01*
X135142858Y-98178571D01*
X135285715Y-98107143D01*
X135642858Y-98107143D01*
X135785715Y-98035714D01*
X136357144Y-97678571D02*
X136714287Y-98678571D01*
X137071429Y-97678571D01*
X137642858Y-98678571D02*
X137642858Y-97678571D01*
X137642858Y-97178571D02*
X137571429Y-97250000D01*
X137642858Y-97321429D01*
X137714286Y-97250000D01*
X137642858Y-97178571D01*
X137642858Y-97321429D01*
X139000001Y-98678571D02*
X139000001Y-97178571D01*
X139000001Y-98607143D02*
X138857144Y-98678571D01*
X138571430Y-98678571D01*
X138428572Y-98607143D01*
X138357144Y-98535714D01*
X138285715Y-98392857D01*
X138285715Y-97964286D01*
X138357144Y-97821429D01*
X138428572Y-97750000D01*
X138571430Y-97678571D01*
X138857144Y-97678571D01*
X139000001Y-97750000D01*
X139714287Y-98678571D02*
X139714287Y-97678571D01*
X139714287Y-97964286D02*
X139785715Y-97821429D01*
X139857144Y-97750000D01*
X140000001Y-97678571D01*
X140142858Y-97678571D01*
X140642858Y-98678571D02*
X140642858Y-97178571D01*
X140642858Y-97750000D02*
X140785715Y-97678571D01*
X141071429Y-97678571D01*
X141214286Y-97750000D01*
X141285715Y-97821429D01*
X141357144Y-97964286D01*
X141357144Y-98392857D01*
X141285715Y-98535714D01*
X141214286Y-98607143D01*
X141071429Y-98678571D01*
X140785715Y-98678571D01*
X140642858Y-98607143D01*
X128285714Y-99871429D02*
X128357143Y-99800000D01*
X128500000Y-99728571D01*
X128857143Y-99728571D01*
X129000000Y-99800000D01*
X129071429Y-99871429D01*
X129142857Y-100014286D01*
X129142857Y-100157143D01*
X129071429Y-100371429D01*
X128214286Y-101228571D01*
X129142857Y-101228571D01*
X130071428Y-99728571D02*
X130214285Y-99728571D01*
X130357142Y-99800000D01*
X130428571Y-99871429D01*
X130500000Y-100014286D01*
X130571428Y-100300000D01*
X130571428Y-100657143D01*
X130500000Y-100942857D01*
X130428571Y-101085714D01*
X130357142Y-101157143D01*
X130214285Y-101228571D01*
X130071428Y-101228571D01*
X129928571Y-101157143D01*
X129857142Y-101085714D01*
X129785714Y-100942857D01*
X129714285Y-100657143D01*
X129714285Y-100300000D01*
X129785714Y-100014286D01*
X129857142Y-99871429D01*
X129928571Y-99800000D01*
X130071428Y-99728571D01*
X131999999Y-101228571D02*
X131142856Y-101228571D01*
X131571428Y-101228571D02*
X131571428Y-99728571D01*
X131428571Y-99942857D01*
X131285713Y-100085714D01*
X131142856Y-100157143D01*
X132857142Y-100371429D02*
X132714284Y-100300000D01*
X132642856Y-100228571D01*
X132571427Y-100085714D01*
X132571427Y-100014286D01*
X132642856Y-99871429D01*
X132714284Y-99800000D01*
X132857142Y-99728571D01*
X133142856Y-99728571D01*
X133285713Y-99800000D01*
X133357142Y-99871429D01*
X133428570Y-100014286D01*
X133428570Y-100085714D01*
X133357142Y-100228571D01*
X133285713Y-100300000D01*
X133142856Y-100371429D01*
X132857142Y-100371429D01*
X132714284Y-100442857D01*
X132642856Y-100514286D01*
X132571427Y-100657143D01*
X132571427Y-100942857D01*
X132642856Y-101085714D01*
X132714284Y-101157143D01*
X132857142Y-101228571D01*
X133142856Y-101228571D01*
X133285713Y-101157143D01*
X133357142Y-101085714D01*
X133428570Y-100942857D01*
X133428570Y-100657143D01*
X133357142Y-100514286D01*
X133285713Y-100442857D01*
X133142856Y-100371429D01*
D14*
X97000000Y-144450000D02*
X124200000Y-144450000D01*
X124200000Y-92050000D02*
X97000000Y-92050000D01*
X124200000Y-144450000D02*
X124200000Y-92050000D01*
X97000000Y-92050000D02*
X97000000Y-144450000D01*
D15*
X158050000Y-149670000D02*
X158050000Y-154870000D01*
X165730000Y-149670000D02*
X158050000Y-149670000D01*
X168330000Y-154870000D02*
X158050000Y-154870000D01*
X165730000Y-149670000D02*
X165730000Y-152270000D01*
X165730000Y-152270000D02*
X168330000Y-152270000D01*
X168330000Y-152270000D02*
X168330000Y-154870000D01*
X167000000Y-149670000D02*
X168330000Y-149670000D01*
X168330000Y-149670000D02*
X168330000Y-151000000D01*
X137410000Y-116560000D02*
X137410000Y-117490000D01*
X137410000Y-119720000D02*
X137410000Y-118790000D01*
X137410000Y-119720000D02*
X139570000Y-119720000D01*
X137410000Y-116560000D02*
X138870000Y-116560000D01*
X141770000Y-117790000D02*
X141770000Y-118490000D01*
X140570000Y-118490000D02*
X140570000Y-117790000D01*
X137820000Y-120540000D02*
X138520000Y-120540000D01*
X138520000Y-121740000D02*
X137820000Y-121740000D01*
X137560000Y-74840000D02*
X137560000Y-78160000D01*
X137560000Y-78160000D02*
X146680000Y-78160000D01*
X146680000Y-78160000D02*
X146680000Y-74840000D01*
X146680000Y-74840000D02*
X137560000Y-74840000D01*
X135480000Y-76500000D02*
X137560000Y-76500000D01*
X148760000Y-76500000D02*
X146680000Y-76500000D01*
X158560000Y-74840000D02*
X158560000Y-78160000D01*
X158560000Y-78160000D02*
X167680000Y-78160000D01*
X167680000Y-78160000D02*
X167680000Y-74840000D01*
X167680000Y-74840000D02*
X158560000Y-74840000D01*
X156480000Y-76500000D02*
X158560000Y-76500000D01*
X169760000Y-76500000D02*
X167680000Y-76500000D01*
D14*
X155295000Y-119515000D02*
X155295000Y-119065000D01*
X148045000Y-119515000D02*
X148045000Y-118990000D01*
X148045000Y-112265000D02*
X148045000Y-112790000D01*
X155295000Y-112265000D02*
X155295000Y-112790000D01*
X155295000Y-119515000D02*
X154770000Y-119515000D01*
X155295000Y-112265000D02*
X154770000Y-112265000D01*
X148045000Y-112265000D02*
X148570000Y-112265000D01*
X148045000Y-119515000D02*
X148570000Y-119515000D01*
X155295000Y-119065000D02*
X156670000Y-119065000D01*
D15*
X145750000Y-106630000D02*
X144820000Y-106630000D01*
X142590000Y-106630000D02*
X143520000Y-106630000D01*
X142590000Y-106630000D02*
X142590000Y-108790000D01*
X145750000Y-106630000D02*
X145750000Y-108090000D01*
X145770000Y-147750000D02*
X145770000Y-148250000D01*
X146830000Y-148250000D02*
X146830000Y-147750000D01*
X148770000Y-147750000D02*
X148770000Y-148250000D01*
X149830000Y-148250000D02*
X149830000Y-147750000D01*
X142770000Y-147750000D02*
X142770000Y-148250000D01*
X143830000Y-148250000D02*
X143830000Y-147750000D01*
X161730000Y-97420000D02*
X161730000Y-97920000D01*
X162790000Y-97920000D02*
X162790000Y-97420000D01*
X165340000Y-97400000D02*
X165340000Y-97900000D01*
X166400000Y-97900000D02*
X166400000Y-97400000D01*
X147580000Y-96040000D02*
X148080000Y-96040000D01*
X148080000Y-94980000D02*
X147580000Y-94980000D01*
X144704000Y-82474000D02*
X145204000Y-82474000D01*
X145204000Y-81414000D02*
X144704000Y-81414000D01*
X147704000Y-82474000D02*
X148204000Y-82474000D01*
X148204000Y-81414000D02*
X147704000Y-81414000D01*
X161350000Y-82980000D02*
X161850000Y-82980000D01*
X161850000Y-81920000D02*
X161350000Y-81920000D01*
X164800000Y-81760000D02*
X164800000Y-82260000D01*
X165860000Y-82260000D02*
X165860000Y-81760000D01*
X116850000Y-152150000D02*
X116850000Y-152850000D01*
X114650000Y-152150000D02*
X114650000Y-152850000D01*
X123050000Y-153670000D02*
X123050000Y-156330000D01*
X130730000Y-153670000D02*
X123050000Y-153670000D01*
X130730000Y-156330000D02*
X123050000Y-156330000D01*
X130730000Y-153670000D02*
X130730000Y-156330000D01*
X132000000Y-153670000D02*
X133330000Y-153670000D01*
X133330000Y-153670000D02*
X133330000Y-155000000D01*
D14*
X111230000Y-83560000D02*
X111230000Y-75940000D01*
X111230000Y-75940000D02*
X111230000Y-74670000D01*
X111230000Y-74670000D02*
X113770000Y-74670000D01*
X113770000Y-74670000D02*
X113770000Y-84830000D01*
X113770000Y-84830000D02*
X111230000Y-84830000D01*
X111230000Y-84830000D02*
X111230000Y-83560000D01*
X123730000Y-83560000D02*
X123730000Y-75940000D01*
X123730000Y-75940000D02*
X123730000Y-74670000D01*
X123730000Y-74670000D02*
X126270000Y-74670000D01*
X126270000Y-74670000D02*
X126270000Y-84830000D01*
X126270000Y-84830000D02*
X123730000Y-84830000D01*
X123730000Y-84830000D02*
X123730000Y-83560000D01*
X133830000Y-91040000D02*
X123670000Y-91040000D01*
X123670000Y-91040000D02*
X123670000Y-85960000D01*
X123670000Y-85960000D02*
X133830000Y-85960000D01*
X133830000Y-85960000D02*
X133830000Y-91040000D01*
D15*
X133930000Y-83000000D02*
X133930000Y-81000000D01*
X136070000Y-81000000D02*
X136070000Y-83000000D01*
X145750000Y-153800000D02*
X146850000Y-153800000D01*
X146850000Y-153800000D02*
X146850000Y-151200000D01*
X145750000Y-153800000D02*
X145750000Y-151200000D01*
X148750000Y-153800000D02*
X149850000Y-153800000D01*
X149850000Y-153800000D02*
X149850000Y-151200000D01*
X148750000Y-153800000D02*
X148750000Y-151200000D01*
X142750000Y-153900000D02*
X143850000Y-153900000D01*
X143850000Y-153900000D02*
X143850000Y-151300000D01*
X142750000Y-153900000D02*
X142750000Y-151300000D01*
X158420000Y-115170000D02*
X157920000Y-115170000D01*
X157920000Y-116110000D02*
X158420000Y-116110000D01*
X148920000Y-109670000D02*
X148420000Y-109670000D01*
X148420000Y-110610000D02*
X148920000Y-110610000D01*
X148920000Y-108420000D02*
X148420000Y-108420000D01*
X148420000Y-109360000D02*
X148920000Y-109360000D01*
X158420000Y-114170000D02*
X157920000Y-114170000D01*
X157920000Y-115110000D02*
X158420000Y-115110000D01*
X151950000Y-108890000D02*
X151950000Y-109390000D01*
X152890000Y-109390000D02*
X152890000Y-108890000D01*
X153920000Y-122360000D02*
X154420000Y-122360000D01*
X154420000Y-121420000D02*
X153920000Y-121420000D01*
X160670000Y-125920000D02*
X160170000Y-125920000D01*
X160170000Y-126860000D02*
X160670000Y-126860000D01*
X145640000Y-111140000D02*
X145640000Y-110640000D01*
X144700000Y-110640000D02*
X144700000Y-111140000D01*
X143270000Y-110540000D02*
X143270000Y-111240000D01*
X142070000Y-111240000D02*
X142070000Y-110540000D01*
X156330000Y-92030000D02*
X154330000Y-92030000D01*
X154330000Y-94990000D02*
X156330000Y-94990000D01*
X163810000Y-98040000D02*
X164310000Y-98040000D01*
X164310000Y-97100000D02*
X163810000Y-97100000D01*
X116250000Y-155400000D02*
X115250000Y-155400000D01*
X115250000Y-157100000D02*
X116250000Y-157100000D01*
X150050000Y-96260000D02*
X150050000Y-95760000D01*
X149110000Y-95760000D02*
X149110000Y-96260000D01*
X168650000Y-94000000D02*
X169350000Y-94000000D01*
X169350000Y-95200000D02*
X168650000Y-95200000D01*
X116250000Y-148150000D02*
X115250000Y-148150000D01*
X115250000Y-149850000D02*
X116250000Y-149850000D01*
X153954000Y-80464000D02*
X151954000Y-80464000D01*
X151954000Y-83424000D02*
X153954000Y-83424000D01*
X163520000Y-82920000D02*
X164020000Y-82920000D01*
X164020000Y-81980000D02*
X163520000Y-81980000D01*
X167800000Y-84550000D02*
X167800000Y-83850000D01*
X169000000Y-83850000D02*
X169000000Y-84550000D01*
D14*
X143255000Y-92885000D02*
X143605000Y-92885000D01*
X143255000Y-87135000D02*
X143705000Y-87135000D01*
X150905000Y-87135000D02*
X150455000Y-87135000D01*
X150905000Y-92885000D02*
X150455000Y-92885000D01*
X143255000Y-92885000D02*
X143255000Y-87135000D01*
X150905000Y-92885000D02*
X150905000Y-87135000D01*
X143605000Y-92885000D02*
X143605000Y-94485000D01*
D15*
X158620000Y-120080000D02*
X158620000Y-119690000D01*
X158620000Y-119690000D02*
X162220000Y-119690000D01*
X162220000Y-119690000D02*
X162220000Y-120080000D01*
X158620000Y-122760000D02*
X158620000Y-122020000D01*
X162920000Y-124700000D02*
X162220000Y-124700000D01*
X162220000Y-124700000D02*
X162220000Y-125090000D01*
X162220000Y-125090000D02*
X158620000Y-125090000D01*
X158620000Y-125090000D02*
X158620000Y-124700000D01*
X162220000Y-122020000D02*
X162220000Y-122760000D01*
X162220000Y-122760000D02*
X162920000Y-122760000D01*
D14*
X119750000Y-86600000D02*
X104250000Y-86600000D01*
X119750000Y-90500000D02*
X104250000Y-90500000D01*
X104250000Y-90500000D02*
X104250000Y-86600000D01*
X119750000Y-90500000D02*
X119750000Y-86600000D01*
X167035000Y-89010000D02*
X167035000Y-94510000D01*
X160625000Y-89010000D02*
X160625000Y-94510000D01*
X167035000Y-85510000D02*
X166380000Y-85510000D01*
X167035000Y-94510000D02*
X166285000Y-94510000D01*
X160625000Y-94510000D02*
X161375000Y-94510000D01*
X160625000Y-85510000D02*
X161375000Y-85510000D01*
X167035000Y-85510000D02*
X167035000Y-91010000D01*
X160625000Y-85510000D02*
X160625000Y-91010000D01*
X166380000Y-85510000D02*
X166380000Y-83760000D01*
X121452381Y-120938095D02*
X120452381Y-120938095D01*
X120452381Y-120557142D01*
X120500000Y-120461904D01*
X120547619Y-120414285D01*
X120642857Y-120366666D01*
X120785714Y-120366666D01*
X120880952Y-120414285D01*
X120928571Y-120461904D01*
X120976190Y-120557142D01*
X120976190Y-120938095D01*
X121404762Y-119985714D02*
X121452381Y-119842857D01*
X121452381Y-119604761D01*
X121404762Y-119509523D01*
X121357143Y-119461904D01*
X121261905Y-119414285D01*
X121166667Y-119414285D01*
X121071429Y-119461904D01*
X121023810Y-119509523D01*
X120976190Y-119604761D01*
X120928571Y-119795238D01*
X120880952Y-119890476D01*
X120833333Y-119938095D01*
X120738095Y-119985714D01*
X120642857Y-119985714D01*
X120547619Y-119938095D01*
X120500000Y-119890476D01*
X120452381Y-119795238D01*
X120452381Y-119557142D01*
X120500000Y-119414285D01*
X120452381Y-118985714D02*
X121261905Y-118985714D01*
X121357143Y-118938095D01*
X121404762Y-118890476D01*
X121452381Y-118795238D01*
X121452381Y-118604761D01*
X121404762Y-118509523D01*
X121357143Y-118461904D01*
X121261905Y-118414285D01*
X120452381Y-118414285D01*
X121452381Y-117414285D02*
X121452381Y-117985714D01*
X121452381Y-117700000D02*
X120452381Y-117700000D01*
X120595238Y-117795238D01*
X120690476Y-117890476D01*
X120738095Y-117985714D01*
X168782381Y-152603333D02*
X169496667Y-152603333D01*
X169639524Y-152650953D01*
X169734762Y-152746191D01*
X169782381Y-152889048D01*
X169782381Y-152984286D01*
X169115714Y-151698571D02*
X169782381Y-151698571D01*
X168734762Y-151936667D02*
X169449048Y-152174762D01*
X169449048Y-151555714D01*
X136252381Y-119219047D02*
X135776190Y-119552381D01*
X136252381Y-119790476D02*
X135252381Y-119790476D01*
X135252381Y-119409523D01*
X135300000Y-119314285D01*
X135347619Y-119266666D01*
X135442857Y-119219047D01*
X135585714Y-119219047D01*
X135680952Y-119266666D01*
X135728571Y-119314285D01*
X135776190Y-119409523D01*
X135776190Y-119790476D01*
X135728571Y-118790476D02*
X135728571Y-118457142D01*
X136252381Y-118314285D02*
X136252381Y-118790476D01*
X135252381Y-118790476D01*
X135252381Y-118314285D01*
X135300000Y-117361904D02*
X135252381Y-117457142D01*
X135252381Y-117599999D01*
X135300000Y-117742857D01*
X135395238Y-117838095D01*
X135490476Y-117885714D01*
X135680952Y-117933333D01*
X135823810Y-117933333D01*
X136014286Y-117885714D01*
X136109524Y-117838095D01*
X136204762Y-117742857D01*
X136252381Y-117599999D01*
X136252381Y-117504761D01*
X136204762Y-117361904D01*
X136157143Y-117314285D01*
X135823810Y-117314285D01*
X135823810Y-117504761D01*
X136252381Y-116361904D02*
X136252381Y-116933333D01*
X136252381Y-116647619D02*
X135252381Y-116647619D01*
X135395238Y-116742857D01*
X135490476Y-116838095D01*
X135538095Y-116933333D01*
X142777143Y-118782857D02*
X142824762Y-118830476D01*
X142872381Y-118973333D01*
X142872381Y-119068571D01*
X142824762Y-119211429D01*
X142729524Y-119306667D01*
X142634286Y-119354286D01*
X142443810Y-119401905D01*
X142300952Y-119401905D01*
X142110476Y-119354286D01*
X142015238Y-119306667D01*
X141920000Y-119211429D01*
X141872381Y-119068571D01*
X141872381Y-118973333D01*
X141920000Y-118830476D01*
X141967619Y-118782857D01*
X142872381Y-117830476D02*
X142872381Y-118401905D01*
X142872381Y-118116191D02*
X141872381Y-118116191D01*
X142015238Y-118211429D01*
X142110476Y-118306667D01*
X142158095Y-118401905D01*
X142872381Y-116878095D02*
X142872381Y-117449524D01*
X142872381Y-117163810D02*
X141872381Y-117163810D01*
X142015238Y-117259048D01*
X142110476Y-117354286D01*
X142158095Y-117449524D01*
X137657143Y-122957143D02*
X137609524Y-123004762D01*
X137466667Y-123052381D01*
X137371429Y-123052381D01*
X137228571Y-123004762D01*
X137133333Y-122909524D01*
X137085714Y-122814286D01*
X137038095Y-122623810D01*
X137038095Y-122480952D01*
X137085714Y-122290476D01*
X137133333Y-122195238D01*
X137228571Y-122100000D01*
X137371429Y-122052381D01*
X137466667Y-122052381D01*
X137609524Y-122100000D01*
X137657143Y-122147619D01*
X138609524Y-123052381D02*
X138038095Y-123052381D01*
X138323809Y-123052381D02*
X138323809Y-122052381D01*
X138228571Y-122195238D01*
X138133333Y-122290476D01*
X138038095Y-122338095D01*
X139228571Y-122052381D02*
X139323810Y-122052381D01*
X139419048Y-122100000D01*
X139466667Y-122147619D01*
X139514286Y-122242857D01*
X139561905Y-122433333D01*
X139561905Y-122671429D01*
X139514286Y-122861905D01*
X139466667Y-122957143D01*
X139419048Y-123004762D01*
X139323810Y-123052381D01*
X139228571Y-123052381D01*
X139133333Y-123004762D01*
X139085714Y-122957143D01*
X139038095Y-122861905D01*
X138990476Y-122671429D01*
X138990476Y-122433333D01*
X139038095Y-122242857D01*
X139085714Y-122147619D01*
X139133333Y-122100000D01*
X139228571Y-122052381D01*
X141953334Y-74292381D02*
X141620000Y-73816190D01*
X141381905Y-74292381D02*
X141381905Y-73292381D01*
X141762858Y-73292381D01*
X141858096Y-73340000D01*
X141905715Y-73387619D01*
X141953334Y-73482857D01*
X141953334Y-73625714D01*
X141905715Y-73720952D01*
X141858096Y-73768571D01*
X141762858Y-73816190D01*
X141381905Y-73816190D01*
X142905715Y-74292381D02*
X142334286Y-74292381D01*
X142620000Y-74292381D02*
X142620000Y-73292381D01*
X142524762Y-73435238D01*
X142429524Y-73530476D01*
X142334286Y-73578095D01*
X162953334Y-74292381D02*
X162620000Y-73816190D01*
X162381905Y-74292381D02*
X162381905Y-73292381D01*
X162762858Y-73292381D01*
X162858096Y-73340000D01*
X162905715Y-73387619D01*
X162953334Y-73482857D01*
X162953334Y-73625714D01*
X162905715Y-73720952D01*
X162858096Y-73768571D01*
X162762858Y-73816190D01*
X162381905Y-73816190D01*
X163334286Y-73387619D02*
X163381905Y-73340000D01*
X163477143Y-73292381D01*
X163715239Y-73292381D01*
X163810477Y-73340000D01*
X163858096Y-73387619D01*
X163905715Y-73482857D01*
X163905715Y-73578095D01*
X163858096Y-73720952D01*
X163286667Y-74292381D01*
X163905715Y-74292381D01*
X150908095Y-121342381D02*
X150908095Y-122151905D01*
X150955714Y-122247143D01*
X151003333Y-122294762D01*
X151098571Y-122342381D01*
X151289048Y-122342381D01*
X151384286Y-122294762D01*
X151431905Y-122247143D01*
X151479524Y-122151905D01*
X151479524Y-121342381D01*
X152431905Y-121342381D02*
X151955714Y-121342381D01*
X151908095Y-121818571D01*
X151955714Y-121770952D01*
X152050952Y-121723333D01*
X152289048Y-121723333D01*
X152384286Y-121770952D01*
X152431905Y-121818571D01*
X152479524Y-121913810D01*
X152479524Y-122151905D01*
X152431905Y-122247143D01*
X152384286Y-122294762D01*
X152289048Y-122342381D01*
X152050952Y-122342381D01*
X151955714Y-122294762D01*
X151908095Y-122247143D01*
X141122381Y-108151905D02*
X141931905Y-108151905D01*
X142027143Y-108104286D01*
X142074762Y-108056667D01*
X142122381Y-107961429D01*
X142122381Y-107770952D01*
X142074762Y-107675714D01*
X142027143Y-107628095D01*
X141931905Y-107580476D01*
X141122381Y-107580476D01*
X141122381Y-107199524D02*
X141122381Y-106580476D01*
X141503333Y-106913810D01*
X141503333Y-106770952D01*
X141550952Y-106675714D01*
X141598571Y-106628095D01*
X141693810Y-106580476D01*
X141931905Y-106580476D01*
X142027143Y-106628095D01*
X142074762Y-106675714D01*
X142122381Y-106770952D01*
X142122381Y-107056667D01*
X142074762Y-107151905D01*
X142027143Y-107199524D01*
X145402381Y-148642857D02*
X144926190Y-148976191D01*
X145402381Y-149214286D02*
X144402381Y-149214286D01*
X144402381Y-148833333D01*
X144450000Y-148738095D01*
X144497619Y-148690476D01*
X144592857Y-148642857D01*
X144735714Y-148642857D01*
X144830952Y-148690476D01*
X144878571Y-148738095D01*
X144926190Y-148833333D01*
X144926190Y-149214286D01*
X145402381Y-147690476D02*
X145402381Y-148261905D01*
X145402381Y-147976191D02*
X144402381Y-147976191D01*
X144545238Y-148071429D01*
X144640476Y-148166667D01*
X144688095Y-148261905D01*
X144402381Y-147357143D02*
X144402381Y-146738095D01*
X144783333Y-147071429D01*
X144783333Y-146928571D01*
X144830952Y-146833333D01*
X144878571Y-146785714D01*
X144973810Y-146738095D01*
X145211905Y-146738095D01*
X145307143Y-146785714D01*
X145354762Y-146833333D01*
X145402381Y-146928571D01*
X145402381Y-147214286D01*
X145354762Y-147309524D01*
X145307143Y-147357143D01*
X148402381Y-148642857D02*
X147926190Y-148976191D01*
X148402381Y-149214286D02*
X147402381Y-149214286D01*
X147402381Y-148833333D01*
X147450000Y-148738095D01*
X147497619Y-148690476D01*
X147592857Y-148642857D01*
X147735714Y-148642857D01*
X147830952Y-148690476D01*
X147878571Y-148738095D01*
X147926190Y-148833333D01*
X147926190Y-149214286D01*
X148402381Y-147690476D02*
X148402381Y-148261905D01*
X148402381Y-147976191D02*
X147402381Y-147976191D01*
X147545238Y-148071429D01*
X147640476Y-148166667D01*
X147688095Y-148261905D01*
X147497619Y-147309524D02*
X147450000Y-147261905D01*
X147402381Y-147166667D01*
X147402381Y-146928571D01*
X147450000Y-146833333D01*
X147497619Y-146785714D01*
X147592857Y-146738095D01*
X147688095Y-146738095D01*
X147830952Y-146785714D01*
X148402381Y-147357143D01*
X148402381Y-146738095D01*
X142402381Y-148642857D02*
X141926190Y-148976191D01*
X142402381Y-149214286D02*
X141402381Y-149214286D01*
X141402381Y-148833333D01*
X141450000Y-148738095D01*
X141497619Y-148690476D01*
X141592857Y-148642857D01*
X141735714Y-148642857D01*
X141830952Y-148690476D01*
X141878571Y-148738095D01*
X141926190Y-148833333D01*
X141926190Y-149214286D01*
X142402381Y-147690476D02*
X142402381Y-148261905D01*
X142402381Y-147976191D02*
X141402381Y-147976191D01*
X141545238Y-148071429D01*
X141640476Y-148166667D01*
X141688095Y-148261905D01*
X142402381Y-146738095D02*
X142402381Y-147309524D01*
X142402381Y-147023810D02*
X141402381Y-147023810D01*
X141545238Y-147119048D01*
X141640476Y-147214286D01*
X141688095Y-147309524D01*
X161362381Y-97836666D02*
X160886190Y-98170000D01*
X161362381Y-98408095D02*
X160362381Y-98408095D01*
X160362381Y-98027142D01*
X160410000Y-97931904D01*
X160457619Y-97884285D01*
X160552857Y-97836666D01*
X160695714Y-97836666D01*
X160790952Y-97884285D01*
X160838571Y-97931904D01*
X160886190Y-98027142D01*
X160886190Y-98408095D01*
X161362381Y-97360476D02*
X161362381Y-97170000D01*
X161314762Y-97074761D01*
X161267143Y-97027142D01*
X161124286Y-96931904D01*
X160933810Y-96884285D01*
X160552857Y-96884285D01*
X160457619Y-96931904D01*
X160410000Y-96979523D01*
X160362381Y-97074761D01*
X160362381Y-97265238D01*
X160410000Y-97360476D01*
X160457619Y-97408095D01*
X160552857Y-97455714D01*
X160790952Y-97455714D01*
X160886190Y-97408095D01*
X160933810Y-97360476D01*
X160981429Y-97265238D01*
X160981429Y-97074761D01*
X160933810Y-96979523D01*
X160886190Y-96931904D01*
X160790952Y-96884285D01*
X167752381Y-97866666D02*
X167276190Y-98200000D01*
X167752381Y-98438095D02*
X166752381Y-98438095D01*
X166752381Y-98057142D01*
X166800000Y-97961904D01*
X166847619Y-97914285D01*
X166942857Y-97866666D01*
X167085714Y-97866666D01*
X167180952Y-97914285D01*
X167228571Y-97961904D01*
X167276190Y-98057142D01*
X167276190Y-98438095D01*
X167180952Y-97295238D02*
X167133333Y-97390476D01*
X167085714Y-97438095D01*
X166990476Y-97485714D01*
X166942857Y-97485714D01*
X166847619Y-97438095D01*
X166800000Y-97390476D01*
X166752381Y-97295238D01*
X166752381Y-97104761D01*
X166800000Y-97009523D01*
X166847619Y-96961904D01*
X166942857Y-96914285D01*
X166990476Y-96914285D01*
X167085714Y-96961904D01*
X167133333Y-97009523D01*
X167180952Y-97104761D01*
X167180952Y-97295238D01*
X167228571Y-97390476D01*
X167276190Y-97438095D01*
X167371429Y-97485714D01*
X167561905Y-97485714D01*
X167657143Y-97438095D01*
X167704762Y-97390476D01*
X167752381Y-97295238D01*
X167752381Y-97104761D01*
X167704762Y-97009523D01*
X167657143Y-96961904D01*
X167561905Y-96914285D01*
X167371429Y-96914285D01*
X167276190Y-96961904D01*
X167228571Y-97009523D01*
X167180952Y-97104761D01*
X147663334Y-97312381D02*
X147330000Y-96836190D01*
X147091905Y-97312381D02*
X147091905Y-96312381D01*
X147472858Y-96312381D01*
X147568096Y-96360000D01*
X147615715Y-96407619D01*
X147663334Y-96502857D01*
X147663334Y-96645714D01*
X147615715Y-96740952D01*
X147568096Y-96788571D01*
X147472858Y-96836190D01*
X147091905Y-96836190D01*
X147996667Y-96312381D02*
X148663334Y-96312381D01*
X148234762Y-97312381D01*
X144787334Y-83746381D02*
X144454000Y-83270190D01*
X144215905Y-83746381D02*
X144215905Y-82746381D01*
X144596858Y-82746381D01*
X144692096Y-82794000D01*
X144739715Y-82841619D01*
X144787334Y-82936857D01*
X144787334Y-83079714D01*
X144739715Y-83174952D01*
X144692096Y-83222571D01*
X144596858Y-83270190D01*
X144215905Y-83270190D01*
X145644477Y-82746381D02*
X145454000Y-82746381D01*
X145358762Y-82794000D01*
X145311143Y-82841619D01*
X145215905Y-82984476D01*
X145168286Y-83174952D01*
X145168286Y-83555905D01*
X145215905Y-83651143D01*
X145263524Y-83698762D01*
X145358762Y-83746381D01*
X145549239Y-83746381D01*
X145644477Y-83698762D01*
X145692096Y-83651143D01*
X145739715Y-83555905D01*
X145739715Y-83317810D01*
X145692096Y-83222571D01*
X145644477Y-83174952D01*
X145549239Y-83127333D01*
X145358762Y-83127333D01*
X145263524Y-83174952D01*
X145215905Y-83222571D01*
X145168286Y-83317810D01*
X147787334Y-83746381D02*
X147454000Y-83270190D01*
X147215905Y-83746381D02*
X147215905Y-82746381D01*
X147596858Y-82746381D01*
X147692096Y-82794000D01*
X147739715Y-82841619D01*
X147787334Y-82936857D01*
X147787334Y-83079714D01*
X147739715Y-83174952D01*
X147692096Y-83222571D01*
X147596858Y-83270190D01*
X147215905Y-83270190D01*
X148692096Y-82746381D02*
X148215905Y-82746381D01*
X148168286Y-83222571D01*
X148215905Y-83174952D01*
X148311143Y-83127333D01*
X148549239Y-83127333D01*
X148644477Y-83174952D01*
X148692096Y-83222571D01*
X148739715Y-83317810D01*
X148739715Y-83555905D01*
X148692096Y-83651143D01*
X148644477Y-83698762D01*
X148549239Y-83746381D01*
X148311143Y-83746381D01*
X148215905Y-83698762D01*
X148168286Y-83651143D01*
X161433334Y-81552381D02*
X161100000Y-81076190D01*
X160861905Y-81552381D02*
X160861905Y-80552381D01*
X161242858Y-80552381D01*
X161338096Y-80600000D01*
X161385715Y-80647619D01*
X161433334Y-80742857D01*
X161433334Y-80885714D01*
X161385715Y-80980952D01*
X161338096Y-81028571D01*
X161242858Y-81076190D01*
X160861905Y-81076190D01*
X162290477Y-80885714D02*
X162290477Y-81552381D01*
X162052381Y-80504762D02*
X161814286Y-81219048D01*
X162433334Y-81219048D01*
X167152381Y-82166666D02*
X166676190Y-82500000D01*
X167152381Y-82738095D02*
X166152381Y-82738095D01*
X166152381Y-82357142D01*
X166200000Y-82261904D01*
X166247619Y-82214285D01*
X166342857Y-82166666D01*
X166485714Y-82166666D01*
X166580952Y-82214285D01*
X166628571Y-82261904D01*
X166676190Y-82357142D01*
X166676190Y-82738095D01*
X166152381Y-81833333D02*
X166152381Y-81214285D01*
X166533333Y-81547619D01*
X166533333Y-81404761D01*
X166580952Y-81309523D01*
X166628571Y-81261904D01*
X166723810Y-81214285D01*
X166961905Y-81214285D01*
X167057143Y-81261904D01*
X167104762Y-81309523D01*
X167152381Y-81404761D01*
X167152381Y-81690476D01*
X167104762Y-81785714D01*
X167057143Y-81833333D01*
X118352381Y-152666666D02*
X118352381Y-153142857D01*
X117352381Y-153142857D01*
X118352381Y-151809523D02*
X118352381Y-152380952D01*
X118352381Y-152095238D02*
X117352381Y-152095238D01*
X117495238Y-152190476D01*
X117590476Y-152285714D01*
X117638095Y-152380952D01*
X133782381Y-155333333D02*
X134496667Y-155333333D01*
X134639524Y-155380953D01*
X134734762Y-155476191D01*
X134782381Y-155619048D01*
X134782381Y-155714286D01*
X133782381Y-154380952D02*
X133782381Y-154857143D01*
X134258571Y-154904762D01*
X134210952Y-154857143D01*
X134163333Y-154761905D01*
X134163333Y-154523809D01*
X134210952Y-154428571D01*
X134258571Y-154380952D01*
X134353810Y-154333333D01*
X134591905Y-154333333D01*
X134687143Y-154380952D01*
X134734762Y-154428571D01*
X134782381Y-154523809D01*
X134782381Y-154761905D01*
X134734762Y-154857143D01*
X134687143Y-154904762D01*
X114492381Y-80083333D02*
X115206667Y-80083333D01*
X115349524Y-80130953D01*
X115444762Y-80226191D01*
X115492381Y-80369048D01*
X115492381Y-80464286D01*
X114587619Y-79654762D02*
X114540000Y-79607143D01*
X114492381Y-79511905D01*
X114492381Y-79273809D01*
X114540000Y-79178571D01*
X114587619Y-79130952D01*
X114682857Y-79083333D01*
X114778095Y-79083333D01*
X114920952Y-79130952D01*
X115492381Y-79702381D01*
X115492381Y-79083333D01*
X126992381Y-80083333D02*
X127706667Y-80083333D01*
X127849524Y-80130953D01*
X127944762Y-80226191D01*
X127992381Y-80369048D01*
X127992381Y-80464286D01*
X127992381Y-79083333D02*
X127992381Y-79654762D01*
X127992381Y-79369048D02*
X126992381Y-79369048D01*
X127135238Y-79464286D01*
X127230476Y-79559524D01*
X127278095Y-79654762D01*
X128416667Y-84618571D02*
X128083333Y-84618571D01*
X128083333Y-85142381D02*
X128083333Y-84142381D01*
X128559524Y-84142381D01*
X128892857Y-84237619D02*
X128940476Y-84190000D01*
X129035714Y-84142381D01*
X129273810Y-84142381D01*
X129369048Y-84190000D01*
X129416667Y-84237619D01*
X129464286Y-84332857D01*
X129464286Y-84428095D01*
X129416667Y-84570952D01*
X128845238Y-85142381D01*
X129464286Y-85142381D01*
X137128571Y-82283333D02*
X137128571Y-82616667D01*
X137652381Y-82616667D02*
X136652381Y-82616667D01*
X136652381Y-82140476D01*
X137652381Y-81235714D02*
X137652381Y-81807143D01*
X137652381Y-81521429D02*
X136652381Y-81521429D01*
X136795238Y-81616667D01*
X136890476Y-81711905D01*
X136938095Y-81807143D01*
X145302381Y-152738095D02*
X144302381Y-152738095D01*
X144302381Y-152500000D01*
X144350000Y-152357142D01*
X144445238Y-152261904D01*
X144540476Y-152214285D01*
X144730952Y-152166666D01*
X144873810Y-152166666D01*
X145064286Y-152214285D01*
X145159524Y-152261904D01*
X145254762Y-152357142D01*
X145302381Y-152500000D01*
X145302381Y-152738095D01*
X144302381Y-151833333D02*
X144302381Y-151214285D01*
X144683333Y-151547619D01*
X144683333Y-151404761D01*
X144730952Y-151309523D01*
X144778571Y-151261904D01*
X144873810Y-151214285D01*
X145111905Y-151214285D01*
X145207143Y-151261904D01*
X145254762Y-151309523D01*
X145302381Y-151404761D01*
X145302381Y-151690476D01*
X145254762Y-151785714D01*
X145207143Y-151833333D01*
X148302381Y-152738095D02*
X147302381Y-152738095D01*
X147302381Y-152500000D01*
X147350000Y-152357142D01*
X147445238Y-152261904D01*
X147540476Y-152214285D01*
X147730952Y-152166666D01*
X147873810Y-152166666D01*
X148064286Y-152214285D01*
X148159524Y-152261904D01*
X148254762Y-152357142D01*
X148302381Y-152500000D01*
X148302381Y-152738095D01*
X147397619Y-151785714D02*
X147350000Y-151738095D01*
X147302381Y-151642857D01*
X147302381Y-151404761D01*
X147350000Y-151309523D01*
X147397619Y-151261904D01*
X147492857Y-151214285D01*
X147588095Y-151214285D01*
X147730952Y-151261904D01*
X148302381Y-151833333D01*
X148302381Y-151214285D01*
X142302381Y-152838095D02*
X141302381Y-152838095D01*
X141302381Y-152600000D01*
X141350000Y-152457142D01*
X141445238Y-152361904D01*
X141540476Y-152314285D01*
X141730952Y-152266666D01*
X141873810Y-152266666D01*
X142064286Y-152314285D01*
X142159524Y-152361904D01*
X142254762Y-152457142D01*
X142302381Y-152600000D01*
X142302381Y-152838095D01*
X142302381Y-151314285D02*
X142302381Y-151885714D01*
X142302381Y-151600000D02*
X141302381Y-151600000D01*
X141445238Y-151695238D01*
X141540476Y-151790476D01*
X141588095Y-151885714D01*
X157557143Y-113957143D02*
X157509524Y-114004762D01*
X157366667Y-114052381D01*
X157271429Y-114052381D01*
X157128571Y-114004762D01*
X157033333Y-113909524D01*
X156985714Y-113814286D01*
X156938095Y-113623810D01*
X156938095Y-113480952D01*
X156985714Y-113290476D01*
X157033333Y-113195238D01*
X157128571Y-113100000D01*
X157271429Y-113052381D01*
X157366667Y-113052381D01*
X157509524Y-113100000D01*
X157557143Y-113147619D01*
X157938095Y-113147619D02*
X157985714Y-113100000D01*
X158080952Y-113052381D01*
X158319048Y-113052381D01*
X158414286Y-113100000D01*
X158461905Y-113147619D01*
X158509524Y-113242857D01*
X158509524Y-113338095D01*
X158461905Y-113480952D01*
X157890476Y-114052381D01*
X158509524Y-114052381D01*
X159128571Y-113052381D02*
X159223810Y-113052381D01*
X159319048Y-113100000D01*
X159366667Y-113147619D01*
X159414286Y-113242857D01*
X159461905Y-113433333D01*
X159461905Y-113671429D01*
X159414286Y-113861905D01*
X159366667Y-113957143D01*
X159319048Y-114004762D01*
X159223810Y-114052381D01*
X159128571Y-114052381D01*
X159033333Y-114004762D01*
X158985714Y-113957143D01*
X158938095Y-113861905D01*
X158890476Y-113671429D01*
X158890476Y-113433333D01*
X158938095Y-113242857D01*
X158985714Y-113147619D01*
X159033333Y-113100000D01*
X159128571Y-113052381D01*
X148057143Y-107957143D02*
X148009524Y-108004762D01*
X147866667Y-108052381D01*
X147771429Y-108052381D01*
X147628571Y-108004762D01*
X147533333Y-107909524D01*
X147485714Y-107814286D01*
X147438095Y-107623810D01*
X147438095Y-107480952D01*
X147485714Y-107290476D01*
X147533333Y-107195238D01*
X147628571Y-107100000D01*
X147771429Y-107052381D01*
X147866667Y-107052381D01*
X148009524Y-107100000D01*
X148057143Y-107147619D01*
X149009524Y-108052381D02*
X148438095Y-108052381D01*
X148723809Y-108052381D02*
X148723809Y-107052381D01*
X148628571Y-107195238D01*
X148533333Y-107290476D01*
X148438095Y-107338095D01*
X149485714Y-108052381D02*
X149676190Y-108052381D01*
X149771429Y-108004762D01*
X149819048Y-107957143D01*
X149914286Y-107814286D01*
X149961905Y-107623810D01*
X149961905Y-107242857D01*
X149914286Y-107147619D01*
X149866667Y-107100000D01*
X149771429Y-107052381D01*
X149580952Y-107052381D01*
X149485714Y-107100000D01*
X149438095Y-107147619D01*
X149390476Y-107242857D01*
X149390476Y-107480952D01*
X149438095Y-107576190D01*
X149485714Y-107623810D01*
X149580952Y-107671429D01*
X149771429Y-107671429D01*
X149866667Y-107623810D01*
X149914286Y-107576190D01*
X149961905Y-107480952D01*
X148057143Y-106657143D02*
X148009524Y-106704762D01*
X147866667Y-106752381D01*
X147771429Y-106752381D01*
X147628571Y-106704762D01*
X147533333Y-106609524D01*
X147485714Y-106514286D01*
X147438095Y-106323810D01*
X147438095Y-106180952D01*
X147485714Y-105990476D01*
X147533333Y-105895238D01*
X147628571Y-105800000D01*
X147771429Y-105752381D01*
X147866667Y-105752381D01*
X148009524Y-105800000D01*
X148057143Y-105847619D01*
X149009524Y-106752381D02*
X148438095Y-106752381D01*
X148723809Y-106752381D02*
X148723809Y-105752381D01*
X148628571Y-105895238D01*
X148533333Y-105990476D01*
X148438095Y-106038095D01*
X149580952Y-106180952D02*
X149485714Y-106133333D01*
X149438095Y-106085714D01*
X149390476Y-105990476D01*
X149390476Y-105942857D01*
X149438095Y-105847619D01*
X149485714Y-105800000D01*
X149580952Y-105752381D01*
X149771429Y-105752381D01*
X149866667Y-105800000D01*
X149914286Y-105847619D01*
X149961905Y-105942857D01*
X149961905Y-105990476D01*
X149914286Y-106085714D01*
X149866667Y-106133333D01*
X149771429Y-106180952D01*
X149580952Y-106180952D01*
X149485714Y-106228571D01*
X149438095Y-106276190D01*
X149390476Y-106371429D01*
X149390476Y-106561905D01*
X149438095Y-106657143D01*
X149485714Y-106704762D01*
X149580952Y-106752381D01*
X149771429Y-106752381D01*
X149866667Y-106704762D01*
X149914286Y-106657143D01*
X149961905Y-106561905D01*
X149961905Y-106371429D01*
X149914286Y-106276190D01*
X149866667Y-106228571D01*
X149771429Y-106180952D01*
X157557143Y-112657143D02*
X157509524Y-112704762D01*
X157366667Y-112752381D01*
X157271429Y-112752381D01*
X157128571Y-112704762D01*
X157033333Y-112609524D01*
X156985714Y-112514286D01*
X156938095Y-112323810D01*
X156938095Y-112180952D01*
X156985714Y-111990476D01*
X157033333Y-111895238D01*
X157128571Y-111800000D01*
X157271429Y-111752381D01*
X157366667Y-111752381D01*
X157509524Y-111800000D01*
X157557143Y-111847619D01*
X158509524Y-112752381D02*
X157938095Y-112752381D01*
X158223809Y-112752381D02*
X158223809Y-111752381D01*
X158128571Y-111895238D01*
X158033333Y-111990476D01*
X157938095Y-112038095D01*
X158842857Y-111752381D02*
X159509524Y-111752381D01*
X159080952Y-112752381D01*
X151507143Y-109782857D02*
X151554762Y-109830476D01*
X151602381Y-109973333D01*
X151602381Y-110068571D01*
X151554762Y-110211429D01*
X151459524Y-110306667D01*
X151364286Y-110354286D01*
X151173810Y-110401905D01*
X151030952Y-110401905D01*
X150840476Y-110354286D01*
X150745238Y-110306667D01*
X150650000Y-110211429D01*
X150602381Y-110068571D01*
X150602381Y-109973333D01*
X150650000Y-109830476D01*
X150697619Y-109782857D01*
X151602381Y-108830476D02*
X151602381Y-109401905D01*
X151602381Y-109116191D02*
X150602381Y-109116191D01*
X150745238Y-109211429D01*
X150840476Y-109306667D01*
X150888095Y-109401905D01*
X150602381Y-107973333D02*
X150602381Y-108163810D01*
X150650000Y-108259048D01*
X150697619Y-108306667D01*
X150840476Y-108401905D01*
X151030952Y-108449524D01*
X151411905Y-108449524D01*
X151507143Y-108401905D01*
X151554762Y-108354286D01*
X151602381Y-108259048D01*
X151602381Y-108068571D01*
X151554762Y-107973333D01*
X151507143Y-107925714D01*
X151411905Y-107878095D01*
X151173810Y-107878095D01*
X151078571Y-107925714D01*
X151030952Y-107973333D01*
X150983333Y-108068571D01*
X150983333Y-108259048D01*
X151030952Y-108354286D01*
X151078571Y-108401905D01*
X151173810Y-108449524D01*
X153527143Y-123517143D02*
X153479524Y-123564762D01*
X153336667Y-123612381D01*
X153241429Y-123612381D01*
X153098571Y-123564762D01*
X153003333Y-123469524D01*
X152955714Y-123374286D01*
X152908095Y-123183810D01*
X152908095Y-123040952D01*
X152955714Y-122850476D01*
X153003333Y-122755238D01*
X153098571Y-122660000D01*
X153241429Y-122612381D01*
X153336667Y-122612381D01*
X153479524Y-122660000D01*
X153527143Y-122707619D01*
X154479524Y-123612381D02*
X153908095Y-123612381D01*
X154193809Y-123612381D02*
X154193809Y-122612381D01*
X154098571Y-122755238D01*
X154003333Y-122850476D01*
X153908095Y-122898095D01*
X155384286Y-122612381D02*
X154908095Y-122612381D01*
X154860476Y-123088571D01*
X154908095Y-123040952D01*
X155003333Y-122993333D01*
X155241429Y-122993333D01*
X155336667Y-123040952D01*
X155384286Y-123088571D01*
X155431905Y-123183810D01*
X155431905Y-123421905D01*
X155384286Y-123517143D01*
X155336667Y-123564762D01*
X155241429Y-123612381D01*
X155003333Y-123612381D01*
X154908095Y-123564762D01*
X154860476Y-123517143D01*
X159857143Y-128057143D02*
X159809524Y-128104762D01*
X159666667Y-128152381D01*
X159571429Y-128152381D01*
X159428571Y-128104762D01*
X159333333Y-128009524D01*
X159285714Y-127914286D01*
X159238095Y-127723810D01*
X159238095Y-127580952D01*
X159285714Y-127390476D01*
X159333333Y-127295238D01*
X159428571Y-127200000D01*
X159571429Y-127152381D01*
X159666667Y-127152381D01*
X159809524Y-127200000D01*
X159857143Y-127247619D01*
X160809524Y-128152381D02*
X160238095Y-128152381D01*
X160523809Y-128152381D02*
X160523809Y-127152381D01*
X160428571Y-127295238D01*
X160333333Y-127390476D01*
X160238095Y-127438095D01*
X161666667Y-127485714D02*
X161666667Y-128152381D01*
X161428571Y-127104762D02*
X161190476Y-127819048D01*
X161809524Y-127819048D01*
X146797143Y-111532857D02*
X146844762Y-111580476D01*
X146892381Y-111723333D01*
X146892381Y-111818571D01*
X146844762Y-111961429D01*
X146749524Y-112056667D01*
X146654286Y-112104286D01*
X146463810Y-112151905D01*
X146320952Y-112151905D01*
X146130476Y-112104286D01*
X146035238Y-112056667D01*
X145940000Y-111961429D01*
X145892381Y-111818571D01*
X145892381Y-111723333D01*
X145940000Y-111580476D01*
X145987619Y-111532857D01*
X146892381Y-110580476D02*
X146892381Y-111151905D01*
X146892381Y-110866191D02*
X145892381Y-110866191D01*
X146035238Y-110961429D01*
X146130476Y-111056667D01*
X146178095Y-111151905D01*
X145892381Y-110247143D02*
X145892381Y-109628095D01*
X146273333Y-109961429D01*
X146273333Y-109818571D01*
X146320952Y-109723333D01*
X146368571Y-109675714D01*
X146463810Y-109628095D01*
X146701905Y-109628095D01*
X146797143Y-109675714D01*
X146844762Y-109723333D01*
X146892381Y-109818571D01*
X146892381Y-110104286D01*
X146844762Y-110199524D01*
X146797143Y-110247143D01*
X144277143Y-111532857D02*
X144324762Y-111580476D01*
X144372381Y-111723333D01*
X144372381Y-111818571D01*
X144324762Y-111961429D01*
X144229524Y-112056667D01*
X144134286Y-112104286D01*
X143943810Y-112151905D01*
X143800952Y-112151905D01*
X143610476Y-112104286D01*
X143515238Y-112056667D01*
X143420000Y-111961429D01*
X143372381Y-111818571D01*
X143372381Y-111723333D01*
X143420000Y-111580476D01*
X143467619Y-111532857D01*
X144372381Y-110580476D02*
X144372381Y-111151905D01*
X144372381Y-110866191D02*
X143372381Y-110866191D01*
X143515238Y-110961429D01*
X143610476Y-111056667D01*
X143658095Y-111151905D01*
X143467619Y-110199524D02*
X143420000Y-110151905D01*
X143372381Y-110056667D01*
X143372381Y-109818571D01*
X143420000Y-109723333D01*
X143467619Y-109675714D01*
X143562857Y-109628095D01*
X143658095Y-109628095D01*
X143800952Y-109675714D01*
X144372381Y-110247143D01*
X144372381Y-109628095D01*
X155233334Y-96357143D02*
X155185715Y-96404762D01*
X155042858Y-96452381D01*
X154947620Y-96452381D01*
X154804762Y-96404762D01*
X154709524Y-96309524D01*
X154661905Y-96214286D01*
X154614286Y-96023810D01*
X154614286Y-95880952D01*
X154661905Y-95690476D01*
X154709524Y-95595238D01*
X154804762Y-95500000D01*
X154947620Y-95452381D01*
X155042858Y-95452381D01*
X155185715Y-95500000D01*
X155233334Y-95547619D01*
X155709524Y-96452381D02*
X155900000Y-96452381D01*
X155995239Y-96404762D01*
X156042858Y-96357143D01*
X156138096Y-96214286D01*
X156185715Y-96023810D01*
X156185715Y-95642857D01*
X156138096Y-95547619D01*
X156090477Y-95500000D01*
X155995239Y-95452381D01*
X155804762Y-95452381D01*
X155709524Y-95500000D01*
X155661905Y-95547619D01*
X155614286Y-95642857D01*
X155614286Y-95880952D01*
X155661905Y-95976190D01*
X155709524Y-96023810D01*
X155804762Y-96071429D01*
X155995239Y-96071429D01*
X156090477Y-96023810D01*
X156138096Y-95976190D01*
X156185715Y-95880952D01*
X163893334Y-99197143D02*
X163845715Y-99244762D01*
X163702858Y-99292381D01*
X163607620Y-99292381D01*
X163464762Y-99244762D01*
X163369524Y-99149524D01*
X163321905Y-99054286D01*
X163274286Y-98863810D01*
X163274286Y-98720952D01*
X163321905Y-98530476D01*
X163369524Y-98435238D01*
X163464762Y-98340000D01*
X163607620Y-98292381D01*
X163702858Y-98292381D01*
X163845715Y-98340000D01*
X163893334Y-98387619D01*
X164464762Y-98720952D02*
X164369524Y-98673333D01*
X164321905Y-98625714D01*
X164274286Y-98530476D01*
X164274286Y-98482857D01*
X164321905Y-98387619D01*
X164369524Y-98340000D01*
X164464762Y-98292381D01*
X164655239Y-98292381D01*
X164750477Y-98340000D01*
X164798096Y-98387619D01*
X164845715Y-98482857D01*
X164845715Y-98530476D01*
X164798096Y-98625714D01*
X164750477Y-98673333D01*
X164655239Y-98720952D01*
X164464762Y-98720952D01*
X164369524Y-98768571D01*
X164321905Y-98816190D01*
X164274286Y-98911429D01*
X164274286Y-99101905D01*
X164321905Y-99197143D01*
X164369524Y-99244762D01*
X164464762Y-99292381D01*
X164655239Y-99292381D01*
X164750477Y-99244762D01*
X164798096Y-99197143D01*
X164845715Y-99101905D01*
X164845715Y-98911429D01*
X164798096Y-98816190D01*
X164750477Y-98768571D01*
X164655239Y-98720952D01*
X115583334Y-154857143D02*
X115535715Y-154904762D01*
X115392858Y-154952381D01*
X115297620Y-154952381D01*
X115154762Y-154904762D01*
X115059524Y-154809524D01*
X115011905Y-154714286D01*
X114964286Y-154523810D01*
X114964286Y-154380952D01*
X115011905Y-154190476D01*
X115059524Y-154095238D01*
X115154762Y-154000000D01*
X115297620Y-153952381D01*
X115392858Y-153952381D01*
X115535715Y-154000000D01*
X115583334Y-154047619D01*
X115916667Y-153952381D02*
X116583334Y-153952381D01*
X116154762Y-154952381D01*
X151207143Y-96176666D02*
X151254762Y-96224285D01*
X151302381Y-96367142D01*
X151302381Y-96462380D01*
X151254762Y-96605238D01*
X151159524Y-96700476D01*
X151064286Y-96748095D01*
X150873810Y-96795714D01*
X150730952Y-96795714D01*
X150540476Y-96748095D01*
X150445238Y-96700476D01*
X150350000Y-96605238D01*
X150302381Y-96462380D01*
X150302381Y-96367142D01*
X150350000Y-96224285D01*
X150397619Y-96176666D01*
X150302381Y-95319523D02*
X150302381Y-95510000D01*
X150350000Y-95605238D01*
X150397619Y-95652857D01*
X150540476Y-95748095D01*
X150730952Y-95795714D01*
X151111905Y-95795714D01*
X151207143Y-95748095D01*
X151254762Y-95700476D01*
X151302381Y-95605238D01*
X151302381Y-95414761D01*
X151254762Y-95319523D01*
X151207143Y-95271904D01*
X151111905Y-95224285D01*
X150873810Y-95224285D01*
X150778571Y-95271904D01*
X150730952Y-95319523D01*
X150683333Y-95414761D01*
X150683333Y-95605238D01*
X150730952Y-95700476D01*
X150778571Y-95748095D01*
X150873810Y-95795714D01*
X168833334Y-93707143D02*
X168785715Y-93754762D01*
X168642858Y-93802381D01*
X168547620Y-93802381D01*
X168404762Y-93754762D01*
X168309524Y-93659524D01*
X168261905Y-93564286D01*
X168214286Y-93373810D01*
X168214286Y-93230952D01*
X168261905Y-93040476D01*
X168309524Y-92945238D01*
X168404762Y-92850000D01*
X168547620Y-92802381D01*
X168642858Y-92802381D01*
X168785715Y-92850000D01*
X168833334Y-92897619D01*
X169738096Y-92802381D02*
X169261905Y-92802381D01*
X169214286Y-93278571D01*
X169261905Y-93230952D01*
X169357143Y-93183333D01*
X169595239Y-93183333D01*
X169690477Y-93230952D01*
X169738096Y-93278571D01*
X169785715Y-93373810D01*
X169785715Y-93611905D01*
X169738096Y-93707143D01*
X169690477Y-93754762D01*
X169595239Y-93802381D01*
X169357143Y-93802381D01*
X169261905Y-93754762D01*
X169214286Y-93707143D01*
X115583334Y-147607143D02*
X115535715Y-147654762D01*
X115392858Y-147702381D01*
X115297620Y-147702381D01*
X115154762Y-147654762D01*
X115059524Y-147559524D01*
X115011905Y-147464286D01*
X114964286Y-147273810D01*
X114964286Y-147130952D01*
X115011905Y-146940476D01*
X115059524Y-146845238D01*
X115154762Y-146750000D01*
X115297620Y-146702381D01*
X115392858Y-146702381D01*
X115535715Y-146750000D01*
X115583334Y-146797619D01*
X116440477Y-147035714D02*
X116440477Y-147702381D01*
X116202381Y-146654762D02*
X115964286Y-147369048D01*
X116583334Y-147369048D01*
X152787334Y-80051143D02*
X152739715Y-80098762D01*
X152596858Y-80146381D01*
X152501620Y-80146381D01*
X152358762Y-80098762D01*
X152263524Y-80003524D01*
X152215905Y-79908286D01*
X152168286Y-79717810D01*
X152168286Y-79574952D01*
X152215905Y-79384476D01*
X152263524Y-79289238D01*
X152358762Y-79194000D01*
X152501620Y-79146381D01*
X152596858Y-79146381D01*
X152739715Y-79194000D01*
X152787334Y-79241619D01*
X153120667Y-79146381D02*
X153739715Y-79146381D01*
X153406381Y-79527333D01*
X153549239Y-79527333D01*
X153644477Y-79574952D01*
X153692096Y-79622571D01*
X153739715Y-79717810D01*
X153739715Y-79955905D01*
X153692096Y-80051143D01*
X153644477Y-80098762D01*
X153549239Y-80146381D01*
X153263524Y-80146381D01*
X153168286Y-80098762D01*
X153120667Y-80051143D01*
X163533334Y-81457143D02*
X163485715Y-81504762D01*
X163342858Y-81552381D01*
X163247620Y-81552381D01*
X163104762Y-81504762D01*
X163009524Y-81409524D01*
X162961905Y-81314286D01*
X162914286Y-81123810D01*
X162914286Y-80980952D01*
X162961905Y-80790476D01*
X163009524Y-80695238D01*
X163104762Y-80600000D01*
X163247620Y-80552381D01*
X163342858Y-80552381D01*
X163485715Y-80600000D01*
X163533334Y-80647619D01*
X163914286Y-80647619D02*
X163961905Y-80600000D01*
X164057143Y-80552381D01*
X164295239Y-80552381D01*
X164390477Y-80600000D01*
X164438096Y-80647619D01*
X164485715Y-80742857D01*
X164485715Y-80838095D01*
X164438096Y-80980952D01*
X163866667Y-81552381D01*
X164485715Y-81552381D01*
X170257143Y-84266666D02*
X170304762Y-84314285D01*
X170352381Y-84457142D01*
X170352381Y-84552380D01*
X170304762Y-84695238D01*
X170209524Y-84790476D01*
X170114286Y-84838095D01*
X169923810Y-84885714D01*
X169780952Y-84885714D01*
X169590476Y-84838095D01*
X169495238Y-84790476D01*
X169400000Y-84695238D01*
X169352381Y-84552380D01*
X169352381Y-84457142D01*
X169400000Y-84314285D01*
X169447619Y-84266666D01*
X170352381Y-83314285D02*
X170352381Y-83885714D01*
X170352381Y-83600000D02*
X169352381Y-83600000D01*
X169495238Y-83695238D01*
X169590476Y-83790476D01*
X169638095Y-83885714D01*
X142782381Y-91748095D02*
X141782381Y-91748095D01*
X141782381Y-91367142D01*
X141830000Y-91271904D01*
X141877619Y-91224285D01*
X141972857Y-91176666D01*
X142115714Y-91176666D01*
X142210952Y-91224285D01*
X142258571Y-91271904D01*
X142306190Y-91367142D01*
X142306190Y-91748095D01*
X142734762Y-90795714D02*
X142782381Y-90652857D01*
X142782381Y-90414761D01*
X142734762Y-90319523D01*
X142687143Y-90271904D01*
X142591905Y-90224285D01*
X142496667Y-90224285D01*
X142401429Y-90271904D01*
X142353810Y-90319523D01*
X142306190Y-90414761D01*
X142258571Y-90605238D01*
X142210952Y-90700476D01*
X142163333Y-90748095D01*
X142068095Y-90795714D01*
X141972857Y-90795714D01*
X141877619Y-90748095D01*
X141830000Y-90700476D01*
X141782381Y-90605238D01*
X141782381Y-90367142D01*
X141830000Y-90224285D01*
X141782381Y-89795714D02*
X142591905Y-89795714D01*
X142687143Y-89748095D01*
X142734762Y-89700476D01*
X142782381Y-89605238D01*
X142782381Y-89414761D01*
X142734762Y-89319523D01*
X142687143Y-89271904D01*
X142591905Y-89224285D01*
X141782381Y-89224285D01*
X141877619Y-88795714D02*
X141830000Y-88748095D01*
X141782381Y-88652857D01*
X141782381Y-88414761D01*
X141830000Y-88319523D01*
X141877619Y-88271904D01*
X141972857Y-88224285D01*
X142068095Y-88224285D01*
X142210952Y-88271904D01*
X142782381Y-88843333D01*
X142782381Y-88224285D01*
X156572381Y-123151905D02*
X157381905Y-123151905D01*
X157477143Y-123104286D01*
X157524762Y-123056667D01*
X157572381Y-122961429D01*
X157572381Y-122770952D01*
X157524762Y-122675714D01*
X157477143Y-122628095D01*
X157381905Y-122580476D01*
X156572381Y-122580476D01*
X156667619Y-122151905D02*
X156620000Y-122104286D01*
X156572381Y-122009048D01*
X156572381Y-121770952D01*
X156620000Y-121675714D01*
X156667619Y-121628095D01*
X156762857Y-121580476D01*
X156858095Y-121580476D01*
X157000952Y-121628095D01*
X157572381Y-122199524D01*
X157572381Y-121580476D01*
X111404762Y-86052381D02*
X111071428Y-85576190D01*
X110833333Y-86052381D02*
X110833333Y-85052381D01*
X111214286Y-85052381D01*
X111309524Y-85100000D01*
X111357143Y-85147619D01*
X111404762Y-85242857D01*
X111404762Y-85385714D01*
X111357143Y-85480952D01*
X111309524Y-85528571D01*
X111214286Y-85576190D01*
X110833333Y-85576190D01*
X111690476Y-85052381D02*
X112023809Y-86052381D01*
X112357143Y-85052381D01*
X113214286Y-86052381D02*
X112642857Y-86052381D01*
X112928571Y-86052381D02*
X112928571Y-85052381D01*
X112833333Y-85195238D01*
X112738095Y-85290476D01*
X112642857Y-85338095D01*
X163038095Y-88052381D02*
X163038095Y-88861905D01*
X163085714Y-88957143D01*
X163133333Y-89004762D01*
X163228571Y-89052381D01*
X163419048Y-89052381D01*
X163514286Y-89004762D01*
X163561905Y-88957143D01*
X163609524Y-88861905D01*
X163609524Y-88052381D01*
X164609524Y-89052381D02*
X164038095Y-89052381D01*
X164323809Y-89052381D02*
X164323809Y-88052381D01*
X164228571Y-88195238D01*
X164133333Y-88290476D01*
X164038095Y-88338095D01*
M02*
