G04 #@! TF.FileFunction,Copper,L1,Top,Signal*
%FSLAX46Y46*%
G04 Gerber Fmt 4.6, Leading zero omitted, Abs format (unit mm)*
G04 Created by KiCad (PCBNEW 4.0.7) date Thu May 31 06:07:41 2018*
%MOMM*%
%LPD*%
G01*
G04 APERTURE LIST*
%ADD10C,0.100000*%
%ADD11C,1.800000*%
%ADD12R,1.800000X1.540000*%
%ADD13R,0.450000X1.750000*%
%ADD14R,0.750000X1.200000*%
%ADD15R,0.600000X0.500000*%
%ADD16R,2.000000X2.500000*%
%ADD17R,1.500000X1.250000*%
%ADD18R,0.500000X0.600000*%
%ADD19R,0.900000X1.200000*%
%ADD20R,2.030000X2.650000*%
%ADD21C,1.000000*%
%ADD22C,1.400000*%
%ADD23R,1.700000X1.700000*%
%ADD24O,1.700000X1.700000*%
%ADD25R,2.300000X0.850000*%
%ADD26R,0.600000X0.400000*%
%ADD27R,0.400000X0.600000*%
%ADD28R,0.508000X1.143000*%
%ADD29R,0.800000X0.900000*%
%ADD30R,1.300000X0.250000*%
%ADD31R,0.250000X1.300000*%
%ADD32C,1.600000*%
%ADD33O,1.600000X1.600000*%
%ADD34R,1.200000X0.750000*%
%ADD35R,0.900000X0.800000*%
%ADD36C,0.900000*%
%ADD37C,1.100000*%
%ADD38C,0.254000*%
%ADD39C,0.500000*%
%ADD40C,2.000000*%
%ADD41C,1.500000*%
%ADD42C,1.000000*%
G04 APERTURE END LIST*
D10*
D11*
X115750000Y-89250000D03*
X108250000Y-87850000D03*
D12*
X161820000Y-123730000D03*
X161820000Y-121050000D03*
X159020000Y-121050000D03*
X159020000Y-123730000D03*
D13*
X144155000Y-93610000D03*
X144805000Y-93610000D03*
X145455000Y-93610000D03*
X146105000Y-93610000D03*
X146755000Y-93610000D03*
X147405000Y-93610000D03*
X148055000Y-93610000D03*
X148705000Y-93610000D03*
X149355000Y-93610000D03*
X150005000Y-93610000D03*
X150005000Y-86410000D03*
X149355000Y-86410000D03*
X148705000Y-86410000D03*
X148055000Y-86410000D03*
X147405000Y-86410000D03*
X146755000Y-86410000D03*
X146105000Y-86410000D03*
X145455000Y-86410000D03*
X144805000Y-86410000D03*
X144155000Y-86410000D03*
D14*
X167830000Y-86210000D03*
X167830000Y-84310000D03*
D15*
X164880000Y-83760000D03*
X163780000Y-83760000D03*
D16*
X150954000Y-81944000D03*
X154954000Y-81944000D03*
D17*
X114500000Y-149000000D03*
X117000000Y-149000000D03*
D14*
X167830000Y-93310000D03*
X167830000Y-95210000D03*
D18*
X149580000Y-95460000D03*
X149580000Y-96560000D03*
D17*
X114500000Y-156250000D03*
X117000000Y-156250000D03*
D15*
X164630000Y-96510000D03*
X163530000Y-96510000D03*
D16*
X153330000Y-93510000D03*
X157330000Y-93510000D03*
D14*
X142670000Y-109940000D03*
X142670000Y-111840000D03*
D18*
X145170000Y-110340000D03*
X145170000Y-111440000D03*
D15*
X159870000Y-126390000D03*
X160970000Y-126390000D03*
X154720000Y-121890000D03*
X153620000Y-121890000D03*
D18*
X152420000Y-109690000D03*
X152420000Y-108590000D03*
D15*
X157620000Y-114640000D03*
X158720000Y-114640000D03*
X148120000Y-108890000D03*
X149220000Y-108890000D03*
X148120000Y-110140000D03*
X149220000Y-110140000D03*
X157620000Y-115640000D03*
X158720000Y-115640000D03*
D19*
X143300000Y-153200000D03*
X143300000Y-151000000D03*
X149300000Y-153100000D03*
X149300000Y-150900000D03*
X146300000Y-153100000D03*
X146300000Y-150900000D03*
D20*
X135000000Y-79910000D03*
X135000000Y-84090000D03*
D21*
X131290000Y-88500000D03*
X126210000Y-88500000D03*
D22*
X125000000Y-82290000D03*
X125000000Y-77210000D03*
X112500000Y-82290000D03*
X112500000Y-77210000D03*
D23*
X132000000Y-155000000D03*
D24*
X129460000Y-155000000D03*
X126920000Y-155000000D03*
X124380000Y-155000000D03*
D25*
X115750000Y-151525000D03*
X115750000Y-153475000D03*
D26*
X165330000Y-82460000D03*
X165330000Y-81560000D03*
D27*
X162450000Y-83750000D03*
X161550000Y-83750000D03*
X148404000Y-81944000D03*
X147504000Y-81944000D03*
X145404000Y-81944000D03*
X144504000Y-81944000D03*
X148280000Y-95510000D03*
X147380000Y-95510000D03*
D26*
X164580000Y-95460000D03*
X164580000Y-94560000D03*
X163330000Y-95460000D03*
X163330000Y-94560000D03*
X143300000Y-148450000D03*
X143300000Y-147550000D03*
X149300000Y-148450000D03*
X149300000Y-147550000D03*
X146300000Y-148450000D03*
X146300000Y-147550000D03*
D28*
X165735000Y-93185000D03*
X164465000Y-93185000D03*
X163195000Y-93185000D03*
X161925000Y-93185000D03*
X161925000Y-86835000D03*
X163195000Y-86835000D03*
X164465000Y-86835000D03*
X165735000Y-86835000D03*
D29*
X143220000Y-108390000D03*
X145120000Y-108390000D03*
X144170000Y-106390000D03*
D30*
X156020000Y-118640000D03*
X156020000Y-118140000D03*
X156020000Y-117640000D03*
X156020000Y-117140000D03*
X156020000Y-116640000D03*
X156020000Y-116140000D03*
X156020000Y-115640000D03*
X156020000Y-115140000D03*
X156020000Y-114640000D03*
X156020000Y-114140000D03*
X156020000Y-113640000D03*
X156020000Y-113140000D03*
D31*
X154420000Y-111540000D03*
X153920000Y-111540000D03*
X153420000Y-111540000D03*
X152920000Y-111540000D03*
X152420000Y-111540000D03*
X151920000Y-111540000D03*
X151420000Y-111540000D03*
X150920000Y-111540000D03*
X150420000Y-111540000D03*
X149920000Y-111540000D03*
X149420000Y-111540000D03*
X148920000Y-111540000D03*
D30*
X147320000Y-113140000D03*
X147320000Y-113640000D03*
X147320000Y-114140000D03*
X147320000Y-114640000D03*
X147320000Y-115140000D03*
X147320000Y-115640000D03*
X147320000Y-116140000D03*
X147320000Y-116640000D03*
X147320000Y-117140000D03*
X147320000Y-117640000D03*
X147320000Y-118140000D03*
X147320000Y-118640000D03*
D31*
X148920000Y-120240000D03*
X149420000Y-120240000D03*
X149920000Y-120240000D03*
X150420000Y-120240000D03*
X150920000Y-120240000D03*
X151420000Y-120240000D03*
X151920000Y-120240000D03*
X152420000Y-120240000D03*
X152920000Y-120240000D03*
X153420000Y-120240000D03*
X153920000Y-120240000D03*
X154420000Y-120240000D03*
D32*
X155500000Y-76500000D03*
D33*
X170740000Y-76500000D03*
D32*
X134500000Y-76500000D03*
D33*
X149740000Y-76500000D03*
D34*
X137220000Y-121140000D03*
X139120000Y-121140000D03*
D14*
X141170000Y-117190000D03*
X141170000Y-119090000D03*
D35*
X139170000Y-119090000D03*
X139170000Y-117190000D03*
X137170000Y-118140000D03*
D23*
X167000000Y-151000000D03*
D24*
X167000000Y-153540000D03*
X164460000Y-151000000D03*
X164460000Y-153540000D03*
X161920000Y-151000000D03*
X161920000Y-153540000D03*
X159380000Y-151000000D03*
X159380000Y-153540000D03*
D23*
X178000000Y-88500000D03*
D24*
X175460000Y-88500000D03*
X178000000Y-91040000D03*
X175460000Y-91040000D03*
X178000000Y-93580000D03*
X175460000Y-93580000D03*
X178000000Y-96120000D03*
X175460000Y-96120000D03*
X178000000Y-98660000D03*
X175460000Y-98660000D03*
X178000000Y-101200000D03*
X175460000Y-101200000D03*
X178000000Y-103740000D03*
X175460000Y-103740000D03*
X178000000Y-106280000D03*
X175460000Y-106280000D03*
X178000000Y-108820000D03*
X175460000Y-108820000D03*
X178000000Y-111360000D03*
X175460000Y-111360000D03*
X178000000Y-113900000D03*
X175460000Y-113900000D03*
X178000000Y-116440000D03*
X175460000Y-116440000D03*
X178000000Y-118980000D03*
X175460000Y-118980000D03*
X178000000Y-121520000D03*
X175460000Y-121520000D03*
X178000000Y-124060000D03*
X175460000Y-124060000D03*
X178000000Y-126600000D03*
X175460000Y-126600000D03*
X178000000Y-129140000D03*
X175460000Y-129140000D03*
X178000000Y-131680000D03*
X175460000Y-131680000D03*
X178000000Y-134220000D03*
X175460000Y-134220000D03*
X178000000Y-136760000D03*
X175460000Y-136760000D03*
D32*
X108200000Y-140450000D03*
X100200000Y-140450000D03*
X121000000Y-95450000D03*
X100200000Y-95450000D03*
D36*
X145900000Y-83300000D03*
D37*
X159000000Y-81500000D03*
X119000000Y-155750000D03*
D36*
X142830000Y-94510000D03*
X145830000Y-95510000D03*
X148580000Y-96510000D03*
X150830000Y-93760000D03*
X169080000Y-96260000D03*
X161580000Y-94260000D03*
X159830000Y-93510000D03*
D37*
X116600000Y-147400000D03*
D36*
X149000000Y-108000000D03*
X154000000Y-114800000D03*
X142250000Y-120000000D03*
X163670000Y-120890000D03*
X162170000Y-126390000D03*
X143300000Y-154500000D03*
X149300000Y-154500000D03*
X146300000Y-154500000D03*
X145420000Y-113390000D03*
X152420000Y-107890000D03*
X144170000Y-104890000D03*
X159920000Y-115140000D03*
X153670000Y-122890000D03*
X157200000Y-124300000D03*
X164400000Y-102900000D03*
X155600000Y-122800000D03*
X143000000Y-118000000D03*
X156420000Y-119890000D03*
X153420000Y-109890000D03*
X147920000Y-111390000D03*
X158170000Y-113640000D03*
D37*
X112500000Y-153000000D03*
X118400000Y-153200000D03*
X140500000Y-109750000D03*
X134000000Y-118500000D03*
X153080000Y-95510000D03*
D36*
X143250000Y-146750000D03*
X153400000Y-106600000D03*
X150400000Y-115400000D03*
X152000000Y-125400000D03*
X151800000Y-117200000D03*
X151400000Y-118800000D03*
X151400000Y-122600000D03*
X149800000Y-124400000D03*
X150200000Y-122400000D03*
X151170000Y-109640000D03*
X170000000Y-109750000D03*
X167500000Y-112000000D03*
X149000000Y-126400000D03*
X154000000Y-116250000D03*
X162500000Y-108000000D03*
X153000000Y-118500000D03*
X154200000Y-113400000D03*
X158000000Y-108250000D03*
X156800000Y-108400000D03*
X156500000Y-112000000D03*
X155400000Y-110900000D03*
X155700000Y-108900000D03*
X154200000Y-107400000D03*
X151000000Y-113600000D03*
D38*
X148404000Y-81944000D02*
X148404000Y-83304000D01*
X149355000Y-84255000D02*
X149355000Y-86410000D01*
X148404000Y-83304000D02*
X149355000Y-84255000D01*
D39*
X149355000Y-86410000D02*
X149355000Y-87555000D01*
X148404000Y-81944000D02*
X150954000Y-81944000D01*
X165735000Y-86835000D02*
X167205000Y-86835000D01*
X167205000Y-86835000D02*
X167830000Y-86210000D01*
X165635000Y-87765000D02*
X165735000Y-87765000D01*
X165400000Y-88000000D02*
X165635000Y-87765000D01*
X165735000Y-87765000D02*
X165735000Y-86835000D01*
X149800000Y-88000000D02*
X165400000Y-88000000D01*
X149355000Y-87555000D02*
X149800000Y-88000000D01*
X144504000Y-83200000D02*
X145800000Y-83200000D01*
X145800000Y-83200000D02*
X145900000Y-83300000D01*
X167830000Y-84310000D02*
X167830000Y-81670000D01*
X170740000Y-78760000D02*
X170740000Y-76500000D01*
X167830000Y-81670000D02*
X170740000Y-78760000D01*
X159000000Y-81500000D02*
X159300000Y-81500000D01*
X159300000Y-81500000D02*
X161550000Y-83750000D01*
D38*
X150005000Y-86410000D02*
X151790000Y-86410000D01*
X154954000Y-83246000D02*
X154954000Y-81944000D01*
X151790000Y-86410000D02*
X154954000Y-83246000D01*
D40*
X158556000Y-81944000D02*
X154954000Y-81944000D01*
X159000000Y-81500000D02*
X158556000Y-81944000D01*
X108250000Y-87850000D02*
X108250000Y-83750000D01*
X109710000Y-82290000D02*
X112500000Y-82290000D01*
X108250000Y-83750000D02*
X109710000Y-82290000D01*
X100200000Y-95450000D02*
X100650000Y-95450000D01*
X100650000Y-95450000D02*
X108250000Y-87850000D01*
X112500000Y-77210000D02*
X112500000Y-82290000D01*
X108250000Y-87750000D02*
X108250000Y-87850000D01*
D39*
X144504000Y-81944000D02*
X144504000Y-83200000D01*
X144504000Y-83200000D02*
X144504000Y-84254000D01*
X144504000Y-84254000D02*
X144750000Y-84500000D01*
X161925000Y-86835000D02*
X161925000Y-85175000D01*
X161550000Y-84800000D02*
X161550000Y-83750000D01*
X161925000Y-85175000D02*
X161550000Y-84800000D01*
X144155000Y-86410000D02*
X144155000Y-85095000D01*
X144750000Y-84500000D02*
X145250000Y-84500000D01*
X144155000Y-85095000D02*
X144750000Y-84500000D01*
X144805000Y-86410000D02*
X144805000Y-84945000D01*
X145250000Y-84500000D02*
X145750000Y-84500000D01*
X144805000Y-84945000D02*
X145250000Y-84500000D01*
X145455000Y-84795000D02*
X145750000Y-84500000D01*
X146105000Y-86410000D02*
X146105000Y-84895000D01*
X146105000Y-84895000D02*
X146500000Y-84500000D01*
X146755000Y-86410000D02*
X146755000Y-84995000D01*
X147405000Y-86410000D02*
X147405000Y-84655000D01*
D38*
X150005000Y-86410000D02*
X150005000Y-86085000D01*
D39*
X161925000Y-86835000D02*
X161925000Y-86355000D01*
X148055000Y-85055000D02*
X147500000Y-84500000D01*
X147500000Y-84500000D02*
X147250000Y-84500000D01*
X145750000Y-84500000D02*
X147250000Y-84500000D01*
X146500000Y-84500000D02*
X147250000Y-84500000D01*
X146755000Y-84995000D02*
X147250000Y-84500000D01*
X147405000Y-84655000D02*
X147250000Y-84500000D01*
D38*
X147405000Y-84655000D02*
X147250000Y-84500000D01*
D39*
X148055000Y-86410000D02*
X148055000Y-85055000D01*
X145455000Y-86410000D02*
X145455000Y-84795000D01*
X164880000Y-83760000D02*
X164880000Y-82910000D01*
X164880000Y-82910000D02*
X165330000Y-82460000D01*
X164880000Y-83760000D02*
X164880000Y-86420000D01*
X164880000Y-86420000D02*
X164465000Y-86835000D01*
D38*
X164728000Y-83872000D02*
X164516000Y-84084000D01*
D39*
X162450000Y-83750000D02*
X162600000Y-83750000D01*
X162600000Y-83750000D02*
X163195000Y-84345000D01*
X163195000Y-86835000D02*
X163195000Y-84345000D01*
X163195000Y-84345000D02*
X163780000Y-83760000D01*
D40*
X108200000Y-140450000D02*
X110450000Y-140450000D01*
X110450000Y-140450000D02*
X114500000Y-144500000D01*
X114500000Y-149000000D02*
X114500000Y-150275000D01*
X114500000Y-150275000D02*
X115750000Y-151525000D01*
X114500000Y-144500000D02*
X114500000Y-149000000D01*
D41*
X117000000Y-156250000D02*
X118500000Y-156250000D01*
D42*
X118500000Y-156250000D02*
X119000000Y-155750000D01*
D41*
X118500000Y-156250000D02*
X119000000Y-155750000D01*
D39*
X144155000Y-93610000D02*
X143730000Y-93610000D01*
X143730000Y-93610000D02*
X142830000Y-94510000D01*
X147380000Y-95510000D02*
X145830000Y-95510000D01*
X149530000Y-96510000D02*
X148580000Y-96510000D01*
D38*
X150155000Y-93760000D02*
X150830000Y-93760000D01*
D39*
X167830000Y-95510000D02*
X168580000Y-96260000D01*
X168580000Y-96260000D02*
X169080000Y-96260000D01*
X161925000Y-93915000D02*
X161580000Y-94260000D01*
X161925000Y-93185000D02*
X161925000Y-93915000D01*
D42*
X157330000Y-93510000D02*
X159830000Y-93510000D01*
X117000000Y-149000000D02*
X117000000Y-147800000D01*
X117000000Y-147800000D02*
X116600000Y-147400000D01*
D38*
X149220000Y-108890000D02*
X149220000Y-108220000D01*
X149220000Y-108220000D02*
X149000000Y-108000000D01*
X156020000Y-115140000D02*
X154340000Y-115140000D01*
X154340000Y-115140000D02*
X154000000Y-114800000D01*
D42*
X141170000Y-119090000D02*
X141340000Y-119090000D01*
X141340000Y-119090000D02*
X142250000Y-120000000D01*
D39*
X161820000Y-121050000D02*
X163510000Y-121050000D01*
X163510000Y-121050000D02*
X163670000Y-120890000D01*
D42*
X139120000Y-121140000D02*
X139120000Y-119140000D01*
X139120000Y-119140000D02*
X139170000Y-119090000D01*
X139170000Y-119090000D02*
X141170000Y-119090000D01*
D39*
X160970000Y-126390000D02*
X162170000Y-126390000D01*
D38*
X143300000Y-153100000D02*
X143300000Y-154500000D01*
D39*
X145170000Y-111440000D02*
X145420000Y-111690000D01*
X145420000Y-111690000D02*
X145420000Y-113390000D01*
X142670000Y-111840000D02*
X144220000Y-113390000D01*
X144220000Y-113390000D02*
X145420000Y-113390000D01*
X149580000Y-96560000D02*
X149530000Y-96510000D01*
D38*
X150005000Y-93610000D02*
X150155000Y-93760000D01*
D39*
X148055000Y-93610000D02*
X147405000Y-93610000D01*
X144155000Y-93610000D02*
X144805000Y-93610000D01*
X144805000Y-93610000D02*
X145455000Y-93610000D01*
X145455000Y-93610000D02*
X146105000Y-93610000D01*
X146105000Y-93610000D02*
X146755000Y-93610000D01*
X146755000Y-93610000D02*
X147405000Y-93610000D01*
X147405000Y-93610000D02*
X144155000Y-93610000D01*
X152420000Y-108590000D02*
X152420000Y-107890000D01*
X144170000Y-106390000D02*
X144170000Y-104890000D01*
X167830000Y-95210000D02*
X167830000Y-95510000D01*
D38*
X149300000Y-153100000D02*
X149300000Y-154500000D01*
X146300000Y-153100000D02*
X146300000Y-154500000D01*
D39*
X148055000Y-93610000D02*
X147405000Y-94260000D01*
X147380000Y-95510000D02*
X147405000Y-95485000D01*
X147405000Y-95485000D02*
X147405000Y-93610000D01*
D38*
X149220000Y-110140000D02*
X149220000Y-110440000D01*
X149420000Y-110640000D02*
X149420000Y-111540000D01*
X149220000Y-110440000D02*
X149420000Y-110640000D01*
X149220000Y-108890000D02*
X149220000Y-110140000D01*
X153620000Y-121890000D02*
X153620000Y-122840000D01*
X153620000Y-122840000D02*
X153670000Y-122890000D01*
X153620000Y-121890000D02*
X153620000Y-121440000D01*
X153920000Y-121140000D02*
X153920000Y-120240000D01*
X153620000Y-121440000D02*
X153920000Y-121140000D01*
X158720000Y-115140000D02*
X159920000Y-115140000D01*
X158720000Y-114640000D02*
X158720000Y-115140000D01*
X158720000Y-115140000D02*
X158720000Y-115640000D01*
D39*
X157770000Y-123730000D02*
X157200000Y-124300000D01*
X159020000Y-123730000D02*
X157770000Y-123730000D01*
X159020000Y-123730000D02*
X159020000Y-125540000D01*
X159020000Y-125540000D02*
X159870000Y-126390000D01*
X165735000Y-93185000D02*
X165735000Y-101565000D01*
X165735000Y-101565000D02*
X164400000Y-102900000D01*
X154720000Y-121890000D02*
X154720000Y-121920000D01*
X154720000Y-121920000D02*
X155600000Y-122800000D01*
D42*
X141170000Y-117190000D02*
X142190000Y-117190000D01*
X142190000Y-117190000D02*
X143000000Y-118000000D01*
X139170000Y-117190000D02*
X141170000Y-117190000D01*
D38*
X156020000Y-118640000D02*
X156020000Y-119490000D01*
X156020000Y-119490000D02*
X156420000Y-119890000D01*
D39*
X152420000Y-109690000D02*
X152620000Y-109890000D01*
X152620000Y-109890000D02*
X153420000Y-109890000D01*
X165735000Y-93185000D02*
X167705000Y-93185000D01*
X158860000Y-123890000D02*
X159020000Y-123730000D01*
D38*
X158860000Y-123890000D02*
X159020000Y-123730000D01*
X148120000Y-108890000D02*
X148120000Y-110140000D01*
X147920000Y-110340000D02*
X147920000Y-111390000D01*
X148070000Y-111540000D02*
X147920000Y-111390000D01*
X148070000Y-111540000D02*
X148920000Y-111540000D01*
X147920000Y-110340000D02*
X148120000Y-110140000D01*
X154720000Y-121890000D02*
X154720000Y-120540000D01*
X154720000Y-120540000D02*
X154420000Y-120240000D01*
X157620000Y-114640000D02*
X158170000Y-114090000D01*
X158170000Y-114090000D02*
X158170000Y-113640000D01*
X156020000Y-114640000D02*
X157620000Y-114640000D01*
X152420000Y-109690000D02*
X152420000Y-111540000D01*
D40*
X175460000Y-88500000D02*
X175460000Y-91040000D01*
D41*
X115750000Y-153475000D02*
X112975000Y-153475000D01*
X112975000Y-153475000D02*
X112500000Y-153000000D01*
X115750000Y-153475000D02*
X118125000Y-153475000D01*
X118125000Y-153475000D02*
X118400000Y-153200000D01*
D42*
X118125000Y-153475000D02*
X118400000Y-153200000D01*
D41*
X115750000Y-153475000D02*
X115025000Y-153475000D01*
X115025000Y-153475000D02*
X114500000Y-154000000D01*
X114500000Y-154000000D02*
X114500000Y-156250000D01*
D42*
X140690000Y-109940000D02*
X142670000Y-109940000D01*
X140500000Y-109750000D02*
X140690000Y-109940000D01*
D41*
X153080000Y-95510000D02*
X153080000Y-93760000D01*
D39*
X143250000Y-147500000D02*
X143250000Y-146750000D01*
X143250000Y-147500000D02*
X143300000Y-147550000D01*
X143250000Y-147500000D02*
X143300000Y-147550000D01*
D42*
X134000000Y-118500000D02*
X136810000Y-118500000D01*
X136810000Y-118500000D02*
X137170000Y-118140000D01*
X134000000Y-118500000D02*
X136640000Y-121140000D01*
X136640000Y-121140000D02*
X137220000Y-121140000D01*
X137170000Y-121090000D02*
X137220000Y-121140000D01*
D41*
X153080000Y-93760000D02*
X153330000Y-93510000D01*
X152830000Y-94010000D02*
X153330000Y-93510000D01*
X152830000Y-94010000D02*
X153330000Y-93510000D01*
D39*
X149580000Y-95460000D02*
X149630000Y-95510000D01*
X149630000Y-95510000D02*
X151330000Y-95510000D01*
X151330000Y-95510000D02*
X153330000Y-93510000D01*
X149580000Y-95460000D02*
X149355000Y-95235000D01*
X149355000Y-95235000D02*
X149355000Y-93610000D01*
D42*
X142670000Y-109940000D02*
X143220000Y-109390000D01*
X143220000Y-109390000D02*
X143220000Y-108390000D01*
X115750000Y-153475000D02*
X115525000Y-153475000D01*
X115750000Y-153475000D02*
X115275000Y-153475000D01*
D38*
X152000000Y-105074740D02*
X157925260Y-105074740D01*
X164630000Y-98370000D02*
X164630000Y-96510000D01*
X157925260Y-105074740D02*
X164630000Y-98370000D01*
X150420000Y-106654740D02*
X150420000Y-111540000D01*
X152000000Y-105074740D02*
X150420000Y-106654740D01*
X164580000Y-95460000D02*
X164580000Y-96460000D01*
X164580000Y-96460000D02*
X164630000Y-96510000D01*
X163530000Y-96510000D02*
X163530000Y-95660000D01*
X163530000Y-95660000D02*
X163330000Y-95460000D01*
X149920000Y-111540000D02*
X149920000Y-106280000D01*
X163530000Y-98670000D02*
X163530000Y-96510000D01*
X157600000Y-104600000D02*
X163530000Y-98670000D01*
X151600000Y-104600000D02*
X157600000Y-104600000D01*
X149920000Y-106280000D02*
X151600000Y-104600000D01*
X145170000Y-110340000D02*
X147320000Y-112490000D01*
X147320000Y-112490000D02*
X147320000Y-113140000D01*
D39*
X145120000Y-108390000D02*
X145170000Y-108440000D01*
X145170000Y-108440000D02*
X145170000Y-110340000D01*
D38*
X143300000Y-148450000D02*
X143300000Y-151000000D01*
X149300000Y-148450000D02*
X149300000Y-150900000D01*
X146300000Y-148450000D02*
X146300000Y-150900000D01*
D40*
X135000000Y-79910000D02*
X135000000Y-77000000D01*
X135000000Y-77000000D02*
X134500000Y-76500000D01*
X131290000Y-88500000D02*
X131290000Y-87800000D01*
X131290000Y-87800000D02*
X135000000Y-84090000D01*
X121000000Y-95450000D02*
X126550000Y-95450000D01*
X131290000Y-90710000D02*
X131290000Y-88500000D01*
X126550000Y-95450000D02*
X131290000Y-90710000D01*
X115750000Y-89250000D02*
X115750000Y-90200000D01*
X115750000Y-90200000D02*
X121000000Y-95450000D01*
D41*
X131500000Y-88290000D02*
X131290000Y-88500000D01*
D40*
X125000000Y-82290000D02*
X125000000Y-87290000D01*
X125000000Y-87290000D02*
X126210000Y-88500000D01*
X125000000Y-77210000D02*
X125000000Y-82290000D01*
D38*
X153400000Y-106600000D02*
X154600000Y-106600000D01*
X150000000Y-115400000D02*
X150400000Y-115400000D01*
X149260000Y-116140000D02*
X150000000Y-115400000D01*
X147320000Y-116140000D02*
X149260000Y-116140000D01*
X165586402Y-105993598D02*
X175460000Y-96120000D01*
X160406402Y-105993598D02*
X165586402Y-105993598D01*
X159500000Y-106900000D02*
X160406402Y-105993598D01*
X154900000Y-106900000D02*
X159500000Y-106900000D01*
X154600000Y-106600000D02*
X154900000Y-106900000D01*
X147320000Y-117640000D02*
X151360000Y-117640000D01*
X164460000Y-149860000D02*
X164460000Y-151000000D01*
X151600000Y-137000000D02*
X164460000Y-149860000D01*
X151600000Y-125800000D02*
X151600000Y-137000000D01*
X152000000Y-125400000D02*
X151600000Y-125800000D01*
X151360000Y-117640000D02*
X151800000Y-117200000D01*
X150420000Y-120240000D02*
X150420000Y-121220000D01*
X165600000Y-152400000D02*
X164460000Y-153540000D01*
X165600000Y-150200000D02*
X165600000Y-152400000D01*
X152200000Y-136800000D02*
X165600000Y-150200000D01*
X152200000Y-126600000D02*
X152200000Y-136800000D01*
X152800000Y-126000000D02*
X152200000Y-126600000D01*
X152800000Y-122800000D02*
X152800000Y-126000000D01*
X151800000Y-121800000D02*
X152800000Y-122800000D01*
X151000000Y-121800000D02*
X151800000Y-121800000D01*
X150420000Y-121220000D02*
X151000000Y-121800000D01*
X150400000Y-125600000D02*
X150400000Y-125000000D01*
X150600000Y-124800000D02*
X150600000Y-124000000D01*
X150400000Y-125000000D02*
X150600000Y-124800000D01*
X148920000Y-120240000D02*
X148920000Y-122320000D01*
X148920000Y-122320000D02*
X150600000Y-124000000D01*
X148920000Y-120240000D02*
X148920000Y-121720000D01*
X150400000Y-125600000D02*
X150400000Y-125800000D01*
X150400000Y-125800000D02*
X150400000Y-137400000D01*
X150400000Y-137400000D02*
X161920000Y-148920000D01*
X161920000Y-148920000D02*
X161920000Y-151000000D01*
X148920000Y-120240000D02*
X148920000Y-121720000D01*
X151000000Y-125600000D02*
X151000000Y-125200000D01*
X151000000Y-125200000D02*
X151400000Y-124800000D01*
X151400000Y-124800000D02*
X151400000Y-122600000D01*
X149420000Y-120240000D02*
X149420000Y-118780000D01*
X151000000Y-118400000D02*
X151400000Y-118800000D01*
X149800000Y-118400000D02*
X151000000Y-118400000D01*
X149420000Y-118780000D02*
X149800000Y-118400000D01*
X163200000Y-152260000D02*
X161920000Y-153540000D01*
X163200000Y-149400000D02*
X163200000Y-152260000D01*
X151000000Y-137200000D02*
X163200000Y-149400000D01*
X151000000Y-125600000D02*
X151000000Y-137200000D01*
X149920000Y-120240000D02*
X149920000Y-122120000D01*
X160600000Y-152600000D02*
X159660000Y-153540000D01*
X160600000Y-152200000D02*
X160600000Y-152600000D01*
X160600000Y-151800000D02*
X160600000Y-152200000D01*
X160600000Y-148400000D02*
X160600000Y-151800000D01*
X160000000Y-147800000D02*
X160600000Y-148400000D01*
X149800000Y-137600000D02*
X160000000Y-147800000D01*
X149800000Y-127400000D02*
X149800000Y-137600000D01*
X149800000Y-124400000D02*
X149800000Y-127400000D01*
X149920000Y-122120000D02*
X150200000Y-122400000D01*
X159660000Y-153540000D02*
X159380000Y-153540000D01*
X129460000Y-154000000D02*
X129460000Y-153140000D01*
X146400000Y-136200000D02*
X146400000Y-133400000D01*
X129460000Y-153140000D02*
X146400000Y-136200000D01*
X145800000Y-121200000D02*
X145800000Y-117000000D01*
X146400000Y-121800000D02*
X145800000Y-121200000D01*
X146400000Y-133400000D02*
X146400000Y-121800000D01*
X129460000Y-155000000D02*
X129460000Y-154000000D01*
X146160000Y-116640000D02*
X147320000Y-116640000D01*
X145800000Y-117000000D02*
X146160000Y-116640000D01*
X148280000Y-95510000D02*
X148705000Y-95085000D01*
X148705000Y-95085000D02*
X148705000Y-93610000D01*
X148705000Y-86410000D02*
X148705000Y-84635000D01*
X147504000Y-83434000D02*
X147504000Y-81944000D01*
X148705000Y-84635000D02*
X147504000Y-83434000D01*
D39*
X147504000Y-81944000D02*
X145404000Y-81944000D01*
D40*
X149740000Y-76500000D02*
X155500000Y-76500000D01*
D39*
X155500000Y-76500000D02*
X160270000Y-76500000D01*
X160270000Y-76500000D02*
X165330000Y-81560000D01*
D38*
X164580000Y-94560000D02*
X164580000Y-93300000D01*
X164580000Y-93300000D02*
X164465000Y-93185000D01*
X163330000Y-94560000D02*
X163330000Y-93320000D01*
X163330000Y-93320000D02*
X163195000Y-93185000D01*
X147320000Y-118140000D02*
X148140000Y-118140000D01*
X148250000Y-146500000D02*
X149300000Y-147550000D01*
X148250000Y-118250000D02*
X148250000Y-146500000D01*
X148140000Y-118140000D02*
X148250000Y-118250000D01*
X147320000Y-118640000D02*
X147320000Y-146530000D01*
X147320000Y-146530000D02*
X146300000Y-147550000D01*
X147320000Y-118640000D02*
X147307370Y-118627370D01*
X156020000Y-116640000D02*
X157420000Y-116640000D01*
X157420000Y-116640000D02*
X158670000Y-117890000D01*
X158670000Y-117890000D02*
X158920000Y-118140000D01*
X158920000Y-118140000D02*
X158920000Y-120950000D01*
X158920000Y-120950000D02*
X159020000Y-121050000D01*
X158330000Y-121050000D02*
X159020000Y-121050000D01*
X150920000Y-111540000D02*
X150920000Y-110140000D01*
X150920000Y-109890000D02*
X151170000Y-109640000D01*
X150920000Y-110140000D02*
X150920000Y-109890000D01*
X170000000Y-109750000D02*
X174530000Y-109750000D01*
X174530000Y-109750000D02*
X175460000Y-108820000D01*
X159000000Y-116500000D02*
X160000000Y-116500000D01*
X164500000Y-112000000D02*
X167500000Y-112000000D01*
X170000000Y-109750000D02*
X170250000Y-110000000D01*
X160000000Y-116500000D02*
X164500000Y-112000000D01*
X157620000Y-115870000D02*
X158250000Y-116500000D01*
X158250000Y-116500000D02*
X159000000Y-116500000D01*
X149250000Y-127200000D02*
X149250000Y-126650000D01*
X149250000Y-126650000D02*
X149000000Y-126400000D01*
X156020000Y-115640000D02*
X154610000Y-115640000D01*
X154610000Y-115640000D02*
X154000000Y-116250000D01*
X149250000Y-127200000D02*
X149250000Y-137750000D01*
X149250000Y-137750000D02*
X159380000Y-147880000D01*
X159380000Y-147880000D02*
X159380000Y-151000000D01*
X157620000Y-115640000D02*
X157620000Y-115870000D01*
X156020000Y-115640000D02*
X157620000Y-115640000D01*
X162500000Y-108000000D02*
X168100000Y-108000000D01*
X152420000Y-120240000D02*
X152420000Y-119080000D01*
X152420000Y-119080000D02*
X153000000Y-118500000D01*
X169820000Y-106280000D02*
X175460000Y-106280000D01*
X168100000Y-108000000D02*
X169820000Y-106280000D01*
X158000000Y-108250000D02*
X159299480Y-108250000D01*
X154940000Y-114140000D02*
X154200000Y-113400000D01*
X156020000Y-114140000D02*
X154940000Y-114140000D01*
X171600000Y-101200000D02*
X175460000Y-101200000D01*
X165993598Y-106806402D02*
X171600000Y-101200000D01*
X160743078Y-106806402D02*
X165993598Y-106806402D01*
X159299480Y-108250000D02*
X160743078Y-106806402D01*
X174550000Y-117550000D02*
X174700000Y-117700000D01*
X176800000Y-117700000D02*
X176900000Y-117600000D01*
X174700000Y-117700000D02*
X176800000Y-117700000D01*
X174500000Y-117500000D02*
X174550000Y-117550000D01*
X173400000Y-116400000D02*
X174500000Y-117500000D01*
X167500000Y-110500000D02*
X173400000Y-116400000D01*
X158250000Y-110500000D02*
X167500000Y-110500000D01*
X157750000Y-111000000D02*
X158250000Y-110500000D01*
X157750000Y-112750000D02*
X157750000Y-111000000D01*
X156860000Y-113640000D02*
X157750000Y-112750000D01*
X156020000Y-113640000D02*
X156860000Y-113640000D01*
X176900000Y-117600000D02*
X178000000Y-116500000D01*
X178000000Y-116500000D02*
X178000000Y-116440000D01*
X169850000Y-110850000D02*
X174250000Y-110850000D01*
X178000000Y-111360000D02*
X177660000Y-111360000D01*
X177660000Y-111360000D02*
X176400000Y-110100000D01*
X176400000Y-110100000D02*
X175000000Y-110100000D01*
X175000000Y-110100000D02*
X174250000Y-110850000D01*
X178000000Y-111360000D02*
X177960000Y-111360000D01*
X169850000Y-110850000D02*
X168000000Y-109000000D01*
X156020000Y-113140000D02*
X156020000Y-112480000D01*
X157400000Y-109000000D02*
X168000000Y-109000000D01*
X156800000Y-108400000D02*
X157400000Y-109000000D01*
X156020000Y-112480000D02*
X156500000Y-112000000D01*
X173300000Y-112600000D02*
X170924740Y-112600000D01*
X178000000Y-113900000D02*
X177900000Y-113900000D01*
X177900000Y-113900000D02*
X176600000Y-112600000D01*
X176600000Y-112600000D02*
X173300000Y-112600000D01*
X154420000Y-111540000D02*
X154760000Y-111540000D01*
X154760000Y-111540000D02*
X155400000Y-110900000D01*
X155700000Y-108900000D02*
X156300000Y-109500000D01*
X167824740Y-109500000D02*
X170924740Y-112600000D01*
X156300000Y-109500000D02*
X167824740Y-109500000D01*
X153920000Y-111540000D02*
X153920000Y-110680000D01*
X174140000Y-116440000D02*
X175460000Y-116440000D01*
X167700000Y-110000000D02*
X174140000Y-116440000D01*
X154600000Y-110000000D02*
X167700000Y-110000000D01*
X153920000Y-110680000D02*
X154600000Y-110000000D01*
X175460000Y-116400000D02*
X175500000Y-116440000D01*
X154200000Y-107400000D02*
X159574740Y-107400000D01*
X148960000Y-115640000D02*
X151000000Y-113600000D01*
X147320000Y-115640000D02*
X148960000Y-115640000D01*
X173494740Y-98660000D02*
X175460000Y-98660000D01*
X165754740Y-106400000D02*
X173494740Y-98660000D01*
X160574740Y-106400000D02*
X165754740Y-106400000D01*
X159574740Y-107400000D02*
X160574740Y-106400000D01*
X175437630Y-113837630D02*
X175500000Y-113900000D01*
M02*
