G04 #@! TF.FileFunction,Soldermask,Top*
%FSLAX46Y46*%
G04 Gerber Fmt 4.6, Leading zero omitted, Abs format (unit mm)*
G04 Created by KiCad (PCBNEW 4.0.7) date Tue Aug  7 16:53:50 2018*
%MOMM*%
%LPD*%
G01*
G04 APERTURE LIST*
%ADD10C,0.100000*%
%ADD11C,2.300000*%
%ADD12R,2.100000X2.100000*%
%ADD13O,2.100000X2.100000*%
%ADD14R,1.300000X1.200000*%
%ADD15R,1.150000X1.600000*%
%ADD16R,1.600000X1.150000*%
%ADD17C,2.000000*%
%ADD18O,2.000000X2.000000*%
%ADD19R,1.700000X0.650000*%
%ADD20R,0.650000X1.700000*%
%ADD21R,1.200000X1.300000*%
%ADD22R,1.000000X0.800000*%
%ADD23R,0.800000X1.000000*%
%ADD24R,2.700000X1.250000*%
%ADD25C,1.800000*%
%ADD26C,1.400000*%
%ADD27R,2.430000X3.050000*%
%ADD28R,1.300000X1.600000*%
%ADD29R,1.000000X0.900000*%
%ADD30R,0.900000X1.000000*%
%ADD31R,2.400000X2.900000*%
%ADD32R,1.900000X1.650000*%
%ADD33R,0.850000X2.150000*%
%ADD34R,2.200000X1.940000*%
%ADD35C,2.200000*%
%ADD36R,0.950000X2.150000*%
G04 APERTURE END LIST*
D10*
D11*
X108200000Y-140450000D03*
X100200000Y-140450000D03*
X121000000Y-95450000D03*
X100200000Y-95450000D03*
D12*
X178000000Y-88500000D03*
D13*
X175460000Y-88500000D03*
X178000000Y-91040000D03*
X175460000Y-91040000D03*
X178000000Y-93580000D03*
X175460000Y-93580000D03*
X178000000Y-96120000D03*
X175460000Y-96120000D03*
X178000000Y-98660000D03*
X175460000Y-98660000D03*
X178000000Y-101200000D03*
X175460000Y-101200000D03*
X178000000Y-103740000D03*
X175460000Y-103740000D03*
X178000000Y-106280000D03*
X175460000Y-106280000D03*
X178000000Y-108820000D03*
X175460000Y-108820000D03*
X178000000Y-111360000D03*
X175460000Y-111360000D03*
X178000000Y-113900000D03*
X175460000Y-113900000D03*
X178000000Y-116440000D03*
X175460000Y-116440000D03*
X178000000Y-118980000D03*
X175460000Y-118980000D03*
X178000000Y-121520000D03*
X175460000Y-121520000D03*
X178000000Y-124060000D03*
X175460000Y-124060000D03*
X178000000Y-126600000D03*
X175460000Y-126600000D03*
X178000000Y-129140000D03*
X175460000Y-129140000D03*
X178000000Y-131680000D03*
X175460000Y-131680000D03*
X178000000Y-134220000D03*
X175460000Y-134220000D03*
X178000000Y-136760000D03*
X175460000Y-136760000D03*
D12*
X167000000Y-151000000D03*
D13*
X167000000Y-153540000D03*
X164460000Y-151000000D03*
X164460000Y-153540000D03*
X161920000Y-151000000D03*
X161920000Y-153540000D03*
X159380000Y-151000000D03*
X159380000Y-153540000D03*
D14*
X139170000Y-119090000D03*
X139170000Y-117190000D03*
X137170000Y-118140000D03*
D15*
X141170000Y-117190000D03*
X141170000Y-119090000D03*
D16*
X137220000Y-121140000D03*
X139120000Y-121140000D03*
D17*
X134500000Y-76500000D03*
D18*
X149740000Y-76500000D03*
D17*
X155500000Y-76500000D03*
D18*
X170740000Y-76500000D03*
D19*
X156020000Y-118640000D03*
X156020000Y-118140000D03*
X156020000Y-117640000D03*
X156020000Y-117140000D03*
X156020000Y-116640000D03*
X156020000Y-116140000D03*
X156020000Y-115640000D03*
X156020000Y-115140000D03*
X156020000Y-114640000D03*
X156020000Y-114140000D03*
X156020000Y-113640000D03*
X156020000Y-113140000D03*
D20*
X154420000Y-111540000D03*
X153920000Y-111540000D03*
X153420000Y-111540000D03*
X152920000Y-111540000D03*
X152420000Y-111540000D03*
X151920000Y-111540000D03*
X151420000Y-111540000D03*
X150920000Y-111540000D03*
X150420000Y-111540000D03*
X149920000Y-111540000D03*
X149420000Y-111540000D03*
X148920000Y-111540000D03*
D19*
X147320000Y-113140000D03*
X147320000Y-113640000D03*
X147320000Y-114140000D03*
X147320000Y-114640000D03*
X147320000Y-115140000D03*
X147320000Y-115640000D03*
X147320000Y-116140000D03*
X147320000Y-116640000D03*
X147320000Y-117140000D03*
X147320000Y-117640000D03*
X147320000Y-118140000D03*
X147320000Y-118640000D03*
D20*
X148920000Y-120240000D03*
X149420000Y-120240000D03*
X149920000Y-120240000D03*
X150420000Y-120240000D03*
X150920000Y-120240000D03*
X151420000Y-120240000D03*
X151920000Y-120240000D03*
X152420000Y-120240000D03*
X152920000Y-120240000D03*
X153420000Y-120240000D03*
X153920000Y-120240000D03*
X154420000Y-120240000D03*
D21*
X143220000Y-108390000D03*
X145120000Y-108390000D03*
X144170000Y-106390000D03*
D22*
X146300000Y-148450000D03*
X146300000Y-147550000D03*
X149300000Y-148450000D03*
X149300000Y-147550000D03*
X143300000Y-148450000D03*
X143300000Y-147550000D03*
X162260000Y-98120000D03*
X162260000Y-97220000D03*
X165870000Y-98100000D03*
X165870000Y-97200000D03*
D23*
X148280000Y-95510000D03*
X147380000Y-95510000D03*
X145404000Y-81944000D03*
X144504000Y-81944000D03*
X148404000Y-81944000D03*
X147504000Y-81944000D03*
X162050000Y-82450000D03*
X161150000Y-82450000D03*
D22*
X165330000Y-82460000D03*
X165330000Y-81560000D03*
D24*
X115750000Y-151525000D03*
X115750000Y-153475000D03*
D12*
X132000000Y-155000000D03*
D13*
X129460000Y-155000000D03*
X126920000Y-155000000D03*
X124380000Y-155000000D03*
D25*
X112500000Y-82290000D03*
X112500000Y-77210000D03*
X125000000Y-82290000D03*
X125000000Y-77210000D03*
D26*
X131290000Y-88500000D03*
X126210000Y-88500000D03*
D27*
X135000000Y-79910000D03*
X135000000Y-84090000D03*
D28*
X146300000Y-153100000D03*
X146300000Y-150900000D03*
X149300000Y-153100000D03*
X149300000Y-150900000D03*
X143300000Y-153200000D03*
X143300000Y-151000000D03*
D29*
X157620000Y-115640000D03*
X158720000Y-115640000D03*
X148120000Y-110140000D03*
X149220000Y-110140000D03*
X148120000Y-108890000D03*
X149220000Y-108890000D03*
X157620000Y-114640000D03*
X158720000Y-114640000D03*
D30*
X152420000Y-109690000D03*
X152420000Y-108590000D03*
D29*
X154720000Y-121890000D03*
X153620000Y-121890000D03*
X159870000Y-126390000D03*
X160970000Y-126390000D03*
D30*
X145170000Y-110340000D03*
X145170000Y-111440000D03*
D15*
X142670000Y-109940000D03*
X142670000Y-111840000D03*
D31*
X153330000Y-93510000D03*
X157330000Y-93510000D03*
D29*
X164610000Y-97570000D03*
X163510000Y-97570000D03*
D32*
X114500000Y-156250000D03*
X117000000Y-156250000D03*
D30*
X149580000Y-95460000D03*
X149580000Y-96560000D03*
D16*
X168050000Y-94600000D03*
X169950000Y-94600000D03*
D32*
X114500000Y-149000000D03*
X117000000Y-149000000D03*
D31*
X150954000Y-81944000D03*
X154954000Y-81944000D03*
D29*
X164320000Y-82450000D03*
X163220000Y-82450000D03*
D15*
X168400000Y-85150000D03*
X168400000Y-83250000D03*
D33*
X144155000Y-93610000D03*
X144805000Y-93610000D03*
X145455000Y-93610000D03*
X146105000Y-93610000D03*
X146755000Y-93610000D03*
X147405000Y-93610000D03*
X148055000Y-93610000D03*
X148705000Y-93610000D03*
X149355000Y-93610000D03*
X150005000Y-93610000D03*
X150005000Y-86410000D03*
X149355000Y-86410000D03*
X148705000Y-86410000D03*
X148055000Y-86410000D03*
X147405000Y-86410000D03*
X146755000Y-86410000D03*
X146105000Y-86410000D03*
X145455000Y-86410000D03*
X144805000Y-86410000D03*
X144155000Y-86410000D03*
D34*
X161820000Y-123730000D03*
X161820000Y-121050000D03*
X159020000Y-121050000D03*
X159020000Y-123730000D03*
D35*
X115750000Y-89250000D03*
X108250000Y-87850000D03*
D36*
X165735000Y-84560000D03*
X164465000Y-84560000D03*
X163195000Y-84560000D03*
X161925000Y-84560000D03*
X161925000Y-95460000D03*
X163195000Y-95460000D03*
X164465000Y-95460000D03*
X165735000Y-95460000D03*
M02*
