G04 #@! TF.FileFunction,Soldermask,Bot*
%FSLAX46Y46*%
G04 Gerber Fmt 4.6, Leading zero omitted, Abs format (unit mm)*
G04 Created by KiCad (PCBNEW 4.0.7) date Thu May 31 06:07:41 2018*
%MOMM*%
%LPD*%
G01*
G04 APERTURE LIST*
%ADD10C,0.100000*%
%ADD11C,2.200000*%
%ADD12C,1.400000*%
%ADD13C,1.800000*%
%ADD14R,2.100000X2.100000*%
%ADD15O,2.100000X2.100000*%
%ADD16C,2.000000*%
%ADD17O,2.000000X2.000000*%
G04 APERTURE END LIST*
D10*
D11*
X115750000Y-89250000D03*
X108250000Y-87850000D03*
D12*
X131290000Y-88500000D03*
X126210000Y-88500000D03*
D13*
X125000000Y-82290000D03*
X125000000Y-77210000D03*
X112500000Y-82290000D03*
X112500000Y-77210000D03*
D14*
X132000000Y-155000000D03*
D15*
X129460000Y-155000000D03*
X126920000Y-155000000D03*
X124380000Y-155000000D03*
D16*
X155500000Y-76500000D03*
D17*
X170740000Y-76500000D03*
D16*
X134500000Y-76500000D03*
D17*
X149740000Y-76500000D03*
D14*
X167000000Y-151000000D03*
D15*
X167000000Y-153540000D03*
X164460000Y-151000000D03*
X164460000Y-153540000D03*
X161920000Y-151000000D03*
X161920000Y-153540000D03*
X159380000Y-151000000D03*
X159380000Y-153540000D03*
D14*
X178000000Y-88500000D03*
D15*
X175460000Y-88500000D03*
X178000000Y-91040000D03*
X175460000Y-91040000D03*
X178000000Y-93580000D03*
X175460000Y-93580000D03*
X178000000Y-96120000D03*
X175460000Y-96120000D03*
X178000000Y-98660000D03*
X175460000Y-98660000D03*
X178000000Y-101200000D03*
X175460000Y-101200000D03*
X178000000Y-103740000D03*
X175460000Y-103740000D03*
X178000000Y-106280000D03*
X175460000Y-106280000D03*
X178000000Y-108820000D03*
X175460000Y-108820000D03*
X178000000Y-111360000D03*
X175460000Y-111360000D03*
X178000000Y-113900000D03*
X175460000Y-113900000D03*
X178000000Y-116440000D03*
X175460000Y-116440000D03*
X178000000Y-118980000D03*
X175460000Y-118980000D03*
X178000000Y-121520000D03*
X175460000Y-121520000D03*
X178000000Y-124060000D03*
X175460000Y-124060000D03*
X178000000Y-126600000D03*
X175460000Y-126600000D03*
X178000000Y-129140000D03*
X175460000Y-129140000D03*
X178000000Y-131680000D03*
X175460000Y-131680000D03*
X178000000Y-134220000D03*
X175460000Y-134220000D03*
X178000000Y-136760000D03*
X175460000Y-136760000D03*
D16*
X108200000Y-140450000D03*
X100200000Y-140450000D03*
X121000000Y-95450000D03*
X100200000Y-95450000D03*
M02*
