G04 #@! TF.FileFunction,Profile,NP*
%FSLAX46Y46*%
G04 Gerber Fmt 4.6, Leading zero omitted, Abs format (unit mm)*
G04 Created by KiCad (PCBNEW 4.0.7) date Thu May 31 06:07:41 2018*
%MOMM*%
%LPD*%
G01*
G04 APERTURE LIST*
%ADD10C,0.100000*%
%ADD11C,0.150000*%
G04 APERTURE END LIST*
D10*
D11*
X109485100Y-148132800D02*
G75*
G03X109485100Y-148132800I-1560500J0D01*
G01*
X179335100Y-148132800D02*
G75*
G03X179335100Y-148132800I-1560500J0D01*
G01*
X179335100Y-78282800D02*
G75*
G03X179335100Y-78282800I-1560500J0D01*
G01*
X109485100Y-78282800D02*
G75*
G03X109485100Y-78282800I-1560500J0D01*
G01*
X104495600Y-66370200D02*
X142849600Y-66370200D01*
X104495600Y-74853800D02*
X104495600Y-66370200D01*
X96012000Y-74853800D02*
X104495600Y-74853800D01*
X96012000Y-151561800D02*
X96012000Y-74853800D01*
X104495600Y-151561800D02*
X96012000Y-151561800D01*
X104495600Y-160045400D02*
X104495600Y-151561800D01*
X181203600Y-160045400D02*
X104495600Y-160045400D01*
X181203600Y-66370200D02*
X181203600Y-160045400D01*
X142849600Y-66370200D02*
X181203600Y-66370200D01*
X142000000Y-91000000D02*
X136500000Y-91000000D01*
X136500000Y-89500000D02*
X142000000Y-89500000D01*
X136500000Y-89500000D02*
G75*
G03X135750000Y-90250000I0J-750000D01*
G01*
X135750000Y-90250000D02*
G75*
G03X136500000Y-91000000I750000J0D01*
G01*
X172250000Y-91000000D02*
X172250000Y-85250000D01*
X168500000Y-91000000D02*
X172250000Y-91000000D01*
X170750000Y-89500000D02*
X168500000Y-89500000D01*
X170750000Y-85250000D02*
X170750000Y-89500000D01*
X171500000Y-84500000D02*
G75*
G03X170750000Y-85250000I0J-750000D01*
G01*
X172250000Y-85250000D02*
G75*
G03X171500000Y-84500000I-750000J0D01*
G01*
X142000000Y-89500000D02*
X168500000Y-89500000D01*
X142000000Y-91000000D02*
X168500000Y-91000000D01*
M02*
