G04 #@! TF.FileFunction,Copper,L4,Bot,Signal*
%FSLAX46Y46*%
G04 Gerber Fmt 4.6, Leading zero omitted, Abs format (unit mm)*
G04 Created by KiCad (PCBNEW 4.0.7) date Tue Aug  7 16:53:50 2018*
%MOMM*%
%LPD*%
G01*
G04 APERTURE LIST*
%ADD10C,0.100000*%
%ADD11C,1.900000*%
%ADD12R,1.700000X1.700000*%
%ADD13O,1.700000X1.700000*%
%ADD14C,1.600000*%
%ADD15O,1.600000X1.600000*%
%ADD16C,1.400000*%
%ADD17C,1.000000*%
%ADD18C,1.800000*%
%ADD19C,0.900000*%
%ADD20C,1.100000*%
%ADD21C,0.500000*%
%ADD22C,2.000000*%
%ADD23C,0.254000*%
G04 APERTURE END LIST*
D10*
D11*
X108200000Y-140450000D03*
X100200000Y-140450000D03*
X121000000Y-95450000D03*
X100200000Y-95450000D03*
D12*
X178000000Y-88500000D03*
D13*
X175460000Y-88500000D03*
X178000000Y-91040000D03*
X175460000Y-91040000D03*
X178000000Y-93580000D03*
X175460000Y-93580000D03*
X178000000Y-96120000D03*
X175460000Y-96120000D03*
X178000000Y-98660000D03*
X175460000Y-98660000D03*
X178000000Y-101200000D03*
X175460000Y-101200000D03*
X178000000Y-103740000D03*
X175460000Y-103740000D03*
X178000000Y-106280000D03*
X175460000Y-106280000D03*
X178000000Y-108820000D03*
X175460000Y-108820000D03*
X178000000Y-111360000D03*
X175460000Y-111360000D03*
X178000000Y-113900000D03*
X175460000Y-113900000D03*
X178000000Y-116440000D03*
X175460000Y-116440000D03*
X178000000Y-118980000D03*
X175460000Y-118980000D03*
X178000000Y-121520000D03*
X175460000Y-121520000D03*
X178000000Y-124060000D03*
X175460000Y-124060000D03*
X178000000Y-126600000D03*
X175460000Y-126600000D03*
X178000000Y-129140000D03*
X175460000Y-129140000D03*
X178000000Y-131680000D03*
X175460000Y-131680000D03*
X178000000Y-134220000D03*
X175460000Y-134220000D03*
X178000000Y-136760000D03*
X175460000Y-136760000D03*
D12*
X167000000Y-151000000D03*
D13*
X167000000Y-153540000D03*
X164460000Y-151000000D03*
X164460000Y-153540000D03*
X161920000Y-151000000D03*
X161920000Y-153540000D03*
X159380000Y-151000000D03*
X159380000Y-153540000D03*
D14*
X134500000Y-76500000D03*
D15*
X149740000Y-76500000D03*
D14*
X155500000Y-76500000D03*
D15*
X170740000Y-76500000D03*
D12*
X132000000Y-155000000D03*
D13*
X129460000Y-155000000D03*
X126920000Y-155000000D03*
X124380000Y-155000000D03*
D16*
X112500000Y-82290000D03*
X112500000Y-77210000D03*
X125000000Y-82290000D03*
X125000000Y-77210000D03*
D17*
X131290000Y-88500000D03*
X126210000Y-88500000D03*
D18*
X115750000Y-89250000D03*
X108250000Y-87850000D03*
D19*
X145900000Y-83300000D03*
D20*
X159000000Y-81500000D03*
X160400000Y-96000000D03*
X171600000Y-94800000D03*
X119000000Y-155750000D03*
D19*
X142830000Y-94510000D03*
X145830000Y-95510000D03*
X148580000Y-96510000D03*
X150830000Y-93760000D03*
X159830000Y-93510000D03*
D20*
X116600000Y-147400000D03*
D19*
X149000000Y-108000000D03*
X154000000Y-114800000D03*
X142250000Y-120000000D03*
X163670000Y-120890000D03*
X162170000Y-126390000D03*
X143300000Y-154500000D03*
X149300000Y-154500000D03*
X146300000Y-154500000D03*
X145420000Y-113390000D03*
X152420000Y-107890000D03*
X144170000Y-104890000D03*
X159920000Y-115140000D03*
X153670000Y-122890000D03*
D20*
X164500000Y-103000000D03*
D19*
X157200000Y-124300000D03*
X155600000Y-122800000D03*
X143000000Y-118000000D03*
X156420000Y-119890000D03*
X153420000Y-109890000D03*
X147920000Y-111390000D03*
X158170000Y-113640000D03*
D20*
X112500000Y-153000000D03*
X118400000Y-153200000D03*
X140500000Y-109750000D03*
X134000000Y-118500000D03*
X153080000Y-95510000D03*
D19*
X143250000Y-146750000D03*
X153400000Y-106600000D03*
X150400000Y-115400000D03*
X152000000Y-125400000D03*
X151800000Y-117200000D03*
X151400000Y-118800000D03*
X151400000Y-122600000D03*
X149800000Y-124400000D03*
X150200000Y-122400000D03*
X151170000Y-109640000D03*
X170000000Y-109750000D03*
X167500000Y-112000000D03*
X149000000Y-126400000D03*
X154000000Y-116250000D03*
X162500000Y-108000000D03*
X153000000Y-118500000D03*
X154200000Y-113400000D03*
X158000000Y-108250000D03*
X156800000Y-108400000D03*
X156500000Y-112000000D03*
X155400000Y-110900000D03*
X155700000Y-108900000D03*
X154200000Y-107400000D03*
X151000000Y-113600000D03*
D21*
X156300000Y-84200000D02*
X159000000Y-81500000D01*
X146800000Y-84200000D02*
X156300000Y-84200000D01*
X145900000Y-83300000D02*
X146800000Y-84200000D01*
D22*
X170740000Y-76500000D02*
X170740000Y-78760000D01*
X170740000Y-78760000D02*
X168000000Y-81500000D01*
X168000000Y-81500000D02*
X159000000Y-81500000D01*
X112500000Y-77210000D02*
X112500000Y-75000000D01*
X164740000Y-70500000D02*
X170740000Y-76500000D01*
X117000000Y-70500000D02*
X164740000Y-70500000D01*
X112500000Y-75000000D02*
X117000000Y-70500000D01*
D23*
X150400000Y-115400000D02*
X150000000Y-115000000D01*
X150400000Y-108800000D02*
X152600000Y-106600000D01*
X150400000Y-113000000D02*
X150400000Y-108800000D01*
X150000000Y-113400000D02*
X150400000Y-113000000D01*
X150000000Y-115000000D02*
X150000000Y-113400000D01*
X152600000Y-106600000D02*
X153400000Y-106600000D01*
X152200000Y-125200000D02*
X152000000Y-125400000D01*
X152200000Y-117600000D02*
X152200000Y-125200000D01*
X151800000Y-117200000D02*
X152200000Y-117600000D01*
X151400000Y-118800000D02*
X151400000Y-121400000D01*
X151400000Y-121400000D02*
X151400000Y-122600000D01*
X149800000Y-122800000D02*
X149800000Y-124400000D01*
X150200000Y-122400000D02*
X149800000Y-122800000D01*
X167500000Y-112000000D02*
X169750000Y-109750000D01*
X169750000Y-109750000D02*
X170000000Y-109750000D01*
X149000000Y-124800000D02*
X149000000Y-123000000D01*
X149000000Y-123000000D02*
X149250000Y-122750000D01*
X149000000Y-126400000D02*
X149000000Y-124800000D01*
X149250000Y-122750000D02*
X149250000Y-122400000D01*
X154000000Y-116250000D02*
X151550000Y-116250000D01*
X151550000Y-116250000D02*
X149250000Y-118550000D01*
X149250000Y-118550000D02*
X149250000Y-122400000D01*
X162000000Y-108000000D02*
X162500000Y-108000000D01*
X156500000Y-113500000D02*
X162000000Y-108000000D01*
X156500000Y-115000000D02*
X156500000Y-113500000D01*
X153000000Y-118500000D02*
X156500000Y-115000000D01*
X154000000Y-110800000D02*
X154800000Y-110000000D01*
X154000000Y-113200000D02*
X154000000Y-110800000D01*
X154200000Y-113400000D02*
X154000000Y-113200000D01*
X154800000Y-110000000D02*
X154800000Y-108500000D01*
X154800000Y-108500000D02*
X155050000Y-108250000D01*
X155050000Y-108250000D02*
X155700000Y-107600000D01*
X155700000Y-107600000D02*
X157350000Y-107600000D01*
X157350000Y-107600000D02*
X158000000Y-108250000D01*
X156800000Y-111700000D02*
X156800000Y-108400000D01*
X156500000Y-112000000D02*
X156800000Y-111700000D01*
X155700000Y-110600000D02*
X155700000Y-108900000D01*
X155400000Y-110900000D02*
X155700000Y-110600000D01*
X152200000Y-109600000D02*
X154200000Y-107600000D01*
X154200000Y-107600000D02*
X154200000Y-107400000D01*
X151000000Y-113600000D02*
X152200000Y-112400000D01*
X152200000Y-112400000D02*
X152200000Y-109600000D01*
M02*
