M48
;DRILL file {KiCad 4.0.7} date Fri May 11 12:17:41 2018
;FORMAT={-:-/ absolute / inch / decimal}
FMAT,2
INCH,TZ
T1C0.016
T2C0.024
T3C0.030
T4C0.031
T5C0.039
T6C0.043
%
G90
G05
M72
T1
X5.6004Y-4.7244
X5.6232Y-3.7209
X5.6299Y-4.6457
X5.6398Y-5.7776
X5.6417Y-6.0827
X5.676Y-4.1295
X5.7252Y-4.4642
X5.7413Y-3.7602
X5.7598Y-6.0827
X5.8236Y-4.3854
X5.8496Y-3.7996
X5.8661Y-4.252
X5.8661Y-4.9764
X5.878Y-6.0827
X5.8976Y-4.8976
X5.9134Y-4.8189
X5.9213Y-4.5433
X5.9382Y-3.6913
X5.9449Y-4.4724
X5.9516Y-4.3165
X5.9606Y-4.6772
X5.9606Y-4.8268
X5.9764Y-4.6142
X5.9843Y-4.937
X6.0008Y-4.2476
X6.0236Y-4.6654
X6.0394Y-4.1969
X6.0402Y-4.3264
X6.05Y-4.8382
X6.063Y-4.5197
X6.063Y-4.5768
X6.0709Y-4.2283
X6.0709Y-4.4646
X6.1181Y-4.3661
X6.126Y-4.8346
X6.1299Y-4.2874
X6.1583Y-4.7201
X6.1614Y-4.4094
X6.1732Y-4.2677
X6.189Y-4.8937
X6.2205Y-4.2618
X6.2272Y-4.474
X6.2925Y-3.6815
X6.2961Y-4.5331
X6.3614Y-3.711
X6.3846Y-4.976
X6.3976Y-4.252
X6.4437Y-4.7594
X6.4724Y-4.0512
X6.5945Y-4.4094
X6.6567Y-3.7898
X6.6929Y-4.3209
T2
X4.4291Y-6.0236
X4.5906Y-5.8031
X4.6614Y-6.0315
X4.685Y-6.1319
X4.9689Y-3.4843
X5.1689Y-3.4843
X5.2756Y-4.6654
X5.5315Y-4.3209
X5.7972Y-3.3268
X5.948Y-3.3469
X6.0268Y-3.7602
X6.2039Y-3.2287
X6.3614Y-3.3862
X6.6173Y-3.2484
T3
X4.4291Y-3.0398
X4.4291Y-3.2398
X4.9213Y-3.0398
X4.9213Y-3.2398
T4
X4.2618Y-3.4587
X4.5571Y-3.5138
X5.2953Y-3.0118
X5.8953Y-3.0118
X6.122Y-3.0118
X6.722Y-3.0118
T5
X4.8969Y-6.1024
X4.9969Y-6.1024
X5.0969Y-6.1024
X5.1969Y-6.1024
X6.2748Y-5.9449
X6.2748Y-6.0449
X6.3748Y-5.9449
X6.3748Y-6.0449
X6.4748Y-5.9449
X6.4748Y-6.0449
X6.5748Y-5.9449
X6.5748Y-6.0449
X6.9094Y-3.4843
X6.9094Y-3.5843
X6.9094Y-3.6843
X6.9094Y-3.7843
X6.9094Y-3.8843
X6.9094Y-3.9843
X6.9094Y-4.0843
X6.9094Y-4.1843
X6.9094Y-4.2843
X6.9094Y-4.3843
X6.9094Y-4.4843
X6.9094Y-4.5843
X6.9094Y-4.6843
X6.9094Y-4.7843
X6.9094Y-4.8843
X6.9094Y-4.9843
X6.9094Y-5.0843
X6.9094Y-5.1843
X6.9094Y-5.2843
X6.9094Y-5.3843
X7.0094Y-3.4843
X7.0094Y-3.5843
X7.0094Y-3.6843
X7.0094Y-3.7843
X7.0094Y-3.8843
X7.0094Y-3.9843
X7.0094Y-4.0843
X7.0094Y-4.1843
X7.0094Y-4.2843
X7.0094Y-4.3843
X7.0094Y-4.4843
X7.0094Y-4.5843
X7.0094Y-4.6843
X7.0094Y-4.7843
X7.0094Y-4.8843
X7.0094Y-4.9843
X7.0094Y-5.0843
X7.0094Y-5.1843
X7.0094Y-5.2843
X7.0094Y-5.3843
T6
X3.9449Y-3.7579
X3.9449Y-5.5295
X4.2598Y-5.5295
X4.7638Y-3.7579
T0
M30
