G04 #@! TF.FileFunction,Copper,L2,Inr,Plane*
%FSLAX46Y46*%
G04 Gerber Fmt 4.6, Leading zero omitted, Abs format (unit mm)*
G04 Created by KiCad (PCBNEW 4.0.7) date Wed May 16 13:21:29 2018*
%MOMM*%
%LPD*%
G01*
G04 APERTURE LIST*
%ADD10C,0.100000*%
%ADD11C,1.800000*%
%ADD12C,1.000000*%
%ADD13C,1.400000*%
%ADD14R,1.700000X1.700000*%
%ADD15O,1.700000X1.700000*%
%ADD16C,1.600000*%
%ADD17O,1.600000X1.600000*%
%ADD18C,0.900000*%
%ADD19C,1.100000*%
%ADD20C,0.254000*%
G04 APERTURE END LIST*
D10*
D11*
X115750000Y-89250000D03*
X108250000Y-87850000D03*
D12*
X131290000Y-88500000D03*
X126210000Y-88500000D03*
D13*
X125000000Y-82290000D03*
X125000000Y-77210000D03*
X112500000Y-82290000D03*
X112500000Y-77210000D03*
D14*
X132000000Y-155000000D03*
D15*
X129460000Y-155000000D03*
X126920000Y-155000000D03*
X124380000Y-155000000D03*
D16*
X155500000Y-76500000D03*
D17*
X170740000Y-76500000D03*
D16*
X134500000Y-76500000D03*
D17*
X149740000Y-76500000D03*
D14*
X167000000Y-151000000D03*
D15*
X167000000Y-153540000D03*
X164460000Y-151000000D03*
X164460000Y-153540000D03*
X161920000Y-151000000D03*
X161920000Y-153540000D03*
X159380000Y-151000000D03*
X159380000Y-153540000D03*
D14*
X178000000Y-88500000D03*
D15*
X175460000Y-88500000D03*
X178000000Y-91040000D03*
X175460000Y-91040000D03*
X178000000Y-93580000D03*
X175460000Y-93580000D03*
X178000000Y-96120000D03*
X175460000Y-96120000D03*
X178000000Y-98660000D03*
X175460000Y-98660000D03*
X178000000Y-101200000D03*
X175460000Y-101200000D03*
X178000000Y-103740000D03*
X175460000Y-103740000D03*
X178000000Y-106280000D03*
X175460000Y-106280000D03*
X178000000Y-108820000D03*
X175460000Y-108820000D03*
X178000000Y-111360000D03*
X175460000Y-111360000D03*
X178000000Y-113900000D03*
X175460000Y-113900000D03*
X178000000Y-116440000D03*
X175460000Y-116440000D03*
X178000000Y-118980000D03*
X175460000Y-118980000D03*
X178000000Y-121520000D03*
X175460000Y-121520000D03*
X178000000Y-124060000D03*
X175460000Y-124060000D03*
X178000000Y-126600000D03*
X175460000Y-126600000D03*
X178000000Y-129140000D03*
X175460000Y-129140000D03*
X178000000Y-131680000D03*
X175460000Y-131680000D03*
X178000000Y-134220000D03*
X175460000Y-134220000D03*
X178000000Y-136760000D03*
X175460000Y-136760000D03*
D16*
X108200000Y-140450000D03*
X100200000Y-140450000D03*
X121000000Y-95450000D03*
X100200000Y-95450000D03*
D18*
X145900000Y-83300000D03*
D19*
X159000000Y-81500000D03*
X119000000Y-155750000D03*
D18*
X142830000Y-94510000D03*
X145830000Y-95510000D03*
X148580000Y-96510000D03*
X150830000Y-93760000D03*
X169080000Y-96260000D03*
X161580000Y-94260000D03*
X159830000Y-93510000D03*
D19*
X116600000Y-147400000D03*
D18*
X149000000Y-108000000D03*
X154000000Y-114800000D03*
X142250000Y-120000000D03*
X163670000Y-120890000D03*
X162170000Y-126390000D03*
X143300000Y-154500000D03*
X149300000Y-154500000D03*
X146300000Y-154500000D03*
X145420000Y-113390000D03*
X152420000Y-107890000D03*
X144170000Y-104890000D03*
X159920000Y-115140000D03*
X153670000Y-122890000D03*
X157200000Y-124300000D03*
X164400000Y-102900000D03*
X155600000Y-122800000D03*
X143000000Y-118000000D03*
X156420000Y-119890000D03*
X153420000Y-109890000D03*
X147920000Y-111390000D03*
X158170000Y-113640000D03*
D19*
X112500000Y-153000000D03*
X118400000Y-153200000D03*
X140500000Y-109750000D03*
X134000000Y-118500000D03*
X153080000Y-95510000D03*
D18*
X143250000Y-146750000D03*
X153400000Y-106600000D03*
X150400000Y-115400000D03*
X152000000Y-125400000D03*
X151800000Y-117200000D03*
X151400000Y-118800000D03*
X151400000Y-122600000D03*
X149800000Y-124400000D03*
X150200000Y-122400000D03*
X151170000Y-109640000D03*
X170000000Y-109750000D03*
X167500000Y-112000000D03*
X149000000Y-126400000D03*
X154000000Y-116250000D03*
X162500000Y-108000000D03*
X153000000Y-118500000D03*
X154200000Y-113400000D03*
X158000000Y-108250000D03*
X156800000Y-108400000D03*
X156500000Y-112000000D03*
X155400000Y-110900000D03*
X155700000Y-108900000D03*
X154200000Y-107400000D03*
X151000000Y-113600000D03*
D20*
G36*
X174721553Y-92317702D02*
X174578642Y-92384817D01*
X174188355Y-92813076D01*
X174018524Y-93223110D01*
X174139845Y-93453000D01*
X175333000Y-93453000D01*
X175333000Y-93433000D01*
X175587000Y-93433000D01*
X175587000Y-93453000D01*
X175607000Y-93453000D01*
X175607000Y-93707000D01*
X175587000Y-93707000D01*
X175587000Y-93727000D01*
X175333000Y-93727000D01*
X175333000Y-93707000D01*
X174139845Y-93707000D01*
X174018524Y-93936890D01*
X174188355Y-94346924D01*
X174578642Y-94775183D01*
X174721553Y-94842298D01*
X174380853Y-95069946D01*
X174058946Y-95551715D01*
X173945907Y-96120000D01*
X174058946Y-96688285D01*
X174380853Y-97170054D01*
X174710026Y-97390000D01*
X174380853Y-97609946D01*
X174058946Y-98091715D01*
X173945907Y-98660000D01*
X174058946Y-99228285D01*
X174380853Y-99710054D01*
X174710026Y-99930000D01*
X174380853Y-100149946D01*
X174058946Y-100631715D01*
X173945907Y-101200000D01*
X174058946Y-101768285D01*
X174380853Y-102250054D01*
X174721553Y-102477702D01*
X174578642Y-102544817D01*
X174188355Y-102973076D01*
X174018524Y-103383110D01*
X174139845Y-103613000D01*
X175333000Y-103613000D01*
X175333000Y-103593000D01*
X175587000Y-103593000D01*
X175587000Y-103613000D01*
X175607000Y-103613000D01*
X175607000Y-103867000D01*
X175587000Y-103867000D01*
X175587000Y-103887000D01*
X175333000Y-103887000D01*
X175333000Y-103867000D01*
X174139845Y-103867000D01*
X174018524Y-104096890D01*
X174188355Y-104506924D01*
X174578642Y-104935183D01*
X174721553Y-105002298D01*
X174380853Y-105229946D01*
X174058946Y-105711715D01*
X173945907Y-106280000D01*
X174058946Y-106848285D01*
X174380853Y-107330054D01*
X174710026Y-107550000D01*
X174380853Y-107769946D01*
X174058946Y-108251715D01*
X173945907Y-108820000D01*
X174058946Y-109388285D01*
X174380853Y-109870054D01*
X174721553Y-110097702D01*
X174578642Y-110164817D01*
X174188355Y-110593076D01*
X174018524Y-111003110D01*
X174139845Y-111233000D01*
X175333000Y-111233000D01*
X175333000Y-111213000D01*
X175587000Y-111213000D01*
X175587000Y-111233000D01*
X175607000Y-111233000D01*
X175607000Y-111487000D01*
X175587000Y-111487000D01*
X175587000Y-111507000D01*
X175333000Y-111507000D01*
X175333000Y-111487000D01*
X174139845Y-111487000D01*
X174018524Y-111716890D01*
X174188355Y-112126924D01*
X174578642Y-112555183D01*
X174721553Y-112622298D01*
X174380853Y-112849946D01*
X174058946Y-113331715D01*
X173945907Y-113900000D01*
X174058946Y-114468285D01*
X174380853Y-114950054D01*
X174710026Y-115170000D01*
X174380853Y-115389946D01*
X174058946Y-115871715D01*
X173945907Y-116440000D01*
X174058946Y-117008285D01*
X174380853Y-117490054D01*
X174710026Y-117710000D01*
X174380853Y-117929946D01*
X174058946Y-118411715D01*
X173945907Y-118980000D01*
X174058946Y-119548285D01*
X174380853Y-120030054D01*
X174710026Y-120250000D01*
X174380853Y-120469946D01*
X174058946Y-120951715D01*
X173945907Y-121520000D01*
X174058946Y-122088285D01*
X174380853Y-122570054D01*
X174721553Y-122797702D01*
X174578642Y-122864817D01*
X174188355Y-123293076D01*
X174018524Y-123703110D01*
X174139845Y-123933000D01*
X175333000Y-123933000D01*
X175333000Y-123913000D01*
X175587000Y-123913000D01*
X175587000Y-123933000D01*
X175607000Y-123933000D01*
X175607000Y-124187000D01*
X175587000Y-124187000D01*
X175587000Y-124207000D01*
X175333000Y-124207000D01*
X175333000Y-124187000D01*
X174139845Y-124187000D01*
X174018524Y-124416890D01*
X174188355Y-124826924D01*
X174578642Y-125255183D01*
X174721553Y-125322298D01*
X174380853Y-125549946D01*
X174058946Y-126031715D01*
X173945907Y-126600000D01*
X174058946Y-127168285D01*
X174380853Y-127650054D01*
X174721553Y-127877702D01*
X174578642Y-127944817D01*
X174188355Y-128373076D01*
X174018524Y-128783110D01*
X174139845Y-129013000D01*
X175333000Y-129013000D01*
X175333000Y-128993000D01*
X175587000Y-128993000D01*
X175587000Y-129013000D01*
X175607000Y-129013000D01*
X175607000Y-129267000D01*
X175587000Y-129267000D01*
X175587000Y-129287000D01*
X175333000Y-129287000D01*
X175333000Y-129267000D01*
X174139845Y-129267000D01*
X174018524Y-129496890D01*
X174188355Y-129906924D01*
X174578642Y-130335183D01*
X174721553Y-130402298D01*
X174380853Y-130629946D01*
X174058946Y-131111715D01*
X173945907Y-131680000D01*
X174058946Y-132248285D01*
X174380853Y-132730054D01*
X174710026Y-132950000D01*
X174380853Y-133169946D01*
X174058946Y-133651715D01*
X173945907Y-134220000D01*
X174058946Y-134788285D01*
X174380853Y-135270054D01*
X174710026Y-135490000D01*
X174380853Y-135709946D01*
X174058946Y-136191715D01*
X173945907Y-136760000D01*
X174058946Y-137328285D01*
X174380853Y-137810054D01*
X174862622Y-138131961D01*
X175430907Y-138245000D01*
X175489093Y-138245000D01*
X176057378Y-138131961D01*
X176539147Y-137810054D01*
X176728345Y-137526899D01*
X176728355Y-137526924D01*
X177118642Y-137955183D01*
X177643108Y-138201486D01*
X177873000Y-138080819D01*
X177873000Y-136887000D01*
X178127000Y-136887000D01*
X178127000Y-138080819D01*
X178356892Y-138201486D01*
X178881358Y-137955183D01*
X179271645Y-137526924D01*
X179441476Y-137116890D01*
X179320155Y-136887000D01*
X178127000Y-136887000D01*
X177873000Y-136887000D01*
X177853000Y-136887000D01*
X177853000Y-136633000D01*
X177873000Y-136633000D01*
X177873000Y-136613000D01*
X178127000Y-136613000D01*
X178127000Y-136633000D01*
X179320155Y-136633000D01*
X179441476Y-136403110D01*
X179271645Y-135993076D01*
X178881358Y-135564817D01*
X178738447Y-135497702D01*
X179079147Y-135270054D01*
X179401054Y-134788285D01*
X179514093Y-134220000D01*
X179401054Y-133651715D01*
X179079147Y-133169946D01*
X178749974Y-132950000D01*
X179079147Y-132730054D01*
X179401054Y-132248285D01*
X179514093Y-131680000D01*
X179401054Y-131111715D01*
X179079147Y-130629946D01*
X178749974Y-130410000D01*
X179079147Y-130190054D01*
X179401054Y-129708285D01*
X179514093Y-129140000D01*
X179401054Y-128571715D01*
X179079147Y-128089946D01*
X178749974Y-127870000D01*
X179079147Y-127650054D01*
X179401054Y-127168285D01*
X179514093Y-126600000D01*
X179401054Y-126031715D01*
X179079147Y-125549946D01*
X178749974Y-125330000D01*
X179079147Y-125110054D01*
X179401054Y-124628285D01*
X179514093Y-124060000D01*
X179401054Y-123491715D01*
X179079147Y-123009946D01*
X178749974Y-122790000D01*
X179079147Y-122570054D01*
X179401054Y-122088285D01*
X179514093Y-121520000D01*
X179401054Y-120951715D01*
X179079147Y-120469946D01*
X178738447Y-120242298D01*
X178881358Y-120175183D01*
X179271645Y-119746924D01*
X179441476Y-119336890D01*
X179320155Y-119107000D01*
X178127000Y-119107000D01*
X178127000Y-119127000D01*
X177873000Y-119127000D01*
X177873000Y-119107000D01*
X177853000Y-119107000D01*
X177853000Y-118853000D01*
X177873000Y-118853000D01*
X177873000Y-118833000D01*
X178127000Y-118833000D01*
X178127000Y-118853000D01*
X179320155Y-118853000D01*
X179441476Y-118623110D01*
X179271645Y-118213076D01*
X178881358Y-117784817D01*
X178738447Y-117717702D01*
X179079147Y-117490054D01*
X179401054Y-117008285D01*
X179514093Y-116440000D01*
X179401054Y-115871715D01*
X179079147Y-115389946D01*
X178749974Y-115170000D01*
X179079147Y-114950054D01*
X179401054Y-114468285D01*
X179514093Y-113900000D01*
X179401054Y-113331715D01*
X179079147Y-112849946D01*
X178749974Y-112630000D01*
X179079147Y-112410054D01*
X179401054Y-111928285D01*
X179514093Y-111360000D01*
X179401054Y-110791715D01*
X179079147Y-110309946D01*
X178749974Y-110090000D01*
X179079147Y-109870054D01*
X179401054Y-109388285D01*
X179514093Y-108820000D01*
X179401054Y-108251715D01*
X179079147Y-107769946D01*
X178749974Y-107550000D01*
X179079147Y-107330054D01*
X179401054Y-106848285D01*
X179514093Y-106280000D01*
X179401054Y-105711715D01*
X179079147Y-105229946D01*
X178749974Y-105010000D01*
X179079147Y-104790054D01*
X179401054Y-104308285D01*
X179514093Y-103740000D01*
X179401054Y-103171715D01*
X179079147Y-102689946D01*
X178749974Y-102470000D01*
X179079147Y-102250054D01*
X179401054Y-101768285D01*
X179514093Y-101200000D01*
X179401054Y-100631715D01*
X179079147Y-100149946D01*
X178738447Y-99922298D01*
X178881358Y-99855183D01*
X179271645Y-99426924D01*
X179441476Y-99016890D01*
X179320155Y-98787000D01*
X178127000Y-98787000D01*
X178127000Y-98807000D01*
X177873000Y-98807000D01*
X177873000Y-98787000D01*
X177853000Y-98787000D01*
X177853000Y-98533000D01*
X177873000Y-98533000D01*
X177873000Y-98513000D01*
X178127000Y-98513000D01*
X178127000Y-98533000D01*
X179320155Y-98533000D01*
X179441476Y-98303110D01*
X179271645Y-97893076D01*
X178881358Y-97464817D01*
X178738447Y-97397702D01*
X179079147Y-97170054D01*
X179401054Y-96688285D01*
X179514093Y-96120000D01*
X179401054Y-95551715D01*
X179079147Y-95069946D01*
X178749974Y-94850000D01*
X179079147Y-94630054D01*
X179401054Y-94148285D01*
X179514093Y-93580000D01*
X179401054Y-93011715D01*
X179079147Y-92529946D01*
X178749974Y-92310000D01*
X179023853Y-92127000D01*
X181390000Y-92127000D01*
X181390000Y-144150000D01*
X181444046Y-144421705D01*
X181597954Y-144652046D01*
X181828295Y-144805954D01*
X182100000Y-144860000D01*
X188640000Y-144860000D01*
X188640000Y-151567318D01*
X185958677Y-152100666D01*
X185866262Y-152138946D01*
X185702736Y-152206680D01*
X182945137Y-154049249D01*
X182749249Y-154245137D01*
X180906681Y-157002736D01*
X180906681Y-157002737D01*
X180800666Y-157258677D01*
X180267318Y-159940000D01*
X104732682Y-159940000D01*
X104199334Y-157258677D01*
X104146326Y-157130706D01*
X104093320Y-157002736D01*
X102993603Y-155356892D01*
X122938514Y-155356892D01*
X123184817Y-155881358D01*
X123613076Y-156271645D01*
X124023110Y-156441476D01*
X124253000Y-156320155D01*
X124253000Y-155127000D01*
X124507000Y-155127000D01*
X124507000Y-156320155D01*
X124736890Y-156441476D01*
X125146924Y-156271645D01*
X125575183Y-155881358D01*
X125650000Y-155722046D01*
X125724817Y-155881358D01*
X126153076Y-156271645D01*
X126563110Y-156441476D01*
X126793000Y-156320155D01*
X126793000Y-155127000D01*
X124507000Y-155127000D01*
X124253000Y-155127000D01*
X123059181Y-155127000D01*
X122938514Y-155356892D01*
X102993603Y-155356892D01*
X102516668Y-154643108D01*
X122938514Y-154643108D01*
X123059181Y-154873000D01*
X124253000Y-154873000D01*
X124253000Y-153679845D01*
X124507000Y-153679845D01*
X124507000Y-154873000D01*
X126793000Y-154873000D01*
X126793000Y-153679845D01*
X127047000Y-153679845D01*
X127047000Y-154873000D01*
X127067000Y-154873000D01*
X127067000Y-155127000D01*
X127047000Y-155127000D01*
X127047000Y-156320155D01*
X127276890Y-156441476D01*
X127686924Y-156271645D01*
X128115183Y-155881358D01*
X128182298Y-155738447D01*
X128409946Y-156079147D01*
X128891715Y-156401054D01*
X129460000Y-156514093D01*
X130028285Y-156401054D01*
X130510054Y-156079147D01*
X130537850Y-156037548D01*
X130546838Y-156085317D01*
X130685910Y-156301441D01*
X130898110Y-156446431D01*
X131150000Y-156497440D01*
X132850000Y-156497440D01*
X133085317Y-156453162D01*
X133301441Y-156314090D01*
X133446431Y-156101890D01*
X133497440Y-155850000D01*
X133497440Y-154150000D01*
X133453162Y-153914683D01*
X133314090Y-153698559D01*
X133101890Y-153553569D01*
X132850000Y-153502560D01*
X131150000Y-153502560D01*
X130914683Y-153546838D01*
X130698559Y-153685910D01*
X130553569Y-153898110D01*
X130539914Y-153965541D01*
X130510054Y-153920853D01*
X130028285Y-153598946D01*
X129460000Y-153485907D01*
X128891715Y-153598946D01*
X128409946Y-153920853D01*
X128182298Y-154261553D01*
X128115183Y-154118642D01*
X127686924Y-153728355D01*
X127276890Y-153558524D01*
X127047000Y-153679845D01*
X126793000Y-153679845D01*
X126563110Y-153558524D01*
X126153076Y-153728355D01*
X125724817Y-154118642D01*
X125650000Y-154277954D01*
X125575183Y-154118642D01*
X125146924Y-153728355D01*
X124736890Y-153558524D01*
X124507000Y-153679845D01*
X124253000Y-153679845D01*
X124023110Y-153558524D01*
X123613076Y-153728355D01*
X123184817Y-154118642D01*
X122938514Y-154643108D01*
X102516668Y-154643108D01*
X102250751Y-154245137D01*
X102054863Y-154049249D01*
X100835770Y-153234677D01*
X111314794Y-153234677D01*
X111494820Y-153670372D01*
X111827875Y-154004009D01*
X112263255Y-154184794D01*
X112734677Y-154185206D01*
X113170372Y-154005180D01*
X113504009Y-153672125D01*
X113602605Y-153434677D01*
X117214794Y-153434677D01*
X117394820Y-153870372D01*
X117727875Y-154204009D01*
X118163255Y-154384794D01*
X118634677Y-154385206D01*
X119070372Y-154205180D01*
X119404009Y-153872125D01*
X119584794Y-153436745D01*
X119585206Y-152965323D01*
X119405180Y-152529628D01*
X119072125Y-152195991D01*
X118636745Y-152015206D01*
X118165323Y-152014794D01*
X117729628Y-152194820D01*
X117395991Y-152527875D01*
X117215206Y-152963255D01*
X117214794Y-153434677D01*
X113602605Y-153434677D01*
X113684794Y-153236745D01*
X113685206Y-152765323D01*
X113505180Y-152329628D01*
X113172125Y-151995991D01*
X112736745Y-151815206D01*
X112265323Y-151814794D01*
X111829628Y-151994820D01*
X111495991Y-152327875D01*
X111315206Y-152763255D01*
X111314794Y-153234677D01*
X100835770Y-153234677D01*
X99297264Y-152206681D01*
X99160424Y-152150000D01*
X99041323Y-152100666D01*
X96360000Y-151567318D01*
X96360000Y-148738000D01*
X105252600Y-148738000D01*
X105428438Y-149621999D01*
X105929183Y-150371417D01*
X106678601Y-150872162D01*
X107562600Y-151048000D01*
X107950173Y-150970907D01*
X157895000Y-150970907D01*
X157895000Y-151029093D01*
X158008039Y-151597378D01*
X158329946Y-152079147D01*
X158615578Y-152270000D01*
X158329946Y-152460853D01*
X158008039Y-152942622D01*
X157895000Y-153510907D01*
X157895000Y-153569093D01*
X158008039Y-154137378D01*
X158329946Y-154619147D01*
X158811715Y-154941054D01*
X159380000Y-155054093D01*
X159948285Y-154941054D01*
X160430054Y-154619147D01*
X160650000Y-154289974D01*
X160869946Y-154619147D01*
X161351715Y-154941054D01*
X161920000Y-155054093D01*
X162488285Y-154941054D01*
X162970054Y-154619147D01*
X163190000Y-154289974D01*
X163409946Y-154619147D01*
X163891715Y-154941054D01*
X164460000Y-155054093D01*
X165028285Y-154941054D01*
X165510054Y-154619147D01*
X165737702Y-154278447D01*
X165804817Y-154421358D01*
X166233076Y-154811645D01*
X166643110Y-154981476D01*
X166873000Y-154860155D01*
X166873000Y-153667000D01*
X167127000Y-153667000D01*
X167127000Y-154860155D01*
X167356890Y-154981476D01*
X167766924Y-154811645D01*
X168195183Y-154421358D01*
X168441486Y-153896892D01*
X168320819Y-153667000D01*
X167127000Y-153667000D01*
X166873000Y-153667000D01*
X166853000Y-153667000D01*
X166853000Y-153413000D01*
X166873000Y-153413000D01*
X166873000Y-153393000D01*
X167127000Y-153393000D01*
X167127000Y-153413000D01*
X168320819Y-153413000D01*
X168441486Y-153183108D01*
X168195183Y-152658642D01*
X167989496Y-152471192D01*
X168085317Y-152453162D01*
X168301441Y-152314090D01*
X168446431Y-152101890D01*
X168497440Y-151850000D01*
X168497440Y-150150000D01*
X168453162Y-149914683D01*
X168314090Y-149698559D01*
X168101890Y-149553569D01*
X167850000Y-149502560D01*
X166150000Y-149502560D01*
X165914683Y-149546838D01*
X165698559Y-149685910D01*
X165553569Y-149898110D01*
X165539914Y-149965541D01*
X165510054Y-149920853D01*
X165028285Y-149598946D01*
X164460000Y-149485907D01*
X163891715Y-149598946D01*
X163409946Y-149920853D01*
X163190000Y-150250026D01*
X162970054Y-149920853D01*
X162488285Y-149598946D01*
X161920000Y-149485907D01*
X161351715Y-149598946D01*
X160869946Y-149920853D01*
X160650000Y-150250026D01*
X160430054Y-149920853D01*
X159948285Y-149598946D01*
X159380000Y-149485907D01*
X158811715Y-149598946D01*
X158329946Y-149920853D01*
X158008039Y-150402622D01*
X157895000Y-150970907D01*
X107950173Y-150970907D01*
X108446599Y-150872162D01*
X109196017Y-150371417D01*
X109696762Y-149621999D01*
X109872600Y-148738000D01*
X175127400Y-148738000D01*
X175303238Y-149621999D01*
X175803983Y-150371417D01*
X176553401Y-150872162D01*
X177437400Y-151048000D01*
X178321399Y-150872162D01*
X179070817Y-150371417D01*
X179571562Y-149621999D01*
X179747400Y-148738000D01*
X179571562Y-147854001D01*
X179070817Y-147104583D01*
X178321399Y-146603838D01*
X177437400Y-146428000D01*
X176553401Y-146603838D01*
X175803983Y-147104583D01*
X175303238Y-147854001D01*
X175127400Y-148738000D01*
X109872600Y-148738000D01*
X109696762Y-147854001D01*
X109196017Y-147104583D01*
X108986927Y-146964873D01*
X142164812Y-146964873D01*
X142329646Y-147363800D01*
X142634595Y-147669282D01*
X143033233Y-147834811D01*
X143464873Y-147835188D01*
X143863800Y-147670354D01*
X144169282Y-147365405D01*
X144334811Y-146966767D01*
X144335188Y-146535127D01*
X144170354Y-146136200D01*
X143865405Y-145830718D01*
X143466767Y-145665189D01*
X143035127Y-145664812D01*
X142636200Y-145829646D01*
X142330718Y-146134595D01*
X142165189Y-146533233D01*
X142164812Y-146964873D01*
X108986927Y-146964873D01*
X108446599Y-146603838D01*
X107562600Y-146428000D01*
X106678601Y-146603838D01*
X105929183Y-147104583D01*
X105428438Y-147854001D01*
X105252600Y-148738000D01*
X96360000Y-148738000D01*
X96360000Y-141457745D01*
X99371861Y-141457745D01*
X99445995Y-141703864D01*
X99983223Y-141896965D01*
X100553454Y-141869778D01*
X100954005Y-141703864D01*
X101028139Y-141457745D01*
X100200000Y-140629605D01*
X99371861Y-141457745D01*
X96360000Y-141457745D01*
X96360000Y-140233223D01*
X98753035Y-140233223D01*
X98780222Y-140803454D01*
X98946136Y-141204005D01*
X99192255Y-141278139D01*
X100020395Y-140450000D01*
X100379605Y-140450000D01*
X101207745Y-141278139D01*
X101453864Y-141204005D01*
X101622735Y-140734187D01*
X106764752Y-140734187D01*
X106982757Y-141261800D01*
X107386077Y-141665824D01*
X107913309Y-141884750D01*
X108484187Y-141885248D01*
X109011800Y-141667243D01*
X109415824Y-141263923D01*
X109634750Y-140736691D01*
X109635248Y-140165813D01*
X109417243Y-139638200D01*
X109013923Y-139234176D01*
X108486691Y-139015250D01*
X107915813Y-139014752D01*
X107388200Y-139232757D01*
X106984176Y-139636077D01*
X106765250Y-140163309D01*
X106764752Y-140734187D01*
X101622735Y-140734187D01*
X101646965Y-140666777D01*
X101619778Y-140096546D01*
X101453864Y-139695995D01*
X101207745Y-139621861D01*
X100379605Y-140450000D01*
X100020395Y-140450000D01*
X99192255Y-139621861D01*
X98946136Y-139695995D01*
X98753035Y-140233223D01*
X96360000Y-140233223D01*
X96360000Y-139442255D01*
X99371861Y-139442255D01*
X100200000Y-140270395D01*
X101028139Y-139442255D01*
X100954005Y-139196136D01*
X100416777Y-139003035D01*
X99846546Y-139030222D01*
X99445995Y-139196136D01*
X99371861Y-139442255D01*
X96360000Y-139442255D01*
X96360000Y-135127000D01*
X118000000Y-135127000D01*
X118049410Y-135116994D01*
X118089803Y-135089803D01*
X126564733Y-126614873D01*
X147914812Y-126614873D01*
X148079646Y-127013800D01*
X148384595Y-127319282D01*
X148783233Y-127484811D01*
X149214873Y-127485188D01*
X149613800Y-127320354D01*
X149919282Y-127015405D01*
X150084811Y-126616767D01*
X150085188Y-126185127D01*
X149920354Y-125786200D01*
X149749326Y-125614873D01*
X150914812Y-125614873D01*
X151079646Y-126013800D01*
X151384595Y-126319282D01*
X151783233Y-126484811D01*
X152214873Y-126485188D01*
X152613800Y-126320354D01*
X152919282Y-126015405D01*
X153084811Y-125616767D01*
X153085188Y-125185127D01*
X152920354Y-124786200D01*
X152649501Y-124514873D01*
X156114812Y-124514873D01*
X156279646Y-124913800D01*
X156584595Y-125219282D01*
X156983233Y-125384811D01*
X157414873Y-125385188D01*
X157813800Y-125220354D01*
X158119282Y-124915405D01*
X158284811Y-124516767D01*
X158285188Y-124085127D01*
X158120354Y-123686200D01*
X157815405Y-123380718D01*
X157416767Y-123215189D01*
X156985127Y-123214812D01*
X156586200Y-123379646D01*
X156280718Y-123684595D01*
X156115189Y-124083233D01*
X156114812Y-124514873D01*
X152649501Y-124514873D01*
X152615405Y-124480718D01*
X152216767Y-124315189D01*
X151785127Y-124314812D01*
X151386200Y-124479646D01*
X151080718Y-124784595D01*
X150915189Y-125183233D01*
X150914812Y-125614873D01*
X149749326Y-125614873D01*
X149619522Y-125484843D01*
X150014873Y-125485188D01*
X150413800Y-125320354D01*
X150719282Y-125015405D01*
X150884811Y-124616767D01*
X150885188Y-124185127D01*
X150720354Y-123786200D01*
X150418409Y-123483727D01*
X150652532Y-123386989D01*
X150784595Y-123519282D01*
X151183233Y-123684811D01*
X151614873Y-123685188D01*
X152013800Y-123520354D01*
X152319282Y-123215405D01*
X152402550Y-123014873D01*
X154514812Y-123014873D01*
X154679646Y-123413800D01*
X154984595Y-123719282D01*
X155383233Y-123884811D01*
X155814873Y-123885188D01*
X156213800Y-123720354D01*
X156519282Y-123415405D01*
X156684811Y-123016767D01*
X156685188Y-122585127D01*
X156520354Y-122186200D01*
X156215405Y-121880718D01*
X155816767Y-121715189D01*
X155385127Y-121714812D01*
X154986200Y-121879646D01*
X154680718Y-122184595D01*
X154515189Y-122583233D01*
X154514812Y-123014873D01*
X152402550Y-123014873D01*
X152484811Y-122816767D01*
X152485188Y-122385127D01*
X152320354Y-121986200D01*
X152015405Y-121680718D01*
X151616767Y-121515189D01*
X151185127Y-121514812D01*
X150947468Y-121613011D01*
X150815405Y-121480718D01*
X150416767Y-121315189D01*
X149985127Y-121314812D01*
X149586200Y-121479646D01*
X149280718Y-121784595D01*
X149115189Y-122183233D01*
X149114812Y-122614873D01*
X149279646Y-123013800D01*
X149581591Y-123316273D01*
X149186200Y-123479646D01*
X148880718Y-123784595D01*
X148715189Y-124183233D01*
X148714812Y-124614873D01*
X148879646Y-125013800D01*
X149180478Y-125315157D01*
X148785127Y-125314812D01*
X148386200Y-125479646D01*
X148080718Y-125784595D01*
X147915189Y-126183233D01*
X147914812Y-126614873D01*
X126564733Y-126614873D01*
X129089803Y-124089803D01*
X129117666Y-124047789D01*
X129127000Y-124000000D01*
X129127000Y-120104873D01*
X155334812Y-120104873D01*
X155499646Y-120503800D01*
X155804595Y-120809282D01*
X156203233Y-120974811D01*
X156634873Y-120975188D01*
X157033800Y-120810354D01*
X157339282Y-120505405D01*
X157504811Y-120106767D01*
X157505188Y-119675127D01*
X157340354Y-119276200D01*
X157035405Y-118970718D01*
X156636767Y-118805189D01*
X156205127Y-118804812D01*
X155806200Y-118969646D01*
X155500718Y-119274595D01*
X155335189Y-119673233D01*
X155334812Y-120104873D01*
X129127000Y-120104873D01*
X129127000Y-118734677D01*
X132814794Y-118734677D01*
X132994820Y-119170372D01*
X133327875Y-119504009D01*
X133763255Y-119684794D01*
X134234677Y-119685206D01*
X134670372Y-119505180D01*
X135004009Y-119172125D01*
X135184794Y-118736745D01*
X135185206Y-118265323D01*
X135164361Y-118214873D01*
X141914812Y-118214873D01*
X142079646Y-118613800D01*
X142384595Y-118919282D01*
X142783233Y-119084811D01*
X143214873Y-119085188D01*
X143385047Y-119014873D01*
X150314812Y-119014873D01*
X150479646Y-119413800D01*
X150784595Y-119719282D01*
X151183233Y-119884811D01*
X151614873Y-119885188D01*
X152013800Y-119720354D01*
X152319282Y-119415405D01*
X152337332Y-119371936D01*
X152384595Y-119419282D01*
X152783233Y-119584811D01*
X153214873Y-119585188D01*
X153613800Y-119420354D01*
X153919282Y-119115405D01*
X154084811Y-118716767D01*
X154085188Y-118285127D01*
X153920354Y-117886200D01*
X153615405Y-117580718D01*
X153216767Y-117415189D01*
X152884813Y-117414899D01*
X152885188Y-116985127D01*
X152720354Y-116586200D01*
X152599239Y-116464873D01*
X152914812Y-116464873D01*
X153079646Y-116863800D01*
X153384595Y-117169282D01*
X153783233Y-117334811D01*
X154214873Y-117335188D01*
X154613800Y-117170354D01*
X154919282Y-116865405D01*
X155084811Y-116466767D01*
X155085188Y-116035127D01*
X154920354Y-115636200D01*
X154615405Y-115330718D01*
X154216767Y-115165189D01*
X153785127Y-115164812D01*
X153386200Y-115329646D01*
X153080718Y-115634595D01*
X152915189Y-116033233D01*
X152914812Y-116464873D01*
X152599239Y-116464873D01*
X152415405Y-116280718D01*
X152016767Y-116115189D01*
X151585127Y-116114812D01*
X151186200Y-116279646D01*
X150880718Y-116584595D01*
X150715189Y-116983233D01*
X150714812Y-117414873D01*
X150879646Y-117813800D01*
X150898894Y-117833082D01*
X150786200Y-117879646D01*
X150480718Y-118184595D01*
X150315189Y-118583233D01*
X150314812Y-119014873D01*
X143385047Y-119014873D01*
X143613800Y-118920354D01*
X143919282Y-118615405D01*
X144084811Y-118216767D01*
X144085188Y-117785127D01*
X143920354Y-117386200D01*
X143615405Y-117080718D01*
X143216767Y-116915189D01*
X142785127Y-116914812D01*
X142386200Y-117079646D01*
X142080718Y-117384595D01*
X141915189Y-117783233D01*
X141914812Y-118214873D01*
X135164361Y-118214873D01*
X135005180Y-117829628D01*
X134672125Y-117495991D01*
X134236745Y-117315206D01*
X133765323Y-117314794D01*
X133329628Y-117494820D01*
X132995991Y-117827875D01*
X132815206Y-118263255D01*
X132814794Y-118734677D01*
X129127000Y-118734677D01*
X129127000Y-115614873D01*
X149314812Y-115614873D01*
X149479646Y-116013800D01*
X149784595Y-116319282D01*
X150183233Y-116484811D01*
X150614873Y-116485188D01*
X151013800Y-116320354D01*
X151319282Y-116015405D01*
X151484811Y-115616767D01*
X151485188Y-115185127D01*
X151320354Y-114786200D01*
X151218162Y-114683829D01*
X151613800Y-114520354D01*
X151919282Y-114215405D01*
X152084811Y-113816767D01*
X152084987Y-113614873D01*
X153114812Y-113614873D01*
X153279646Y-114013800D01*
X153584595Y-114319282D01*
X153983233Y-114484811D01*
X154414873Y-114485188D01*
X154813800Y-114320354D01*
X155119282Y-114015405D01*
X155185940Y-113854873D01*
X157084812Y-113854873D01*
X157249646Y-114253800D01*
X157554595Y-114559282D01*
X157953233Y-114724811D01*
X158384873Y-114725188D01*
X158783800Y-114560354D01*
X159089282Y-114255405D01*
X159254811Y-113856767D01*
X159255188Y-113425127D01*
X159090354Y-113026200D01*
X158785405Y-112720718D01*
X158386767Y-112555189D01*
X157955127Y-112554812D01*
X157556200Y-112719646D01*
X157250718Y-113024595D01*
X157085189Y-113423233D01*
X157084812Y-113854873D01*
X155185940Y-113854873D01*
X155284811Y-113616767D01*
X155285188Y-113185127D01*
X155120354Y-112786200D01*
X154815405Y-112480718D01*
X154416767Y-112315189D01*
X153985127Y-112314812D01*
X153586200Y-112479646D01*
X153280718Y-112784595D01*
X153115189Y-113183233D01*
X153114812Y-113614873D01*
X152084987Y-113614873D01*
X152085188Y-113385127D01*
X151920354Y-112986200D01*
X151615405Y-112680718D01*
X151216767Y-112515189D01*
X150785127Y-112514812D01*
X150386200Y-112679646D01*
X150080718Y-112984595D01*
X149915189Y-113383233D01*
X149914812Y-113814873D01*
X150079646Y-114213800D01*
X150181838Y-114316171D01*
X149786200Y-114479646D01*
X149480718Y-114784595D01*
X149315189Y-115183233D01*
X149314812Y-115614873D01*
X129127000Y-115614873D01*
X129127000Y-111604873D01*
X146834812Y-111604873D01*
X146999646Y-112003800D01*
X147304595Y-112309282D01*
X147703233Y-112474811D01*
X148134873Y-112475188D01*
X148533800Y-112310354D01*
X148839282Y-112005405D01*
X149004811Y-111606767D01*
X149005188Y-111175127D01*
X148840354Y-110776200D01*
X148535405Y-110470718D01*
X148136767Y-110305189D01*
X147705127Y-110304812D01*
X147306200Y-110469646D01*
X147000718Y-110774595D01*
X146835189Y-111173233D01*
X146834812Y-111604873D01*
X129127000Y-111604873D01*
X129127000Y-110052606D01*
X129194929Y-109984677D01*
X139314794Y-109984677D01*
X139494820Y-110420372D01*
X139827875Y-110754009D01*
X140263255Y-110934794D01*
X140734677Y-110935206D01*
X141170372Y-110755180D01*
X141504009Y-110422125D01*
X141684794Y-109986745D01*
X141684909Y-109854873D01*
X150084812Y-109854873D01*
X150249646Y-110253800D01*
X150554595Y-110559282D01*
X150953233Y-110724811D01*
X151384873Y-110725188D01*
X151783800Y-110560354D01*
X152089282Y-110255405D01*
X152151788Y-110104873D01*
X152334812Y-110104873D01*
X152499646Y-110503800D01*
X152804595Y-110809282D01*
X153203233Y-110974811D01*
X153634873Y-110975188D01*
X154033800Y-110810354D01*
X154339282Y-110505405D01*
X154504811Y-110106767D01*
X154505188Y-109675127D01*
X154340354Y-109276200D01*
X154035405Y-108970718D01*
X153636767Y-108805189D01*
X153205127Y-108804812D01*
X152806200Y-108969646D01*
X152500718Y-109274595D01*
X152335189Y-109673233D01*
X152334812Y-110104873D01*
X152151788Y-110104873D01*
X152254811Y-109856767D01*
X152255188Y-109425127D01*
X152090354Y-109026200D01*
X151785405Y-108720718D01*
X151386767Y-108555189D01*
X150955127Y-108554812D01*
X150556200Y-108719646D01*
X150250718Y-109024595D01*
X150085189Y-109423233D01*
X150084812Y-109854873D01*
X141684909Y-109854873D01*
X141685206Y-109515323D01*
X141505180Y-109079628D01*
X141172125Y-108745991D01*
X140736745Y-108565206D01*
X140265323Y-108564794D01*
X139829628Y-108744820D01*
X139495991Y-109077875D01*
X139315206Y-109513255D01*
X139314794Y-109984677D01*
X129194929Y-109984677D01*
X132364733Y-106814873D01*
X152314812Y-106814873D01*
X152479646Y-107213800D01*
X152784595Y-107519282D01*
X153135524Y-107665001D01*
X153279646Y-108013800D01*
X153584595Y-108319282D01*
X153983233Y-108484811D01*
X154414873Y-108485188D01*
X154755943Y-108344260D01*
X154615189Y-108683233D01*
X154614812Y-109114873D01*
X154779646Y-109513800D01*
X155084595Y-109819282D01*
X155129341Y-109837862D01*
X154786200Y-109979646D01*
X154480718Y-110284595D01*
X154315189Y-110683233D01*
X154314812Y-111114873D01*
X154479646Y-111513800D01*
X154784595Y-111819282D01*
X155183233Y-111984811D01*
X155415013Y-111985013D01*
X155414812Y-112214873D01*
X155579646Y-112613800D01*
X155884595Y-112919282D01*
X156283233Y-113084811D01*
X156714873Y-113085188D01*
X157113800Y-112920354D01*
X157419282Y-112615405D01*
X157584811Y-112216767D01*
X157584812Y-112214873D01*
X166414812Y-112214873D01*
X166579646Y-112613800D01*
X166884595Y-112919282D01*
X167283233Y-113084811D01*
X167714873Y-113085188D01*
X168113800Y-112920354D01*
X168419282Y-112615405D01*
X168584811Y-112216767D01*
X168585188Y-111785127D01*
X168420354Y-111386200D01*
X168115405Y-111080718D01*
X167716767Y-110915189D01*
X167285127Y-110914812D01*
X166886200Y-111079646D01*
X166580718Y-111384595D01*
X166415189Y-111783233D01*
X166414812Y-112214873D01*
X157584812Y-112214873D01*
X157585188Y-111785127D01*
X157420354Y-111386200D01*
X157115405Y-111080718D01*
X156716767Y-110915189D01*
X156484987Y-110914987D01*
X156485188Y-110685127D01*
X156320354Y-110286200D01*
X156015405Y-109980718D01*
X155977246Y-109964873D01*
X168914812Y-109964873D01*
X169079646Y-110363800D01*
X169384595Y-110669282D01*
X169783233Y-110834811D01*
X170214873Y-110835188D01*
X170613800Y-110670354D01*
X170919282Y-110365405D01*
X171084811Y-109966767D01*
X171085188Y-109535127D01*
X170920354Y-109136200D01*
X170615405Y-108830718D01*
X170216767Y-108665189D01*
X169785127Y-108664812D01*
X169386200Y-108829646D01*
X169080718Y-109134595D01*
X168915189Y-109533233D01*
X168914812Y-109964873D01*
X155977246Y-109964873D01*
X155970659Y-109962138D01*
X156313800Y-109820354D01*
X156619282Y-109515405D01*
X156631968Y-109484854D01*
X157014873Y-109485188D01*
X157413800Y-109320354D01*
X157512099Y-109222226D01*
X157783233Y-109334811D01*
X158214873Y-109335188D01*
X158613800Y-109170354D01*
X158919282Y-108865405D01*
X159084811Y-108466767D01*
X159085031Y-108214873D01*
X161414812Y-108214873D01*
X161579646Y-108613800D01*
X161884595Y-108919282D01*
X162283233Y-109084811D01*
X162714873Y-109085188D01*
X163113800Y-108920354D01*
X163419282Y-108615405D01*
X163584811Y-108216767D01*
X163585188Y-107785127D01*
X163420354Y-107386200D01*
X163115405Y-107080718D01*
X162716767Y-106915189D01*
X162285127Y-106914812D01*
X161886200Y-107079646D01*
X161580718Y-107384595D01*
X161415189Y-107783233D01*
X161414812Y-108214873D01*
X159085031Y-108214873D01*
X159085188Y-108035127D01*
X158920354Y-107636200D01*
X158615405Y-107330718D01*
X158216767Y-107165189D01*
X157785127Y-107164812D01*
X157386200Y-107329646D01*
X157287901Y-107427774D01*
X157016767Y-107315189D01*
X156585127Y-107314812D01*
X156186200Y-107479646D01*
X155880718Y-107784595D01*
X155868032Y-107815146D01*
X155485127Y-107814812D01*
X155144057Y-107955740D01*
X155284811Y-107616767D01*
X155285188Y-107185127D01*
X155120354Y-106786200D01*
X154815405Y-106480718D01*
X154464476Y-106334999D01*
X154320354Y-105986200D01*
X154015405Y-105680718D01*
X153616767Y-105515189D01*
X153185127Y-105514812D01*
X152786200Y-105679646D01*
X152480718Y-105984595D01*
X152315189Y-106383233D01*
X152314812Y-106814873D01*
X132364733Y-106814873D01*
X136064733Y-103114873D01*
X163314812Y-103114873D01*
X163479646Y-103513800D01*
X163784595Y-103819282D01*
X164183233Y-103984811D01*
X164614873Y-103985188D01*
X165013800Y-103820354D01*
X165319282Y-103515405D01*
X165484811Y-103116767D01*
X165485188Y-102685127D01*
X165320354Y-102286200D01*
X165015405Y-101980718D01*
X164616767Y-101815189D01*
X164185127Y-101814812D01*
X163786200Y-101979646D01*
X163480718Y-102284595D01*
X163315189Y-102683233D01*
X163314812Y-103114873D01*
X136064733Y-103114873D01*
X142089803Y-97089803D01*
X142117666Y-97047789D01*
X142127000Y-97000000D01*
X142127000Y-95744677D01*
X151894794Y-95744677D01*
X152074820Y-96180372D01*
X152407875Y-96514009D01*
X152843255Y-96694794D01*
X153314677Y-96695206D01*
X153750372Y-96515180D01*
X154084009Y-96182125D01*
X154264794Y-95746745D01*
X154265206Y-95275323D01*
X154085180Y-94839628D01*
X153752125Y-94505991D01*
X153316745Y-94325206D01*
X152845323Y-94324794D01*
X152409628Y-94504820D01*
X152075991Y-94837875D01*
X151895206Y-95273255D01*
X151894794Y-95744677D01*
X142127000Y-95744677D01*
X142127000Y-92127000D01*
X174436147Y-92127000D01*
X174721553Y-92317702D01*
X174721553Y-92317702D01*
G37*
X174721553Y-92317702D02*
X174578642Y-92384817D01*
X174188355Y-92813076D01*
X174018524Y-93223110D01*
X174139845Y-93453000D01*
X175333000Y-93453000D01*
X175333000Y-93433000D01*
X175587000Y-93433000D01*
X175587000Y-93453000D01*
X175607000Y-93453000D01*
X175607000Y-93707000D01*
X175587000Y-93707000D01*
X175587000Y-93727000D01*
X175333000Y-93727000D01*
X175333000Y-93707000D01*
X174139845Y-93707000D01*
X174018524Y-93936890D01*
X174188355Y-94346924D01*
X174578642Y-94775183D01*
X174721553Y-94842298D01*
X174380853Y-95069946D01*
X174058946Y-95551715D01*
X173945907Y-96120000D01*
X174058946Y-96688285D01*
X174380853Y-97170054D01*
X174710026Y-97390000D01*
X174380853Y-97609946D01*
X174058946Y-98091715D01*
X173945907Y-98660000D01*
X174058946Y-99228285D01*
X174380853Y-99710054D01*
X174710026Y-99930000D01*
X174380853Y-100149946D01*
X174058946Y-100631715D01*
X173945907Y-101200000D01*
X174058946Y-101768285D01*
X174380853Y-102250054D01*
X174721553Y-102477702D01*
X174578642Y-102544817D01*
X174188355Y-102973076D01*
X174018524Y-103383110D01*
X174139845Y-103613000D01*
X175333000Y-103613000D01*
X175333000Y-103593000D01*
X175587000Y-103593000D01*
X175587000Y-103613000D01*
X175607000Y-103613000D01*
X175607000Y-103867000D01*
X175587000Y-103867000D01*
X175587000Y-103887000D01*
X175333000Y-103887000D01*
X175333000Y-103867000D01*
X174139845Y-103867000D01*
X174018524Y-104096890D01*
X174188355Y-104506924D01*
X174578642Y-104935183D01*
X174721553Y-105002298D01*
X174380853Y-105229946D01*
X174058946Y-105711715D01*
X173945907Y-106280000D01*
X174058946Y-106848285D01*
X174380853Y-107330054D01*
X174710026Y-107550000D01*
X174380853Y-107769946D01*
X174058946Y-108251715D01*
X173945907Y-108820000D01*
X174058946Y-109388285D01*
X174380853Y-109870054D01*
X174721553Y-110097702D01*
X174578642Y-110164817D01*
X174188355Y-110593076D01*
X174018524Y-111003110D01*
X174139845Y-111233000D01*
X175333000Y-111233000D01*
X175333000Y-111213000D01*
X175587000Y-111213000D01*
X175587000Y-111233000D01*
X175607000Y-111233000D01*
X175607000Y-111487000D01*
X175587000Y-111487000D01*
X175587000Y-111507000D01*
X175333000Y-111507000D01*
X175333000Y-111487000D01*
X174139845Y-111487000D01*
X174018524Y-111716890D01*
X174188355Y-112126924D01*
X174578642Y-112555183D01*
X174721553Y-112622298D01*
X174380853Y-112849946D01*
X174058946Y-113331715D01*
X173945907Y-113900000D01*
X174058946Y-114468285D01*
X174380853Y-114950054D01*
X174710026Y-115170000D01*
X174380853Y-115389946D01*
X174058946Y-115871715D01*
X173945907Y-116440000D01*
X174058946Y-117008285D01*
X174380853Y-117490054D01*
X174710026Y-117710000D01*
X174380853Y-117929946D01*
X174058946Y-118411715D01*
X173945907Y-118980000D01*
X174058946Y-119548285D01*
X174380853Y-120030054D01*
X174710026Y-120250000D01*
X174380853Y-120469946D01*
X174058946Y-120951715D01*
X173945907Y-121520000D01*
X174058946Y-122088285D01*
X174380853Y-122570054D01*
X174721553Y-122797702D01*
X174578642Y-122864817D01*
X174188355Y-123293076D01*
X174018524Y-123703110D01*
X174139845Y-123933000D01*
X175333000Y-123933000D01*
X175333000Y-123913000D01*
X175587000Y-123913000D01*
X175587000Y-123933000D01*
X175607000Y-123933000D01*
X175607000Y-124187000D01*
X175587000Y-124187000D01*
X175587000Y-124207000D01*
X175333000Y-124207000D01*
X175333000Y-124187000D01*
X174139845Y-124187000D01*
X174018524Y-124416890D01*
X174188355Y-124826924D01*
X174578642Y-125255183D01*
X174721553Y-125322298D01*
X174380853Y-125549946D01*
X174058946Y-126031715D01*
X173945907Y-126600000D01*
X174058946Y-127168285D01*
X174380853Y-127650054D01*
X174721553Y-127877702D01*
X174578642Y-127944817D01*
X174188355Y-128373076D01*
X174018524Y-128783110D01*
X174139845Y-129013000D01*
X175333000Y-129013000D01*
X175333000Y-128993000D01*
X175587000Y-128993000D01*
X175587000Y-129013000D01*
X175607000Y-129013000D01*
X175607000Y-129267000D01*
X175587000Y-129267000D01*
X175587000Y-129287000D01*
X175333000Y-129287000D01*
X175333000Y-129267000D01*
X174139845Y-129267000D01*
X174018524Y-129496890D01*
X174188355Y-129906924D01*
X174578642Y-130335183D01*
X174721553Y-130402298D01*
X174380853Y-130629946D01*
X174058946Y-131111715D01*
X173945907Y-131680000D01*
X174058946Y-132248285D01*
X174380853Y-132730054D01*
X174710026Y-132950000D01*
X174380853Y-133169946D01*
X174058946Y-133651715D01*
X173945907Y-134220000D01*
X174058946Y-134788285D01*
X174380853Y-135270054D01*
X174710026Y-135490000D01*
X174380853Y-135709946D01*
X174058946Y-136191715D01*
X173945907Y-136760000D01*
X174058946Y-137328285D01*
X174380853Y-137810054D01*
X174862622Y-138131961D01*
X175430907Y-138245000D01*
X175489093Y-138245000D01*
X176057378Y-138131961D01*
X176539147Y-137810054D01*
X176728345Y-137526899D01*
X176728355Y-137526924D01*
X177118642Y-137955183D01*
X177643108Y-138201486D01*
X177873000Y-138080819D01*
X177873000Y-136887000D01*
X178127000Y-136887000D01*
X178127000Y-138080819D01*
X178356892Y-138201486D01*
X178881358Y-137955183D01*
X179271645Y-137526924D01*
X179441476Y-137116890D01*
X179320155Y-136887000D01*
X178127000Y-136887000D01*
X177873000Y-136887000D01*
X177853000Y-136887000D01*
X177853000Y-136633000D01*
X177873000Y-136633000D01*
X177873000Y-136613000D01*
X178127000Y-136613000D01*
X178127000Y-136633000D01*
X179320155Y-136633000D01*
X179441476Y-136403110D01*
X179271645Y-135993076D01*
X178881358Y-135564817D01*
X178738447Y-135497702D01*
X179079147Y-135270054D01*
X179401054Y-134788285D01*
X179514093Y-134220000D01*
X179401054Y-133651715D01*
X179079147Y-133169946D01*
X178749974Y-132950000D01*
X179079147Y-132730054D01*
X179401054Y-132248285D01*
X179514093Y-131680000D01*
X179401054Y-131111715D01*
X179079147Y-130629946D01*
X178749974Y-130410000D01*
X179079147Y-130190054D01*
X179401054Y-129708285D01*
X179514093Y-129140000D01*
X179401054Y-128571715D01*
X179079147Y-128089946D01*
X178749974Y-127870000D01*
X179079147Y-127650054D01*
X179401054Y-127168285D01*
X179514093Y-126600000D01*
X179401054Y-126031715D01*
X179079147Y-125549946D01*
X178749974Y-125330000D01*
X179079147Y-125110054D01*
X179401054Y-124628285D01*
X179514093Y-124060000D01*
X179401054Y-123491715D01*
X179079147Y-123009946D01*
X178749974Y-122790000D01*
X179079147Y-122570054D01*
X179401054Y-122088285D01*
X179514093Y-121520000D01*
X179401054Y-120951715D01*
X179079147Y-120469946D01*
X178738447Y-120242298D01*
X178881358Y-120175183D01*
X179271645Y-119746924D01*
X179441476Y-119336890D01*
X179320155Y-119107000D01*
X178127000Y-119107000D01*
X178127000Y-119127000D01*
X177873000Y-119127000D01*
X177873000Y-119107000D01*
X177853000Y-119107000D01*
X177853000Y-118853000D01*
X177873000Y-118853000D01*
X177873000Y-118833000D01*
X178127000Y-118833000D01*
X178127000Y-118853000D01*
X179320155Y-118853000D01*
X179441476Y-118623110D01*
X179271645Y-118213076D01*
X178881358Y-117784817D01*
X178738447Y-117717702D01*
X179079147Y-117490054D01*
X179401054Y-117008285D01*
X179514093Y-116440000D01*
X179401054Y-115871715D01*
X179079147Y-115389946D01*
X178749974Y-115170000D01*
X179079147Y-114950054D01*
X179401054Y-114468285D01*
X179514093Y-113900000D01*
X179401054Y-113331715D01*
X179079147Y-112849946D01*
X178749974Y-112630000D01*
X179079147Y-112410054D01*
X179401054Y-111928285D01*
X179514093Y-111360000D01*
X179401054Y-110791715D01*
X179079147Y-110309946D01*
X178749974Y-110090000D01*
X179079147Y-109870054D01*
X179401054Y-109388285D01*
X179514093Y-108820000D01*
X179401054Y-108251715D01*
X179079147Y-107769946D01*
X178749974Y-107550000D01*
X179079147Y-107330054D01*
X179401054Y-106848285D01*
X179514093Y-106280000D01*
X179401054Y-105711715D01*
X179079147Y-105229946D01*
X178749974Y-105010000D01*
X179079147Y-104790054D01*
X179401054Y-104308285D01*
X179514093Y-103740000D01*
X179401054Y-103171715D01*
X179079147Y-102689946D01*
X178749974Y-102470000D01*
X179079147Y-102250054D01*
X179401054Y-101768285D01*
X179514093Y-101200000D01*
X179401054Y-100631715D01*
X179079147Y-100149946D01*
X178738447Y-99922298D01*
X178881358Y-99855183D01*
X179271645Y-99426924D01*
X179441476Y-99016890D01*
X179320155Y-98787000D01*
X178127000Y-98787000D01*
X178127000Y-98807000D01*
X177873000Y-98807000D01*
X177873000Y-98787000D01*
X177853000Y-98787000D01*
X177853000Y-98533000D01*
X177873000Y-98533000D01*
X177873000Y-98513000D01*
X178127000Y-98513000D01*
X178127000Y-98533000D01*
X179320155Y-98533000D01*
X179441476Y-98303110D01*
X179271645Y-97893076D01*
X178881358Y-97464817D01*
X178738447Y-97397702D01*
X179079147Y-97170054D01*
X179401054Y-96688285D01*
X179514093Y-96120000D01*
X179401054Y-95551715D01*
X179079147Y-95069946D01*
X178749974Y-94850000D01*
X179079147Y-94630054D01*
X179401054Y-94148285D01*
X179514093Y-93580000D01*
X179401054Y-93011715D01*
X179079147Y-92529946D01*
X178749974Y-92310000D01*
X179023853Y-92127000D01*
X181390000Y-92127000D01*
X181390000Y-144150000D01*
X181444046Y-144421705D01*
X181597954Y-144652046D01*
X181828295Y-144805954D01*
X182100000Y-144860000D01*
X188640000Y-144860000D01*
X188640000Y-151567318D01*
X185958677Y-152100666D01*
X185866262Y-152138946D01*
X185702736Y-152206680D01*
X182945137Y-154049249D01*
X182749249Y-154245137D01*
X180906681Y-157002736D01*
X180906681Y-157002737D01*
X180800666Y-157258677D01*
X180267318Y-159940000D01*
X104732682Y-159940000D01*
X104199334Y-157258677D01*
X104146326Y-157130706D01*
X104093320Y-157002736D01*
X102993603Y-155356892D01*
X122938514Y-155356892D01*
X123184817Y-155881358D01*
X123613076Y-156271645D01*
X124023110Y-156441476D01*
X124253000Y-156320155D01*
X124253000Y-155127000D01*
X124507000Y-155127000D01*
X124507000Y-156320155D01*
X124736890Y-156441476D01*
X125146924Y-156271645D01*
X125575183Y-155881358D01*
X125650000Y-155722046D01*
X125724817Y-155881358D01*
X126153076Y-156271645D01*
X126563110Y-156441476D01*
X126793000Y-156320155D01*
X126793000Y-155127000D01*
X124507000Y-155127000D01*
X124253000Y-155127000D01*
X123059181Y-155127000D01*
X122938514Y-155356892D01*
X102993603Y-155356892D01*
X102516668Y-154643108D01*
X122938514Y-154643108D01*
X123059181Y-154873000D01*
X124253000Y-154873000D01*
X124253000Y-153679845D01*
X124507000Y-153679845D01*
X124507000Y-154873000D01*
X126793000Y-154873000D01*
X126793000Y-153679845D01*
X127047000Y-153679845D01*
X127047000Y-154873000D01*
X127067000Y-154873000D01*
X127067000Y-155127000D01*
X127047000Y-155127000D01*
X127047000Y-156320155D01*
X127276890Y-156441476D01*
X127686924Y-156271645D01*
X128115183Y-155881358D01*
X128182298Y-155738447D01*
X128409946Y-156079147D01*
X128891715Y-156401054D01*
X129460000Y-156514093D01*
X130028285Y-156401054D01*
X130510054Y-156079147D01*
X130537850Y-156037548D01*
X130546838Y-156085317D01*
X130685910Y-156301441D01*
X130898110Y-156446431D01*
X131150000Y-156497440D01*
X132850000Y-156497440D01*
X133085317Y-156453162D01*
X133301441Y-156314090D01*
X133446431Y-156101890D01*
X133497440Y-155850000D01*
X133497440Y-154150000D01*
X133453162Y-153914683D01*
X133314090Y-153698559D01*
X133101890Y-153553569D01*
X132850000Y-153502560D01*
X131150000Y-153502560D01*
X130914683Y-153546838D01*
X130698559Y-153685910D01*
X130553569Y-153898110D01*
X130539914Y-153965541D01*
X130510054Y-153920853D01*
X130028285Y-153598946D01*
X129460000Y-153485907D01*
X128891715Y-153598946D01*
X128409946Y-153920853D01*
X128182298Y-154261553D01*
X128115183Y-154118642D01*
X127686924Y-153728355D01*
X127276890Y-153558524D01*
X127047000Y-153679845D01*
X126793000Y-153679845D01*
X126563110Y-153558524D01*
X126153076Y-153728355D01*
X125724817Y-154118642D01*
X125650000Y-154277954D01*
X125575183Y-154118642D01*
X125146924Y-153728355D01*
X124736890Y-153558524D01*
X124507000Y-153679845D01*
X124253000Y-153679845D01*
X124023110Y-153558524D01*
X123613076Y-153728355D01*
X123184817Y-154118642D01*
X122938514Y-154643108D01*
X102516668Y-154643108D01*
X102250751Y-154245137D01*
X102054863Y-154049249D01*
X100835770Y-153234677D01*
X111314794Y-153234677D01*
X111494820Y-153670372D01*
X111827875Y-154004009D01*
X112263255Y-154184794D01*
X112734677Y-154185206D01*
X113170372Y-154005180D01*
X113504009Y-153672125D01*
X113602605Y-153434677D01*
X117214794Y-153434677D01*
X117394820Y-153870372D01*
X117727875Y-154204009D01*
X118163255Y-154384794D01*
X118634677Y-154385206D01*
X119070372Y-154205180D01*
X119404009Y-153872125D01*
X119584794Y-153436745D01*
X119585206Y-152965323D01*
X119405180Y-152529628D01*
X119072125Y-152195991D01*
X118636745Y-152015206D01*
X118165323Y-152014794D01*
X117729628Y-152194820D01*
X117395991Y-152527875D01*
X117215206Y-152963255D01*
X117214794Y-153434677D01*
X113602605Y-153434677D01*
X113684794Y-153236745D01*
X113685206Y-152765323D01*
X113505180Y-152329628D01*
X113172125Y-151995991D01*
X112736745Y-151815206D01*
X112265323Y-151814794D01*
X111829628Y-151994820D01*
X111495991Y-152327875D01*
X111315206Y-152763255D01*
X111314794Y-153234677D01*
X100835770Y-153234677D01*
X99297264Y-152206681D01*
X99160424Y-152150000D01*
X99041323Y-152100666D01*
X96360000Y-151567318D01*
X96360000Y-148738000D01*
X105252600Y-148738000D01*
X105428438Y-149621999D01*
X105929183Y-150371417D01*
X106678601Y-150872162D01*
X107562600Y-151048000D01*
X107950173Y-150970907D01*
X157895000Y-150970907D01*
X157895000Y-151029093D01*
X158008039Y-151597378D01*
X158329946Y-152079147D01*
X158615578Y-152270000D01*
X158329946Y-152460853D01*
X158008039Y-152942622D01*
X157895000Y-153510907D01*
X157895000Y-153569093D01*
X158008039Y-154137378D01*
X158329946Y-154619147D01*
X158811715Y-154941054D01*
X159380000Y-155054093D01*
X159948285Y-154941054D01*
X160430054Y-154619147D01*
X160650000Y-154289974D01*
X160869946Y-154619147D01*
X161351715Y-154941054D01*
X161920000Y-155054093D01*
X162488285Y-154941054D01*
X162970054Y-154619147D01*
X163190000Y-154289974D01*
X163409946Y-154619147D01*
X163891715Y-154941054D01*
X164460000Y-155054093D01*
X165028285Y-154941054D01*
X165510054Y-154619147D01*
X165737702Y-154278447D01*
X165804817Y-154421358D01*
X166233076Y-154811645D01*
X166643110Y-154981476D01*
X166873000Y-154860155D01*
X166873000Y-153667000D01*
X167127000Y-153667000D01*
X167127000Y-154860155D01*
X167356890Y-154981476D01*
X167766924Y-154811645D01*
X168195183Y-154421358D01*
X168441486Y-153896892D01*
X168320819Y-153667000D01*
X167127000Y-153667000D01*
X166873000Y-153667000D01*
X166853000Y-153667000D01*
X166853000Y-153413000D01*
X166873000Y-153413000D01*
X166873000Y-153393000D01*
X167127000Y-153393000D01*
X167127000Y-153413000D01*
X168320819Y-153413000D01*
X168441486Y-153183108D01*
X168195183Y-152658642D01*
X167989496Y-152471192D01*
X168085317Y-152453162D01*
X168301441Y-152314090D01*
X168446431Y-152101890D01*
X168497440Y-151850000D01*
X168497440Y-150150000D01*
X168453162Y-149914683D01*
X168314090Y-149698559D01*
X168101890Y-149553569D01*
X167850000Y-149502560D01*
X166150000Y-149502560D01*
X165914683Y-149546838D01*
X165698559Y-149685910D01*
X165553569Y-149898110D01*
X165539914Y-149965541D01*
X165510054Y-149920853D01*
X165028285Y-149598946D01*
X164460000Y-149485907D01*
X163891715Y-149598946D01*
X163409946Y-149920853D01*
X163190000Y-150250026D01*
X162970054Y-149920853D01*
X162488285Y-149598946D01*
X161920000Y-149485907D01*
X161351715Y-149598946D01*
X160869946Y-149920853D01*
X160650000Y-150250026D01*
X160430054Y-149920853D01*
X159948285Y-149598946D01*
X159380000Y-149485907D01*
X158811715Y-149598946D01*
X158329946Y-149920853D01*
X158008039Y-150402622D01*
X157895000Y-150970907D01*
X107950173Y-150970907D01*
X108446599Y-150872162D01*
X109196017Y-150371417D01*
X109696762Y-149621999D01*
X109872600Y-148738000D01*
X175127400Y-148738000D01*
X175303238Y-149621999D01*
X175803983Y-150371417D01*
X176553401Y-150872162D01*
X177437400Y-151048000D01*
X178321399Y-150872162D01*
X179070817Y-150371417D01*
X179571562Y-149621999D01*
X179747400Y-148738000D01*
X179571562Y-147854001D01*
X179070817Y-147104583D01*
X178321399Y-146603838D01*
X177437400Y-146428000D01*
X176553401Y-146603838D01*
X175803983Y-147104583D01*
X175303238Y-147854001D01*
X175127400Y-148738000D01*
X109872600Y-148738000D01*
X109696762Y-147854001D01*
X109196017Y-147104583D01*
X108986927Y-146964873D01*
X142164812Y-146964873D01*
X142329646Y-147363800D01*
X142634595Y-147669282D01*
X143033233Y-147834811D01*
X143464873Y-147835188D01*
X143863800Y-147670354D01*
X144169282Y-147365405D01*
X144334811Y-146966767D01*
X144335188Y-146535127D01*
X144170354Y-146136200D01*
X143865405Y-145830718D01*
X143466767Y-145665189D01*
X143035127Y-145664812D01*
X142636200Y-145829646D01*
X142330718Y-146134595D01*
X142165189Y-146533233D01*
X142164812Y-146964873D01*
X108986927Y-146964873D01*
X108446599Y-146603838D01*
X107562600Y-146428000D01*
X106678601Y-146603838D01*
X105929183Y-147104583D01*
X105428438Y-147854001D01*
X105252600Y-148738000D01*
X96360000Y-148738000D01*
X96360000Y-141457745D01*
X99371861Y-141457745D01*
X99445995Y-141703864D01*
X99983223Y-141896965D01*
X100553454Y-141869778D01*
X100954005Y-141703864D01*
X101028139Y-141457745D01*
X100200000Y-140629605D01*
X99371861Y-141457745D01*
X96360000Y-141457745D01*
X96360000Y-140233223D01*
X98753035Y-140233223D01*
X98780222Y-140803454D01*
X98946136Y-141204005D01*
X99192255Y-141278139D01*
X100020395Y-140450000D01*
X100379605Y-140450000D01*
X101207745Y-141278139D01*
X101453864Y-141204005D01*
X101622735Y-140734187D01*
X106764752Y-140734187D01*
X106982757Y-141261800D01*
X107386077Y-141665824D01*
X107913309Y-141884750D01*
X108484187Y-141885248D01*
X109011800Y-141667243D01*
X109415824Y-141263923D01*
X109634750Y-140736691D01*
X109635248Y-140165813D01*
X109417243Y-139638200D01*
X109013923Y-139234176D01*
X108486691Y-139015250D01*
X107915813Y-139014752D01*
X107388200Y-139232757D01*
X106984176Y-139636077D01*
X106765250Y-140163309D01*
X106764752Y-140734187D01*
X101622735Y-140734187D01*
X101646965Y-140666777D01*
X101619778Y-140096546D01*
X101453864Y-139695995D01*
X101207745Y-139621861D01*
X100379605Y-140450000D01*
X100020395Y-140450000D01*
X99192255Y-139621861D01*
X98946136Y-139695995D01*
X98753035Y-140233223D01*
X96360000Y-140233223D01*
X96360000Y-139442255D01*
X99371861Y-139442255D01*
X100200000Y-140270395D01*
X101028139Y-139442255D01*
X100954005Y-139196136D01*
X100416777Y-139003035D01*
X99846546Y-139030222D01*
X99445995Y-139196136D01*
X99371861Y-139442255D01*
X96360000Y-139442255D01*
X96360000Y-135127000D01*
X118000000Y-135127000D01*
X118049410Y-135116994D01*
X118089803Y-135089803D01*
X126564733Y-126614873D01*
X147914812Y-126614873D01*
X148079646Y-127013800D01*
X148384595Y-127319282D01*
X148783233Y-127484811D01*
X149214873Y-127485188D01*
X149613800Y-127320354D01*
X149919282Y-127015405D01*
X150084811Y-126616767D01*
X150085188Y-126185127D01*
X149920354Y-125786200D01*
X149749326Y-125614873D01*
X150914812Y-125614873D01*
X151079646Y-126013800D01*
X151384595Y-126319282D01*
X151783233Y-126484811D01*
X152214873Y-126485188D01*
X152613800Y-126320354D01*
X152919282Y-126015405D01*
X153084811Y-125616767D01*
X153085188Y-125185127D01*
X152920354Y-124786200D01*
X152649501Y-124514873D01*
X156114812Y-124514873D01*
X156279646Y-124913800D01*
X156584595Y-125219282D01*
X156983233Y-125384811D01*
X157414873Y-125385188D01*
X157813800Y-125220354D01*
X158119282Y-124915405D01*
X158284811Y-124516767D01*
X158285188Y-124085127D01*
X158120354Y-123686200D01*
X157815405Y-123380718D01*
X157416767Y-123215189D01*
X156985127Y-123214812D01*
X156586200Y-123379646D01*
X156280718Y-123684595D01*
X156115189Y-124083233D01*
X156114812Y-124514873D01*
X152649501Y-124514873D01*
X152615405Y-124480718D01*
X152216767Y-124315189D01*
X151785127Y-124314812D01*
X151386200Y-124479646D01*
X151080718Y-124784595D01*
X150915189Y-125183233D01*
X150914812Y-125614873D01*
X149749326Y-125614873D01*
X149619522Y-125484843D01*
X150014873Y-125485188D01*
X150413800Y-125320354D01*
X150719282Y-125015405D01*
X150884811Y-124616767D01*
X150885188Y-124185127D01*
X150720354Y-123786200D01*
X150418409Y-123483727D01*
X150652532Y-123386989D01*
X150784595Y-123519282D01*
X151183233Y-123684811D01*
X151614873Y-123685188D01*
X152013800Y-123520354D01*
X152319282Y-123215405D01*
X152402550Y-123014873D01*
X154514812Y-123014873D01*
X154679646Y-123413800D01*
X154984595Y-123719282D01*
X155383233Y-123884811D01*
X155814873Y-123885188D01*
X156213800Y-123720354D01*
X156519282Y-123415405D01*
X156684811Y-123016767D01*
X156685188Y-122585127D01*
X156520354Y-122186200D01*
X156215405Y-121880718D01*
X155816767Y-121715189D01*
X155385127Y-121714812D01*
X154986200Y-121879646D01*
X154680718Y-122184595D01*
X154515189Y-122583233D01*
X154514812Y-123014873D01*
X152402550Y-123014873D01*
X152484811Y-122816767D01*
X152485188Y-122385127D01*
X152320354Y-121986200D01*
X152015405Y-121680718D01*
X151616767Y-121515189D01*
X151185127Y-121514812D01*
X150947468Y-121613011D01*
X150815405Y-121480718D01*
X150416767Y-121315189D01*
X149985127Y-121314812D01*
X149586200Y-121479646D01*
X149280718Y-121784595D01*
X149115189Y-122183233D01*
X149114812Y-122614873D01*
X149279646Y-123013800D01*
X149581591Y-123316273D01*
X149186200Y-123479646D01*
X148880718Y-123784595D01*
X148715189Y-124183233D01*
X148714812Y-124614873D01*
X148879646Y-125013800D01*
X149180478Y-125315157D01*
X148785127Y-125314812D01*
X148386200Y-125479646D01*
X148080718Y-125784595D01*
X147915189Y-126183233D01*
X147914812Y-126614873D01*
X126564733Y-126614873D01*
X129089803Y-124089803D01*
X129117666Y-124047789D01*
X129127000Y-124000000D01*
X129127000Y-120104873D01*
X155334812Y-120104873D01*
X155499646Y-120503800D01*
X155804595Y-120809282D01*
X156203233Y-120974811D01*
X156634873Y-120975188D01*
X157033800Y-120810354D01*
X157339282Y-120505405D01*
X157504811Y-120106767D01*
X157505188Y-119675127D01*
X157340354Y-119276200D01*
X157035405Y-118970718D01*
X156636767Y-118805189D01*
X156205127Y-118804812D01*
X155806200Y-118969646D01*
X155500718Y-119274595D01*
X155335189Y-119673233D01*
X155334812Y-120104873D01*
X129127000Y-120104873D01*
X129127000Y-118734677D01*
X132814794Y-118734677D01*
X132994820Y-119170372D01*
X133327875Y-119504009D01*
X133763255Y-119684794D01*
X134234677Y-119685206D01*
X134670372Y-119505180D01*
X135004009Y-119172125D01*
X135184794Y-118736745D01*
X135185206Y-118265323D01*
X135164361Y-118214873D01*
X141914812Y-118214873D01*
X142079646Y-118613800D01*
X142384595Y-118919282D01*
X142783233Y-119084811D01*
X143214873Y-119085188D01*
X143385047Y-119014873D01*
X150314812Y-119014873D01*
X150479646Y-119413800D01*
X150784595Y-119719282D01*
X151183233Y-119884811D01*
X151614873Y-119885188D01*
X152013800Y-119720354D01*
X152319282Y-119415405D01*
X152337332Y-119371936D01*
X152384595Y-119419282D01*
X152783233Y-119584811D01*
X153214873Y-119585188D01*
X153613800Y-119420354D01*
X153919282Y-119115405D01*
X154084811Y-118716767D01*
X154085188Y-118285127D01*
X153920354Y-117886200D01*
X153615405Y-117580718D01*
X153216767Y-117415189D01*
X152884813Y-117414899D01*
X152885188Y-116985127D01*
X152720354Y-116586200D01*
X152599239Y-116464873D01*
X152914812Y-116464873D01*
X153079646Y-116863800D01*
X153384595Y-117169282D01*
X153783233Y-117334811D01*
X154214873Y-117335188D01*
X154613800Y-117170354D01*
X154919282Y-116865405D01*
X155084811Y-116466767D01*
X155085188Y-116035127D01*
X154920354Y-115636200D01*
X154615405Y-115330718D01*
X154216767Y-115165189D01*
X153785127Y-115164812D01*
X153386200Y-115329646D01*
X153080718Y-115634595D01*
X152915189Y-116033233D01*
X152914812Y-116464873D01*
X152599239Y-116464873D01*
X152415405Y-116280718D01*
X152016767Y-116115189D01*
X151585127Y-116114812D01*
X151186200Y-116279646D01*
X150880718Y-116584595D01*
X150715189Y-116983233D01*
X150714812Y-117414873D01*
X150879646Y-117813800D01*
X150898894Y-117833082D01*
X150786200Y-117879646D01*
X150480718Y-118184595D01*
X150315189Y-118583233D01*
X150314812Y-119014873D01*
X143385047Y-119014873D01*
X143613800Y-118920354D01*
X143919282Y-118615405D01*
X144084811Y-118216767D01*
X144085188Y-117785127D01*
X143920354Y-117386200D01*
X143615405Y-117080718D01*
X143216767Y-116915189D01*
X142785127Y-116914812D01*
X142386200Y-117079646D01*
X142080718Y-117384595D01*
X141915189Y-117783233D01*
X141914812Y-118214873D01*
X135164361Y-118214873D01*
X135005180Y-117829628D01*
X134672125Y-117495991D01*
X134236745Y-117315206D01*
X133765323Y-117314794D01*
X133329628Y-117494820D01*
X132995991Y-117827875D01*
X132815206Y-118263255D01*
X132814794Y-118734677D01*
X129127000Y-118734677D01*
X129127000Y-115614873D01*
X149314812Y-115614873D01*
X149479646Y-116013800D01*
X149784595Y-116319282D01*
X150183233Y-116484811D01*
X150614873Y-116485188D01*
X151013800Y-116320354D01*
X151319282Y-116015405D01*
X151484811Y-115616767D01*
X151485188Y-115185127D01*
X151320354Y-114786200D01*
X151218162Y-114683829D01*
X151613800Y-114520354D01*
X151919282Y-114215405D01*
X152084811Y-113816767D01*
X152084987Y-113614873D01*
X153114812Y-113614873D01*
X153279646Y-114013800D01*
X153584595Y-114319282D01*
X153983233Y-114484811D01*
X154414873Y-114485188D01*
X154813800Y-114320354D01*
X155119282Y-114015405D01*
X155185940Y-113854873D01*
X157084812Y-113854873D01*
X157249646Y-114253800D01*
X157554595Y-114559282D01*
X157953233Y-114724811D01*
X158384873Y-114725188D01*
X158783800Y-114560354D01*
X159089282Y-114255405D01*
X159254811Y-113856767D01*
X159255188Y-113425127D01*
X159090354Y-113026200D01*
X158785405Y-112720718D01*
X158386767Y-112555189D01*
X157955127Y-112554812D01*
X157556200Y-112719646D01*
X157250718Y-113024595D01*
X157085189Y-113423233D01*
X157084812Y-113854873D01*
X155185940Y-113854873D01*
X155284811Y-113616767D01*
X155285188Y-113185127D01*
X155120354Y-112786200D01*
X154815405Y-112480718D01*
X154416767Y-112315189D01*
X153985127Y-112314812D01*
X153586200Y-112479646D01*
X153280718Y-112784595D01*
X153115189Y-113183233D01*
X153114812Y-113614873D01*
X152084987Y-113614873D01*
X152085188Y-113385127D01*
X151920354Y-112986200D01*
X151615405Y-112680718D01*
X151216767Y-112515189D01*
X150785127Y-112514812D01*
X150386200Y-112679646D01*
X150080718Y-112984595D01*
X149915189Y-113383233D01*
X149914812Y-113814873D01*
X150079646Y-114213800D01*
X150181838Y-114316171D01*
X149786200Y-114479646D01*
X149480718Y-114784595D01*
X149315189Y-115183233D01*
X149314812Y-115614873D01*
X129127000Y-115614873D01*
X129127000Y-111604873D01*
X146834812Y-111604873D01*
X146999646Y-112003800D01*
X147304595Y-112309282D01*
X147703233Y-112474811D01*
X148134873Y-112475188D01*
X148533800Y-112310354D01*
X148839282Y-112005405D01*
X149004811Y-111606767D01*
X149005188Y-111175127D01*
X148840354Y-110776200D01*
X148535405Y-110470718D01*
X148136767Y-110305189D01*
X147705127Y-110304812D01*
X147306200Y-110469646D01*
X147000718Y-110774595D01*
X146835189Y-111173233D01*
X146834812Y-111604873D01*
X129127000Y-111604873D01*
X129127000Y-110052606D01*
X129194929Y-109984677D01*
X139314794Y-109984677D01*
X139494820Y-110420372D01*
X139827875Y-110754009D01*
X140263255Y-110934794D01*
X140734677Y-110935206D01*
X141170372Y-110755180D01*
X141504009Y-110422125D01*
X141684794Y-109986745D01*
X141684909Y-109854873D01*
X150084812Y-109854873D01*
X150249646Y-110253800D01*
X150554595Y-110559282D01*
X150953233Y-110724811D01*
X151384873Y-110725188D01*
X151783800Y-110560354D01*
X152089282Y-110255405D01*
X152151788Y-110104873D01*
X152334812Y-110104873D01*
X152499646Y-110503800D01*
X152804595Y-110809282D01*
X153203233Y-110974811D01*
X153634873Y-110975188D01*
X154033800Y-110810354D01*
X154339282Y-110505405D01*
X154504811Y-110106767D01*
X154505188Y-109675127D01*
X154340354Y-109276200D01*
X154035405Y-108970718D01*
X153636767Y-108805189D01*
X153205127Y-108804812D01*
X152806200Y-108969646D01*
X152500718Y-109274595D01*
X152335189Y-109673233D01*
X152334812Y-110104873D01*
X152151788Y-110104873D01*
X152254811Y-109856767D01*
X152255188Y-109425127D01*
X152090354Y-109026200D01*
X151785405Y-108720718D01*
X151386767Y-108555189D01*
X150955127Y-108554812D01*
X150556200Y-108719646D01*
X150250718Y-109024595D01*
X150085189Y-109423233D01*
X150084812Y-109854873D01*
X141684909Y-109854873D01*
X141685206Y-109515323D01*
X141505180Y-109079628D01*
X141172125Y-108745991D01*
X140736745Y-108565206D01*
X140265323Y-108564794D01*
X139829628Y-108744820D01*
X139495991Y-109077875D01*
X139315206Y-109513255D01*
X139314794Y-109984677D01*
X129194929Y-109984677D01*
X132364733Y-106814873D01*
X152314812Y-106814873D01*
X152479646Y-107213800D01*
X152784595Y-107519282D01*
X153135524Y-107665001D01*
X153279646Y-108013800D01*
X153584595Y-108319282D01*
X153983233Y-108484811D01*
X154414873Y-108485188D01*
X154755943Y-108344260D01*
X154615189Y-108683233D01*
X154614812Y-109114873D01*
X154779646Y-109513800D01*
X155084595Y-109819282D01*
X155129341Y-109837862D01*
X154786200Y-109979646D01*
X154480718Y-110284595D01*
X154315189Y-110683233D01*
X154314812Y-111114873D01*
X154479646Y-111513800D01*
X154784595Y-111819282D01*
X155183233Y-111984811D01*
X155415013Y-111985013D01*
X155414812Y-112214873D01*
X155579646Y-112613800D01*
X155884595Y-112919282D01*
X156283233Y-113084811D01*
X156714873Y-113085188D01*
X157113800Y-112920354D01*
X157419282Y-112615405D01*
X157584811Y-112216767D01*
X157584812Y-112214873D01*
X166414812Y-112214873D01*
X166579646Y-112613800D01*
X166884595Y-112919282D01*
X167283233Y-113084811D01*
X167714873Y-113085188D01*
X168113800Y-112920354D01*
X168419282Y-112615405D01*
X168584811Y-112216767D01*
X168585188Y-111785127D01*
X168420354Y-111386200D01*
X168115405Y-111080718D01*
X167716767Y-110915189D01*
X167285127Y-110914812D01*
X166886200Y-111079646D01*
X166580718Y-111384595D01*
X166415189Y-111783233D01*
X166414812Y-112214873D01*
X157584812Y-112214873D01*
X157585188Y-111785127D01*
X157420354Y-111386200D01*
X157115405Y-111080718D01*
X156716767Y-110915189D01*
X156484987Y-110914987D01*
X156485188Y-110685127D01*
X156320354Y-110286200D01*
X156015405Y-109980718D01*
X155977246Y-109964873D01*
X168914812Y-109964873D01*
X169079646Y-110363800D01*
X169384595Y-110669282D01*
X169783233Y-110834811D01*
X170214873Y-110835188D01*
X170613800Y-110670354D01*
X170919282Y-110365405D01*
X171084811Y-109966767D01*
X171085188Y-109535127D01*
X170920354Y-109136200D01*
X170615405Y-108830718D01*
X170216767Y-108665189D01*
X169785127Y-108664812D01*
X169386200Y-108829646D01*
X169080718Y-109134595D01*
X168915189Y-109533233D01*
X168914812Y-109964873D01*
X155977246Y-109964873D01*
X155970659Y-109962138D01*
X156313800Y-109820354D01*
X156619282Y-109515405D01*
X156631968Y-109484854D01*
X157014873Y-109485188D01*
X157413800Y-109320354D01*
X157512099Y-109222226D01*
X157783233Y-109334811D01*
X158214873Y-109335188D01*
X158613800Y-109170354D01*
X158919282Y-108865405D01*
X159084811Y-108466767D01*
X159085031Y-108214873D01*
X161414812Y-108214873D01*
X161579646Y-108613800D01*
X161884595Y-108919282D01*
X162283233Y-109084811D01*
X162714873Y-109085188D01*
X163113800Y-108920354D01*
X163419282Y-108615405D01*
X163584811Y-108216767D01*
X163585188Y-107785127D01*
X163420354Y-107386200D01*
X163115405Y-107080718D01*
X162716767Y-106915189D01*
X162285127Y-106914812D01*
X161886200Y-107079646D01*
X161580718Y-107384595D01*
X161415189Y-107783233D01*
X161414812Y-108214873D01*
X159085031Y-108214873D01*
X159085188Y-108035127D01*
X158920354Y-107636200D01*
X158615405Y-107330718D01*
X158216767Y-107165189D01*
X157785127Y-107164812D01*
X157386200Y-107329646D01*
X157287901Y-107427774D01*
X157016767Y-107315189D01*
X156585127Y-107314812D01*
X156186200Y-107479646D01*
X155880718Y-107784595D01*
X155868032Y-107815146D01*
X155485127Y-107814812D01*
X155144057Y-107955740D01*
X155284811Y-107616767D01*
X155285188Y-107185127D01*
X155120354Y-106786200D01*
X154815405Y-106480718D01*
X154464476Y-106334999D01*
X154320354Y-105986200D01*
X154015405Y-105680718D01*
X153616767Y-105515189D01*
X153185127Y-105514812D01*
X152786200Y-105679646D01*
X152480718Y-105984595D01*
X152315189Y-106383233D01*
X152314812Y-106814873D01*
X132364733Y-106814873D01*
X136064733Y-103114873D01*
X163314812Y-103114873D01*
X163479646Y-103513800D01*
X163784595Y-103819282D01*
X164183233Y-103984811D01*
X164614873Y-103985188D01*
X165013800Y-103820354D01*
X165319282Y-103515405D01*
X165484811Y-103116767D01*
X165485188Y-102685127D01*
X165320354Y-102286200D01*
X165015405Y-101980718D01*
X164616767Y-101815189D01*
X164185127Y-101814812D01*
X163786200Y-101979646D01*
X163480718Y-102284595D01*
X163315189Y-102683233D01*
X163314812Y-103114873D01*
X136064733Y-103114873D01*
X142089803Y-97089803D01*
X142117666Y-97047789D01*
X142127000Y-97000000D01*
X142127000Y-95744677D01*
X151894794Y-95744677D01*
X152074820Y-96180372D01*
X152407875Y-96514009D01*
X152843255Y-96694794D01*
X153314677Y-96695206D01*
X153750372Y-96515180D01*
X154084009Y-96182125D01*
X154264794Y-95746745D01*
X154265206Y-95275323D01*
X154085180Y-94839628D01*
X153752125Y-94505991D01*
X153316745Y-94325206D01*
X152845323Y-94324794D01*
X152409628Y-94504820D01*
X152075991Y-94837875D01*
X151895206Y-95273255D01*
X151894794Y-95744677D01*
X142127000Y-95744677D01*
X142127000Y-92127000D01*
X174436147Y-92127000D01*
X174721553Y-92317702D01*
M02*
