G04 #@! TF.FileFunction,Legend,Top*
%FSLAX46Y46*%
G04 Gerber Fmt 4.6, Leading zero omitted, Abs format (unit mm)*
G04 Created by KiCad (PCBNEW 4.0.7) date Fri May 11 12:16:42 2018*
%MOMM*%
%LPD*%
G01*
G04 APERTURE LIST*
%ADD10C,0.100000*%
%ADD11C,0.300000*%
%ADD12C,0.200000*%
%ADD13C,0.400000*%
%ADD14C,0.150000*%
%ADD15C,0.120000*%
G04 APERTURE END LIST*
D10*
D11*
X129285714Y-139332143D02*
X129428571Y-139403571D01*
X129714286Y-139403571D01*
X129857143Y-139332143D01*
X129928571Y-139189286D01*
X129928571Y-139117857D01*
X129857143Y-138975000D01*
X129714286Y-138903571D01*
X129500000Y-138903571D01*
X129357143Y-138832143D01*
X129285714Y-138689286D01*
X129285714Y-138617857D01*
X129357143Y-138475000D01*
X129500000Y-138403571D01*
X129714286Y-138403571D01*
X129857143Y-138475000D01*
X131142857Y-139332143D02*
X131000000Y-139403571D01*
X130714286Y-139403571D01*
X130571429Y-139332143D01*
X130500000Y-139189286D01*
X130500000Y-138617857D01*
X130571429Y-138475000D01*
X130714286Y-138403571D01*
X131000000Y-138403571D01*
X131142857Y-138475000D01*
X131214286Y-138617857D01*
X131214286Y-138760714D01*
X130500000Y-138903571D01*
X132428571Y-139332143D02*
X132285714Y-139403571D01*
X132000000Y-139403571D01*
X131857143Y-139332143D01*
X131785714Y-139189286D01*
X131785714Y-138617857D01*
X131857143Y-138475000D01*
X132000000Y-138403571D01*
X132285714Y-138403571D01*
X132428571Y-138475000D01*
X132500000Y-138617857D01*
X132500000Y-138760714D01*
X131785714Y-138903571D01*
X133714285Y-139332143D02*
X133571428Y-139403571D01*
X133285714Y-139403571D01*
X133142857Y-139332143D01*
X133071428Y-139189286D01*
X133071428Y-138617857D01*
X133142857Y-138475000D01*
X133285714Y-138403571D01*
X133571428Y-138403571D01*
X133714285Y-138475000D01*
X133785714Y-138617857D01*
X133785714Y-138760714D01*
X133071428Y-138903571D01*
X135071428Y-139403571D02*
X135071428Y-137903571D01*
X135071428Y-139332143D02*
X134928571Y-139403571D01*
X134642857Y-139403571D01*
X134499999Y-139332143D01*
X134428571Y-139260714D01*
X134357142Y-139117857D01*
X134357142Y-138689286D01*
X134428571Y-138546429D01*
X134499999Y-138475000D01*
X134642857Y-138403571D01*
X134928571Y-138403571D01*
X135071428Y-138475000D01*
X135714285Y-139332143D02*
X135857142Y-139403571D01*
X136142857Y-139403571D01*
X136285714Y-139332143D01*
X136357142Y-139189286D01*
X136357142Y-139117857D01*
X136285714Y-138975000D01*
X136142857Y-138903571D01*
X135928571Y-138903571D01*
X135785714Y-138832143D01*
X135714285Y-138689286D01*
X135714285Y-138617857D01*
X135785714Y-138475000D01*
X135928571Y-138403571D01*
X136142857Y-138403571D01*
X136285714Y-138475000D01*
X136785714Y-138403571D02*
X137357143Y-138403571D01*
X137000000Y-137903571D02*
X137000000Y-139189286D01*
X137071428Y-139332143D01*
X137214286Y-139403571D01*
X137357143Y-139403571D01*
X138500000Y-138403571D02*
X138500000Y-139403571D01*
X137857143Y-138403571D02*
X137857143Y-139189286D01*
X137928571Y-139332143D01*
X138071429Y-139403571D01*
X138285714Y-139403571D01*
X138428571Y-139332143D01*
X138500000Y-139260714D01*
X139857143Y-139403571D02*
X139857143Y-137903571D01*
X139857143Y-139332143D02*
X139714286Y-139403571D01*
X139428572Y-139403571D01*
X139285714Y-139332143D01*
X139214286Y-139260714D01*
X139142857Y-139117857D01*
X139142857Y-138689286D01*
X139214286Y-138546429D01*
X139285714Y-138475000D01*
X139428572Y-138403571D01*
X139714286Y-138403571D01*
X139857143Y-138475000D01*
X140571429Y-139403571D02*
X140571429Y-138403571D01*
X140571429Y-137903571D02*
X140500000Y-137975000D01*
X140571429Y-138046429D01*
X140642857Y-137975000D01*
X140571429Y-137903571D01*
X140571429Y-138046429D01*
X141500001Y-139403571D02*
X141357143Y-139332143D01*
X141285715Y-139260714D01*
X141214286Y-139117857D01*
X141214286Y-138689286D01*
X141285715Y-138546429D01*
X141357143Y-138475000D01*
X141500001Y-138403571D01*
X141714286Y-138403571D01*
X141857143Y-138475000D01*
X141928572Y-138546429D01*
X142000001Y-138689286D01*
X142000001Y-139117857D01*
X141928572Y-139260714D01*
X141857143Y-139332143D01*
X141714286Y-139403571D01*
X141500001Y-139403571D01*
X129857143Y-141167857D02*
X130071429Y-141239286D01*
X130142857Y-141310714D01*
X130214286Y-141453571D01*
X130214286Y-141667857D01*
X130142857Y-141810714D01*
X130071429Y-141882143D01*
X129928571Y-141953571D01*
X129357143Y-141953571D01*
X129357143Y-140453571D01*
X129857143Y-140453571D01*
X130000000Y-140525000D01*
X130071429Y-140596429D01*
X130142857Y-140739286D01*
X130142857Y-140882143D01*
X130071429Y-141025000D01*
X130000000Y-141096429D01*
X129857143Y-141167857D01*
X129357143Y-141167857D01*
X131500000Y-141953571D02*
X131500000Y-141167857D01*
X131428571Y-141025000D01*
X131285714Y-140953571D01*
X131000000Y-140953571D01*
X130857143Y-141025000D01*
X131500000Y-141882143D02*
X131357143Y-141953571D01*
X131000000Y-141953571D01*
X130857143Y-141882143D01*
X130785714Y-141739286D01*
X130785714Y-141596429D01*
X130857143Y-141453571D01*
X131000000Y-141382143D01*
X131357143Y-141382143D01*
X131500000Y-141310714D01*
X132000000Y-140953571D02*
X132571429Y-140953571D01*
X132214286Y-140453571D02*
X132214286Y-141739286D01*
X132285714Y-141882143D01*
X132428572Y-141953571D01*
X132571429Y-141953571D01*
X133714286Y-141882143D02*
X133571429Y-141953571D01*
X133285715Y-141953571D01*
X133142857Y-141882143D01*
X133071429Y-141810714D01*
X133000000Y-141667857D01*
X133000000Y-141239286D01*
X133071429Y-141096429D01*
X133142857Y-141025000D01*
X133285715Y-140953571D01*
X133571429Y-140953571D01*
X133714286Y-141025000D01*
X134357143Y-141953571D02*
X134357143Y-140453571D01*
X135000000Y-141953571D02*
X135000000Y-141167857D01*
X134928571Y-141025000D01*
X134785714Y-140953571D01*
X134571429Y-140953571D01*
X134428571Y-141025000D01*
X134357143Y-141096429D01*
X137642857Y-141953571D02*
X136785714Y-141953571D01*
X137214286Y-141953571D02*
X137214286Y-140453571D01*
X137071429Y-140667857D01*
X136928571Y-140810714D01*
X136785714Y-140882143D01*
X139428571Y-141953571D02*
X139428571Y-140453571D01*
X140142857Y-141953571D02*
X140142857Y-140453571D01*
X140500000Y-140453571D01*
X140714285Y-140525000D01*
X140857143Y-140667857D01*
X140928571Y-140810714D01*
X141000000Y-141096429D01*
X141000000Y-141310714D01*
X140928571Y-141596429D01*
X140857143Y-141739286D01*
X140714285Y-141882143D01*
X140500000Y-141953571D01*
X140142857Y-141953571D01*
X141642857Y-141810714D02*
X141714285Y-141882143D01*
X141642857Y-141953571D01*
X141571428Y-141882143D01*
X141642857Y-141810714D01*
X141642857Y-141953571D01*
X141642857Y-141025000D02*
X141714285Y-141096429D01*
X141642857Y-141167857D01*
X141571428Y-141096429D01*
X141642857Y-141025000D01*
X141642857Y-141167857D01*
X143142857Y-142096429D02*
X144285714Y-142096429D01*
X145428571Y-142096429D02*
X146571428Y-142096429D01*
X147714285Y-142096429D02*
X148857142Y-142096429D01*
X149999999Y-142096429D02*
X151142856Y-142096429D01*
X152285713Y-142096429D02*
X153428570Y-142096429D01*
D12*
X139880953Y-157452381D02*
X139404762Y-157452381D01*
X139404762Y-156452381D01*
X140214286Y-156928571D02*
X140547620Y-156928571D01*
X140690477Y-157452381D02*
X140214286Y-157452381D01*
X140214286Y-156452381D01*
X140690477Y-156452381D01*
X141119048Y-157452381D02*
X141119048Y-156452381D01*
X141357143Y-156452381D01*
X141500001Y-156500000D01*
X141595239Y-156595238D01*
X141642858Y-156690476D01*
X141690477Y-156880952D01*
X141690477Y-157023810D01*
X141642858Y-157214286D01*
X141595239Y-157309524D01*
X141500001Y-157404762D01*
X141357143Y-157452381D01*
X141119048Y-157452381D01*
X142023810Y-156452381D02*
X142642858Y-156452381D01*
X142309524Y-156833333D01*
X142452382Y-156833333D01*
X142547620Y-156880952D01*
X142595239Y-156928571D01*
X142642858Y-157023810D01*
X142642858Y-157261905D01*
X142595239Y-157357143D01*
X142547620Y-157404762D01*
X142452382Y-157452381D01*
X142166667Y-157452381D01*
X142071429Y-157404762D01*
X142023810Y-157357143D01*
X145380953Y-157452381D02*
X144904762Y-157452381D01*
X144904762Y-156452381D01*
X145714286Y-156928571D02*
X146047620Y-156928571D01*
X146190477Y-157452381D02*
X145714286Y-157452381D01*
X145714286Y-156452381D01*
X146190477Y-156452381D01*
X146619048Y-157452381D02*
X146619048Y-156452381D01*
X146857143Y-156452381D01*
X147000001Y-156500000D01*
X147095239Y-156595238D01*
X147142858Y-156690476D01*
X147190477Y-156880952D01*
X147190477Y-157023810D01*
X147142858Y-157214286D01*
X147095239Y-157309524D01*
X147000001Y-157404762D01*
X146857143Y-157452381D01*
X146619048Y-157452381D01*
X147571429Y-156547619D02*
X147619048Y-156500000D01*
X147714286Y-156452381D01*
X147952382Y-156452381D01*
X148047620Y-156500000D01*
X148095239Y-156547619D01*
X148142858Y-156642857D01*
X148142858Y-156738095D01*
X148095239Y-156880952D01*
X147523810Y-157452381D01*
X148142858Y-157452381D01*
X150380953Y-157452381D02*
X149904762Y-157452381D01*
X149904762Y-156452381D01*
X150714286Y-156928571D02*
X151047620Y-156928571D01*
X151190477Y-157452381D02*
X150714286Y-157452381D01*
X150714286Y-156452381D01*
X151190477Y-156452381D01*
X151619048Y-157452381D02*
X151619048Y-156452381D01*
X151857143Y-156452381D01*
X152000001Y-156500000D01*
X152095239Y-156595238D01*
X152142858Y-156690476D01*
X152190477Y-156880952D01*
X152190477Y-157023810D01*
X152142858Y-157214286D01*
X152095239Y-157309524D01*
X152000001Y-157404762D01*
X151857143Y-157452381D01*
X151619048Y-157452381D01*
X153142858Y-157452381D02*
X152571429Y-157452381D01*
X152857143Y-157452381D02*
X152857143Y-156452381D01*
X152761905Y-156595238D01*
X152666667Y-156690476D01*
X152571429Y-156738095D01*
X161833334Y-156452381D02*
X161833334Y-157166667D01*
X161785714Y-157309524D01*
X161690476Y-157404762D01*
X161547619Y-157452381D01*
X161452381Y-157452381D01*
X162166667Y-156452381D02*
X162738096Y-156452381D01*
X162452381Y-157452381D02*
X162452381Y-156452381D01*
X163023810Y-157166667D02*
X163500001Y-157166667D01*
X162928572Y-157452381D02*
X163261905Y-156452381D01*
X163595239Y-157452381D01*
X164452382Y-156500000D02*
X164357144Y-156452381D01*
X164214287Y-156452381D01*
X164071429Y-156500000D01*
X163976191Y-156595238D01*
X163928572Y-156690476D01*
X163880953Y-156880952D01*
X163880953Y-157023810D01*
X163928572Y-157214286D01*
X163976191Y-157309524D01*
X164071429Y-157404762D01*
X164214287Y-157452381D01*
X164309525Y-157452381D01*
X164452382Y-157404762D01*
X164500001Y-157357143D01*
X164500001Y-157023810D01*
X164309525Y-157023810D01*
D13*
X112000000Y-72130952D02*
X112000000Y-69630952D01*
X112595238Y-69630952D01*
X112952381Y-69750000D01*
X113190476Y-69988095D01*
X113309524Y-70226190D01*
X113428572Y-70702381D01*
X113428572Y-71059524D01*
X113309524Y-71535714D01*
X113190476Y-71773810D01*
X112952381Y-72011905D01*
X112595238Y-72130952D01*
X112000000Y-72130952D01*
X114380952Y-71416667D02*
X115571429Y-71416667D01*
X114142857Y-72130952D02*
X114976191Y-69630952D01*
X115809524Y-72130952D01*
X116642857Y-72130952D02*
X116642857Y-69630952D01*
X118071429Y-72130952D01*
X118071429Y-69630952D01*
X120571429Y-69750000D02*
X120333334Y-69630952D01*
X119976191Y-69630952D01*
X119619048Y-69750000D01*
X119380953Y-69988095D01*
X119261905Y-70226190D01*
X119142857Y-70702381D01*
X119142857Y-71059524D01*
X119261905Y-71535714D01*
X119380953Y-71773810D01*
X119619048Y-72011905D01*
X119976191Y-72130952D01*
X120214286Y-72130952D01*
X120571429Y-72011905D01*
X120690477Y-71892857D01*
X120690477Y-71059524D01*
X120214286Y-71059524D01*
X121761905Y-70821429D02*
X122595238Y-70821429D01*
X122952381Y-72130952D02*
X121761905Y-72130952D01*
X121761905Y-69630952D01*
X122952381Y-69630952D01*
X125452382Y-72130952D02*
X124619048Y-70940476D01*
X124023810Y-72130952D02*
X124023810Y-69630952D01*
X124976191Y-69630952D01*
X125214286Y-69750000D01*
X125333334Y-69869048D01*
X125452382Y-70107143D01*
X125452382Y-70464286D01*
X125333334Y-70702381D01*
X125214286Y-70821429D01*
X124976191Y-70940476D01*
X124023810Y-70940476D01*
X128428572Y-72130952D02*
X128428572Y-69630952D01*
X128428572Y-70821429D02*
X129857144Y-70821429D01*
X129857144Y-72130952D02*
X129857144Y-69630952D01*
X130690477Y-69630952D02*
X131523811Y-72130952D01*
X132357144Y-69630952D01*
D11*
X116178571Y-83964286D02*
X114678571Y-83964286D01*
X116178571Y-83107143D01*
X114678571Y-83107143D01*
X115392857Y-82392857D02*
X115392857Y-81892857D01*
X116178571Y-81678571D02*
X116178571Y-82392857D01*
X114678571Y-82392857D01*
X114678571Y-81678571D01*
X114678571Y-81035714D02*
X115892857Y-81035714D01*
X116035714Y-80964286D01*
X116107143Y-80892857D01*
X116178571Y-80750000D01*
X116178571Y-80464286D01*
X116107143Y-80321428D01*
X116035714Y-80250000D01*
X115892857Y-80178571D01*
X114678571Y-80178571D01*
X114678571Y-79678571D02*
X114678571Y-78821428D01*
X116178571Y-79249999D02*
X114678571Y-79249999D01*
X116178571Y-77464285D02*
X115464286Y-77964285D01*
X116178571Y-78321428D02*
X114678571Y-78321428D01*
X114678571Y-77750000D01*
X114750000Y-77607142D01*
X114821429Y-77535714D01*
X114964286Y-77464285D01*
X115178571Y-77464285D01*
X115321429Y-77535714D01*
X115392857Y-77607142D01*
X115464286Y-77750000D01*
X115464286Y-78321428D01*
X115750000Y-76892857D02*
X115750000Y-76178571D01*
X116178571Y-77035714D02*
X114678571Y-76535714D01*
X116178571Y-76035714D01*
X116178571Y-74821428D02*
X116178571Y-75535714D01*
X114678571Y-75535714D01*
X128678571Y-81357143D02*
X128678571Y-82071429D01*
X127178571Y-82071429D01*
X128678571Y-80857143D02*
X127178571Y-80857143D01*
X128678571Y-80142857D02*
X127178571Y-80142857D01*
X128678571Y-79285714D01*
X127178571Y-79285714D01*
X127892857Y-78571428D02*
X127892857Y-78071428D01*
X128678571Y-77857142D02*
X128678571Y-78571428D01*
X127178571Y-78571428D01*
X127178571Y-77857142D01*
X146321428Y-71678571D02*
X146321428Y-70178571D01*
X146964285Y-71678571D02*
X146964285Y-70892857D01*
X146892856Y-70750000D01*
X146749999Y-70678571D01*
X146535714Y-70678571D01*
X146392856Y-70750000D01*
X146321428Y-70821429D01*
X147464285Y-70678571D02*
X148035714Y-70678571D01*
X147678571Y-70178571D02*
X147678571Y-71464286D01*
X147749999Y-71607143D01*
X147892857Y-71678571D01*
X148035714Y-71678571D01*
X148321428Y-70678571D02*
X148892857Y-70678571D01*
X148535714Y-70178571D02*
X148535714Y-71464286D01*
X148607142Y-71607143D01*
X148750000Y-71678571D01*
X148892857Y-71678571D01*
X149392857Y-70678571D02*
X149392857Y-72178571D01*
X149392857Y-70750000D02*
X149535714Y-70678571D01*
X149821428Y-70678571D01*
X149964285Y-70750000D01*
X150035714Y-70821429D01*
X150107143Y-70964286D01*
X150107143Y-71392857D01*
X150035714Y-71535714D01*
X149964285Y-71607143D01*
X149821428Y-71678571D01*
X149535714Y-71678571D01*
X149392857Y-71607143D01*
X150750000Y-71535714D02*
X150821428Y-71607143D01*
X150750000Y-71678571D01*
X150678571Y-71607143D01*
X150750000Y-71535714D01*
X150750000Y-71678571D01*
X150750000Y-70750000D02*
X150821428Y-70821429D01*
X150750000Y-70892857D01*
X150678571Y-70821429D01*
X150750000Y-70750000D01*
X150750000Y-70892857D01*
X152535714Y-70107143D02*
X151250000Y-72035714D01*
X154107143Y-70107143D02*
X152821429Y-72035714D01*
X154821430Y-71678571D02*
X154678572Y-71607143D01*
X154607144Y-71535714D01*
X154535715Y-71392857D01*
X154535715Y-70964286D01*
X154607144Y-70821429D01*
X154678572Y-70750000D01*
X154821430Y-70678571D01*
X155035715Y-70678571D01*
X155178572Y-70750000D01*
X155250001Y-70821429D01*
X155321430Y-70964286D01*
X155321430Y-71392857D01*
X155250001Y-71535714D01*
X155178572Y-71607143D01*
X155035715Y-71678571D01*
X154821430Y-71678571D01*
X155964287Y-70678571D02*
X155964287Y-72178571D01*
X155964287Y-70750000D02*
X156107144Y-70678571D01*
X156392858Y-70678571D01*
X156535715Y-70750000D01*
X156607144Y-70821429D01*
X156678573Y-70964286D01*
X156678573Y-71392857D01*
X156607144Y-71535714D01*
X156535715Y-71607143D01*
X156392858Y-71678571D01*
X156107144Y-71678571D01*
X155964287Y-71607143D01*
X157892858Y-71607143D02*
X157750001Y-71678571D01*
X157464287Y-71678571D01*
X157321430Y-71607143D01*
X157250001Y-71464286D01*
X157250001Y-70892857D01*
X157321430Y-70750000D01*
X157464287Y-70678571D01*
X157750001Y-70678571D01*
X157892858Y-70750000D01*
X157964287Y-70892857D01*
X157964287Y-71035714D01*
X157250001Y-71178571D01*
X158607144Y-70678571D02*
X158607144Y-71678571D01*
X158607144Y-70821429D02*
X158678572Y-70750000D01*
X158821430Y-70678571D01*
X159035715Y-70678571D01*
X159178572Y-70750000D01*
X159250001Y-70892857D01*
X159250001Y-71678571D01*
X159964287Y-70678571D02*
X159964287Y-72178571D01*
X159964287Y-70750000D02*
X160107144Y-70678571D01*
X160392858Y-70678571D01*
X160535715Y-70750000D01*
X160607144Y-70821429D01*
X160678573Y-70964286D01*
X160678573Y-71392857D01*
X160607144Y-71535714D01*
X160535715Y-71607143D01*
X160392858Y-71678571D01*
X160107144Y-71678571D01*
X159964287Y-71607143D01*
X161535716Y-71678571D02*
X161392858Y-71607143D01*
X161321430Y-71535714D01*
X161250001Y-71392857D01*
X161250001Y-70964286D01*
X161321430Y-70821429D01*
X161392858Y-70750000D01*
X161535716Y-70678571D01*
X161750001Y-70678571D01*
X161892858Y-70750000D01*
X161964287Y-70821429D01*
X162035716Y-70964286D01*
X162035716Y-71392857D01*
X161964287Y-71535714D01*
X161892858Y-71607143D01*
X161750001Y-71678571D01*
X161535716Y-71678571D01*
X162535716Y-70678571D02*
X162821430Y-71678571D01*
X163107144Y-70964286D01*
X163392859Y-71678571D01*
X163678573Y-70678571D01*
X164821430Y-71607143D02*
X164678573Y-71678571D01*
X164392859Y-71678571D01*
X164250002Y-71607143D01*
X164178573Y-71464286D01*
X164178573Y-70892857D01*
X164250002Y-70750000D01*
X164392859Y-70678571D01*
X164678573Y-70678571D01*
X164821430Y-70750000D01*
X164892859Y-70892857D01*
X164892859Y-71035714D01*
X164178573Y-71178571D01*
X165535716Y-71678571D02*
X165535716Y-70678571D01*
X165535716Y-70964286D02*
X165607144Y-70821429D01*
X165678573Y-70750000D01*
X165821430Y-70678571D01*
X165964287Y-70678571D01*
X167107144Y-70678571D02*
X167107144Y-72178571D01*
X167107144Y-71607143D02*
X166964287Y-71678571D01*
X166678573Y-71678571D01*
X166535715Y-71607143D01*
X166464287Y-71535714D01*
X166392858Y-71392857D01*
X166392858Y-70964286D01*
X166464287Y-70821429D01*
X166535715Y-70750000D01*
X166678573Y-70678571D01*
X166964287Y-70678571D01*
X167107144Y-70750000D01*
X168464287Y-70678571D02*
X168464287Y-71678571D01*
X167821430Y-70678571D02*
X167821430Y-71464286D01*
X167892858Y-71607143D01*
X168035716Y-71678571D01*
X168250001Y-71678571D01*
X168392858Y-71607143D01*
X168464287Y-71535714D01*
X169821430Y-71678571D02*
X169821430Y-70892857D01*
X169750001Y-70750000D01*
X169607144Y-70678571D01*
X169321430Y-70678571D01*
X169178573Y-70750000D01*
X169821430Y-71607143D02*
X169678573Y-71678571D01*
X169321430Y-71678571D01*
X169178573Y-71607143D01*
X169107144Y-71464286D01*
X169107144Y-71321429D01*
X169178573Y-71178571D01*
X169321430Y-71107143D01*
X169678573Y-71107143D01*
X169821430Y-71035714D01*
X170750002Y-71678571D02*
X170607144Y-71607143D01*
X170535716Y-71464286D01*
X170535716Y-70178571D01*
X171321430Y-71678571D02*
X171321430Y-70678571D01*
X171321430Y-70178571D02*
X171250001Y-70250000D01*
X171321430Y-70321429D01*
X171392858Y-70250000D01*
X171321430Y-70178571D01*
X171321430Y-70321429D01*
X171821430Y-70678571D02*
X172392859Y-70678571D01*
X172035716Y-70178571D02*
X172035716Y-71464286D01*
X172107144Y-71607143D01*
X172250002Y-71678571D01*
X172392859Y-71678571D01*
X172750002Y-70678571D02*
X173107145Y-71678571D01*
X173464287Y-70678571D02*
X173107145Y-71678571D01*
X172964287Y-72035714D01*
X172892859Y-72107143D01*
X172750002Y-72178571D01*
X174035716Y-71535714D02*
X174107144Y-71607143D01*
X174035716Y-71678571D01*
X173964287Y-71607143D01*
X174035716Y-71535714D01*
X174035716Y-71678571D01*
X174964288Y-71678571D02*
X174821430Y-71607143D01*
X174750002Y-71535714D01*
X174678573Y-71392857D01*
X174678573Y-70964286D01*
X174750002Y-70821429D01*
X174821430Y-70750000D01*
X174964288Y-70678571D01*
X175178573Y-70678571D01*
X175321430Y-70750000D01*
X175392859Y-70821429D01*
X175464288Y-70964286D01*
X175464288Y-71392857D01*
X175392859Y-71535714D01*
X175321430Y-71607143D01*
X175178573Y-71678571D01*
X174964288Y-71678571D01*
X176107145Y-71678571D02*
X176107145Y-70678571D01*
X176107145Y-70964286D02*
X176178573Y-70821429D01*
X176250002Y-70750000D01*
X176392859Y-70678571D01*
X176535716Y-70678571D01*
X177678573Y-70678571D02*
X177678573Y-71892857D01*
X177607144Y-72035714D01*
X177535716Y-72107143D01*
X177392859Y-72178571D01*
X177178573Y-72178571D01*
X177035716Y-72107143D01*
X177678573Y-71607143D02*
X177535716Y-71678571D01*
X177250002Y-71678571D01*
X177107144Y-71607143D01*
X177035716Y-71535714D01*
X176964287Y-71392857D01*
X176964287Y-70964286D01*
X177035716Y-70821429D01*
X177107144Y-70750000D01*
X177250002Y-70678571D01*
X177535716Y-70678571D01*
X177678573Y-70750000D01*
X128642857Y-94628571D02*
X128928571Y-94628571D01*
X129071429Y-94700000D01*
X129214286Y-94842857D01*
X129285714Y-95128571D01*
X129285714Y-95628571D01*
X129214286Y-95914286D01*
X129071429Y-96057143D01*
X128928571Y-96128571D01*
X128642857Y-96128571D01*
X128500000Y-96057143D01*
X128357143Y-95914286D01*
X128285714Y-95628571D01*
X128285714Y-95128571D01*
X128357143Y-94842857D01*
X128500000Y-94700000D01*
X128642857Y-94628571D01*
X129928572Y-96128571D02*
X129928572Y-94628571D01*
X130500000Y-94628571D01*
X130642858Y-94700000D01*
X130714286Y-94771429D01*
X130785715Y-94914286D01*
X130785715Y-95128571D01*
X130714286Y-95271429D01*
X130642858Y-95342857D01*
X130500000Y-95414286D01*
X129928572Y-95414286D01*
X132428572Y-96271429D02*
X132285715Y-96200000D01*
X132142858Y-96057143D01*
X131928572Y-95842857D01*
X131785715Y-95771429D01*
X131642858Y-95771429D01*
X131714286Y-96128571D02*
X131571429Y-96057143D01*
X131428572Y-95914286D01*
X131357143Y-95628571D01*
X131357143Y-95128571D01*
X131428572Y-94842857D01*
X131571429Y-94700000D01*
X131714286Y-94628571D01*
X132000000Y-94628571D01*
X132142858Y-94700000D01*
X132285715Y-94842857D01*
X132357143Y-95128571D01*
X132357143Y-95628571D01*
X132285715Y-95914286D01*
X132142858Y-96057143D01*
X132000000Y-96128571D01*
X131714286Y-96128571D01*
X133500001Y-95342857D02*
X133714287Y-95414286D01*
X133785715Y-95485714D01*
X133857144Y-95628571D01*
X133857144Y-95842857D01*
X133785715Y-95985714D01*
X133714287Y-96057143D01*
X133571429Y-96128571D01*
X133000001Y-96128571D01*
X133000001Y-94628571D01*
X133500001Y-94628571D01*
X133642858Y-94700000D01*
X133714287Y-94771429D01*
X133785715Y-94914286D01*
X133785715Y-95057143D01*
X133714287Y-95200000D01*
X133642858Y-95271429D01*
X133500001Y-95342857D01*
X133000001Y-95342857D01*
X134785715Y-94628571D02*
X135071429Y-94628571D01*
X135214287Y-94700000D01*
X135357144Y-94842857D01*
X135428572Y-95128571D01*
X135428572Y-95628571D01*
X135357144Y-95914286D01*
X135214287Y-96057143D01*
X135071429Y-96128571D01*
X134785715Y-96128571D01*
X134642858Y-96057143D01*
X134500001Y-95914286D01*
X134428572Y-95628571D01*
X134428572Y-95128571D01*
X134500001Y-94842857D01*
X134642858Y-94700000D01*
X134785715Y-94628571D01*
X135928573Y-94628571D02*
X136928573Y-96128571D01*
X136928573Y-94628571D02*
X135928573Y-96128571D01*
X137357144Y-94628571D02*
X138285715Y-94628571D01*
X137785715Y-95200000D01*
X138000001Y-95200000D01*
X138142858Y-95271429D01*
X138214287Y-95342857D01*
X138285715Y-95485714D01*
X138285715Y-95842857D01*
X138214287Y-95985714D01*
X138142858Y-96057143D01*
X138000001Y-96128571D01*
X137571429Y-96128571D01*
X137428572Y-96057143D01*
X137357144Y-95985714D01*
X128285714Y-98607143D02*
X128428571Y-98678571D01*
X128714286Y-98678571D01*
X128857143Y-98607143D01*
X128928571Y-98464286D01*
X128928571Y-98392857D01*
X128857143Y-98250000D01*
X128714286Y-98178571D01*
X128500000Y-98178571D01*
X128357143Y-98107143D01*
X128285714Y-97964286D01*
X128285714Y-97892857D01*
X128357143Y-97750000D01*
X128500000Y-97678571D01*
X128714286Y-97678571D01*
X128857143Y-97750000D01*
X129571429Y-98678571D02*
X129571429Y-97678571D01*
X129571429Y-97178571D02*
X129500000Y-97250000D01*
X129571429Y-97321429D01*
X129642857Y-97250000D01*
X129571429Y-97178571D01*
X129571429Y-97321429D01*
X130285715Y-97678571D02*
X130285715Y-98678571D01*
X130285715Y-97821429D02*
X130357143Y-97750000D01*
X130500001Y-97678571D01*
X130714286Y-97678571D01*
X130857143Y-97750000D01*
X130928572Y-97892857D01*
X130928572Y-98678571D01*
X131857144Y-97821429D02*
X131714286Y-97750000D01*
X131642858Y-97678571D01*
X131571429Y-97535714D01*
X131571429Y-97464286D01*
X131642858Y-97321429D01*
X131714286Y-97250000D01*
X131857144Y-97178571D01*
X132142858Y-97178571D01*
X132285715Y-97250000D01*
X132357144Y-97321429D01*
X132428572Y-97464286D01*
X132428572Y-97535714D01*
X132357144Y-97678571D01*
X132285715Y-97750000D01*
X132142858Y-97821429D01*
X131857144Y-97821429D01*
X131714286Y-97892857D01*
X131642858Y-97964286D01*
X131571429Y-98107143D01*
X131571429Y-98392857D01*
X131642858Y-98535714D01*
X131714286Y-98607143D01*
X131857144Y-98678571D01*
X132142858Y-98678571D01*
X132285715Y-98607143D01*
X132357144Y-98535714D01*
X132428572Y-98392857D01*
X132428572Y-98107143D01*
X132357144Y-97964286D01*
X132285715Y-97892857D01*
X132142858Y-97821429D01*
X133142857Y-98607143D02*
X133142857Y-98678571D01*
X133071429Y-98821429D01*
X133000000Y-98892857D01*
X134428572Y-98678571D02*
X134428572Y-97178571D01*
X134428572Y-98607143D02*
X134285715Y-98678571D01*
X134000001Y-98678571D01*
X133857143Y-98607143D01*
X133785715Y-98535714D01*
X133714286Y-98392857D01*
X133714286Y-97964286D01*
X133785715Y-97821429D01*
X133857143Y-97750000D01*
X134000001Y-97678571D01*
X134285715Y-97678571D01*
X134428572Y-97750000D01*
X135785715Y-98678571D02*
X135785715Y-97892857D01*
X135714286Y-97750000D01*
X135571429Y-97678571D01*
X135285715Y-97678571D01*
X135142858Y-97750000D01*
X135785715Y-98607143D02*
X135642858Y-98678571D01*
X135285715Y-98678571D01*
X135142858Y-98607143D01*
X135071429Y-98464286D01*
X135071429Y-98321429D01*
X135142858Y-98178571D01*
X135285715Y-98107143D01*
X135642858Y-98107143D01*
X135785715Y-98035714D01*
X136357144Y-97678571D02*
X136714287Y-98678571D01*
X137071429Y-97678571D01*
X137642858Y-98678571D02*
X137642858Y-97678571D01*
X137642858Y-97178571D02*
X137571429Y-97250000D01*
X137642858Y-97321429D01*
X137714286Y-97250000D01*
X137642858Y-97178571D01*
X137642858Y-97321429D01*
X139000001Y-98678571D02*
X139000001Y-97178571D01*
X139000001Y-98607143D02*
X138857144Y-98678571D01*
X138571430Y-98678571D01*
X138428572Y-98607143D01*
X138357144Y-98535714D01*
X138285715Y-98392857D01*
X138285715Y-97964286D01*
X138357144Y-97821429D01*
X138428572Y-97750000D01*
X138571430Y-97678571D01*
X138857144Y-97678571D01*
X139000001Y-97750000D01*
X139714287Y-98678571D02*
X139714287Y-97678571D01*
X139714287Y-97964286D02*
X139785715Y-97821429D01*
X139857144Y-97750000D01*
X140000001Y-97678571D01*
X140142858Y-97678571D01*
X140642858Y-98678571D02*
X140642858Y-97178571D01*
X140642858Y-97750000D02*
X140785715Y-97678571D01*
X141071429Y-97678571D01*
X141214286Y-97750000D01*
X141285715Y-97821429D01*
X141357144Y-97964286D01*
X141357144Y-98392857D01*
X141285715Y-98535714D01*
X141214286Y-98607143D01*
X141071429Y-98678571D01*
X140785715Y-98678571D01*
X140642858Y-98607143D01*
X128285714Y-99871429D02*
X128357143Y-99800000D01*
X128500000Y-99728571D01*
X128857143Y-99728571D01*
X129000000Y-99800000D01*
X129071429Y-99871429D01*
X129142857Y-100014286D01*
X129142857Y-100157143D01*
X129071429Y-100371429D01*
X128214286Y-101228571D01*
X129142857Y-101228571D01*
X130071428Y-99728571D02*
X130214285Y-99728571D01*
X130357142Y-99800000D01*
X130428571Y-99871429D01*
X130500000Y-100014286D01*
X130571428Y-100300000D01*
X130571428Y-100657143D01*
X130500000Y-100942857D01*
X130428571Y-101085714D01*
X130357142Y-101157143D01*
X130214285Y-101228571D01*
X130071428Y-101228571D01*
X129928571Y-101157143D01*
X129857142Y-101085714D01*
X129785714Y-100942857D01*
X129714285Y-100657143D01*
X129714285Y-100300000D01*
X129785714Y-100014286D01*
X129857142Y-99871429D01*
X129928571Y-99800000D01*
X130071428Y-99728571D01*
X131999999Y-101228571D02*
X131142856Y-101228571D01*
X131571428Y-101228571D02*
X131571428Y-99728571D01*
X131428571Y-99942857D01*
X131285713Y-100085714D01*
X131142856Y-100157143D01*
X132857142Y-100371429D02*
X132714284Y-100300000D01*
X132642856Y-100228571D01*
X132571427Y-100085714D01*
X132571427Y-100014286D01*
X132642856Y-99871429D01*
X132714284Y-99800000D01*
X132857142Y-99728571D01*
X133142856Y-99728571D01*
X133285713Y-99800000D01*
X133357142Y-99871429D01*
X133428570Y-100014286D01*
X133428570Y-100085714D01*
X133357142Y-100228571D01*
X133285713Y-100300000D01*
X133142856Y-100371429D01*
X132857142Y-100371429D01*
X132714284Y-100442857D01*
X132642856Y-100514286D01*
X132571427Y-100657143D01*
X132571427Y-100942857D01*
X132642856Y-101085714D01*
X132714284Y-101157143D01*
X132857142Y-101228571D01*
X133142856Y-101228571D01*
X133285713Y-101157143D01*
X133357142Y-101085714D01*
X133428570Y-100942857D01*
X133428570Y-100657143D01*
X133357142Y-100514286D01*
X133285713Y-100442857D01*
X133142856Y-100371429D01*
D14*
X119750000Y-86600000D02*
X104250000Y-86600000D01*
X119750000Y-90500000D02*
X104250000Y-90500000D01*
X104250000Y-90500000D02*
X104250000Y-86600000D01*
X119750000Y-90500000D02*
X119750000Y-86600000D01*
D15*
X158620000Y-120080000D02*
X158620000Y-119690000D01*
X158620000Y-119690000D02*
X162220000Y-119690000D01*
X162220000Y-119690000D02*
X162220000Y-120080000D01*
X158620000Y-122760000D02*
X158620000Y-122020000D01*
X162920000Y-124700000D02*
X162220000Y-124700000D01*
X162220000Y-124700000D02*
X162220000Y-125090000D01*
X162220000Y-125090000D02*
X158620000Y-125090000D01*
X158620000Y-125090000D02*
X158620000Y-124700000D01*
X162220000Y-122020000D02*
X162220000Y-122760000D01*
X162220000Y-122760000D02*
X162920000Y-122760000D01*
D14*
X143255000Y-92885000D02*
X143605000Y-92885000D01*
X143255000Y-87135000D02*
X143705000Y-87135000D01*
X150905000Y-87135000D02*
X150455000Y-87135000D01*
X150905000Y-92885000D02*
X150455000Y-92885000D01*
X143255000Y-92885000D02*
X143255000Y-87135000D01*
X150905000Y-92885000D02*
X150905000Y-87135000D01*
X143605000Y-92885000D02*
X143605000Y-94485000D01*
D15*
X167230000Y-85610000D02*
X167230000Y-84910000D01*
X168430000Y-84910000D02*
X168430000Y-85610000D01*
X164080000Y-84230000D02*
X164580000Y-84230000D01*
X164580000Y-83290000D02*
X164080000Y-83290000D01*
X153954000Y-80464000D02*
X151954000Y-80464000D01*
X151954000Y-83424000D02*
X153954000Y-83424000D01*
X116250000Y-148150000D02*
X115250000Y-148150000D01*
X115250000Y-149850000D02*
X116250000Y-149850000D01*
X168430000Y-93910000D02*
X168430000Y-94610000D01*
X167230000Y-94610000D02*
X167230000Y-93910000D01*
X150050000Y-96260000D02*
X150050000Y-95760000D01*
X149110000Y-95760000D02*
X149110000Y-96260000D01*
X116250000Y-155400000D02*
X115250000Y-155400000D01*
X115250000Y-157100000D02*
X116250000Y-157100000D01*
X163830000Y-96980000D02*
X164330000Y-96980000D01*
X164330000Y-96040000D02*
X163830000Y-96040000D01*
X156330000Y-92030000D02*
X154330000Y-92030000D01*
X154330000Y-94990000D02*
X156330000Y-94990000D01*
X143270000Y-110540000D02*
X143270000Y-111240000D01*
X142070000Y-111240000D02*
X142070000Y-110540000D01*
X145640000Y-111140000D02*
X145640000Y-110640000D01*
X144700000Y-110640000D02*
X144700000Y-111140000D01*
X160670000Y-125920000D02*
X160170000Y-125920000D01*
X160170000Y-126860000D02*
X160670000Y-126860000D01*
X153920000Y-122360000D02*
X154420000Y-122360000D01*
X154420000Y-121420000D02*
X153920000Y-121420000D01*
X151950000Y-108890000D02*
X151950000Y-109390000D01*
X152890000Y-109390000D02*
X152890000Y-108890000D01*
X158420000Y-114170000D02*
X157920000Y-114170000D01*
X157920000Y-115110000D02*
X158420000Y-115110000D01*
X148920000Y-108420000D02*
X148420000Y-108420000D01*
X148420000Y-109360000D02*
X148920000Y-109360000D01*
X148920000Y-109670000D02*
X148420000Y-109670000D01*
X148420000Y-110610000D02*
X148920000Y-110610000D01*
X158420000Y-115170000D02*
X157920000Y-115170000D01*
X157920000Y-116110000D02*
X158420000Y-116110000D01*
X142750000Y-153900000D02*
X143850000Y-153900000D01*
X143850000Y-153900000D02*
X143850000Y-151300000D01*
X142750000Y-153900000D02*
X142750000Y-151300000D01*
X148750000Y-153800000D02*
X149850000Y-153800000D01*
X149850000Y-153800000D02*
X149850000Y-151200000D01*
X148750000Y-153800000D02*
X148750000Y-151200000D01*
X145750000Y-153800000D02*
X146850000Y-153800000D01*
X146850000Y-153800000D02*
X146850000Y-151200000D01*
X145750000Y-153800000D02*
X145750000Y-151200000D01*
X133930000Y-83000000D02*
X133930000Y-81000000D01*
X136070000Y-81000000D02*
X136070000Y-83000000D01*
D14*
X133830000Y-91040000D02*
X123670000Y-91040000D01*
X123670000Y-91040000D02*
X123670000Y-85960000D01*
X123670000Y-85960000D02*
X133830000Y-85960000D01*
X133830000Y-85960000D02*
X133830000Y-91040000D01*
X123730000Y-83560000D02*
X123730000Y-75940000D01*
X123730000Y-75940000D02*
X123730000Y-74670000D01*
X123730000Y-74670000D02*
X126270000Y-74670000D01*
X126270000Y-74670000D02*
X126270000Y-84830000D01*
X126270000Y-84830000D02*
X123730000Y-84830000D01*
X123730000Y-84830000D02*
X123730000Y-83560000D01*
X111230000Y-83560000D02*
X111230000Y-75940000D01*
X111230000Y-75940000D02*
X111230000Y-74670000D01*
X111230000Y-74670000D02*
X113770000Y-74670000D01*
X113770000Y-74670000D02*
X113770000Y-84830000D01*
X113770000Y-84830000D02*
X111230000Y-84830000D01*
X111230000Y-84830000D02*
X111230000Y-83560000D01*
D15*
X123050000Y-153670000D02*
X123050000Y-156330000D01*
X130730000Y-153670000D02*
X123050000Y-153670000D01*
X130730000Y-156330000D02*
X123050000Y-156330000D01*
X130730000Y-153670000D02*
X130730000Y-156330000D01*
X132000000Y-153670000D02*
X133330000Y-153670000D01*
X133330000Y-153670000D02*
X133330000Y-155000000D01*
X116850000Y-152150000D02*
X116850000Y-152850000D01*
X114650000Y-152150000D02*
X114650000Y-152850000D01*
X164800000Y-81760000D02*
X164800000Y-82260000D01*
X165860000Y-82260000D02*
X165860000Y-81760000D01*
X161750000Y-84280000D02*
X162250000Y-84280000D01*
X162250000Y-83220000D02*
X161750000Y-83220000D01*
X147704000Y-82474000D02*
X148204000Y-82474000D01*
X148204000Y-81414000D02*
X147704000Y-81414000D01*
X144704000Y-82474000D02*
X145204000Y-82474000D01*
X145204000Y-81414000D02*
X144704000Y-81414000D01*
X147580000Y-96040000D02*
X148080000Y-96040000D01*
X148080000Y-94980000D02*
X147580000Y-94980000D01*
X164050000Y-94760000D02*
X164050000Y-95260000D01*
X165110000Y-95260000D02*
X165110000Y-94760000D01*
X162800000Y-94760000D02*
X162800000Y-95260000D01*
X163860000Y-95260000D02*
X163860000Y-94760000D01*
X142770000Y-147750000D02*
X142770000Y-148250000D01*
X143830000Y-148250000D02*
X143830000Y-147750000D01*
X148770000Y-147750000D02*
X148770000Y-148250000D01*
X149830000Y-148250000D02*
X149830000Y-147750000D01*
X145770000Y-147750000D02*
X145770000Y-148250000D01*
X146830000Y-148250000D02*
X146830000Y-147750000D01*
D14*
X166370000Y-92296000D02*
X161290000Y-92296000D01*
X161290000Y-92296000D02*
X161290000Y-87724000D01*
X161290000Y-87724000D02*
X166370000Y-87724000D01*
X166370000Y-87724000D02*
X166370000Y-92296000D01*
X166370000Y-90772000D02*
X165862000Y-90772000D01*
X165862000Y-90772000D02*
X165862000Y-89502000D01*
X165862000Y-89502000D02*
X166370000Y-89502000D01*
D15*
X145750000Y-106630000D02*
X144820000Y-106630000D01*
X142590000Y-106630000D02*
X143520000Y-106630000D01*
X142590000Y-106630000D02*
X142590000Y-108790000D01*
X145750000Y-106630000D02*
X145750000Y-108090000D01*
D14*
X155295000Y-119515000D02*
X155295000Y-119065000D01*
X148045000Y-119515000D02*
X148045000Y-118990000D01*
X148045000Y-112265000D02*
X148045000Y-112790000D01*
X155295000Y-112265000D02*
X155295000Y-112790000D01*
X155295000Y-119515000D02*
X154770000Y-119515000D01*
X155295000Y-112265000D02*
X154770000Y-112265000D01*
X148045000Y-112265000D02*
X148570000Y-112265000D01*
X148045000Y-119515000D02*
X148570000Y-119515000D01*
X155295000Y-119065000D02*
X156670000Y-119065000D01*
D15*
X158560000Y-74840000D02*
X158560000Y-78160000D01*
X158560000Y-78160000D02*
X167680000Y-78160000D01*
X167680000Y-78160000D02*
X167680000Y-74840000D01*
X167680000Y-74840000D02*
X158560000Y-74840000D01*
X156480000Y-76500000D02*
X158560000Y-76500000D01*
X169760000Y-76500000D02*
X167680000Y-76500000D01*
X137560000Y-74840000D02*
X137560000Y-78160000D01*
X137560000Y-78160000D02*
X146680000Y-78160000D01*
X146680000Y-78160000D02*
X146680000Y-74840000D01*
X146680000Y-74840000D02*
X137560000Y-74840000D01*
X135480000Y-76500000D02*
X137560000Y-76500000D01*
X148760000Y-76500000D02*
X146680000Y-76500000D01*
X137820000Y-120540000D02*
X138520000Y-120540000D01*
X138520000Y-121740000D02*
X137820000Y-121740000D01*
X141770000Y-117790000D02*
X141770000Y-118490000D01*
X140570000Y-118490000D02*
X140570000Y-117790000D01*
X137410000Y-116560000D02*
X137410000Y-117490000D01*
X137410000Y-119720000D02*
X137410000Y-118790000D01*
X137410000Y-119720000D02*
X139570000Y-119720000D01*
X137410000Y-116560000D02*
X138870000Y-116560000D01*
X158050000Y-149670000D02*
X158050000Y-154870000D01*
X165730000Y-149670000D02*
X158050000Y-149670000D01*
X168330000Y-154870000D02*
X158050000Y-154870000D01*
X165730000Y-149670000D02*
X165730000Y-152270000D01*
X165730000Y-152270000D02*
X168330000Y-152270000D01*
X168330000Y-152270000D02*
X168330000Y-154870000D01*
X167000000Y-149670000D02*
X168330000Y-149670000D01*
X168330000Y-149670000D02*
X168330000Y-151000000D01*
X174170000Y-138090000D02*
X179370000Y-138090000D01*
X174170000Y-89770000D02*
X174170000Y-138090000D01*
X179370000Y-87170000D02*
X179370000Y-138090000D01*
X174170000Y-89770000D02*
X176770000Y-89770000D01*
X176770000Y-89770000D02*
X176770000Y-87170000D01*
X176770000Y-87170000D02*
X179370000Y-87170000D01*
X174170000Y-88500000D02*
X174170000Y-87170000D01*
X174170000Y-87170000D02*
X175500000Y-87170000D01*
D14*
X97000000Y-144450000D02*
X124200000Y-144450000D01*
X124200000Y-92050000D02*
X97000000Y-92050000D01*
X124200000Y-144450000D02*
X124200000Y-92050000D01*
X97000000Y-92050000D02*
X97000000Y-144450000D01*
X111404762Y-86052381D02*
X111071428Y-85576190D01*
X110833333Y-86052381D02*
X110833333Y-85052381D01*
X111214286Y-85052381D01*
X111309524Y-85100000D01*
X111357143Y-85147619D01*
X111404762Y-85242857D01*
X111404762Y-85385714D01*
X111357143Y-85480952D01*
X111309524Y-85528571D01*
X111214286Y-85576190D01*
X110833333Y-85576190D01*
X111690476Y-85052381D02*
X112023809Y-86052381D01*
X112357143Y-85052381D01*
X113214286Y-86052381D02*
X112642857Y-86052381D01*
X112928571Y-86052381D02*
X112928571Y-85052381D01*
X112833333Y-85195238D01*
X112738095Y-85290476D01*
X112642857Y-85338095D01*
X156572381Y-123151905D02*
X157381905Y-123151905D01*
X157477143Y-123104286D01*
X157524762Y-123056667D01*
X157572381Y-122961429D01*
X157572381Y-122770952D01*
X157524762Y-122675714D01*
X157477143Y-122628095D01*
X157381905Y-122580476D01*
X156572381Y-122580476D01*
X156667619Y-122151905D02*
X156620000Y-122104286D01*
X156572381Y-122009048D01*
X156572381Y-121770952D01*
X156620000Y-121675714D01*
X156667619Y-121628095D01*
X156762857Y-121580476D01*
X156858095Y-121580476D01*
X157000952Y-121628095D01*
X157572381Y-122199524D01*
X157572381Y-121580476D01*
X145261905Y-88952381D02*
X145261905Y-87952381D01*
X145642858Y-87952381D01*
X145738096Y-88000000D01*
X145785715Y-88047619D01*
X145833334Y-88142857D01*
X145833334Y-88285714D01*
X145785715Y-88380952D01*
X145738096Y-88428571D01*
X145642858Y-88476190D01*
X145261905Y-88476190D01*
X146214286Y-88904762D02*
X146357143Y-88952381D01*
X146595239Y-88952381D01*
X146690477Y-88904762D01*
X146738096Y-88857143D01*
X146785715Y-88761905D01*
X146785715Y-88666667D01*
X146738096Y-88571429D01*
X146690477Y-88523810D01*
X146595239Y-88476190D01*
X146404762Y-88428571D01*
X146309524Y-88380952D01*
X146261905Y-88333333D01*
X146214286Y-88238095D01*
X146214286Y-88142857D01*
X146261905Y-88047619D01*
X146309524Y-88000000D01*
X146404762Y-87952381D01*
X146642858Y-87952381D01*
X146785715Y-88000000D01*
X147214286Y-87952381D02*
X147214286Y-88761905D01*
X147261905Y-88857143D01*
X147309524Y-88904762D01*
X147404762Y-88952381D01*
X147595239Y-88952381D01*
X147690477Y-88904762D01*
X147738096Y-88857143D01*
X147785715Y-88761905D01*
X147785715Y-87952381D01*
X148214286Y-88047619D02*
X148261905Y-88000000D01*
X148357143Y-87952381D01*
X148595239Y-87952381D01*
X148690477Y-88000000D01*
X148738096Y-88047619D01*
X148785715Y-88142857D01*
X148785715Y-88238095D01*
X148738096Y-88380952D01*
X148166667Y-88952381D01*
X148785715Y-88952381D01*
X169937143Y-85426666D02*
X169984762Y-85474285D01*
X170032381Y-85617142D01*
X170032381Y-85712380D01*
X169984762Y-85855238D01*
X169889524Y-85950476D01*
X169794286Y-85998095D01*
X169603810Y-86045714D01*
X169460952Y-86045714D01*
X169270476Y-85998095D01*
X169175238Y-85950476D01*
X169080000Y-85855238D01*
X169032381Y-85712380D01*
X169032381Y-85617142D01*
X169080000Y-85474285D01*
X169127619Y-85426666D01*
X170032381Y-84474285D02*
X170032381Y-85045714D01*
X170032381Y-84760000D02*
X169032381Y-84760000D01*
X169175238Y-84855238D01*
X169270476Y-84950476D01*
X169318095Y-85045714D01*
X161913334Y-84367143D02*
X161865715Y-84414762D01*
X161722858Y-84462381D01*
X161627620Y-84462381D01*
X161484762Y-84414762D01*
X161389524Y-84319524D01*
X161341905Y-84224286D01*
X161294286Y-84033810D01*
X161294286Y-83890952D01*
X161341905Y-83700476D01*
X161389524Y-83605238D01*
X161484762Y-83510000D01*
X161627620Y-83462381D01*
X161722858Y-83462381D01*
X161865715Y-83510000D01*
X161913334Y-83557619D01*
X162294286Y-83557619D02*
X162341905Y-83510000D01*
X162437143Y-83462381D01*
X162675239Y-83462381D01*
X162770477Y-83510000D01*
X162818096Y-83557619D01*
X162865715Y-83652857D01*
X162865715Y-83748095D01*
X162818096Y-83890952D01*
X162246667Y-84462381D01*
X162865715Y-84462381D01*
X152787334Y-80051143D02*
X152739715Y-80098762D01*
X152596858Y-80146381D01*
X152501620Y-80146381D01*
X152358762Y-80098762D01*
X152263524Y-80003524D01*
X152215905Y-79908286D01*
X152168286Y-79717810D01*
X152168286Y-79574952D01*
X152215905Y-79384476D01*
X152263524Y-79289238D01*
X152358762Y-79194000D01*
X152501620Y-79146381D01*
X152596858Y-79146381D01*
X152739715Y-79194000D01*
X152787334Y-79241619D01*
X153120667Y-79146381D02*
X153739715Y-79146381D01*
X153406381Y-79527333D01*
X153549239Y-79527333D01*
X153644477Y-79574952D01*
X153692096Y-79622571D01*
X153739715Y-79717810D01*
X153739715Y-79955905D01*
X153692096Y-80051143D01*
X153644477Y-80098762D01*
X153549239Y-80146381D01*
X153263524Y-80146381D01*
X153168286Y-80098762D01*
X153120667Y-80051143D01*
X115583334Y-147607143D02*
X115535715Y-147654762D01*
X115392858Y-147702381D01*
X115297620Y-147702381D01*
X115154762Y-147654762D01*
X115059524Y-147559524D01*
X115011905Y-147464286D01*
X114964286Y-147273810D01*
X114964286Y-147130952D01*
X115011905Y-146940476D01*
X115059524Y-146845238D01*
X115154762Y-146750000D01*
X115297620Y-146702381D01*
X115392858Y-146702381D01*
X115535715Y-146750000D01*
X115583334Y-146797619D01*
X116440477Y-147035714D02*
X116440477Y-147702381D01*
X116202381Y-146654762D02*
X115964286Y-147369048D01*
X116583334Y-147369048D01*
X169437143Y-94426666D02*
X169484762Y-94474285D01*
X169532381Y-94617142D01*
X169532381Y-94712380D01*
X169484762Y-94855238D01*
X169389524Y-94950476D01*
X169294286Y-94998095D01*
X169103810Y-95045714D01*
X168960952Y-95045714D01*
X168770476Y-94998095D01*
X168675238Y-94950476D01*
X168580000Y-94855238D01*
X168532381Y-94712380D01*
X168532381Y-94617142D01*
X168580000Y-94474285D01*
X168627619Y-94426666D01*
X168532381Y-93521904D02*
X168532381Y-93998095D01*
X169008571Y-94045714D01*
X168960952Y-93998095D01*
X168913333Y-93902857D01*
X168913333Y-93664761D01*
X168960952Y-93569523D01*
X169008571Y-93521904D01*
X169103810Y-93474285D01*
X169341905Y-93474285D01*
X169437143Y-93521904D01*
X169484762Y-93569523D01*
X169532381Y-93664761D01*
X169532381Y-93902857D01*
X169484762Y-93998095D01*
X169437143Y-94045714D01*
X151207143Y-96176666D02*
X151254762Y-96224285D01*
X151302381Y-96367142D01*
X151302381Y-96462380D01*
X151254762Y-96605238D01*
X151159524Y-96700476D01*
X151064286Y-96748095D01*
X150873810Y-96795714D01*
X150730952Y-96795714D01*
X150540476Y-96748095D01*
X150445238Y-96700476D01*
X150350000Y-96605238D01*
X150302381Y-96462380D01*
X150302381Y-96367142D01*
X150350000Y-96224285D01*
X150397619Y-96176666D01*
X150302381Y-95319523D02*
X150302381Y-95510000D01*
X150350000Y-95605238D01*
X150397619Y-95652857D01*
X150540476Y-95748095D01*
X150730952Y-95795714D01*
X151111905Y-95795714D01*
X151207143Y-95748095D01*
X151254762Y-95700476D01*
X151302381Y-95605238D01*
X151302381Y-95414761D01*
X151254762Y-95319523D01*
X151207143Y-95271904D01*
X151111905Y-95224285D01*
X150873810Y-95224285D01*
X150778571Y-95271904D01*
X150730952Y-95319523D01*
X150683333Y-95414761D01*
X150683333Y-95605238D01*
X150730952Y-95700476D01*
X150778571Y-95748095D01*
X150873810Y-95795714D01*
X115583334Y-158607143D02*
X115535715Y-158654762D01*
X115392858Y-158702381D01*
X115297620Y-158702381D01*
X115154762Y-158654762D01*
X115059524Y-158559524D01*
X115011905Y-158464286D01*
X114964286Y-158273810D01*
X114964286Y-158130952D01*
X115011905Y-157940476D01*
X115059524Y-157845238D01*
X115154762Y-157750000D01*
X115297620Y-157702381D01*
X115392858Y-157702381D01*
X115535715Y-157750000D01*
X115583334Y-157797619D01*
X115916667Y-157702381D02*
X116583334Y-157702381D01*
X116154762Y-158702381D01*
X163913334Y-98137143D02*
X163865715Y-98184762D01*
X163722858Y-98232381D01*
X163627620Y-98232381D01*
X163484762Y-98184762D01*
X163389524Y-98089524D01*
X163341905Y-97994286D01*
X163294286Y-97803810D01*
X163294286Y-97660952D01*
X163341905Y-97470476D01*
X163389524Y-97375238D01*
X163484762Y-97280000D01*
X163627620Y-97232381D01*
X163722858Y-97232381D01*
X163865715Y-97280000D01*
X163913334Y-97327619D01*
X164484762Y-97660952D02*
X164389524Y-97613333D01*
X164341905Y-97565714D01*
X164294286Y-97470476D01*
X164294286Y-97422857D01*
X164341905Y-97327619D01*
X164389524Y-97280000D01*
X164484762Y-97232381D01*
X164675239Y-97232381D01*
X164770477Y-97280000D01*
X164818096Y-97327619D01*
X164865715Y-97422857D01*
X164865715Y-97470476D01*
X164818096Y-97565714D01*
X164770477Y-97613333D01*
X164675239Y-97660952D01*
X164484762Y-97660952D01*
X164389524Y-97708571D01*
X164341905Y-97756190D01*
X164294286Y-97851429D01*
X164294286Y-98041905D01*
X164341905Y-98137143D01*
X164389524Y-98184762D01*
X164484762Y-98232381D01*
X164675239Y-98232381D01*
X164770477Y-98184762D01*
X164818096Y-98137143D01*
X164865715Y-98041905D01*
X164865715Y-97851429D01*
X164818096Y-97756190D01*
X164770477Y-97708571D01*
X164675239Y-97660952D01*
X155083334Y-96607143D02*
X155035715Y-96654762D01*
X154892858Y-96702381D01*
X154797620Y-96702381D01*
X154654762Y-96654762D01*
X154559524Y-96559524D01*
X154511905Y-96464286D01*
X154464286Y-96273810D01*
X154464286Y-96130952D01*
X154511905Y-95940476D01*
X154559524Y-95845238D01*
X154654762Y-95750000D01*
X154797620Y-95702381D01*
X154892858Y-95702381D01*
X155035715Y-95750000D01*
X155083334Y-95797619D01*
X155559524Y-96702381D02*
X155750000Y-96702381D01*
X155845239Y-96654762D01*
X155892858Y-96607143D01*
X155988096Y-96464286D01*
X156035715Y-96273810D01*
X156035715Y-95892857D01*
X155988096Y-95797619D01*
X155940477Y-95750000D01*
X155845239Y-95702381D01*
X155654762Y-95702381D01*
X155559524Y-95750000D01*
X155511905Y-95797619D01*
X155464286Y-95892857D01*
X155464286Y-96130952D01*
X155511905Y-96226190D01*
X155559524Y-96273810D01*
X155654762Y-96321429D01*
X155845239Y-96321429D01*
X155940477Y-96273810D01*
X155988096Y-96226190D01*
X156035715Y-96130952D01*
X143027143Y-115032857D02*
X143074762Y-115080476D01*
X143122381Y-115223333D01*
X143122381Y-115318571D01*
X143074762Y-115461429D01*
X142979524Y-115556667D01*
X142884286Y-115604286D01*
X142693810Y-115651905D01*
X142550952Y-115651905D01*
X142360476Y-115604286D01*
X142265238Y-115556667D01*
X142170000Y-115461429D01*
X142122381Y-115318571D01*
X142122381Y-115223333D01*
X142170000Y-115080476D01*
X142217619Y-115032857D01*
X143122381Y-114080476D02*
X143122381Y-114651905D01*
X143122381Y-114366191D02*
X142122381Y-114366191D01*
X142265238Y-114461429D01*
X142360476Y-114556667D01*
X142408095Y-114651905D01*
X142217619Y-113699524D02*
X142170000Y-113651905D01*
X142122381Y-113556667D01*
X142122381Y-113318571D01*
X142170000Y-113223333D01*
X142217619Y-113175714D01*
X142312857Y-113128095D01*
X142408095Y-113128095D01*
X142550952Y-113175714D01*
X143122381Y-113747143D01*
X143122381Y-113128095D01*
X145527143Y-114532857D02*
X145574762Y-114580476D01*
X145622381Y-114723333D01*
X145622381Y-114818571D01*
X145574762Y-114961429D01*
X145479524Y-115056667D01*
X145384286Y-115104286D01*
X145193810Y-115151905D01*
X145050952Y-115151905D01*
X144860476Y-115104286D01*
X144765238Y-115056667D01*
X144670000Y-114961429D01*
X144622381Y-114818571D01*
X144622381Y-114723333D01*
X144670000Y-114580476D01*
X144717619Y-114532857D01*
X145622381Y-113580476D02*
X145622381Y-114151905D01*
X145622381Y-113866191D02*
X144622381Y-113866191D01*
X144765238Y-113961429D01*
X144860476Y-114056667D01*
X144908095Y-114151905D01*
X144622381Y-113247143D02*
X144622381Y-112628095D01*
X145003333Y-112961429D01*
X145003333Y-112818571D01*
X145050952Y-112723333D01*
X145098571Y-112675714D01*
X145193810Y-112628095D01*
X145431905Y-112628095D01*
X145527143Y-112675714D01*
X145574762Y-112723333D01*
X145622381Y-112818571D01*
X145622381Y-113104286D01*
X145574762Y-113199524D01*
X145527143Y-113247143D01*
X160027143Y-128247143D02*
X159979524Y-128294762D01*
X159836667Y-128342381D01*
X159741429Y-128342381D01*
X159598571Y-128294762D01*
X159503333Y-128199524D01*
X159455714Y-128104286D01*
X159408095Y-127913810D01*
X159408095Y-127770952D01*
X159455714Y-127580476D01*
X159503333Y-127485238D01*
X159598571Y-127390000D01*
X159741429Y-127342381D01*
X159836667Y-127342381D01*
X159979524Y-127390000D01*
X160027143Y-127437619D01*
X160979524Y-128342381D02*
X160408095Y-128342381D01*
X160693809Y-128342381D02*
X160693809Y-127342381D01*
X160598571Y-127485238D01*
X160503333Y-127580476D01*
X160408095Y-127628095D01*
X161836667Y-127675714D02*
X161836667Y-128342381D01*
X161598571Y-127294762D02*
X161360476Y-128009048D01*
X161979524Y-128009048D01*
X153527143Y-123517143D02*
X153479524Y-123564762D01*
X153336667Y-123612381D01*
X153241429Y-123612381D01*
X153098571Y-123564762D01*
X153003333Y-123469524D01*
X152955714Y-123374286D01*
X152908095Y-123183810D01*
X152908095Y-123040952D01*
X152955714Y-122850476D01*
X153003333Y-122755238D01*
X153098571Y-122660000D01*
X153241429Y-122612381D01*
X153336667Y-122612381D01*
X153479524Y-122660000D01*
X153527143Y-122707619D01*
X154479524Y-123612381D02*
X153908095Y-123612381D01*
X154193809Y-123612381D02*
X154193809Y-122612381D01*
X154098571Y-122755238D01*
X154003333Y-122850476D01*
X153908095Y-122898095D01*
X155384286Y-122612381D02*
X154908095Y-122612381D01*
X154860476Y-123088571D01*
X154908095Y-123040952D01*
X155003333Y-122993333D01*
X155241429Y-122993333D01*
X155336667Y-123040952D01*
X155384286Y-123088571D01*
X155431905Y-123183810D01*
X155431905Y-123421905D01*
X155384286Y-123517143D01*
X155336667Y-123564762D01*
X155241429Y-123612381D01*
X155003333Y-123612381D01*
X154908095Y-123564762D01*
X154860476Y-123517143D01*
X154527143Y-109747143D02*
X154479524Y-109794762D01*
X154336667Y-109842381D01*
X154241429Y-109842381D01*
X154098571Y-109794762D01*
X154003333Y-109699524D01*
X153955714Y-109604286D01*
X153908095Y-109413810D01*
X153908095Y-109270952D01*
X153955714Y-109080476D01*
X154003333Y-108985238D01*
X154098571Y-108890000D01*
X154241429Y-108842381D01*
X154336667Y-108842381D01*
X154479524Y-108890000D01*
X154527143Y-108937619D01*
X155479524Y-109842381D02*
X154908095Y-109842381D01*
X155193809Y-109842381D02*
X155193809Y-108842381D01*
X155098571Y-108985238D01*
X155003333Y-109080476D01*
X154908095Y-109128095D01*
X156336667Y-108842381D02*
X156146190Y-108842381D01*
X156050952Y-108890000D01*
X156003333Y-108937619D01*
X155908095Y-109080476D01*
X155860476Y-109270952D01*
X155860476Y-109651905D01*
X155908095Y-109747143D01*
X155955714Y-109794762D01*
X156050952Y-109842381D01*
X156241429Y-109842381D01*
X156336667Y-109794762D01*
X156384286Y-109747143D01*
X156431905Y-109651905D01*
X156431905Y-109413810D01*
X156384286Y-109318571D01*
X156336667Y-109270952D01*
X156241429Y-109223333D01*
X156050952Y-109223333D01*
X155955714Y-109270952D01*
X155908095Y-109318571D01*
X155860476Y-109413810D01*
X158027143Y-113747143D02*
X157979524Y-113794762D01*
X157836667Y-113842381D01*
X157741429Y-113842381D01*
X157598571Y-113794762D01*
X157503333Y-113699524D01*
X157455714Y-113604286D01*
X157408095Y-113413810D01*
X157408095Y-113270952D01*
X157455714Y-113080476D01*
X157503333Y-112985238D01*
X157598571Y-112890000D01*
X157741429Y-112842381D01*
X157836667Y-112842381D01*
X157979524Y-112890000D01*
X158027143Y-112937619D01*
X158979524Y-113842381D02*
X158408095Y-113842381D01*
X158693809Y-113842381D02*
X158693809Y-112842381D01*
X158598571Y-112985238D01*
X158503333Y-113080476D01*
X158408095Y-113128095D01*
X159312857Y-112842381D02*
X159979524Y-112842381D01*
X159550952Y-113842381D01*
X148027143Y-106247143D02*
X147979524Y-106294762D01*
X147836667Y-106342381D01*
X147741429Y-106342381D01*
X147598571Y-106294762D01*
X147503333Y-106199524D01*
X147455714Y-106104286D01*
X147408095Y-105913810D01*
X147408095Y-105770952D01*
X147455714Y-105580476D01*
X147503333Y-105485238D01*
X147598571Y-105390000D01*
X147741429Y-105342381D01*
X147836667Y-105342381D01*
X147979524Y-105390000D01*
X148027143Y-105437619D01*
X148979524Y-106342381D02*
X148408095Y-106342381D01*
X148693809Y-106342381D02*
X148693809Y-105342381D01*
X148598571Y-105485238D01*
X148503333Y-105580476D01*
X148408095Y-105628095D01*
X149550952Y-105770952D02*
X149455714Y-105723333D01*
X149408095Y-105675714D01*
X149360476Y-105580476D01*
X149360476Y-105532857D01*
X149408095Y-105437619D01*
X149455714Y-105390000D01*
X149550952Y-105342381D01*
X149741429Y-105342381D01*
X149836667Y-105390000D01*
X149884286Y-105437619D01*
X149931905Y-105532857D01*
X149931905Y-105580476D01*
X149884286Y-105675714D01*
X149836667Y-105723333D01*
X149741429Y-105770952D01*
X149550952Y-105770952D01*
X149455714Y-105818571D01*
X149408095Y-105866190D01*
X149360476Y-105961429D01*
X149360476Y-106151905D01*
X149408095Y-106247143D01*
X149455714Y-106294762D01*
X149550952Y-106342381D01*
X149741429Y-106342381D01*
X149836667Y-106294762D01*
X149884286Y-106247143D01*
X149931905Y-106151905D01*
X149931905Y-105961429D01*
X149884286Y-105866190D01*
X149836667Y-105818571D01*
X149741429Y-105770952D01*
X148027143Y-107747143D02*
X147979524Y-107794762D01*
X147836667Y-107842381D01*
X147741429Y-107842381D01*
X147598571Y-107794762D01*
X147503333Y-107699524D01*
X147455714Y-107604286D01*
X147408095Y-107413810D01*
X147408095Y-107270952D01*
X147455714Y-107080476D01*
X147503333Y-106985238D01*
X147598571Y-106890000D01*
X147741429Y-106842381D01*
X147836667Y-106842381D01*
X147979524Y-106890000D01*
X148027143Y-106937619D01*
X148979524Y-107842381D02*
X148408095Y-107842381D01*
X148693809Y-107842381D02*
X148693809Y-106842381D01*
X148598571Y-106985238D01*
X148503333Y-107080476D01*
X148408095Y-107128095D01*
X149455714Y-107842381D02*
X149646190Y-107842381D01*
X149741429Y-107794762D01*
X149789048Y-107747143D01*
X149884286Y-107604286D01*
X149931905Y-107413810D01*
X149931905Y-107032857D01*
X149884286Y-106937619D01*
X149836667Y-106890000D01*
X149741429Y-106842381D01*
X149550952Y-106842381D01*
X149455714Y-106890000D01*
X149408095Y-106937619D01*
X149360476Y-107032857D01*
X149360476Y-107270952D01*
X149408095Y-107366190D01*
X149455714Y-107413810D01*
X149550952Y-107461429D01*
X149741429Y-107461429D01*
X149836667Y-107413810D01*
X149884286Y-107366190D01*
X149931905Y-107270952D01*
X158027143Y-117747143D02*
X157979524Y-117794762D01*
X157836667Y-117842381D01*
X157741429Y-117842381D01*
X157598571Y-117794762D01*
X157503333Y-117699524D01*
X157455714Y-117604286D01*
X157408095Y-117413810D01*
X157408095Y-117270952D01*
X157455714Y-117080476D01*
X157503333Y-116985238D01*
X157598571Y-116890000D01*
X157741429Y-116842381D01*
X157836667Y-116842381D01*
X157979524Y-116890000D01*
X158027143Y-116937619D01*
X158408095Y-116937619D02*
X158455714Y-116890000D01*
X158550952Y-116842381D01*
X158789048Y-116842381D01*
X158884286Y-116890000D01*
X158931905Y-116937619D01*
X158979524Y-117032857D01*
X158979524Y-117128095D01*
X158931905Y-117270952D01*
X158360476Y-117842381D01*
X158979524Y-117842381D01*
X159598571Y-116842381D02*
X159693810Y-116842381D01*
X159789048Y-116890000D01*
X159836667Y-116937619D01*
X159884286Y-117032857D01*
X159931905Y-117223333D01*
X159931905Y-117461429D01*
X159884286Y-117651905D01*
X159836667Y-117747143D01*
X159789048Y-117794762D01*
X159693810Y-117842381D01*
X159598571Y-117842381D01*
X159503333Y-117794762D01*
X159455714Y-117747143D01*
X159408095Y-117651905D01*
X159360476Y-117461429D01*
X159360476Y-117223333D01*
X159408095Y-117032857D01*
X159455714Y-116937619D01*
X159503333Y-116890000D01*
X159598571Y-116842381D01*
X142302381Y-152838095D02*
X141302381Y-152838095D01*
X141302381Y-152600000D01*
X141350000Y-152457142D01*
X141445238Y-152361904D01*
X141540476Y-152314285D01*
X141730952Y-152266666D01*
X141873810Y-152266666D01*
X142064286Y-152314285D01*
X142159524Y-152361904D01*
X142254762Y-152457142D01*
X142302381Y-152600000D01*
X142302381Y-152838095D01*
X142302381Y-151314285D02*
X142302381Y-151885714D01*
X142302381Y-151600000D02*
X141302381Y-151600000D01*
X141445238Y-151695238D01*
X141540476Y-151790476D01*
X141588095Y-151885714D01*
X148302381Y-152738095D02*
X147302381Y-152738095D01*
X147302381Y-152500000D01*
X147350000Y-152357142D01*
X147445238Y-152261904D01*
X147540476Y-152214285D01*
X147730952Y-152166666D01*
X147873810Y-152166666D01*
X148064286Y-152214285D01*
X148159524Y-152261904D01*
X148254762Y-152357142D01*
X148302381Y-152500000D01*
X148302381Y-152738095D01*
X147397619Y-151785714D02*
X147350000Y-151738095D01*
X147302381Y-151642857D01*
X147302381Y-151404761D01*
X147350000Y-151309523D01*
X147397619Y-151261904D01*
X147492857Y-151214285D01*
X147588095Y-151214285D01*
X147730952Y-151261904D01*
X148302381Y-151833333D01*
X148302381Y-151214285D01*
X145302381Y-152738095D02*
X144302381Y-152738095D01*
X144302381Y-152500000D01*
X144350000Y-152357142D01*
X144445238Y-152261904D01*
X144540476Y-152214285D01*
X144730952Y-152166666D01*
X144873810Y-152166666D01*
X145064286Y-152214285D01*
X145159524Y-152261904D01*
X145254762Y-152357142D01*
X145302381Y-152500000D01*
X145302381Y-152738095D01*
X144302381Y-151833333D02*
X144302381Y-151214285D01*
X144683333Y-151547619D01*
X144683333Y-151404761D01*
X144730952Y-151309523D01*
X144778571Y-151261904D01*
X144873810Y-151214285D01*
X145111905Y-151214285D01*
X145207143Y-151261904D01*
X145254762Y-151309523D01*
X145302381Y-151404761D01*
X145302381Y-151690476D01*
X145254762Y-151785714D01*
X145207143Y-151833333D01*
X137128571Y-82283333D02*
X137128571Y-82616667D01*
X137652381Y-82616667D02*
X136652381Y-82616667D01*
X136652381Y-82140476D01*
X137652381Y-81235714D02*
X137652381Y-81807143D01*
X137652381Y-81521429D02*
X136652381Y-81521429D01*
X136795238Y-81616667D01*
X136890476Y-81711905D01*
X136938095Y-81807143D01*
X128416667Y-84618571D02*
X128083333Y-84618571D01*
X128083333Y-85142381D02*
X128083333Y-84142381D01*
X128559524Y-84142381D01*
X128892857Y-84237619D02*
X128940476Y-84190000D01*
X129035714Y-84142381D01*
X129273810Y-84142381D01*
X129369048Y-84190000D01*
X129416667Y-84237619D01*
X129464286Y-84332857D01*
X129464286Y-84428095D01*
X129416667Y-84570952D01*
X128845238Y-85142381D01*
X129464286Y-85142381D01*
X124374381Y-80169333D02*
X125088667Y-80169333D01*
X125231524Y-80216953D01*
X125326762Y-80312191D01*
X125374381Y-80455048D01*
X125374381Y-80550286D01*
X125374381Y-79169333D02*
X125374381Y-79740762D01*
X125374381Y-79455048D02*
X124374381Y-79455048D01*
X124517238Y-79550286D01*
X124612476Y-79645524D01*
X124660095Y-79740762D01*
X112068381Y-80123333D02*
X112782667Y-80123333D01*
X112925524Y-80170953D01*
X113020762Y-80266191D01*
X113068381Y-80409048D01*
X113068381Y-80504286D01*
X112163619Y-79694762D02*
X112116000Y-79647143D01*
X112068381Y-79551905D01*
X112068381Y-79313809D01*
X112116000Y-79218571D01*
X112163619Y-79170952D01*
X112258857Y-79123333D01*
X112354095Y-79123333D01*
X112496952Y-79170952D01*
X113068381Y-79742381D01*
X113068381Y-79123333D01*
X133782381Y-155333333D02*
X134496667Y-155333333D01*
X134639524Y-155380953D01*
X134734762Y-155476191D01*
X134782381Y-155619048D01*
X134782381Y-155714286D01*
X133782381Y-154380952D02*
X133782381Y-154857143D01*
X134258571Y-154904762D01*
X134210952Y-154857143D01*
X134163333Y-154761905D01*
X134163333Y-154523809D01*
X134210952Y-154428571D01*
X134258571Y-154380952D01*
X134353810Y-154333333D01*
X134591905Y-154333333D01*
X134687143Y-154380952D01*
X134734762Y-154428571D01*
X134782381Y-154523809D01*
X134782381Y-154761905D01*
X134734762Y-154857143D01*
X134687143Y-154904762D01*
X118952381Y-152666666D02*
X118952381Y-153142857D01*
X117952381Y-153142857D01*
X118952381Y-151809523D02*
X118952381Y-152380952D01*
X118952381Y-152095238D02*
X117952381Y-152095238D01*
X118095238Y-152190476D01*
X118190476Y-152285714D01*
X118238095Y-152380952D01*
X165113334Y-80662381D02*
X164780000Y-80186190D01*
X164541905Y-80662381D02*
X164541905Y-79662381D01*
X164922858Y-79662381D01*
X165018096Y-79710000D01*
X165065715Y-79757619D01*
X165113334Y-79852857D01*
X165113334Y-79995714D01*
X165065715Y-80090952D01*
X165018096Y-80138571D01*
X164922858Y-80186190D01*
X164541905Y-80186190D01*
X165446667Y-79662381D02*
X166065715Y-79662381D01*
X165732381Y-80043333D01*
X165875239Y-80043333D01*
X165970477Y-80090952D01*
X166018096Y-80138571D01*
X166065715Y-80233810D01*
X166065715Y-80471905D01*
X166018096Y-80567143D01*
X165970477Y-80614762D01*
X165875239Y-80662381D01*
X165589524Y-80662381D01*
X165494286Y-80614762D01*
X165446667Y-80567143D01*
X161633334Y-82952381D02*
X161300000Y-82476190D01*
X161061905Y-82952381D02*
X161061905Y-81952381D01*
X161442858Y-81952381D01*
X161538096Y-82000000D01*
X161585715Y-82047619D01*
X161633334Y-82142857D01*
X161633334Y-82285714D01*
X161585715Y-82380952D01*
X161538096Y-82428571D01*
X161442858Y-82476190D01*
X161061905Y-82476190D01*
X162490477Y-82285714D02*
X162490477Y-82952381D01*
X162252381Y-81904762D02*
X162014286Y-82619048D01*
X162633334Y-82619048D01*
X147787334Y-83746381D02*
X147454000Y-83270190D01*
X147215905Y-83746381D02*
X147215905Y-82746381D01*
X147596858Y-82746381D01*
X147692096Y-82794000D01*
X147739715Y-82841619D01*
X147787334Y-82936857D01*
X147787334Y-83079714D01*
X147739715Y-83174952D01*
X147692096Y-83222571D01*
X147596858Y-83270190D01*
X147215905Y-83270190D01*
X148692096Y-82746381D02*
X148215905Y-82746381D01*
X148168286Y-83222571D01*
X148215905Y-83174952D01*
X148311143Y-83127333D01*
X148549239Y-83127333D01*
X148644477Y-83174952D01*
X148692096Y-83222571D01*
X148739715Y-83317810D01*
X148739715Y-83555905D01*
X148692096Y-83651143D01*
X148644477Y-83698762D01*
X148549239Y-83746381D01*
X148311143Y-83746381D01*
X148215905Y-83698762D01*
X148168286Y-83651143D01*
X144787334Y-83746381D02*
X144454000Y-83270190D01*
X144215905Y-83746381D02*
X144215905Y-82746381D01*
X144596858Y-82746381D01*
X144692096Y-82794000D01*
X144739715Y-82841619D01*
X144787334Y-82936857D01*
X144787334Y-83079714D01*
X144739715Y-83174952D01*
X144692096Y-83222571D01*
X144596858Y-83270190D01*
X144215905Y-83270190D01*
X145644477Y-82746381D02*
X145454000Y-82746381D01*
X145358762Y-82794000D01*
X145311143Y-82841619D01*
X145215905Y-82984476D01*
X145168286Y-83174952D01*
X145168286Y-83555905D01*
X145215905Y-83651143D01*
X145263524Y-83698762D01*
X145358762Y-83746381D01*
X145549239Y-83746381D01*
X145644477Y-83698762D01*
X145692096Y-83651143D01*
X145739715Y-83555905D01*
X145739715Y-83317810D01*
X145692096Y-83222571D01*
X145644477Y-83174952D01*
X145549239Y-83127333D01*
X145358762Y-83127333D01*
X145263524Y-83174952D01*
X145215905Y-83222571D01*
X145168286Y-83317810D01*
X146083334Y-97452381D02*
X145750000Y-96976190D01*
X145511905Y-97452381D02*
X145511905Y-96452381D01*
X145892858Y-96452381D01*
X145988096Y-96500000D01*
X146035715Y-96547619D01*
X146083334Y-96642857D01*
X146083334Y-96785714D01*
X146035715Y-96880952D01*
X145988096Y-96928571D01*
X145892858Y-96976190D01*
X145511905Y-96976190D01*
X146416667Y-96452381D02*
X147083334Y-96452381D01*
X146654762Y-97452381D01*
X163682381Y-95176666D02*
X163206190Y-95510000D01*
X163682381Y-95748095D02*
X162682381Y-95748095D01*
X162682381Y-95367142D01*
X162730000Y-95271904D01*
X162777619Y-95224285D01*
X162872857Y-95176666D01*
X163015714Y-95176666D01*
X163110952Y-95224285D01*
X163158571Y-95271904D01*
X163206190Y-95367142D01*
X163206190Y-95748095D01*
X163110952Y-94605238D02*
X163063333Y-94700476D01*
X163015714Y-94748095D01*
X162920476Y-94795714D01*
X162872857Y-94795714D01*
X162777619Y-94748095D01*
X162730000Y-94700476D01*
X162682381Y-94605238D01*
X162682381Y-94414761D01*
X162730000Y-94319523D01*
X162777619Y-94271904D01*
X162872857Y-94224285D01*
X162920476Y-94224285D01*
X163015714Y-94271904D01*
X163063333Y-94319523D01*
X163110952Y-94414761D01*
X163110952Y-94605238D01*
X163158571Y-94700476D01*
X163206190Y-94748095D01*
X163301429Y-94795714D01*
X163491905Y-94795714D01*
X163587143Y-94748095D01*
X163634762Y-94700476D01*
X163682381Y-94605238D01*
X163682381Y-94414761D01*
X163634762Y-94319523D01*
X163587143Y-94271904D01*
X163491905Y-94224285D01*
X163301429Y-94224285D01*
X163206190Y-94271904D01*
X163158571Y-94319523D01*
X163110952Y-94414761D01*
X162432381Y-95176666D02*
X161956190Y-95510000D01*
X162432381Y-95748095D02*
X161432381Y-95748095D01*
X161432381Y-95367142D01*
X161480000Y-95271904D01*
X161527619Y-95224285D01*
X161622857Y-95176666D01*
X161765714Y-95176666D01*
X161860952Y-95224285D01*
X161908571Y-95271904D01*
X161956190Y-95367142D01*
X161956190Y-95748095D01*
X162432381Y-94700476D02*
X162432381Y-94510000D01*
X162384762Y-94414761D01*
X162337143Y-94367142D01*
X162194286Y-94271904D01*
X162003810Y-94224285D01*
X161622857Y-94224285D01*
X161527619Y-94271904D01*
X161480000Y-94319523D01*
X161432381Y-94414761D01*
X161432381Y-94605238D01*
X161480000Y-94700476D01*
X161527619Y-94748095D01*
X161622857Y-94795714D01*
X161860952Y-94795714D01*
X161956190Y-94748095D01*
X162003810Y-94700476D01*
X162051429Y-94605238D01*
X162051429Y-94414761D01*
X162003810Y-94319523D01*
X161956190Y-94271904D01*
X161860952Y-94224285D01*
X142402381Y-148642857D02*
X141926190Y-148976191D01*
X142402381Y-149214286D02*
X141402381Y-149214286D01*
X141402381Y-148833333D01*
X141450000Y-148738095D01*
X141497619Y-148690476D01*
X141592857Y-148642857D01*
X141735714Y-148642857D01*
X141830952Y-148690476D01*
X141878571Y-148738095D01*
X141926190Y-148833333D01*
X141926190Y-149214286D01*
X142402381Y-147690476D02*
X142402381Y-148261905D01*
X142402381Y-147976191D02*
X141402381Y-147976191D01*
X141545238Y-148071429D01*
X141640476Y-148166667D01*
X141688095Y-148261905D01*
X142402381Y-146738095D02*
X142402381Y-147309524D01*
X142402381Y-147023810D02*
X141402381Y-147023810D01*
X141545238Y-147119048D01*
X141640476Y-147214286D01*
X141688095Y-147309524D01*
X148402381Y-148642857D02*
X147926190Y-148976191D01*
X148402381Y-149214286D02*
X147402381Y-149214286D01*
X147402381Y-148833333D01*
X147450000Y-148738095D01*
X147497619Y-148690476D01*
X147592857Y-148642857D01*
X147735714Y-148642857D01*
X147830952Y-148690476D01*
X147878571Y-148738095D01*
X147926190Y-148833333D01*
X147926190Y-149214286D01*
X148402381Y-147690476D02*
X148402381Y-148261905D01*
X148402381Y-147976191D02*
X147402381Y-147976191D01*
X147545238Y-148071429D01*
X147640476Y-148166667D01*
X147688095Y-148261905D01*
X147497619Y-147309524D02*
X147450000Y-147261905D01*
X147402381Y-147166667D01*
X147402381Y-146928571D01*
X147450000Y-146833333D01*
X147497619Y-146785714D01*
X147592857Y-146738095D01*
X147688095Y-146738095D01*
X147830952Y-146785714D01*
X148402381Y-147357143D01*
X148402381Y-146738095D01*
X145402381Y-148642857D02*
X144926190Y-148976191D01*
X145402381Y-149214286D02*
X144402381Y-149214286D01*
X144402381Y-148833333D01*
X144450000Y-148738095D01*
X144497619Y-148690476D01*
X144592857Y-148642857D01*
X144735714Y-148642857D01*
X144830952Y-148690476D01*
X144878571Y-148738095D01*
X144926190Y-148833333D01*
X144926190Y-149214286D01*
X145402381Y-147690476D02*
X145402381Y-148261905D01*
X145402381Y-147976191D02*
X144402381Y-147976191D01*
X144545238Y-148071429D01*
X144640476Y-148166667D01*
X144688095Y-148261905D01*
X144402381Y-147357143D02*
X144402381Y-146738095D01*
X144783333Y-147071429D01*
X144783333Y-146928571D01*
X144830952Y-146833333D01*
X144878571Y-146785714D01*
X144973810Y-146738095D01*
X145211905Y-146738095D01*
X145307143Y-146785714D01*
X145354762Y-146833333D01*
X145402381Y-146928571D01*
X145402381Y-147214286D01*
X145354762Y-147309524D01*
X145307143Y-147357143D01*
X163238095Y-87952381D02*
X163238095Y-88761905D01*
X163285714Y-88857143D01*
X163333333Y-88904762D01*
X163428571Y-88952381D01*
X163619048Y-88952381D01*
X163714286Y-88904762D01*
X163761905Y-88857143D01*
X163809524Y-88761905D01*
X163809524Y-87952381D01*
X164809524Y-88952381D02*
X164238095Y-88952381D01*
X164523809Y-88952381D02*
X164523809Y-87952381D01*
X164428571Y-88095238D01*
X164333333Y-88190476D01*
X164238095Y-88238095D01*
X143408095Y-104342381D02*
X143408095Y-105151905D01*
X143455714Y-105247143D01*
X143503333Y-105294762D01*
X143598571Y-105342381D01*
X143789048Y-105342381D01*
X143884286Y-105294762D01*
X143931905Y-105247143D01*
X143979524Y-105151905D01*
X143979524Y-104342381D01*
X144360476Y-104342381D02*
X144979524Y-104342381D01*
X144646190Y-104723333D01*
X144789048Y-104723333D01*
X144884286Y-104770952D01*
X144931905Y-104818571D01*
X144979524Y-104913810D01*
X144979524Y-105151905D01*
X144931905Y-105247143D01*
X144884286Y-105294762D01*
X144789048Y-105342381D01*
X144503333Y-105342381D01*
X144408095Y-105294762D01*
X144360476Y-105247143D01*
X150908095Y-121342381D02*
X150908095Y-122151905D01*
X150955714Y-122247143D01*
X151003333Y-122294762D01*
X151098571Y-122342381D01*
X151289048Y-122342381D01*
X151384286Y-122294762D01*
X151431905Y-122247143D01*
X151479524Y-122151905D01*
X151479524Y-121342381D01*
X152431905Y-121342381D02*
X151955714Y-121342381D01*
X151908095Y-121818571D01*
X151955714Y-121770952D01*
X152050952Y-121723333D01*
X152289048Y-121723333D01*
X152384286Y-121770952D01*
X152431905Y-121818571D01*
X152479524Y-121913810D01*
X152479524Y-122151905D01*
X152431905Y-122247143D01*
X152384286Y-122294762D01*
X152289048Y-122342381D01*
X152050952Y-122342381D01*
X151955714Y-122294762D01*
X151908095Y-122247143D01*
X162953334Y-74292381D02*
X162620000Y-73816190D01*
X162381905Y-74292381D02*
X162381905Y-73292381D01*
X162762858Y-73292381D01*
X162858096Y-73340000D01*
X162905715Y-73387619D01*
X162953334Y-73482857D01*
X162953334Y-73625714D01*
X162905715Y-73720952D01*
X162858096Y-73768571D01*
X162762858Y-73816190D01*
X162381905Y-73816190D01*
X163334286Y-73387619D02*
X163381905Y-73340000D01*
X163477143Y-73292381D01*
X163715239Y-73292381D01*
X163810477Y-73340000D01*
X163858096Y-73387619D01*
X163905715Y-73482857D01*
X163905715Y-73578095D01*
X163858096Y-73720952D01*
X163286667Y-74292381D01*
X163905715Y-74292381D01*
X141953334Y-74292381D02*
X141620000Y-73816190D01*
X141381905Y-74292381D02*
X141381905Y-73292381D01*
X141762858Y-73292381D01*
X141858096Y-73340000D01*
X141905715Y-73387619D01*
X141953334Y-73482857D01*
X141953334Y-73625714D01*
X141905715Y-73720952D01*
X141858096Y-73768571D01*
X141762858Y-73816190D01*
X141381905Y-73816190D01*
X142905715Y-74292381D02*
X142334286Y-74292381D01*
X142620000Y-74292381D02*
X142620000Y-73292381D01*
X142524762Y-73435238D01*
X142429524Y-73530476D01*
X142334286Y-73578095D01*
X137527143Y-120247143D02*
X137479524Y-120294762D01*
X137336667Y-120342381D01*
X137241429Y-120342381D01*
X137098571Y-120294762D01*
X137003333Y-120199524D01*
X136955714Y-120104286D01*
X136908095Y-119913810D01*
X136908095Y-119770952D01*
X136955714Y-119580476D01*
X137003333Y-119485238D01*
X137098571Y-119390000D01*
X137241429Y-119342381D01*
X137336667Y-119342381D01*
X137479524Y-119390000D01*
X137527143Y-119437619D01*
X138479524Y-120342381D02*
X137908095Y-120342381D01*
X138193809Y-120342381D02*
X138193809Y-119342381D01*
X138098571Y-119485238D01*
X138003333Y-119580476D01*
X137908095Y-119628095D01*
X139098571Y-119342381D02*
X139193810Y-119342381D01*
X139289048Y-119390000D01*
X139336667Y-119437619D01*
X139384286Y-119532857D01*
X139431905Y-119723333D01*
X139431905Y-119961429D01*
X139384286Y-120151905D01*
X139336667Y-120247143D01*
X139289048Y-120294762D01*
X139193810Y-120342381D01*
X139098571Y-120342381D01*
X139003333Y-120294762D01*
X138955714Y-120247143D01*
X138908095Y-120151905D01*
X138860476Y-119961429D01*
X138860476Y-119723333D01*
X138908095Y-119532857D01*
X138955714Y-119437619D01*
X139003333Y-119390000D01*
X139098571Y-119342381D01*
X142777143Y-118782857D02*
X142824762Y-118830476D01*
X142872381Y-118973333D01*
X142872381Y-119068571D01*
X142824762Y-119211429D01*
X142729524Y-119306667D01*
X142634286Y-119354286D01*
X142443810Y-119401905D01*
X142300952Y-119401905D01*
X142110476Y-119354286D01*
X142015238Y-119306667D01*
X141920000Y-119211429D01*
X141872381Y-119068571D01*
X141872381Y-118973333D01*
X141920000Y-118830476D01*
X141967619Y-118782857D01*
X142872381Y-117830476D02*
X142872381Y-118401905D01*
X142872381Y-118116191D02*
X141872381Y-118116191D01*
X142015238Y-118211429D01*
X142110476Y-118306667D01*
X142158095Y-118401905D01*
X142872381Y-116878095D02*
X142872381Y-117449524D01*
X142872381Y-117163810D02*
X141872381Y-117163810D01*
X142015238Y-117259048D01*
X142110476Y-117354286D01*
X142158095Y-117449524D01*
X137050953Y-121092381D02*
X136717619Y-120616190D01*
X136479524Y-121092381D02*
X136479524Y-120092381D01*
X136860477Y-120092381D01*
X136955715Y-120140000D01*
X137003334Y-120187619D01*
X137050953Y-120282857D01*
X137050953Y-120425714D01*
X137003334Y-120520952D01*
X136955715Y-120568571D01*
X136860477Y-120616190D01*
X136479524Y-120616190D01*
X137479524Y-120568571D02*
X137812858Y-120568571D01*
X137955715Y-121092381D02*
X137479524Y-121092381D01*
X137479524Y-120092381D01*
X137955715Y-120092381D01*
X138908096Y-120140000D02*
X138812858Y-120092381D01*
X138670001Y-120092381D01*
X138527143Y-120140000D01*
X138431905Y-120235238D01*
X138384286Y-120330476D01*
X138336667Y-120520952D01*
X138336667Y-120663810D01*
X138384286Y-120854286D01*
X138431905Y-120949524D01*
X138527143Y-121044762D01*
X138670001Y-121092381D01*
X138765239Y-121092381D01*
X138908096Y-121044762D01*
X138955715Y-120997143D01*
X138955715Y-120663810D01*
X138765239Y-120663810D01*
X139908096Y-121092381D02*
X139336667Y-121092381D01*
X139622381Y-121092381D02*
X139622381Y-120092381D01*
X139527143Y-120235238D01*
X139431905Y-120330476D01*
X139336667Y-120378095D01*
X168782381Y-152603333D02*
X169496667Y-152603333D01*
X169639524Y-152650953D01*
X169734762Y-152746191D01*
X169782381Y-152889048D01*
X169782381Y-152984286D01*
X169115714Y-151698571D02*
X169782381Y-151698571D01*
X168734762Y-151936667D02*
X169449048Y-152174762D01*
X169449048Y-151555714D01*
X176436667Y-85622381D02*
X176436667Y-86336667D01*
X176389047Y-86479524D01*
X176293809Y-86574762D01*
X176150952Y-86622381D01*
X176055714Y-86622381D01*
X176817619Y-85622381D02*
X177436667Y-85622381D01*
X177103333Y-86003333D01*
X177246191Y-86003333D01*
X177341429Y-86050952D01*
X177389048Y-86098571D01*
X177436667Y-86193810D01*
X177436667Y-86431905D01*
X177389048Y-86527143D01*
X177341429Y-86574762D01*
X177246191Y-86622381D01*
X176960476Y-86622381D01*
X176865238Y-86574762D01*
X176817619Y-86527143D01*
X92252381Y-105188095D02*
X91252381Y-105188095D01*
X91252381Y-104807142D01*
X91300000Y-104711904D01*
X91347619Y-104664285D01*
X91442857Y-104616666D01*
X91585714Y-104616666D01*
X91680952Y-104664285D01*
X91728571Y-104711904D01*
X91776190Y-104807142D01*
X91776190Y-105188095D01*
X92204762Y-104235714D02*
X92252381Y-104092857D01*
X92252381Y-103854761D01*
X92204762Y-103759523D01*
X92157143Y-103711904D01*
X92061905Y-103664285D01*
X91966667Y-103664285D01*
X91871429Y-103711904D01*
X91823810Y-103759523D01*
X91776190Y-103854761D01*
X91728571Y-104045238D01*
X91680952Y-104140476D01*
X91633333Y-104188095D01*
X91538095Y-104235714D01*
X91442857Y-104235714D01*
X91347619Y-104188095D01*
X91300000Y-104140476D01*
X91252381Y-104045238D01*
X91252381Y-103807142D01*
X91300000Y-103664285D01*
X91252381Y-103235714D02*
X92061905Y-103235714D01*
X92157143Y-103188095D01*
X92204762Y-103140476D01*
X92252381Y-103045238D01*
X92252381Y-102854761D01*
X92204762Y-102759523D01*
X92157143Y-102711904D01*
X92061905Y-102664285D01*
X91252381Y-102664285D01*
X92252381Y-101664285D02*
X92252381Y-102235714D01*
X92252381Y-101950000D02*
X91252381Y-101950000D01*
X91395238Y-102045238D01*
X91490476Y-102140476D01*
X91538095Y-102235714D01*
M02*
